<?xml version="1.0" encoding="iso-8859-1"?>
<!-- Generator: Adobe Illustrator 19.0.0, SVG Export Plug-In . SVG Version: 6.00 Build 0)  -->
<svg version="1.1" id="Layer_1" xmlns="http://www.w3.org/2000/svg" xmlns:xlink="http://www.w3.org/1999/xlink" x="0px" y="0px"
	 viewBox="0 0 512.002 512.002" style="enable-background:new 0 0 512.002 512.002;" xml:space="preserve">
<g>
	<g>
		<path d="M336.811,115.661c-0.613-4.285-4.584-7.253-8.867-6.649l-12.754,1.823l-95.337,0.366l-36.14,0.137
			c-0.007,0-0.015,0.002-0.022,0.002l-66.311,0.254c-0.076,0-0.152,0.002-0.227,0.004c-22.172,0.728-42.738,11.196-56.424,28.715
			c-8.14,10.406-13.246,22.456-15.075,35.321c-12.089,6.901-19.69,19.753-19.69,33.956v23.988C11.28,235.851,0,248.595,0,263.93
			v27.91c0,6.047,4.917,10.966,10.96,10.966c16.914,0,30.674-13.779,30.674-30.716v-21.37c0-0.033,0.005-0.067,0.005-0.101v-41.032
			c0-4.341,1.191-8.466,3.306-12.022l0.576,104.326c-0.109,0.109-0.213,0.219-0.315,0.334l-10.626,11.985
			c-3.11,2.191-5.033,5.813-5.033,9.695v19.343c0,4.329,3.509,7.837,7.837,7.837c4.328,0,7.837-3.508,7.837-7.837v-17.434
			c0.109-0.109,0.214-0.221,0.316-0.335l10.629-11.987c3.113-2.197,5.04-5.823,5.04-9.734l-0.316-57.231
			c29.749-0.541,53.788-24.935,53.788-54.864c0-22.182-13.585-41.905-33.21-50.416c10.042-8.53,22.689-13.516,36.092-13.979
			l57.093-0.218c-0.122,1.613-0.207,3.233-0.207,4.857c0,35.047,28.47,63.559,63.465,63.559c34.989,0,63.456-28.512,63.456-63.559
			c0-1.785-0.101-3.566-0.251-5.343l14.679-0.056c0.361-0.001,0.72-0.027,1.077-0.078l13.291-1.9
			C334.448,123.915,337.424,119.945,336.811,115.661z M25.96,272.091c0,6.643-4.318,12.295-10.287,14.282V263.93
			c0-6.645,4.318-12.297,10.287-14.284V272.091z M99.004,191.661c0,21.317-17.052,38.716-38.2,39.207l-0.245-44.149
			c-0.004-0.795,0.009-1.587,0.036-2.377c0.008-0.261,0.026-0.521,0.038-0.783c0.024-0.528,0.05-1.055,0.089-1.58
			c0.022-0.307,0.051-0.613,0.078-0.919c0.042-0.478,0.087-0.954,0.14-1.429c0.036-0.321,0.076-0.641,0.117-0.96
			c0.06-0.46,0.123-0.919,0.192-1.377c0.049-0.319,0.098-0.637,0.153-0.956c0.078-0.462,0.164-0.923,0.253-1.382
			c0.06-0.305,0.117-0.611,0.181-0.915c0.102-0.485,0.214-0.967,0.328-1.447c0.065-0.273,0.125-0.548,0.193-0.819
			c0.15-0.595,0.312-1.185,0.482-1.773c0.044-0.153,0.081-0.307,0.126-0.46c0.218-0.74,0.452-1.475,0.7-2.206
			c0.068-0.2,0.143-0.396,0.213-0.596c0.186-0.53,0.375-1.059,0.577-1.583c0.101-0.263,0.21-0.525,0.316-0.787
			c0.183-0.457,0.369-0.912,0.563-1.364c0.12-0.28,0.246-0.558,0.371-0.836c0.194-0.433,0.393-0.863,0.598-1.29
			c0.134-0.279,0.27-0.557,0.409-0.834c0.213-0.427,0.434-0.853,0.658-1.276c0.141-0.265,0.282-0.532,0.427-0.796
			c0.242-0.441,0.495-0.879,0.749-1.314c0.139-0.238,0.275-0.478,0.417-0.714c0.305-0.505,0.621-1.004,0.941-1.503
			c0.103-0.16,0.202-0.323,0.306-0.482c0.023-0.034,0.047-0.067,0.07-0.101C86.941,158.476,99.004,173.978,99.004,191.661z
			 M237.912,179.79c-26.352,0-47.792-21.482-47.792-47.886c0-1.648,0.084-3.289,0.25-4.918l31.342-0.12l63.694-0.24
			c0.192,1.751,0.288,3.514,0.288,5.279C285.694,158.309,264.258,179.79,237.912,179.79z"/>
	</g>
</g>
<g>
	<g>
		<path d="M397.839,241.925c-3.743-2.179-8.538-0.911-10.716,2.829c-8.245,14.159-12.828,17.766-14.416,18.66
			c-16.241,9.142-25.063,33.807-26.972,75.404c-0.991,21.574,0.241,41.627,0.983,50.937l-11.777,3.038l-1.305-88.298
			c-0.008-0.572-0.079-1.141-0.211-1.697c-1.029-4.329-4.374-7.628-8.537-8.704c-1.135-4.326-2.774-8.515-4.925-12.508
			c-6.501-12.071-17.385-21.95-30.648-27.818c-9.062-4.007-18.802-6.039-28.947-6.039c-15.026,0-29.192,4.461-40.968,12.897
			c-0.003,0.002-0.005,0.004-0.008,0.006c-10.316,7.393-17.971,17.41-22.046,28.661l-55.025-1.949
			c-3.119-0.078-6.204,1.07-8.453,3.198L82.26,338.559H66.351c-6.529,0-11.839,5.311-11.839,11.839v44.222l-9.289,1.386v-13.834
			c0-4.328-3.509-7.837-7.837-7.837c-4.328,0-7.837,3.508-7.837,7.837v22.802c-0.001,0.042-0.005,0.081-0.005,0.123v21.388
			c0,1.275,0.208,2.5,0.581,3.652c0.347,1.083,0.846,2.114,1.523,3.104c0.406,0.58,0.866,1.128,1.365,1.627
			c2.235,2.236,5.202,3.467,8.354,3.467H74.23c0.447,0,0.89-0.029,1.329-0.079c0.063-0.006,0.123-0.021,0.185-0.028
			c0.355-0.045,0.708-0.103,1.057-0.181c0.151-0.034,0.3-0.078,0.449-0.117c0.248-0.066,0.495-0.133,0.74-0.215
			c0.195-0.066,0.386-0.141,0.578-0.217c0.126-0.049,0.255-0.088,0.379-0.142c0.124-0.054,0.266-0.119,0.418-0.191
			c0.031-0.016,0.063-0.031,0.095-0.047c0.319-0.155,0.682-0.352,1.075-0.601c0.017-0.01,0.032-0.02,0.049-0.03
			c0.037-0.023,0.071-0.043,0.108-0.067c0.101-0.065,0.202-0.131,0.301-0.2c0.107-0.074,0.198-0.166,0.302-0.243
			c0.226-0.169,0.446-0.347,0.66-0.533c0.177-0.153,0.35-0.306,0.517-0.469c0.173-0.17,0.338-0.351,0.502-0.533
			c0.137-0.151,0.288-0.285,0.417-0.443c0.125-0.153,0.245-0.309,0.356-0.469c0.201-0.271,0.385-0.551,0.56-0.835
			c0.003-0.005,0.007-0.01,0.01-0.016c0.232-0.377,0.44-0.765,0.626-1.162c0.018-0.038,0.031-0.077,0.049-0.116
			c0.153-0.333,0.288-0.673,0.409-1.02c0.043-0.121,0.078-0.245,0.116-0.368c0.081-0.261,0.155-0.526,0.217-0.793
			c0.038-0.161,0.073-0.322,0.103-0.484c0.044-0.234,0.078-0.469,0.109-0.706c0.023-0.181,0.049-0.36,0.064-0.542
			c0.021-0.257,0.026-0.517,0.031-0.777c0.002-0.149,0.014-0.298,0.01-0.448c-0.007-0.395-0.031-0.793-0.077-1.194
			c-0.055-0.443-0.135-0.881-0.241-1.336c-0.008-0.034-0.017-0.068-0.025-0.102l-3.417-13.677c-0.044-0.177-0.102-0.348-0.155-0.522
			c-0.044-0.146-0.081-0.295-0.131-0.439c-0.01-0.028-0.023-0.056-0.033-0.086c-0.768-2.187-2.178-4.126-4.059-5.546l-7.729-5.81
			v-43.314h13.563c2.17,0,4.272-0.596,6.123-1.712v74.353c0,6.321,5.138,11.463,11.452,11.463h35.537
			c3.392,0,6.587-1.494,8.768-4.097c0.005-0.006,0.009-0.014,0.015-0.02c0,0,0.002-0.002,0.003-0.003
			c0.044-0.052,0.078-0.109,0.121-0.162c0.223-0.277,0.439-0.557,0.632-0.849c0.079-0.12,0.143-0.248,0.217-0.37
			c0.143-0.234,0.29-0.466,0.416-0.708c0.113-0.217,0.203-0.444,0.301-0.668c0.068-0.156,0.147-0.306,0.208-0.465
			c0.13-0.334,0.235-0.677,0.332-1.023c0.015-0.052,0.037-0.102,0.05-0.155c0.28-1.054,0.394-2.15,0.363-3.253
			c-0.016-0.579-0.059-1.159-0.162-1.74l-2.877-15.823c-0.562-3.182-2.462-5.992-5.241-7.732l-12.663-7.844V354.02l14.638-1.212
			c2.505-0.208,4.759-1.604,6.059-3.756l1.276-2.11v6.374c0,4.329,3.509,7.837,7.837,7.837s7.837-3.508,7.837-7.837v-4.534
			c3.09,0.834,6.252,1.457,9.459,1.836v9.57c0,4.329,3.509,7.837,7.837,7.837s7.837-3.508,7.837-7.837v-9.575
			c3.066-0.365,6.093-0.949,9.056-1.729v4.432c0,4.329,3.509,7.837,7.837,7.837c4.328,0,7.837-3.508,7.837-7.837v-10.869
			c13.965-8.119,23.707-21.188,26.883-35.897l26.131,0.923l-7.593,95.813c0,0.006-0.002,0.011-0.003,0.018l-1.753,22.114
			c-0.149,1.691,0.056,3.374,0.583,4.942c0.526,1.569,1.371,3.025,2.499,4.259c2.162,2.364,5.214,3.719,8.373,3.719h31.503
			c4.519,0,8.504-2.8,10.234-6.907c0.315-0.744,0.563-1.527,0.718-2.349l1.233-6.487l1.444-7.588
			c0.165-0.881,0.226-1.766,0.189-2.639c-0.149-3.641-1.997-7.068-5.028-9.119c-0.124-0.085-0.245-0.173-0.372-0.254l-3.5-2.158
			l-6.307-3.893l16.47-87.753l1.476,0.052l1.383,93.553c-0.005,0.546,0.043,1.101,0.157,1.657l2.451,11.897l2.6,12.645
			c0.017,0.076,0.032,0.153,0.051,0.229c1.272,5.366,6.006,9.113,11.514,9.113h33.667c1.33,0,2.615-0.228,3.814-0.65
			c0.289-0.101,0.574-0.216,0.853-0.34c0.004-0.002,0.008-0.003,0.013-0.005c2.852-1.271,5.104-3.682,6.149-6.745
			c0.119-0.346,0.228-0.697,0.316-1.06l2.041-8.552l1.033-4.32c1.054-4.406-0.588-9.028-4.185-11.773L362.603,391.7
			c-3.807-39.139-2.319-103.306,17.793-114.626c6.136-3.454,12.578-11.217,20.273-24.432
			C402.845,248.9,401.578,244.103,397.839,241.925z M45.223,422.657v-10.807l14.941-2.228l7.252,5.45l1.893,7.585H45.223z
			 M130.151,413.601l1.645,9.056h-26.251v-14.123l12.836-2.22L130.151,413.601z M136.698,337.516l-17.84,1.476
			c-4.064,0.336-7.19,3.732-7.19,7.811v44.767l-6.123,1.06v-54.328l21.392-19.904c2.859,5.841,6.827,11.208,11.742,15.843
			L136.698,337.516z M210.855,326.358c-1.136-0.641-2.444-1.009-3.841-1.009c-4.092,0-7.447,3.137-7.801,7.138
			c-3.492,1.25-7.16,2.112-10.907,2.559c-1.438-1.725-3.601-2.824-6.023-2.824c-2.423,0-4.588,1.101-6.026,2.828
			c-3.898-0.463-7.705-1.378-11.317-2.709c-0.422-3.93-3.748-6.99-7.79-6.99c-1.313,0-2.55,0.327-3.637,0.899
			c-0.005-0.004-0.01-0.007-0.016-0.011c-6.88-5.059-11.853-11.779-14.326-19.226l4.241-3.947l59.343,2.099
			c0.021,0.001,0.042,0.005,0.063,0.005l22.893,0.811C223.312,313.925,218.087,321.086,210.855,326.358z M298.517,418.312
			l-0.828,4.346h-23.232l0.961-12.123l13.053-2.409c0.125,0.096,0.262,0.18,0.393,0.271c0.171,0.12,0.335,0.249,0.514,0.36
			l8.797,5.424l1.008,0.622L298.517,418.312z M284.905,392.846l-8.205,1.514l6.843-86.337l17.168,0.606L284.905,392.846z
			 M253.556,291.282l-39.431-1.397c3.249-6.372,8.172-12.056,14.4-16.519c0.001-0.001,0.002-0.001,0.003-0.002
			c9.098-6.518,20.108-9.964,31.84-9.964c7.948,0,15.555,1.582,22.607,4.7c10.094,4.466,18.33,11.895,23.188,20.917
			c0.737,1.369,1.393,2.767,1.966,4.192L253.556,291.282z M368.189,415.685l-0.504,2.11l-1.163,4.862h-27.197l-1.725-8.372
			l-1.17-5.692l16.797-4.332L368.189,415.685z"/>
	</g>
</g>
<g>
	<g>
		<path d="M496.912,116.634h-32.204c-4.786,0-9.467-1.949-12.833-5.337l-5.635-5.687c-5.968-6.018-13.782-9.51-22.164-9.948
			c-5.678-7.17-13.86-15.387-24.493-20.74c-3.581-1.803-7.771-1.657-11.212,0.39c-3.428,2.039-5.552,5.638-5.677,9.626
			c-0.139,4.395-0.167,10.097,0.187,16.228l-18.064,2.581c-4.285,0.612-7.262,4.583-6.65,8.866c0.559,3.909,3.911,6.729,7.748,6.729
			c0.37,0,0.743-0.026,1.118-0.079l17.668-2.526c1.183,6.277,2.979,12.264,5.677,17.074c1.761,3.139,4.811,5.25,8.372,5.794
			c0.596,0.091,1.192,0.136,1.783,0.136c2.953,0,5.788-1.118,7.979-3.189c3.645-3.446,10.977-10.144,19.123-16.284
			c2.139-1.611,3.571-3.81,4.232-6.206c1.16,0.731,2.254,1.583,3.244,2.582l5.639,5.693c6.297,6.337,15.03,9.971,23.961,9.971
			h31.618v21.253c0,5.02-10.714,12.856-18.525,16.659l-57.057,13.067c-0.317,0.072-0.642,0.169-0.948,0.281
			c-0.1,0.033-0.199,0.068-0.297,0.106c-3.679,1.38-4.365,2.907-10.922,17.509c-0.739,1.645-1.527,3.4-2.358,5.242
			c-1.782,3.943-0.028,8.586,3.916,10.367c1.047,0.473,2.142,0.697,3.22,0.697c2.985,0,5.839-1.716,7.147-4.613
			c0.837-1.851,1.63-3.617,2.373-5.272c1.58-3.517,3.307-7.364,4.448-9.745l54.817-12.554c0.532-0.121,1.048-0.298,1.543-0.527
			c0.273-0.126,6.741-3.14,13.249-7.947c9.998-7.382,15.067-15.213,15.067-23.271v-21.818
			C512,123.412,505.231,116.634,496.912,116.634z M401.96,121.264c-2.303-6.917-3.606-17.076-3.689-28.892
			c7.785,5.463,13.591,12.783,16.943,17.677C410.119,114.046,405.486,118.072,401.96,121.264z"/>
	</g>
</g>
<g>
	<g>
		<circle cx="434.897" cy="132.127" r="7.837"/>
	</g>
</g>
<g>
</g>
<g>
</g>
<g>
</g>
<g>
</g>
<g>
</g>
<g>
</g>
<g>
</g>
<g>
</g>
<g>
</g>
<g>
</g>
<g>
</g>
<g>
</g>
<g>
</g>
<g>
</g>
<g>
</g>
</svg>
