<?xml version="1.0" encoding="utf-8"?>
<!-- Generator: Adobe Illustrator 23.0.0, SVG Export Plug-In . SVG Version: 6.00 Build 0)  -->
<svg version="1.1" id="Layer_1" xmlns="http://www.w3.org/2000/svg" xmlns:xlink="http://www.w3.org/1999/xlink" x="0px" y="0px"
	 viewBox="0 0 512 512" style="enable-background:new 0 0 512 512;" xml:space="preserve">
<g>
	<g>
		<path d="M26.1,357.7c0.4,4.4,4.1,7.7,8.4,7.7c0.3,0,0.5,0,0.8,0c4.6-0.4,8.1-4.5,7.7-9.2c-1.8-19.8-1.2-47.7,10.2-73.5
			c-0.1,12.7,1.3,27.6,4.2,44.8c3.4,20.6,8,38.2,9.8,44.9l-14.6,35.4c-0.9,2.3-0.8,4.8,0.3,7l6.2,12.4l-27.2,44.8
			c-0.8,1.3-1.2,2.8-1.2,4.4v27.1c0,4.7,3.8,8.4,8.4,8.4h40.5c2.4,0,4.7-1,6.3-2.8c1.6-1.8,2.4-4.2,2.1-6.6
			c-1-9.2-7.5-17.7-12.3-22.9l5.4-8.6l8.7,17.5c0.2,0.5,0.5,0.9,0.9,1.4l14.4,18.7c1.6,2.1,4.1,3.3,6.7,3.3h36.9
			c2.8,0,5.5-1.4,7-3.8c1.6-2.4,1.8-5.4,0.7-8c-1.8-4.2-10.8-23.7-24.6-28.6l-22.6-38.9l42.5-45.6c17.3-16.1,25-32.8,28.1-41.8
			c7.2-0.7,14.7-2.4,21.7-4.5l-25,161.4c-0.4,2.4,0.3,4.9,1.9,6.8c1.6,1.9,3.9,2.9,6.4,2.9h34c3.2,0,6.1-1.8,7.5-4.6
			c0.7-1.4,6.4-14.1-5.5-33.2l13-64.9l-1.1,78.4c0,1.6,0.4,3.1,1.2,4.5l9.6,15.8c1.5,2.5,4.3,4.1,7.2,4.1h34.9
			c4.7,0,8.4-3.8,8.4-8.4c0-11.9-14.5-27.2-22-34.5v-76.7c12.6-38.6,32.7-98,37.5-106.7c4.6-8.6-0.2-17.8-4.4-26
			c-3.1-5.9-6.5-12.7-5.1-16.4c0.8-2.2,3.9-4.4,8.6-6.3c24.4-9.7,45.1-63.6,51.9-81.3c10.5-27.5,18.5-54.1,21.2-63.6l5.1-2.5
			c9.2,1.9,36.4,6.7,56.1,0.1c8.4,2.6,30.5,7.6,40.8-6.2c0.6-0.8,1-1.7,1.3-2.6c0.3-1,1.7-6.4,0.1-12.9c-1.5-6.3-6.1-14.7-19.2-19.3
			c-19.2-6.8-26-13.9-28.3-17.5c-7.3-11.3-19.5-15.2-30.3-15.2l-2.8-9.6c-1.3-4.5-6-7.1-10.4-5.8c-4.5,1.3-7.1,6-5.8,10.4l1.9,6.5
			c-2.7-2.7-6.8-5.6-13-8.4c-3.7-1.7-8.1-0.5-10.4,2.9c-0.3,0.4-1.2,1.9-2.4,4c-0.8,0-1.6,0.2-2.4,0.5c-2,0.7-48.6,18.2-85.6,92
			c-16.1,32.1-39.5,44.3-58.3,54.1c-15.1,7.8-29.4,15.3-31.7,31c-4,0.9-7.9,1.8-11.4,2.6c-6.1,1.4-11.4,2.6-14.9,3.5
			c-4.1,1-9.7,1.8-16.1,2.8c-24,3.4-58.6,8.3-78,34.9C58,243.2,19,278.3,26.1,357.7z M219.5,334.2c1.9-0.8,3.7-1.6,5.3-2.3l1.8,12.1
			l1.3,8.5l-24.4,121.8c-0.5,2.3,0,4.6,1.4,6.5c4.4,6.3,6,11.1,6.4,14.4h-16.7L219.5,334.2z M69.6,410.7l14.3-34.5
			c0.7-1.8,0.8-3.7,0.3-5.6c-6.6-22.9-21.2-87.9-10.2-113.8c12.7-29.6,47.1-34.5,72.3-38c7-1,13-1.8,18-3.1c3.3-0.8,8.5-2,14.5-3.3
			c5.5-1.2,11.6-2.6,17.8-4.1c0,0,0,0,0,0c0.1,0,0.2,0,0.3-0.1c0.8-0.2,1.6-0.4,2.3-0.6c0.3-0.1,0.6-0.1,0.9-0.2
			c0.5-0.1,1.1-0.3,1.6-0.4c0.3-0.1,0.7-0.2,1-0.2c0.6-0.2,1.2-0.3,1.8-0.5c0.4-0.1,0.8-0.2,1.2-0.3c0.2-0.1,0.5-0.1,0.7-0.2
			c8.2-2.1,14.6-3.9,19.3-5.6c0.1,0,0.2-0.1,0.3-0.1c0.3-0.1,0.6-0.2,0.9-0.3c0.2-0.1,0.4-0.1,0.5-0.2c0.2-0.1,0.4-0.2,0.6-0.2
			c0.4-0.2,0.8-0.3,1.1-0.5c1.8-0.7,4.1-1.6,6.8-2.6c2.7-1,5.8-2.1,9-3.4c0.8-0.3,1.7-0.7,2.6-1c0.3-0.1,0.5-0.2,0.8-0.3
			c0.9-0.4,1.8-0.8,2.8-1.2c0.2-0.1,0.5-0.2,0.7-0.3c1-0.4,2-0.9,3-1.3c0.2-0.1,0.4-0.2,0.6-0.3c1-0.5,2-1,3.1-1.4
			c0.2-0.1,0.4-0.2,0.7-0.3c1-0.5,2-1,3.1-1.5c0.2-0.1,0.5-0.2,0.7-0.4c1-0.5,1.9-1,2.9-1.6c0.3-0.2,0.6-0.3,1-0.5
			c0.9-0.5,1.9-1.1,2.8-1.6c0.4-0.2,0.7-0.4,1.1-0.6c0.9-0.5,1.8-1.1,2.7-1.7c0.4-0.3,0.8-0.5,1.2-0.8c0.9-0.6,1.7-1.2,2.6-1.8
			c0.4-0.3,0.9-0.6,1.3-0.9c0.8-0.6,1.6-1.2,2.4-1.8c0.5-0.4,1-0.7,1.4-1.1c0.8-0.6,1.5-1.2,2.3-1.8c0.5-0.4,1-0.8,1.5-1.3
			c0.7-0.6,1.4-1.3,2.1-1.9c0.5-0.5,1.1-0.9,1.6-1.4c0.7-0.6,1.3-1.3,2-2c0.5-0.5,1.1-1,1.6-1.5c0,0,0,0,0,0c0,0,0.1-0.1,0.1-0.1
			c3.3-3.3,3.2-8.7-0.2-11.9c-3.3-3.3-8.7-3.2-11.9,0.2c-0.5,0.5-1.1,1-1.6,1.6c-0.5,0.5-1.1,1.1-1.6,1.6c-0.5,0.5-1.1,0.9-1.6,1.4
			c-0.6,0.5-1.1,1-1.7,1.5c-0.5,0.4-1.1,0.9-1.6,1.3c-0.6,0.5-1.2,0.9-1.7,1.4c-0.5,0.4-1,0.7-1.5,1.1c-0.6,0.5-1.2,0.9-1.9,1.4
			c-0.5,0.3-1,0.6-1.4,1c-0.7,0.5-1.3,0.9-2,1.4c-0.4,0.3-0.9,0.5-1.3,0.8c-0.7,0.5-1.5,0.9-2.2,1.4c-0.4,0.2-0.8,0.4-1.1,0.7
			c-0.8,0.5-1.6,0.9-2.3,1.3c-0.3,0.2-0.7,0.3-1,0.5c-0.8,0.4-1.7,0.9-2.5,1.3c-0.2,0.1-0.5,0.2-0.7,0.3c-0.9,0.5-1.8,0.9-2.7,1.4
			c-0.1,0.1-0.3,0.1-0.4,0.2c-1,0.5-2,0.9-2.9,1.4c0,0-0.1,0-0.1,0c-5.5,2.5-10.6,4.5-15,6.1c-0.9,0.3-1.7,0.6-2.6,0.9
			c-2.9,1.1-5.4,2-7.5,2.9c-0.4,0.2-0.7,0.3-1.1,0.5c-0.1,0.1-0.3,0.1-0.4,0.2c-0.3,0.1-0.6,0.2-0.9,0.3c-0.2,0.1-0.3,0.1-0.5,0.2
			c-0.4,0.1-0.8,0.3-1.2,0.4c-0.2,0.1-0.5,0.2-0.7,0.2c-0.3,0.1-0.6,0.2-0.9,0.3c-0.3,0.1-0.5,0.2-0.8,0.3c-0.3,0.1-0.5,0.2-0.8,0.2
			c-0.5,0.2-1.1,0.3-1.6,0.5c-0.2,0.1-0.4,0.1-0.6,0.2c-0.4,0.1-0.8,0.2-1.1,0.3c-0.2,0.1-0.4,0.1-0.5,0.2c-0.8,0.2-1.6,0.5-2.4,0.7
			c-0.1,0-0.2,0-0.2,0.1c-0.2,0.1-0.5,0.1-0.7,0.2c3.6-3.1,9.4-6.3,17.8-10.7c19.9-10.3,47.1-24.5,65.6-61.5
			c17.6-35.2,37.4-56.1,50.9-67.4c4.8-4,9.2-7.1,12.9-9.5c-0.1,0.2-0.2,0.3-0.4,0.5c-0.2,0.2-0.3,0.5-0.5,0.7
			c-0.3,0.4-0.6,0.8-0.9,1.3c-0.2,0.3-0.4,0.5-0.5,0.8c-0.3,0.5-0.7,1-1,1.5c-0.2,0.2-0.3,0.5-0.5,0.7c-0.4,0.6-0.8,1.2-1.3,1.8
			c-0.1,0.2-0.2,0.4-0.4,0.5c-1.1,1.6-2.4,3.4-3.6,5.2c-0.1,0.2-0.2,0.3-0.4,0.5c-0.5,0.7-1,1.5-1.6,2.2c-0.2,0.3-0.4,0.6-0.6,0.8
			c-0.5,0.7-0.9,1.3-1.4,2c-0.2,0.3-0.4,0.7-0.7,1c-0.5,0.7-0.9,1.3-1.4,2c-0.2,0.4-0.5,0.7-0.7,1.1c-0.5,0.7-0.9,1.3-1.4,2
			c-0.3,0.4-0.5,0.8-0.8,1.2c-0.5,0.7-1,1.4-1.4,2.1c-0.2,0.4-0.5,0.7-0.7,1.1c-0.5,0.8-1.1,1.6-1.7,2.4c-0.2,0.3-0.4,0.6-0.6,0.8
			c-1.5,2.2-3,4.5-4.5,6.8c-0.2,0.3-0.4,0.6-0.6,0.9c-0.6,0.8-1.1,1.7-1.7,2.5c-0.3,0.4-0.5,0.8-0.8,1.2c-0.5,0.8-1,1.5-1.5,2.3
			c-0.3,0.4-0.6,0.9-0.9,1.3c-0.5,0.7-0.9,1.4-1.4,2.2c-0.3,0.5-0.6,0.9-0.9,1.4c-0.5,0.7-0.9,1.4-1.4,2.2c-0.3,0.5-0.6,0.9-0.9,1.4
			c-0.5,0.7-1,1.5-1.4,2.2c-0.3,0.4-0.6,0.9-0.9,1.3c-0.5,0.8-1,1.6-1.6,2.5c-0.2,0.4-0.5,0.7-0.7,1.1c-1.5,2.4-3,4.7-4.4,7.1
			c-0.2,0.4-0.4,0.7-0.7,1.1c-0.5,0.8-1,1.6-1.5,2.4c-0.3,0.4-0.5,0.9-0.8,1.3c-0.4,0.7-0.9,1.4-1.3,2.1c-0.3,0.5-0.6,0.9-0.8,1.4
			c-0.4,0.7-0.8,1.3-1.2,2c-0.3,0.5-0.5,0.9-0.8,1.4c-0.4,0.7-0.8,1.3-1.1,2c-0.3,0.5-0.5,0.9-0.8,1.3c-0.4,0.7-0.8,1.4-1.1,2
			c-0.2,0.4-0.5,0.8-0.7,1.3c-0.4,0.7-0.8,1.4-1.2,2.1c-0.2,0.4-0.4,0.7-0.6,1.1c-0.6,1-1.1,2.1-1.6,3.1c-2.2,4.1-0.6,9.2,3.6,11.4
			c0.5,0.3,1,0.5,1.6,0.6c0.2,0.1,0.4,0.1,0.6,0.1c0.1,0,0.1,0,0.2,0c2.7,0.5,5.4-0.4,7.4-2.2c0,0,0.1-0.1,0.1-0.1
			c0,0,0.1-0.1,0.1-0.1c0.5-0.6,1-1.2,1.4-1.9c19.3-37.1,64-98.6,64.5-99.2c1.3-1.8,1.9-4.1,1.5-6.4c-0.1-0.6-0.1-1.4,0-2.3
			c0,0,0-0.1,0-0.1c0.2-1.2,0.5-2.5,1-3.7c0.8,0.7,1.3,1.2,1.5,1.4c1,3.7,4.5,6.4,8.5,6.2l6.9-0.3c1.3-0.1,2.6-0.4,3.8-1.1
			c3.7-2.1,19-4.5,25.5,5.6c6.3,9.7,18.7,17.8,36.9,24.3c7.2,2.5,8.1,6.2,8.4,7.4c0.2,0.9,0.3,1.8,0.3,2.5c-4.5,2.8-16.1,1-23.4-1.6
			c-2-0.7-4.2-0.7-6.2,0.1c-15.2,6.4-42.4,1.9-51.7-0.4c-1.9-0.5-4-0.3-5.8,0.6l-11.1,5.5c-2.2,1.1-3.7,3-4.4,5.3
			c-0.1,0.3-9,32.5-21.8,65.8c-22.4,58.3-37.1,69.5-42.3,71.5c-9.5,3.8-15.6,9.2-18.2,16.1c-4,10.7,1.5,21.4,6,30.1
			c1.7,3.2,4.4,8.6,4.4,10.5c-7.2,13.9-35.7,100.6-38.9,110.5c-0.3,0.8-0.4,1.7-0.4,2.6v81.7c0,2.4,1,4.7,2.8,6.3
			c5.7,5.1,11.1,11.2,14.8,16.1h-17.2l-5.9-9.6l1.3-93.1c0-0.5,0-0.9-0.1-1.4l-11-73.1c-0.3-2-1.4-3.9-2.9-5.2
			c-0.5-0.4-1.1-0.8-1.7-1.1c-2.2-1.1-4.7-1.2-6.9-0.3c0,0,0,0,0,0c-0.3,0.1-0.6,0.3-0.9,0.4c0,0,0,0-0.1,0.1c0,0,0,0,0,0
			c0,0-0.1,0-0.1,0c-1.2,0.6-8.2,4.4-17.6,8.1c-0.3,0.1-0.6,0.2-0.9,0.3c0,0,0,0,0,0c-10.6,4.2-24.1,8.5-35.5,8.5c0,0,0,0-0.1,0
			c-7.5,0-14.7-1.4-20-2.9c6.1-18.6,7.8-37.3,5.1-55.8c-0.7-4.6-5-7.8-9.6-7.1c-4.6,0.7-7.8,5-7.1,9.6c2.7,18.3,0.3,36.9-7.2,55.5
			c-3.3,8.2-7.5,16.3-12.6,24.1c-2.5,3.9-1.5,9.1,2.5,11.7c1.4,0.9,3,1.4,4.6,1.4c2.8,0,5.5-1.3,7.1-3.8c4.2-6.4,7.9-13,11-19.8
			c4.1,1.2,9.1,2.4,14.7,3.1c-3.4,7.7-9.9,19.1-21.8,30.1c-0.2,0.1-0.3,0.3-0.4,0.4l-30.7,32.9c1.7-9.2,4.9-19.2,11.2-26.1
			c3.1-3.4,2.9-8.8-0.5-11.9c-3.4-3.1-8.8-2.9-11.9,0.5C88.2,392,90.1,430.4,90.2,432c0,0.1,0,0.1,0,0.2c0,0.2,0,0.4,0.1,0.6
			c0,0.1,0,0.2,0.1,0.3c0,0.2,0.1,0.4,0.1,0.6c0,0.1,0,0.2,0.1,0.3c0.1,0.3,0.2,0.5,0.3,0.7c0,0,0,0.1,0,0.1
			c0.1,0.3,0.3,0.6,0.4,0.9c0,0,0,0,0,0l27.6,47.4c1.4,2.3,3.8,3.9,6.5,4.2c2.3,0.2,5.6,3.4,8.7,7.8h-18.3l-11.3-14.8L69.6,410.7z
			 M67.9,445l4.2,8.5l-14.5,23c-2.3,3.6-1.5,8.3,1.7,11c1.8,1.5,4.7,4.4,7.1,7.6h-19v-16.3L67.9,445z"/>
	</g>
</g>
<g>
	<g>
		<path d="M403.4,52.3c0,5.3,4.4,9.7,9.7,9.7s9.7-4.3,9.7-9.7s-4.4-9.7-9.7-9.7S403.4,47,403.4,52.3z"/>
	</g>
</g>
</svg>
