<?xml version="1.0" encoding="utf-8"?>
<!-- Generator: Adobe Illustrator 23.0.0, SVG Export Plug-In . SVG Version: 6.00 Build 0)  -->
<svg version="1.1" id="Layer_1" xmlns="http://www.w3.org/2000/svg" xmlns:xlink="http://www.w3.org/1999/xlink" x="0px" y="0px"
	 viewBox="0 0 512 512" style="enable-background:new 0 0 512 512;" xml:space="preserve">
<g>
	<g>
		<path d="M79,326.5c5,10,11.8,15.9,20.1,17.5c1.6,0.3,3.3,0.5,4.9,0.5c2.5,0,5-0.4,7.5-1c0.5,8.2,3.2,14.9,8.1,19.9
			c6.7,6.9,17,10.3,31.2,10.3c5.7,0,12.1-0.6,19.2-1.7c0.5-0.1,1-0.2,1.5-0.2l-5.1,104.3c0,0.7,0,1.3,0.1,2l5.2,27.1
			c0.8,4,4.2,6.8,8.2,6.8h45.9c2.8,0,5.5-1.4,7-3.8c1.5-2.4,1.8-5.4,0.6-8c-5.1-11.5-18.9-22.6-26.3-28l22.4-110.5
			c8.2-1.2,17.7-2.4,29-3.6l6.2,46.1c0.2,1.3,0.7,2.6,1.4,3.7c9.2,13.1,28.2,75.2,34.7,98c1,3.6,4.3,6.1,8.1,6.1h55.6
			c3.2,0,6.1-1.8,7.5-4.6c1.4-2.8,1.1-6.2-0.8-8.8c-2-2.6-19.6-26-36.7-33.7c-6-4.4-18.5-41.6-27.7-90.5v-23.5
			c21.3-7.7,33.4-22,40.1-34.2c6.4-11.6,8.9-22.8,9.9-29.2c17.6-8.6,29.7-28.1,35-56.6c3.7-20.2,3-38.6,2.8-42.4c0,0,0-0.1,0-0.1
			V67.7c6.1-1.3,14.5-3.4,19-5.8c6-3.2,20.4-11.3,21-11.6c2.8-1.6,4.5-4.6,4.3-7.8c-0.2-3.2-2.2-6-5.2-7.3l-27.4-11.3
			C402.5,16.6,391.7,0,374.8,0c-10.7,0-19,3.6-24.8,10.8c-5.7,7.1-8.5,17.1-8.5,30.8v144.6c-5.5,9.4-20,29-35.2,29.7
			c-8.8,0.4-19.1-5.9-31-13.2l-3.2-2c-4-2.4-9.1-1.2-11.5,2.8c-2.4,4-1.2,9.1,2.8,11.5l3.2,2c13.7,8.4,26.6,16.4,40.6,15.7
			c23.4-1.2,41.1-25.6,47.6-35.9h23.4c0.1,23.7-5.3,67.6-31.8,77c-3.2,1.1-5.4,4.1-5.6,7.5c-0.1,2-3.2,46.7-49.1,56.5
			c-0.6,0.1-1.2,0.2-1.8,0.4c-0.4,0.1-0.8,0.2-1.2,0.2c-1,0.2-2,0.3-3,0.5c-0.3,0-0.6,0.1-0.9,0.1c-1.1,0.1-2.3,0.3-3.4,0.4h0
			c-0.3,0-0.6,0-0.8,0.1c-5.5,0.5-10.7,0.9-15.5,1.4c0,0,0,0,0,0c-18.4,1.8-32.2,3.6-43.7,5.4c0,0,0,0-0.1,0c-1,0.2-2,0.3-3,0.5
			c-0.1,0-0.1,0-0.2,0c-0.6,0.1-1.1,0.2-1.7,0.3c-0.6,0.1-1.3,0.2-1.9,0.3c-0.5,0.1-1,0.2-1.5,0.3c-0.8,0.1-1.6,0.3-2.4,0.4
			c-0.3,0-0.6,0.1-0.9,0.1c-1,0.2-2,0.3-2.9,0.5c-0.2,0-0.4,0.1-0.6,0.1c-2,0.4-4,0.7-6,1.1c-0.3,0-0.5,0.1-0.8,0.1
			c-0.8,0.1-1.6,0.3-2.3,0.4c-1.3,0.2-2.5,0.5-3.7,0.7c-2.2,0.4-4.5,0.8-6.8,1.3c-0.3,0.1-0.6,0.1-0.8,0.2c-0.8,0.1-1.6,0.3-2.5,0.4
			c-0.4,0.1-0.9,0.2-1.3,0.2c-0.7,0.1-1.4,0.3-2.1,0.4c-4,0.7-8.1,1.4-12.5,2.1c-23,3.6-32.1,0-35.7-3.7c-3.1-3.2-4.2-8.8-3.2-16.5
			c7.4-5,15.1-11.5,22.8-18.1c3-2.5,6.1-5.1,9.1-7.6c3.6-3,4.1-8.2,1.1-11.8c-3-3.6-8.2-4.1-11.8-1.1c-3.1,2.6-6.3,5.2-9.3,7.8
			c-13.8,11.7-29.3,25-38,23.2c-3-0.6-5.8-3.5-8.4-8.6c-12.4-24.6,0-50.7,5.9-60.8c10.9-18.6,26.4-30.4,34.6-30.8
			c12.6-0.6,22.7-7.2,33.5-14.2c13.4-8.8,27.3-17.9,48.2-16.4c8.4,0.6,16.7,2.7,25.5,6.5c4.3,1.8,9.2-0.1,11-4.4
			c1.8-4.3-0.1-9.2-4.4-11c-10.5-4.6-20.7-7.1-30.9-7.8c-26.6-1.9-44.3,9.8-58.6,19.1c-9.1,6-17,11.1-25,11.5
			c-15.4,0.7-35.3,16.8-48.4,39.1C70,276,67.6,304,79,326.5z M378,60.7v119.2h-19.6V41.5c0-24.7,10.7-24.7,16.5-24.7
			c7.5,0,15.3,11.6,17.9,17.2c0.9,1.9,2.5,3.5,4.4,4.3l14.2,5.8c-2.1,1.2-4.1,2.2-5.5,3c-3.3,1.8-14.4,4.2-20.9,5.4
			C380.9,53.2,378,56.7,378,60.7z M275.3,356.6c0.9-0.1,1.8-0.2,2.6-0.2c0.3,0,0.5,0,0.8-0.1c1.3-0.1,2.5-0.2,3.8-0.3
			c0.1,0,0.2,0,0.2,0c0,0,0,0,0,0c1.2-0.1,2.4-0.2,3.6-0.4c0.3,0,0.6-0.1,0.8-0.1c0.9-0.1,1.8-0.2,2.7-0.4c0.1,0,0.2,0,0.2,0v20.1
			c0,0.5,0,1,0.1,1.5c0.2,0.9,4.3,23.2,10.5,46.6c11.8,44.8,20.1,53.8,26.8,56.8c6,2.7,12.9,8.9,18.8,15.1h-31.1
			c-5.8-19.9-23.1-77-34.1-95L275.3,356.6z M183.1,475.9l5.3-107.1c0.1,0,0.1,0,0.2,0c1.2-0.2,2.5-0.5,3.7-0.7
			c0.2,0,0.3-0.1,0.5-0.1c0.8-0.2,1.6-0.3,2.5-0.5c0.4-0.1,0.8-0.2,1.2-0.2c2.4-0.5,4.9-0.9,7.4-1.4c0.1,0,0.2,0,0.2,0
			c1.1-0.2,2.2-0.4,3.4-0.6c0.2,0,0.5-0.1,0.7-0.1c1-0.2,2-0.4,3-0.5c0.2,0,0.5-0.1,0.8-0.1l-22.3,109.7c-0.7,3.4,0.8,6.9,3.7,8.7
			c4.2,2.7,10.3,7.3,15.4,12.2h-21.8L183.1,475.9z"/>
	</g>
</g>
<g>
	<g>
		<path d="M171.3,290.3c1.5,2.9,4.4,4.6,7.5,4.6c1.3,0,2.6-0.3,3.8-0.9c4.7-2.4,8.9-3.7,12.5-3.9c4.6-0.3,8.2-4.2,7.9-8.9
			c-0.3-4.6-4.2-8.2-8.9-7.9c-6,0.3-12.3,2.2-19.2,5.7C170.8,281.1,169.2,286.1,171.3,290.3z"/>
	</g>
</g>
<g>
	<g>
		<path d="M364.4,33.3c0,5.3,4.3,9.6,9.7,9.6c5.3,0,9.7-4.3,9.7-9.6s-4.3-9.6-9.7-9.6C368.7,23.7,364.4,28,364.4,33.3z"/>
	</g>
</g>
</svg>
