<svg id="Layer_1" data-name="Layer 1" xmlns="http://www.w3.org/2000/svg" viewBox="0 0 512 512">
  <title>Artboard 1</title>
  <path d="M176.29,191.73,74.47,206.1c-5.6,0-9.8,5.6-9.8,11.21,0,2.8,1.4,4.2,2.8,5.6l86.83,84L134.69,426c-1.4,5.6,2.8,11.2,8.4,12.6,2.8,0,4.2,0,7-1.4l106.44-56,106.43,56a8.92,8.92,0,0,0,8.4,0,10.93,10.93,0,0,0,5.6-5.6c1.4-1.4,1.4-4.2,1.4-7l-21-119,86.83-84a11,11,0,0,0,0-15.41c-1.4-1.4-4.2-2.8-5.6-2.8l-119-16.8L266.33,78.67a11,11,0,0,0-5.6-5.61,9,9,0,0,0-8.41,0c-1.4,1.4-4.2,2.81-4.2,4.21l-5.6,11.2L203.18,169.4" fill="none" stroke="#fff" stroke-miterlimit="10" stroke-width="15"/>
</svg>