<?xml version="1.0" encoding="utf-8"?>
<!-- Generator: Adobe Illustrator 23.0.1, SVG Export Plug-In . SVG Version: 6.00 Build 0)  -->
<svg version="1.1" id="Lag_1" xmlns="http://www.w3.org/2000/svg" xmlns:xlink="http://www.w3.org/1999/xlink" x="0px" y="0px"
	 viewBox="0 0 31.3 30" style="enable-background:new 0 0 31.3 30;" xml:space="preserve">
<g>
	<path d="M23.6,30c-0.4,0-0.9-0.1-1.3-0.3l-6.7-3.5L9,29.7C8.4,30,7.8,30.1,7.2,30c-1.5-0.3-2.5-1.7-2.2-3.2l1.3-7.4l-5.4-5.3
		c-0.4-0.4-0.7-1-0.8-1.6C-0.2,11,0.9,9.6,2.4,9.4l7.5-1.1L13.5,1h0.1c0.2-0.3,0.5-0.5,0.9-0.7c0.7-0.3,1.4-0.4,2.1-0.1
		c0.7,0.2,1.3,0.7,1.6,1.4l3.3,6.8l7.5,1.1c0.6,0.1,1.2,0.4,1.6,0.8c1.1,1.1,1,2.8,0,3.9L25,19.3l1.3,7.4c0.1,0.6,0,1.2-0.3,1.7
		c-0.3,0.6-0.9,1.1-1.6,1.3C24.2,30,23.9,30,23.6,30z M14.7,3l-3.5,7.2l-8.5,1.2C2.3,11.4,2,11.8,2,12.2c0,0.2,0.1,0.3,0.2,0.4
		l6.2,6L7,27.1c-0.1,0.4,0.2,0.8,0.6,0.9c0.2,0,0.3,0,0.5-0.1l7.6-4l7.6,4c0.2,0.1,0.4,0.1,0.6,0c0.2-0.1,0.3-0.2,0.4-0.4
		c0.1-0.1,0.1-0.3,0.1-0.5l-1.5-8.5l6.2-6c0.3-0.3,0.3-0.8,0-1.1c-0.1-0.1-0.3-0.2-0.4-0.2l-8.5-1.2l-3.8-7.7
		c-0.1-0.2-0.2-0.3-0.4-0.4c-0.2-0.1-0.4-0.1-0.6,0c-0.1,0.1-0.3,0.2-0.3,0.3L14.7,3z"/>
</g>
</svg>
