<?xml version="1.0" encoding="iso-8859-1"?>
<!-- Generator: Adobe Illustrator 19.0.0, SVG Export Plug-In . SVG Version: 6.00 Build 0)  -->
<svg version="1.1" id="Layer_1" xmlns="http://www.w3.org/2000/svg" xmlns:xlink="http://www.w3.org/1999/xlink" x="0px" y="0px"
	 viewBox="0 0 512 512" style="enable-background:new 0 0 512 512;" xml:space="preserve">
<g>
	<g>
		<circle cx="428.335" cy="95.608" r="7.837"/>
	</g>
</g>
<g>
	<g>
		<path d="M496.577,81.606h-33.626c-5.091,0-10.069-2.071-13.649-5.674l-5.896-5.949c-2.078-2.087-4.413-3.886-6.924-5.375
			l2.023-13.28c0.53-3.467-0.476-6.982-2.761-9.642c-2.285-2.66-5.606-4.186-9.115-4.186h-9.75
			c-0.051-2.778-1.149-5.478-3.086-7.484c-2.07-2.143-4.967-3.373-7.948-3.373c-8.734,0-16.727,4.681-21.171,11.91
			c-19.056,3.599-35.577,16.358-43.772,34.104l-12.697,27.502c-1.814,3.93-0.099,8.586,3.831,10.4
			c1.064,0.491,2.181,0.723,3.28,0.723c2.962,0,5.797-1.689,7.121-4.554l12.695-27.501c4.713-10.206,13.149-18.168,23.285-22.477
			l-2.355,8.017l-57.91,130.183l-17.169,1.547l24.097-52.184c1.814-3.929,0.099-8.586-3.83-10.4c-3.931-1.816-8.587-0.1-10.401,3.83
			l-27.881,60.378l-150.5,13.563c-0.089,0.008-0.177,0.018-0.265,0.028c-17.943,2.234-34.349,10.115-46.566,22.294
			c-27.443,1.737-51.53,19.906-60.59,46.095c-1.415,4.091,0.754,8.554,4.844,9.968c0.849,0.294,1.714,0.433,2.562,0.433
			c3.249,0,6.285-2.034,7.406-5.277c5.314-15.362,17.329-27.145,32.085-32.509c-3.483,6.768-5.895,14.039-7.148,21.656
			c-1.874,0.843-3.393,2.392-4.139,4.397L42.32,328.009c-2.309,6.206-11.107,13.335-24.085,19.701l6.382-18.437
			c1.415-4.091-0.753-8.554-4.843-9.969c-4.094-1.417-8.554,0.752-9.969,4.842l-9.139,26.405c-1.558,4.481-0.33,9.475,3.126,12.725
			c2.275,2.138,5.243,3.265,8.25,3.265c1.56,0,3.132-0.304,4.622-0.928c15.33-6.394,34.773-17.158,40.346-32.135l6.773-18.183
			v26.425c-0.143,0.138-0.282,0.283-0.414,0.433L52.234,354.68c-3.179,2.221-5.149,5.91-5.149,9.863v84.652
			c0,0.007-0.001,0.015-0.001,0.022v22.307c0,0.829,0.085,1.639,0.245,2.421c1.12,5.472,5.968,9.601,11.761,9.601h34.315
			c3.725,0,7.173-1.682,9.464-4.616c1.425-1.826,2.27-3.967,2.488-6.194c0.001-0.008,0.003-0.016,0.003-0.023
			c0.027-0.286,0.028-0.576,0.034-0.864c0.004-0.166,0.022-0.331,0.019-0.498c-0.001-0.033-0.006-0.067-0.007-0.1
			c-0.022-0.872-0.135-1.752-0.35-2.624l-3.561-14.25c-0.039-0.155-0.09-0.305-0.135-0.459c-0.05-0.173-0.095-0.348-0.153-0.519
			c-0.01-0.03-0.024-0.06-0.034-0.089c-0.735-2.103-2.065-3.976-3.834-5.397c-0.099-0.08-0.192-0.166-0.295-0.242l-8.207-6.159
			v-45.683h14.524c2.416,0,4.74-0.729,6.73-2.074v79.992c0,6.401,5.208,11.609,11.609,11.609h0.005h37.11h0.008
			c2.475,0,4.838-0.793,6.797-2.214c0.089-0.065,0.185-0.119,0.272-0.186c0.109-0.084,0.207-0.181,0.311-0.268
			c0.547-0.451,1.064-0.944,1.527-1.497c0.833-0.997,1.481-2.11,1.934-3.291c0.019-0.05,0.03-0.101,0.049-0.151
			c0.126-0.344,0.243-0.691,0.336-1.045c0.044-0.166,0.068-0.336,0.104-0.505c0.052-0.241,0.113-0.482,0.149-0.727
			c0.031-0.208,0.04-0.42,0.06-0.63c0.02-0.21,0.05-0.418,0.06-0.63c0.004-0.099-0.005-0.2-0.004-0.299
			c0.01-0.747-0.038-1.5-0.173-2.252l-0.977-5.352l-2.033-11.175c-0.58-3.218-2.508-6.059-5.318-7.815l-13.383-8.273v-41.601
			l15.608-1.287c2.506-0.207,4.758-1.602,6.06-3.751l36.153-59.716c16.314-2.299,31.564-2.554,45.39-0.703
			c9.489,8.565,24.289,14.445,44.082,17.545l-9.598,120.935c-0.1,1.172-0.02,2.339,0.206,3.469c0.021,0.103,0.031,0.209,0.054,0.312
			c0.047,0.208,0.114,0.41,0.171,0.614c0.056,0.203,0.103,0.408,0.171,0.607c0.04,0.117,0.092,0.229,0.135,0.344
			c0.103,0.279,0.205,0.559,0.328,0.83c0.027,0.061,0.063,0.117,0.092,0.177c0.151,0.319,0.31,0.635,0.489,0.939
			c0.032,0.055,0.072,0.106,0.106,0.16c0.185,0.304,0.376,0.603,0.588,0.89c0.087,0.117,0.187,0.224,0.277,0.337
			c0.168,0.211,0.332,0.427,0.516,0.628c0.003,0.003,0.006,0.005,0.008,0.008c0.003,0.003,0.005,0.006,0.007,0.009
			c0.207,0.225,0.427,0.432,0.649,0.637c0.069,0.064,0.131,0.135,0.201,0.198c2.105,1.869,4.823,2.923,7.623,2.923h32.905
			c5.177,0,9.66-3.615,10.929-8.661c0.06-0.236,0.121-0.472,0.167-0.715l2.792-14.664c0.002-0.006,0.003-0.013,0.004-0.02
			c0.28-1.492,0.265-2.995-0.01-4.435c-0.604-3.17-2.477-6.021-5.265-7.737l-10.446-6.44l16.686-88.8
			c0.726-0.013,1.428-0.025,2.092-0.038c0.24-0.004,0.485-0.009,0.728-0.014l1.404,94.982c0.007,0.493,0.062,0.985,0.161,1.469
			l2.115,10.244l3.169,15.36c0.015,0.069,0.029,0.138,0.046,0.207c0.075,0.323,0.166,0.638,0.265,0.949
			c0.005,0.017,0.008,0.033,0.014,0.05c0.024,0.074,0.055,0.145,0.082,0.218c1.66,4.791,6.147,8.042,11.325,8.042h35.162
			c5.398,0,10.045-3.668,11.301-8.92l1.02-4.267l2.193-9.152c1.034-4.313-0.489-8.823-3.881-11.635
			c-0.121-0.101-0.239-0.206-0.366-0.303l-17.757-13.532c1.003-13.215,5.682-69.975,14.969-113.557
			c0.001-0.003,0.001-0.005,0.002-0.008c2.355-11.053,5.007-21.258,7.97-29.691c3.089-8.803,4.908-18.186,5.405-27.885
			c0.737-14.24,1.772-31.039,2.817-46.987c0-0.009,0.001-0.019,0.002-0.028c0.871-13.31,1.749-26.012,2.464-36.148
			c0-0.008,0.001-0.016,0.001-0.024c0.555-7.859,1.011-14.181,1.29-18.01c1.731-0.96,4.097-2.196,6.945-3.493
			c3.939-1.794,5.678-6.442,3.884-10.38c-1.794-3.939-6.44-5.68-10.38-3.884c-7.392,3.367-12.069,6.418-12.264,6.546
			c-2.036,1.335-3.335,3.543-3.516,5.972c-0.014,0.179-0.396,5.346-0.987,13.606L389.64,167.8c-4.268-0.715-8.309,2.165-9.025,6.433
			c-0.717,4.268,2.164,8.309,6.432,9.025l25.132,4.214c-0.437,6.267-0.912,13.201-1.398,20.461l-35.282-5.918
			c-4.278-0.719-8.31,2.164-9.026,6.432c-0.717,4.268,2.163,8.309,6.431,9.025l36.845,6.181c-0.427,6.654-0.846,13.367-1.236,19.906
			l-35.486-3.393c-4.314-0.412-8.135,2.746-8.547,7.055s2.747,8.136,7.055,8.547l36.084,3.45c-0.084,1.549-0.164,3.075-0.242,4.571
			c-0.323,6.294-1.303,12.411-2.91,18.254H374.2c-4.329,0-7.837,3.509-7.837,7.837c0,4.328,3.508,7.837,7.837,7.837h25.339
			c-1.36,4.74-2.647,9.782-3.859,15.041h-14.649c-4.329,0-7.837,3.509-7.837,7.837s3.509,7.837,7.837,7.837h11.354
			c-1.063,5.515-2.056,11.144-2.982,16.798h-8.372c-4.329,0-7.837,3.509-7.837,7.837c0,4.328,3.509,7.837,7.837,7.837h5.971
			c-0.611,4.271-1.185,8.502-1.723,12.659h-4.683c-4.329,0-7.837,3.509-7.837,7.837c0,4.328,3.509,7.837,7.837,7.837h2.774
			c-2.29,19.994-3.653,36.526-4.224,44.038l-13.787,3.551l-1.367-92.521c-0.009-0.602-0.087-1.2-0.233-1.784
			c-1.527-6.112-7.794-6.194-9.853-6.221c-1.598-0.022-3.761,0.019-6.494,0.069c-2.398,0.044-5.223,0.097-8.397,0.12
			c-0.016,0-0.031,0-0.047,0c-0.004,0-0.008,0-0.011,0c-12.844,0.125-23.917-0.368-33.838-1.507
			c-21.462-2.464-36.315-7.798-44.145-15.856c-1.19-1.224-2.746-2.026-4.434-2.285c-17.028-2.609-35.901-2.321-56.089,0.858
			c-0.008,0.001-0.017,0.002-0.025,0.003c-0.024,0.004-0.047,0.007-0.071,0.01c-12.552,1.973-23.108,4.694-29.751,6.628
			c-2.797,0.814-5.027,1.503-6.821,2.092l-17.487-21.099c-2.763-3.333-7.703-3.794-11.035-1.032
			c-3.333,2.762-3.795,7.702-1.032,11.035l16.302,19.669l-13.639,12.672l-24.846-26.348c-2.969-3.149-7.929-3.294-11.079-0.325
			c-3.149,2.969-3.295,7.929-0.326,11.078l24.766,26.264l-9.95,9.244l-12.2-12.845c-2.982-3.138-7.941-3.265-11.08-0.285
			c-3.138,2.981-3.266,7.941-0.285,11.079l12.081,12.72l-2.042,1.896H85.183c-6.626,0-12.016,5.391-12.016,12.016v46.409
			l-10.407,1.55v-73.73c0.143-0.138,0.282-0.283,0.414-0.433l11.138-12.535c3.175-2.224,5.145-5.908,5.145-9.848V286.72
			c0-1.515,0.063-3.086,0.186-4.672c1.021-13.18,6.291-25.298,15.246-35.047c9.051-9.872,21.473-16.562,35.296-19.109l-5.508,22.368
			c-1.034,4.203,1.533,8.448,5.735,9.483c0.629,0.155,1.259,0.23,1.88,0.23c3.522,0,6.724-2.392,7.604-5.964l6.864-27.873
			l13.537-1.219l-5.425,31.859c-0.726,4.266,2.143,8.314,6.41,9.04c0.445,0.076,0.888,0.112,1.325,0.112
			c3.75,0,7.066-2.701,7.717-6.522l6.121-35.945l19.407-1.749l-5.119,49.086c-0.448,4.305,2.678,8.159,6.982,8.607
			c0.277,0.029,0.551,0.043,0.822,0.043c3.963,0,7.365-2.996,7.786-7.025l5.438-52.146l16.705-1.506l4.518,66.493
			c0.281,4.138,3.725,7.306,7.811,7.306c0.179,0,0.358-0.006,0.54-0.019c4.318-0.294,7.581-4.032,7.287-8.35l-4.542-66.838
			l17.252-1.555l8.343,54.438c0.593,3.876,3.933,6.651,7.735,6.651c0.395,0,0.795-0.029,1.197-0.091
			c4.279-0.655,7.215-4.655,6.559-8.934l-8.194-53.473l15.525-1.399l10.287,37.06c0.963,3.469,4.114,5.743,7.547,5.743
			c0.694,0,1.399-0.093,2.1-0.287c4.17-1.157,6.613-5.476,5.455-9.646l-9.52-34.299l15.785-1.422
			c2.832-0.255,5.302-2.023,6.457-4.62l54.432-122.364l2.214,3.076c1.472,2.046,3.84,3.259,6.36,3.259
			c9.455,0,17.484-5.826,20.71-14.152h4.305c5.083,0,10.068,2.076,13.66,5.684l5.891,5.943c6.509,6.549,15.539,10.306,24.773,10.306
			h33.373v22.235c0,4.986-2.136,9.751-5.859,13.071c-3.626,3.233-8.234,4.715-12.976,4.169c-4.296-0.488-8.186,2.591-8.68,6.892
			c-0.494,4.3,2.591,8.186,6.892,8.68c1.213,0.139,2.426,0.208,3.635,0.208c7.876,0,15.575-2.913,21.559-8.25
			c7.055-6.296,11.101-15.323,11.101-24.773V97.029C512,88.525,505.081,81.606,496.577,81.606z M384.894,447.98l15.936,12.146
			l-1.412,5.908l-0.44,1.836h-28.97l-0.324-1.568l-2.822-13.677L384.894,447.98z M311.41,351.328
			c5.715,0.447,11.771,0.716,18.244,0.812l-15.893,84.588l-9.264,1.707L311.41,351.328z M303.217,454.609l14.054-2.59
			c0.331,0.261,0.679,0.504,1.043,0.729l10.435,6.431l-1.653,8.69h-24.932L303.217,454.609z M152.13,459.698l1.821,9.982h-28.181
			v-15.345l13.823-2.389L152.13,459.698z M125.768,379.406l16.105-14.962c0.011-0.01,0.024-0.02,0.036-0.03
			c0.008-0.007,0.015-0.017,0.023-0.024l23.651-21.973c2.8-1.042,10.1-3.475,20.102-5.846l-26.816,44.294l-18.812,1.552
			c-4.066,0.335-7.193,3.731-7.193,7.811v46.977l-7.095,1.226V379.406z M78.815,453.585l7.786,5.842l2.108,8.443H62.759v-11.894
			L78.815,453.585z M400.171,67.485c-0.08,2.328-1.344,4.326-3.204,5.428l-4.942-6.866l5.037-17.151
			c0.645-2.195,2.085-4.014,3.944-5.18L400.171,67.485z M421.361,59.794c-0.909-0.073-1.82-0.12-2.736-0.12h-2.495l0.229-6.499
			h6.009L421.361,59.794z"/>
	</g>
</g>
<g>
</g>
<g>
</g>
<g>
</g>
<g>
</g>
<g>
</g>
<g>
</g>
<g>
</g>
<g>
</g>
<g>
</g>
<g>
</g>
<g>
</g>
<g>
</g>
<g>
</g>
<g>
</g>
<g>
</g>
</svg>
