<svg id="Layer_1" data-name="Layer 1" xmlns="http://www.w3.org/2000/svg" viewBox="0 0 512 512">
  <title>Artboard 1</title>
  <path d="M161.92,55.5h-45.5a14.64,14.64,0,0,0-14.65,14.65v371.7a14.64,14.64,0,0,0,14.65,14.65h45.5" fill="none" stroke="#fff" stroke-miterlimit="10" stroke-width="15"/>
  <path d="M191.21,456.48h44.15A14.64,14.64,0,0,0,250,441.83V366.68h62.66c21.34,0,40.5-3.6,56.95-10.71s29.81-16.15,39.48-26.74c24.65-26.87,37.16-67.81,37.16-121.71,0-99.44-49.27-152-142.5-152H191.21" fill="none" stroke="#fff" stroke-miterlimit="10" stroke-width="15"/>
  <path d="M235.36,271.55h27.35c16.48,0,28.66-1.89,37.3-5.78,8.39-3.83,18.37-12.78,18.37-33.85V190.28c0-21.07-10-30-18.43-33.87s-20.78-5.75-37.26-5.75H235.36a14.63,14.63,0,0,0-14.65,14.64v91.6A14.65,14.65,0,0,0,235.36,271.55Z" fill="none" stroke="#fff" stroke-miterlimit="10" stroke-width="15"/>
</svg>