<?xml version="1.0" encoding="utf-8"?>
<!-- Generator: Adobe Illustrator 23.0.1, SVG Export Plug-In . SVG Version: 6.00 Build 0)  -->
<svg version="1.1" id="Lag_1" xmlns="http://www.w3.org/2000/svg" xmlns:xlink="http://www.w3.org/1999/xlink" x="0px" y="0px"
	 viewBox="0 0 190.65 191.66" style="enable-background:new 0 0 190.65 191.66;" xml:space="preserve">
<g>
	<path d="M54.75,177.66H40V14h14.75V0H33c-3.87,0-7,3.13-7,7v177.66c0,3.87,3.13,7,7,7h21.75V177.66z"/>
	<path d="M122.54,0H68.75v14h53.79c36.92,0,54.12,18.64,54.12,58.66c0,22.14-4.73,38.53-14.09,48.72c-3.29,3.6-8.03,6.76-14.1,9.38
		c-6.09,2.64-13.38,3.97-21.66,3.97H89.85c-3.87,0-7,3.13-7,7v35.92h-14.1v14h21.1c3.87,0,7-3.13,7-7v-35.92h29.95
		c10.2,0,19.36-1.72,27.22-5.12c7.9-3.41,14.25-7.72,18.87-12.78c11.78-12.84,17.76-32.41,17.76-58.17
		C190.65,25.13,167.1,0,122.54,0z"/>
	<path d="M89.85,103.26h13.07c7.88,0,13.7-0.9,17.83-2.76c4.01-1.83,8.78-6.11,8.78-16.18v-19.9c0-10.07-4.78-14.35-8.81-16.19
		c-4.1-1.85-9.93-2.75-17.81-2.75H89.85c-3.87,0-7,3.13-7,7v43.78C82.85,100.12,85.98,103.26,89.85,103.26z M96.85,59.48h6.07
		c7.57,0,10.8,0.95,12.02,1.48c0.01,0.01,0.59,0.75,0.59,3.45v19.91c0,2.66-0.57,3.42-0.56,3.43c-1.25,0.56-4.49,1.51-12.06,1.51
		h-6.07L96.85,59.48L96.85,59.48z"/>
</g>
</svg>
