<?xml version="1.0" standalone="no"?>
<!DOCTYPE svg PUBLIC "-//W3C//DTD SVG 20010904//EN"
 "http://www.w3.org/TR/2001/REC-SVG-20010904/DTD/svg10.dtd">
<svg version="1.0" xmlns="http://www.w3.org/2000/svg"
 width="1540.000000pt" height="1540.000000pt" viewBox="0 0 1540.000000 1540.000000"
 preserveAspectRatio="xMidYMid meet">
<metadata>
Created by potrace 1.11, written by Peter Selinger 2001-2013
</metadata>
<g transform="translate(0.000000,1540.000000) scale(0.100000,-0.100000)"
fill="#000000" stroke="none">
<path d="M7826 11923 c-1 -2 -32 -5 -67 -8 -35 -3 -81 -7 -101 -10 -21 -3 -57
-8 -80 -11 -24 -3 -56 -8 -73 -11 -16 -3 -37 -6 -45 -8 -43 -6 -98 -18 -125
-25 -16 -5 -41 -11 -55 -14 -52 -9 -139 -35 -255 -75 -66 -23 -124 -43 -130
-45 -85 -25 -478 -221 -528 -264 -17 -15 -47 -34 -77 -49 -25 -12 -201 -144
-269 -202 -36 -30 -66 -50 -68 -44 -8 23 -127 177 -166 215 -152 146 -284 226
-477 290 -75 25 -212 60 -227 57 -4 -1 -10 -1 -13 1 -9 3 -65 9 -135 15 -84 6
-3479 6 -3583 0 -40 -3 -85 -7 -100 -10 -15 -3 -47 -7 -72 -9 -25 -2 -63 -8
-85 -14 -22 -6 -53 -13 -70 -16 -122 -21 -370 -137 -475 -222 -32 -25 -190
-187 -190 -194 0 -4 -11 -20 -25 -36 -30 -35 -116 -209 -139 -279 -16 -54 -33
-125 -44 -190 -9 -57 -8 -291 2 -345 4 -25 9 -53 9 -62 1 -10 5 -18 10 -18 4
0 6 -4 3 -9 -3 -5 1 -27 9 -50 8 -23 11 -41 8 -41 -4 0 -2 -5 5 -12 7 -7 12
-20 12 -30 0 -10 5 -18 11 -18 5 0 8 -3 5 -8 -6 -10 77 -177 95 -192 3 -3 11
-15 17 -26 11 -21 67 -88 107 -129 36 -35 126 -115 130 -115 2 0 35 -20 72
-44 61 -39 90 -54 198 -101 34 -15 186 -61 230 -70 17 -3 41 -8 55 -11 14 -3
48 -7 75 -10 28 -3 66 -9 85 -13 19 -4 173 -7 342 -6 170 0 308 -3 308 -7 0
-6 -122 -130 -1027 -1044 -487 -492 -531 -540 -670 -733 -51 -70 -163 -272
-163 -294 0 -3 -5 -18 -12 -34 -6 -15 -12 -32 -12 -38 -1 -5 -8 -30 -15 -55
-8 -25 -15 -56 -17 -70 -1 -14 -6 -45 -10 -70 -8 -55 -8 -268 0 -330 4 -25 8
-55 9 -67 1 -12 5 -24 9 -28 4 -4 4 -13 1 -21 -3 -8 0 -14 6 -14 6 0 8 -6 5
-13 -6 -16 47 -170 83 -242 112 -223 315 -421 543 -529 75 -35 250 -99 250
-91 0 2 21 -2 48 -10 68 -20 182 -35 302 -42 172 -9 704 -9 723 0 9 4 17 4 17
0 0 -4 47 -8 105 -8 58 0 105 3 105 7 0 4 12 3 28 0 34 -9 265 -7 281 2 6 4
11 4 11 -1 0 -4 36 -8 80 -8 44 0 80 3 80 7 0 4 12 3 28 0 34 -9 265 -7 281 2
6 4 11 4 11 -1 0 -4 36 -8 80 -8 44 0 80 3 80 7 0 4 7 5 16 1 25 -9 696 -10
717 0 9 4 17 4 17 0 0 -4 47 -8 105 -8 58 0 105 3 105 7 0 4 12 3 28 0 34 -9
265 -7 281 2 6 4 11 4 11 -1 0 -4 36 -8 80 -8 44 0 80 3 80 7 0 4 12 3 28 0
45 -12 376 -4 501 13 83 10 111 16 241 49 42 11 126 40 136 47 6 5 14 6 17 2
4 -3 7 -1 7 5 0 7 7 12 15 12 9 0 52 20 96 45 75 43 102 62 135 93 8 7 14 10
14 6 0 -18 162 159 208 228 l52 78 63 -48 c34 -26 64 -49 67 -52 3 -3 37 -25
75 -50 39 -25 72 -47 75 -51 3 -3 12 -8 20 -12 8 -4 33 -18 55 -32 22 -14 51
-30 65 -37 14 -7 27 -15 30 -18 8 -8 259 -130 268 -130 5 0 26 -9 49 -20 38
-18 109 -45 143 -55 8 -2 35 -12 60 -21 25 -9 60 -20 78 -25 17 -5 47 -13 65
-18 52 -15 249 -61 282 -66 17 -3 44 -7 60 -10 17 -2 48 -7 70 -9 22 -3 50 -8
63 -10 159 -34 665 -22 882 20 14 2 39 7 55 9 17 3 44 8 60 12 17 3 37 7 45 8
8 1 33 7 55 13 22 6 51 13 65 16 14 2 25 5 25 6 0 1 8 3 18 6 268 65 554 194
906 409 26 16 155 109 167 120 6 5 32 26 57 45 26 19 68 54 94 77 l46 42 26
-20 c14 -11 43 -36 66 -55 22 -18 65 -53 95 -76 30 -23 57 -45 60 -48 12 -13
287 -190 295 -190 3 0 23 -11 45 -25 22 -14 46 -25 55 -25 8 0 15 -4 15 -8 0
-6 135 -76 150 -77 3 0 10 -3 15 -7 33 -21 348 -137 387 -143 15 -2 37 -9 48
-15 11 -6 20 -8 20 -4 0 3 6 1 14 -5 8 -6 18 -11 22 -10 16 3 94 -13 94 -20 0
-3 10 -6 23 -7 12 0 36 -4 52 -7 67 -15 147 -28 185 -32 14 -1 48 -5 75 -9
112 -14 178 -18 350 -18 194 0 341 8 393 22 21 5 32 5 32 -2 0 -6 7 -4 17 3 9
8 17 12 17 10 1 -5 107 9 176 24 14 3 35 7 48 10 13 2 32 7 42 10 10 3 27 7
37 9 25 5 102 25 138 37 97 30 186 60 230 77 71 27 90 34 90 31 0 -1 20 9 45
22 25 13 47 24 50 24 22 6 106 48 111 56 3 6 8 10 10 8 9 -5 49 13 49 22 0 5
7 9 15 9 8 0 44 18 80 40 36 22 67 40 70 40 6 0 195 129 254 174 29 23 66 50
81 61 126 94 355 323 489 490 31 39 59 72 62 75 13 11 171 252 216 331 47 81
154 293 154 303 0 3 13 34 28 68 35 78 92 244 126 369 25 92 30 113 39 164 3
13 7 28 10 33 3 4 8 30 11 58 4 27 8 58 10 69 2 11 6 36 9 55 3 19 8 55 10 80
3 25 5 45 6 45 5 0 13 189 13 315 0 219 -11 372 -39 525 -2 11 -6 35 -8 54 -3
18 -8 40 -10 50 -3 9 -8 32 -11 51 -3 19 -14 67 -25 105 -10 39 -26 97 -35
130 -8 33 -22 76 -29 95 -8 19 -31 80 -51 135 -36 96 -171 385 -185 395 -4 3
-13 20 -21 38 -8 17 -17 32 -21 32 -5 0 -8 5 -8 11 0 6 -18 38 -40 71 -22 33
-40 64 -40 69 0 5 -4 9 -10 9 -5 0 -10 5 -10 10 0 6 -17 33 -37 60 -86 114
-137 178 -186 235 -90 105 -378 382 -409 394 -5 1 -21 14 -36 28 -31 29 -45
39 -198 141 -60 39 -114 75 -120 80 -62 44 -418 220 -458 226 -6 1 -16 4 -21
8 -25 16 -277 97 -367 119 -21 5 -57 14 -80 19 -24 6 -54 12 -68 14 -25 4 -62
11 -110 21 -32 7 -82 14 -145 20 -27 3 -72 8 -100 11 -61 7 -467 7 -550 0 -68
-6 -144 -15 -195 -24 -19 -3 -47 -6 -62 -6 -16 -1 -28 -5 -28 -10 0 -5 -2 -7
-5 -4 -3 3 -45 -4 -93 -14 -48 -11 -96 -21 -107 -23 -11 -2 -20 -4 -20 -5 0
-1 -7 -3 -15 -5 -78 -18 -293 -90 -365 -121 -22 -10 -46 -19 -53 -20 -17 -3
-302 -145 -362 -180 -142 -83 -386 -257 -474 -338 -21 -20 -44 -36 -50 -36 -6
0 -24 13 -41 28 -50 46 -188 154 -222 175 -18 10 -33 23 -33 28 0 5 -6 9 -13
9 -7 0 -22 8 -33 18 -16 16 -168 109 -244 150 -62 34 -140 72 -146 71 -4 0
-10 3 -13 8 -6 9 -56 31 -191 85 -41 16 -84 33 -95 38 -11 5 -67 23 -125 41
-58 17 -112 34 -120 37 -8 3 -24 7 -34 9 -11 2 -47 11 -80 19 -34 9 -74 18
-91 20 -16 3 -39 7 -50 9 -59 12 -230 35 -300 41 -78 6 -474 12 -479 7z
m-2948 -3250 c0 -67 10 -214 17 -258 2 -16 7 -52 10 -80 4 -27 9 -61 11 -75 3
-14 9 -48 14 -76 5 -28 13 -69 19 -90 5 -22 12 -50 14 -64 l5 -25 -403 0
c-230 0 -401 4 -398 9 6 9 706 716 709 716 1 0 2 -26 2 -57z"/>
<path d="M3086 5202 c-2 -1 -23 -5 -47 -7 -55 -5 -108 -16 -139 -28 -8 -3 -31
-10 -50 -16 -58 -18 -182 -96 -230 -146 -83 -85 -90 -92 -90 -103 0 -6 -6 -17
-12 -24 -21 -21 -48 -75 -48 -92 0 -9 -4 -16 -9 -16 -8 0 -26 -56 -20 -62 1
-2 -3 -13 -9 -24 -37 -69 -47 -345 -18 -490 22 -110 71 -229 124 -306 33 -47
98 -118 108 -118 4 0 12 -7 18 -15 16 -21 127 -85 137 -79 5 3 9 1 9 -4 0 -8
82 -37 133 -48 12 -2 38 -8 57 -11 19 -4 100 -7 180 -6 127 0 156 4 235 27
232 70 404 242 480 479 14 42 27 92 31 110 9 52 21 200 18 227 -2 14 -5 53 -8
87 -5 67 -28 162 -54 227 -19 48 -87 164 -111 187 -9 9 -25 27 -37 40 -22 25
-36 37 -94 80 -78 57 -188 100 -309 120 -63 11 -238 19 -245 11z m176 -286
c54 -7 141 -50 187 -92 93 -83 143 -228 142 -408 0 -61 -3 -122 -6 -136 -3
-14 -8 -41 -11 -60 -3 -19 -9 -39 -12 -45 -4 -5 -14 -31 -22 -57 -32 -93 -119
-177 -220 -213 -53 -19 -208 -27 -258 -13 -19 5 -42 11 -51 13 -35 7 -112 59
-144 96 -80 93 -118 217 -121 399 -4 191 46 336 149 428 54 48 133 84 193 87
12 1 24 4 27 6 5 6 93 2 147 -5z"/>
<path d="M5246 5203 c-2 -2 -23 -6 -47 -8 -24 -3 -55 -8 -69 -11 -14 -3 -33
-7 -42 -8 -10 -1 -21 -5 -24 -9 -4 -4 -14 -7 -21 -7 -23 0 -185 -83 -190 -97
-3 -7 -10 -13 -17 -13 -16 0 -94 -83 -143 -150 -36 -51 -94 -174 -99 -210 -3
-18 -11 -55 -18 -78 -6 -20 -19 -132 -17 -149 1 -16 1 -39 0 -55 -3 -25 11
-190 16 -198 3 -5 7 -21 9 -37 9 -62 47 -168 78 -218 10 -16 22 -40 27 -51 14
-31 139 -155 186 -185 124 -78 251 -111 430 -113 149 -1 192 4 290 34 180 56
311 166 407 340 34 61 75 175 83 230 2 14 4 25 5 25 12 0 16 246 6 333 -21
189 -148 413 -275 488 -17 10 -31 21 -31 25 0 9 -153 79 -186 85 -15 3 -31 7
-36 10 -27 17 -308 40 -322 27z m174 -287 c57 -11 104 -28 123 -44 9 -8 17
-12 17 -8 0 15 109 -94 116 -116 3 -10 10 -18 15 -18 6 0 8 -4 4 -9 -3 -5 2
-17 11 -25 8 -9 13 -16 10 -16 -3 0 -1 -12 5 -27 13 -34 20 -63 21 -83 0 -8 4
-19 7 -25 8 -12 6 -210 -2 -275 -10 -77 -69 -230 -89 -230 -5 0 -8 -6 -8 -14
0 -16 -67 -73 -119 -100 -81 -43 -242 -55 -338 -26 -158 48 -250 177 -279 390
-8 58 -2 270 9 300 3 8 12 37 21 64 30 92 104 183 186 226 32 17 121 40 131
34 4 -2 10 -1 13 4 5 9 94 8 146 -2z"/>
<path d="M9156 5203 c-1 -1 -33 -7 -71 -13 -37 -6 -94 -20 -124 -31 -31 -10
-60 -20 -66 -22 -5 -1 -16 -8 -23 -15 -8 -7 -18 -10 -23 -7 -5 4 -9 2 -9 -2 0
-5 -16 -17 -35 -27 -19 -11 -35 -23 -35 -28 0 -4 -6 -8 -13 -8 -26 0 -177
-178 -177 -208 0 -6 -3 -12 -7 -14 -11 -4 -53 -109 -53 -130 0 -9 -4 -19 -9
-23 -6 -3 -10 -13 -9 -23 0 -9 -3 -28 -6 -42 -22 -88 -22 -313 0 -400 3 -14 8
-36 10 -50 16 -89 68 -205 131 -292 41 -56 142 -150 155 -142 4 3 8 1 8 -4 0
-19 146 -82 225 -97 98 -19 140 -22 249 -20 66 2 132 6 146 10 14 3 36 8 50
11 41 8 129 43 178 70 199 110 327 310 370 578 14 90 5 278 -17 371 -21 88
-87 245 -102 245 -4 0 -10 8 -13 18 -8 22 -93 111 -137 143 -19 13 -41 30 -50
38 -19 16 -140 70 -172 77 -31 7 -39 9 -62 16 -46 15 -298 32 -309 21z m184
-288 c50 -10 52 -10 80 -19 14 -5 33 -15 43 -24 9 -8 17 -12 17 -8 0 9 22 -9
71 -59 41 -41 93 -138 103 -190 3 -16 9 -48 14 -70 11 -55 7 -250 -7 -305 -7
-25 -14 -56 -17 -70 -3 -14 -12 -35 -20 -48 -8 -12 -12 -27 -9 -32 3 -6 2 -10
-4 -10 -5 0 -13 -9 -16 -20 -13 -42 -146 -156 -167 -144 -4 3 -8 0 -8 -7 0 -7
-3 -10 -6 -6 -3 3 -18 1 -33 -5 -66 -26 -275 -12 -316 22 -8 7 -15 9 -15 5 0
-9 -67 39 -95 69 -19 19 -69 94 -71 106 0 3 -4 14 -8 25 -19 50 -26 72 -31
100 -2 17 -7 41 -10 55 -9 41 -5 275 4 275 1 0 4 13 6 30 7 53 45 140 83 190
59 77 148 129 240 141 13 1 25 4 27 6 6 6 105 1 145 -7z"/>
<path d="M12733 5180 c-21 -9 -46 -27 -56 -38 -43 -47 -44 -63 -43 -755 l1
-662 23 -37 c33 -53 98 -82 169 -75 54 6 127 43 117 59 -3 4 -1 8 5 8 31 0 34
75 33 720 0 355 -1 648 -2 653 -6 18 -8 28 -9 40 -2 17 -52 72 -78 86 -38 19
-118 20 -160 1z"/>
<path d="M14205 5193 c-53 -10 -64 -14 -88 -39 -23 -22 -122 -252 -132 -306
-2 -9 -8 -26 -14 -36 -6 -11 -27 -64 -47 -119 -20 -54 -42 -114 -49 -133 -8
-19 -19 -48 -26 -65 -7 -16 -13 -34 -15 -40 -1 -5 -55 -149 -120 -320 -97
-257 -118 -321 -120 -372 -1 -35 2 -63 7 -63 5 0 9 -6 9 -13 0 -16 42 -57 61
-61 8 -2 22 -7 32 -11 41 -17 172 12 178 40 1 6 8 19 15 30 7 11 25 56 40 100
15 44 31 91 37 105 5 14 11 31 13 38 5 25 26 42 41 34 8 -5 35 -6 59 -2 25 4
47 3 50 -2 3 -4 13 -4 23 2 10 5 21 7 24 4 9 -9 77 -10 77 -2 0 4 11 4 23 -1
13 -5 30 -5 37 -1 8 5 22 4 31 -1 10 -5 20 -5 23 0 3 4 18 7 33 4 57 -8 95 -8
106 -1 6 4 18 1 26 -5 8 -7 16 -10 19 -7 3 3 26 -56 52 -132 50 -142 71 -175
127 -198 41 -15 122 -8 162 16 44 26 74 86 68 137 -7 60 -26 128 -43 155 -8
12 -12 22 -9 22 5 0 -16 59 -41 117 -8 17 -14 35 -14 39 0 7 -31 94 -57 164
-4 8 -7 18 -8 23 -2 4 -4 9 -5 12 -1 3 -3 8 -5 13 -1 4 -7 20 -13 35 -7 16
-12 34 -12 41 0 6 -5 17 -12 24 -7 7 -9 12 -6 12 4 0 0 17 -9 38 -8 20 -28 73
-44 117 -75 214 -110 311 -116 325 -3 8 -7 17 -8 20 -1 3 -5 14 -9 25 -4 11
-12 34 -18 50 -53 156 -90 187 -228 190 -47 1 -94 0 -105 -2z m101 -438 c4
-11 8 -24 9 -30 2 -5 13 -39 25 -74 12 -36 22 -73 23 -83 1 -10 4 -18 7 -18 4
0 7 -6 7 -12 1 -7 24 -83 52 -168 28 -85 51 -158 51 -161 0 -3 -37 -5 -82 -4
-46 0 -89 -3 -95 -8 -7 -5 -13 -6 -13 -1 0 5 -47 9 -105 8 -101 -1 -105 0
-101 20 4 17 100 305 119 356 3 8 20 60 38 115 44 136 39 131 65 60z"/>
<path d="M7769 5176 c-3 -4 -238 -6 -522 -7 -388 0 -524 -3 -546 -12 -139 -59
-130 -229 14 -273 17 -6 112 -10 213 -9 l182 0 1 -562 c1 -310 2 -566 4 -570
13 -51 21 -65 43 -85 55 -48 122 -61 193 -36 41 14 87 56 97 89 3 13 9 281 12
594 l5 570 180 1 c99 1 182 2 185 3 3 2 16 5 29 7 33 6 90 51 101 78 13 34 6
109 -14 138 -22 33 -92 67 -134 64 -17 -1 -33 2 -35 7 -1 4 -5 6 -8 3z"/>
<path d="M623 5148 c-44 -21 -76 -59 -79 -93 -1 -11 -3 -24 -5 -30 -13 -41 56
-135 100 -135 10 0 21 -3 25 -7 4 -4 152 -8 329 -9 177 -1 324 -2 325 -3 4 -1
-46 -65 -79 -101 -13 -14 -67 -77 -120 -140 -53 -63 -106 -126 -118 -140 -27
-31 -44 -50 -101 -120 -25 -30 -52 -62 -60 -70 -8 -9 -35 -40 -60 -70 -25 -30
-61 -72 -80 -95 -19 -22 -39 -45 -45 -52 -5 -6 -26 -31 -45 -54 -19 -23 -45
-53 -57 -67 -13 -14 -23 -28 -23 -32 0 -3 -9 -16 -21 -29 -30 -32 -34 -122 -9
-178 19 -44 53 -67 111 -79 52 -11 1021 -12 1043 -1 12 6 16 6 12 -2 -9 -15
52 7 87 31 56 39 73 119 38 181 -17 29 -56 60 -81 64 -8 1 -24 4 -35 7 -11 2
-179 5 -372 5 l-353 1 33 44 c17 24 35 41 40 39 4 -2 7 0 7 6 0 5 10 21 23 35
12 13 33 39 47 56 14 18 36 44 50 60 14 15 32 36 40 47 8 10 38 45 65 78 28
33 59 70 70 84 11 13 27 32 35 40 8 9 33 38 55 66 22 27 47 57 55 66 27 30 64
74 102 120 20 24 44 54 55 65 10 12 36 43 58 70 22 27 48 56 58 66 9 10 17 23
17 28 0 6 4 10 8 10 15 0 30 67 28 120 -3 59 -27 97 -77 122 -31 15 -84 17
-544 17 -490 -1 -512 -1 -552 -21z"/>
<path d="M10830 5158 c-47 -13 -98 -64 -110 -110 -7 -23 -11 -279 -11 -670 0
-684 -1 -677 53 -723 37 -32 60 -41 109 -44 50 -3 113 19 140 47 41 45 44 60
45 293 0 124 4 231 7 236 4 7 59 10 142 9 74 0 135 3 135 7 0 5 6 5 12 1 16
-10 87 -11 116 -2 13 5 22 3 22 -3 0 -6 5 -7 11 -3 6 4 23 8 38 9 83 9 201 51
249 89 96 76 161 184 180 296 11 63 8 200 -5 230 -4 8 -8 24 -9 35 -4 31 -71
145 -102 172 -37 33 -111 84 -125 87 -7 2 -25 8 -42 15 -16 7 -50 17 -75 23
-60 14 -733 20 -780 6z m640 -270 c109 -34 165 -114 155 -219 -7 -65 -36 -121
-77 -151 -18 -12 -35 -23 -38 -24 -3 0 -18 -6 -35 -13 -26 -11 -250 -18 -390
-12 l-30 1 2 207 c1 115 2 212 2 216 1 9 383 4 411 -5z"/>
</g>
</svg>
