<svg id="Layer_1" data-name="Layer 1" xmlns="http://www.w3.org/2000/svg" viewBox="0 0 512 512">
  <title>Artboard 1</title>
  <path d="M150.6,70a51.93,51.93,0,0,0,0,102.9" fill="none" stroke="#fff" stroke-miterlimit="10" stroke-width="15"/>
  <path d="M164.6,173a52,52,0,0,0,0-103" fill="none" stroke="#fff" stroke-miterlimit="10" stroke-width="15"/>
  <path d="M150.7,175.8a55.8,55.8,0,0,1-15.8-4.5l-1.4-.6H124a40.8,40.8,0,0,0-40.7,40.7v95.5a23.88,23.88,0,0,0,23.9,23.8h4.2v88.5A23.86,23.86,0,0,0,135.2,443h15.5" fill="none" stroke="#fff" stroke-miterlimit="10" stroke-width="15"/>
  <path d="M164.6,442.8h15.5A23.86,23.86,0,0,0,203.9,419V330.5h4.2a23.79,23.79,0,0,0,23.8-23.8V211.2a40.56,40.56,0,0,0-40.6-40.6h-9.5l-1.4.6a55.8,55.8,0,0,1-15.8,4.5" fill="none" stroke="#fff" stroke-miterlimit="10" stroke-width="15"/>
  <path d="M330,70a51.93,51.93,0,0,0,0,102.9" fill="none" stroke="#fff" stroke-miterlimit="10" stroke-width="15"/>
  <path d="M344,173a52,52,0,0,0,0-103" fill="none" stroke="#fff" stroke-miterlimit="10" stroke-width="15"/>
  <path d="M344,442.9h4.2A23.86,23.86,0,0,0,372,419.1v-66h32.3A23.88,23.88,0,0,0,428,332.2l.1-4L393.9,188.7a23.93,23.93,0,0,0-23.1-18.1h-9.5l-1.4.6a55.8,55.8,0,0,1-15.8,4.5" fill="none" stroke="#fff" stroke-miterlimit="10" stroke-width="15"/>
  <path d="M330,175.8a55.8,55.8,0,0,1-15.8-4.5l-1.4-.6h-9.5a23.65,23.65,0,0,0-23.1,18.1L246.5,323.6a23.83,23.83,0,0,0,17.4,28.9,22.24,22.24,0,0,0,5.7.7h32.3v66A23.88,23.88,0,0,0,325.8,443H330" fill="none" stroke="#fff" stroke-miterlimit="10" stroke-width="15"/>
</svg>