<?xml version="1.0" encoding="utf-8"?>
<!-- Generator: Adobe Illustrator 23.0.1, SVG Export Plug-In . SVG Version: 6.00 Build 0)  -->
<svg version="1.1" id="Lag_1" xmlns="http://www.w3.org/2000/svg" xmlns:xlink="http://www.w3.org/1999/xlink" x="0px" y="0px"
	 viewBox="0 0 373 373" style="enable-background:new 0 0 373 373;" xml:space="preserve">
<g>
	<g>
		<path d="M80.6,102.9V88.7C63,85.4,49.7,70,49.7,51.4s13.3-34,30.9-37.3V0C55.3,3.4,35.7,25.2,35.7,51.4S55.3,99.5,80.6,102.9z"/>
		<path d="M94.6,14.2c17.6,3.3,30.9,18.7,30.9,37.3s-13.3,34-30.9,37.3v14.2c25.3-3.4,44.9-25.2,44.9-51.4S120,3.4,94.6,0V14.2z"/>
		<path d="M80.6,359H65.2c-5.4,0-9.8-4.4-9.8-9.8V246.6H37.1c-5.4,0-9.8-4.4-9.8-9.8v-95.5c0-14.7,12-26.7,26.7-26.7h6.5
			c6.5,2.8,13.3,4.6,20.2,5.3v-14.1c-5.4-0.7-10.7-2.2-15.8-4.5l-1.4-0.6h-9.5c-22.4,0-40.7,18.3-40.7,40.7v95.5
			c0,13.1,10.7,23.8,23.9,23.8h4.2v88.5c0,13.1,10.7,23.8,23.8,23.8h15.5L80.6,359L80.6,359z"/>
		<path d="M121.3,100.6h-9.5l-1.4,0.6c-5.1,2.3-10.4,3.8-15.8,4.5v14.1c6.9-0.7,13.7-2.5,20.2-5.3h6.5c14.7,0,26.7,12,26.7,26.7
			v95.5c0,5.4-4.4,9.8-9.8,9.8h-18.2v102.5c0,5.4-4.4,9.8-9.8,9.8c0,0,0,0,0,0H94.6v14h15.5c0,0,0,0,0,0c13.1,0,23.8-10.7,23.8-23.8
			v-88.5h4.2c13.2,0,23.8-10.7,23.8-23.8v-95.5C162,118.9,143.8,100.6,121.3,100.6z"/>
	</g>
	<g>
		<path d="M260,102.9V88.7c-17.6-3.3-30.9-18.8-30.9-37.3s13.4-34,30.9-37.3V0c-25.3,3.4-44.9,25.2-44.9,51.4S234.7,99.5,260,102.9z
			"/>
		<path d="M274,14.2c17.6,3.3,30.9,18.7,30.9,37.3s-13.4,34-30.9,37.3v14.2c25.3-3.4,44.9-25.2,44.9-51.4S299.4,3.4,274,0V14.2z"/>
		<path d="M323.9,118.7c-2.7-10.6-12.2-18.1-23.1-18.1h-9.5l-1.4,0.6c-5.1,2.3-10.4,3.8-15.8,4.5v14.1c6.9-0.7,13.7-2.5,20.2-5.3
			h6.5c4.5,0,8.5,3.1,9.5,7.5l31.5,126.1h0l2.2,8.7c0.2,0.8,0.3,1.6,0.3,2.4c0,2.6-1,5.1-2.9,7c-1.9,1.9-4.3,2.9-7,2.9h-46.3v80
			c0,5.4-4.4,9.8-9.9,9.8c0,0,0,0,0,0H274v14h4.2c0,0,0,0,0,0c13.1,0,23.8-10.7,23.8-23.8v-66h32.3c6.4,0,12.4-2.5,16.9-7
			c3.8-3.8,6.2-8.7,6.8-13.9h1.7L323.9,118.7z"/>
		<path d="M260,359h-4.3c-5.4,0-9.8-4.4-9.8-9.8v-80h-46.3c-0.8,0-1.6-0.1-2.4-0.3c-5.3-1.3-8.5-6.7-7.2-12l33.7-134.8
			c1.1-4.4,5-7.5,9.6-7.5h6.5c6.5,2.8,13.3,4.6,20.2,5.3v-14.1c-5.4-0.7-10.7-2.2-15.8-4.5l-1.4-0.6h-9.5l0,0
			c-11,0-20.5,7.4-23.1,18.1l-33.7,134.8c-3.2,12.8,4.6,25.7,17.4,28.9c1.9,0.5,3.8,0.7,5.7,0.7h32.3v66c0,13.1,10.7,23.8,23.9,23.8
			h4.2L260,359L260,359z"/>
	</g>
</g>
</svg>
