<?xml version="1.0" encoding="utf-8"?>
<!-- Generator: Adobe Illustrator 23.0.1, SVG Export Plug-In . SVG Version: 6.00 Build 0)  -->
<svg version="1.1" id="Lag_1" xmlns="http://www.w3.org/2000/svg" xmlns:xlink="http://www.w3.org/1999/xlink" x="0px" y="0px"
	 viewBox="0 0 346.5 372.95" style="enable-background:new 0 0 346.5 372.95;" xml:space="preserve">
<g>
	<g>
		<path d="M67.39,102.89V88.71c-17.58-3.3-30.93-18.75-30.93-37.27s13.35-33.98,30.93-37.27V0C42.06,3.43,22.46,25.19,22.46,51.44
			S42.06,99.46,67.39,102.89z"/>
		<path d="M81.39,14.17c17.58,3.3,30.93,18.75,30.93,37.27S98.97,85.42,81.39,88.71v14.17c25.33-3.43,44.93-25.19,44.93-51.44
			S106.73,3.43,81.39,0V14.17z"/>
		<path d="M67.39,358.95H51.93c-5.43,0-9.84-4.42-9.84-9.84V246.62H23.84c-5.43,0-9.84-4.42-9.84-9.84V141.3
			c0-14.72,11.98-26.7,26.7-26.7h6.5c6.49,2.8,13.31,4.56,20.2,5.26v-14.11c-5.4-0.7-10.73-2.19-15.79-4.51l-1.39-0.64H40.7
			c-22.44,0-40.7,18.26-40.7,40.7v95.48c0,13.15,10.7,23.84,23.85,23.84h4.23v88.48c0,13.15,10.7,23.84,23.84,23.84h15.46V358.95z"
			/>
		<path d="M108.09,100.61h-9.5l-1.39,0.64c-5.07,2.32-10.4,3.82-15.81,4.52v14.11c6.9-0.71,13.71-2.46,20.21-5.26h6.49
			c14.72,0,26.7,11.98,26.7,26.7v95.48c0,5.43-4.42,9.84-9.84,9.84h-18.23v102.49c0,5.42-4.42,9.83-9.85,9.83c0,0,0,0-0.01,0H81.39
			v14h15.46c0.01,0,0.01,0,0.02,0c13.14,0,23.83-10.68,23.84-23.84v-88.48h4.23c13.15,0,23.84-10.7,23.84-23.84V141.3
			C148.79,118.86,130.53,100.61,108.09,100.61z"/>
	</g>
	<g>
		<path d="M246.8,102.89V88.71c-17.58-3.3-30.93-18.75-30.93-37.27s13.35-33.98,30.93-37.27V0c-25.33,3.43-44.93,25.19-44.93,51.44
			S221.47,99.46,246.8,102.89z"/>
		<path d="M260.8,14.17c17.58,3.3,30.93,18.75,30.93,37.27s-13.35,33.98-30.93,37.27v14.17c25.33-3.43,44.93-25.19,44.93-51.44
			S286.14,3.43,260.8,0V14.17z"/>
		<path d="M310.63,118.66c-2.66-10.63-12.17-18.05-23.13-18.06H278l-1.39,0.64c-5.07,2.32-10.4,3.82-15.81,4.52v14.11
			c6.9-0.71,13.71-2.46,20.21-5.26h6.48c4.53,0,8.46,3.07,9.55,7.46l31.52,126.09h-0.03l2.17,8.69c0.19,0.78,0.29,1.58,0.29,2.38
			c0,2.63-1.02,5.11-2.88,6.97c-1.86,1.86-4.33,2.89-6.96,2.89h-46.27v80.02c0,5.42-4.42,9.83-9.85,9.83c0,0,0,0-0.01,0h-4.23v14
			h4.23c0.01,0,0.01,0,0.02,0c13.14,0,23.83-10.68,23.84-23.84v-66.02h32.27c6.37,0,12.36-2.49,16.86-7
			c3.8-3.81,6.16-8.68,6.8-13.94h1.68L310.63,118.66z"/>
		<path d="M246.8,358.95h-4.27c-5.43,0-9.84-4.42-9.84-9.84v-80.02h-46.3c-0.79,0-1.59-0.1-2.36-0.29
			c-5.27-1.32-8.49-6.68-7.18-11.95l33.71-134.79c1.1-4.39,5.02-7.46,9.55-7.46h6.49c6.49,2.8,13.31,4.55,20.2,5.26v-14.11
			c-5.4-0.7-10.73-2.19-15.79-4.51l-1.39-0.64h-9.5c0,0,0,0,0,0c-10.96,0-20.47,7.43-23.13,18.06l-33.71,134.79
			c-3.19,12.76,4.6,25.74,17.37,28.92c1.86,0.46,3.78,0.7,5.73,0.71h32.32v66.02c0,13.15,10.7,23.84,23.88,23.84h4.23V358.95z"/>
	</g>
</g>
</svg>
