<?xml version="1.0" encoding="iso-8859-1"?>
<!-- Generator: Adobe Illustrator 19.0.0, SVG Export Plug-In . SVG Version: 6.00 Build 0)  -->
<svg version="1.1" id="Layer_1" xmlns="http://www.w3.org/2000/svg" xmlns:xlink="http://www.w3.org/1999/xlink" x="0px" y="0px"
	 viewBox="0 0 511.998 511.998" style="enable-background:new 0 0 511.998 511.998;" xml:space="preserve">
<g>
	<g>
		<path d="M214.681,107.651c-7.801-1.728-15.898-2.605-24.065-2.605c-50.484,0-91.556,33.588-91.556,74.875
			c0,0.77,0.015,1.543,0.044,2.316c-30.753,5.29-54.248,30.442-57.934,61.116c-11.114,6.165-18.296,18.065-18.296,31.036v20.407
			C9.877,297.2,0,308.638,0,322.351v24.631c0,5.844,4.75,10.598,10.588,10.598c5.348,0,10.348-1.516,14.6-4.138v70.038
			c0,2.401,0.728,4.635,1.971,6.495c2.1,3.145,5.675,5.222,9.727,5.222h31.777c3.617,0,6.972-1.633,9.203-4.482
			c0.796-1.017,1.399-2.138,1.818-3.315c0.022-0.064,0.053-0.122,0.074-0.186c0.053-0.158,0.086-0.322,0.132-0.482
			c0.563-1.945,0.63-4.026,0.128-6.074l-3.315-13.314c-0.061-0.238-0.137-0.469-0.212-0.702c-0.022-0.068-0.04-0.14-0.064-0.208
			c-0.054-0.158-0.12-0.311-0.182-0.466c-0.063-0.159-0.12-0.321-0.189-0.475c-0.027-0.062-0.06-0.118-0.088-0.178
			c-0.566-1.218-1.342-2.334-2.292-3.3c-0.4-0.408-0.824-0.792-1.284-1.141l-7.376-5.55v-41.611h12.864
			c2.004,0,3.938-0.515,5.659-1.466v47.38c0,0.022-0.003,0.045-0.003,0.068v24.16c0,5.657,4.164,10.348,9.584,11.194
			c0.571,0.089,1.15,0.149,1.746,0.149h0.001h34.372h0.005c3.369,0,6.538-1.487,8.696-4.079c2.065-2.481,2.951-5.686,2.499-8.846
			c-0.021-0.149-0.029-0.299-0.056-0.447l-2.785-15.353c-0.05-0.283-0.124-0.558-0.195-0.834c-0.026-0.102-0.044-0.207-0.072-0.308
			c-0.038-0.13-0.089-0.254-0.132-0.382c-0.708-2.169-2.052-4.082-3.867-5.468c-0.294-0.227-0.597-0.443-0.914-0.642l-9.874-6.123
			l-2.244-1.394v-37.832l13.911-1.157c2.506-0.209,4.761-1.608,6.059-3.762l26.148-43.329l27.648,0.979
			c4.356,0.132,7.956-3.229,8.109-7.554c0.154-4.325-3.229-7.956-7.554-8.109l-60.041-2.125c-3.102-0.121-6.177,1.048-8.398,3.146
			L76.33,338.041H61.043c-6.451,0-11.699,5.258-11.699,11.723v42.632l-8.482,1.266v-67.615c0.087-0.089,0.172-0.181,0.255-0.275
			l10.245-11.585c3.065-2.167,4.96-5.738,4.96-9.568v-52.826c0-0.949,0.03-1.893,0.078-2.832c0.003-0.049,0.008-0.097,0.01-0.146
			c1.408-26.089,21.181-47.845,47.183-51.415l4.096,0.041c0.026,0,0.052,0,0.077,0c2.307,0,4.499-1.018,5.988-2.783
			c1.506-1.785,2.139-4.149,1.723-6.447c-0.495-2.74-0.746-5.529-0.746-8.29c0-32.644,34.041-59.202,75.883-59.202
			c7.029,0,13.985,0.752,20.675,2.234c4.227,0.936,8.41-1.73,9.346-5.956C221.574,112.771,218.906,108.588,214.681,107.651z
			 M22.87,329.553c0,4.988-2.955,9.295-7.196,11.245v-18.447c0-4.988,2.955-9.295,7.196-11.245V329.553z M99.214,338.137
			l36.461-33.982l12.818,0.453l-19.573,32.437l-17.106,1.423c-4.063,0.339-7.187,3.733-7.187,7.811v43.166l-5.413,0.937V338.137z
			 M99.213,406.29l12.099-2.097l3.592,2.228l7.608,4.725l1.521,8.38h-24.82V406.29z M40.648,302.655
			c-0.087,0.09-0.172,0.181-0.255,0.275l-1.847,2.089v-30.629c0.001-3.132,0.753-6.15,2.102-8.848V302.655z M54.994,407.399
			l6.852,5.159l1.733,6.963H40.862v-10.013L54.994,407.399z"/>
	</g>
</g>
<g>
	<g>
		<path d="M445.47,218.715c-3.41-2.66-8.335-2.056-11,1.355c-9.869,12.642-24.691,19.892-40.664,19.892
			c-30.118,0-54.908,23.635-56.437,53.807c-1.782,35.165-4.049,79.752-4.763,93.767l-11.541,2.982l-1.258-85.231
			c-0.008-0.563-0.077-1.124-0.206-1.674c-1.206-5.147-5.735-8.857-10.98-9.019l-71.482-2.531c-4.369-0.132-7.956,3.229-8.109,7.554
			c-0.154,4.325,3.229,7.956,7.554,8.109l19.086,0.675l-7.328,92.578c0,0.005-0.002,0.011-0.003,0.018l-1.696,21.424
			c-0.295,3.343,0.817,6.659,3.052,9.099c0.002,0.002,0.005,0.004,0.007,0.007c0,0,0,0,0,0.001c0.024,0.025,0.051,0.048,0.075,0.073
			c0.246,0.262,0.499,0.516,0.766,0.753c0.037,0.031,0.077,0.06,0.114,0.091c0.259,0.225,0.525,0.441,0.801,0.639
			c0.027,0.02,0.057,0.034,0.085,0.054c1.881,1.324,4.129,2.06,6.438,2.06h0.002h30.458h0.004c4.984,0,9.322-3.432,10.637-8.271
			c0.081-0.295,0.156-0.592,0.214-0.897l2.582-13.632c0.677-3.596-0.409-7.258-2.762-9.872c-0.691-0.768-1.486-1.451-2.385-2.01
			l-9.343-5.776l15.863-84.652l0.95,0.033l1.336,90.484c0.001,0.519,0.051,1.045,0.16,1.573l2.462,11.971l2.427,11.812
			c0.017,0.076,0.032,0.154,0.051,0.231c0.155,0.651,0.362,1.279,0.615,1.878c0.002,0.006,0.004,0.011,0.006,0.018
			c0.071,0.166,0.154,0.326,0.231,0.488c0.066,0.139,0.126,0.281,0.198,0.415c0.007,0.014,0.016,0.025,0.022,0.039
			c1.992,3.741,5.897,6.171,10.311,6.171h32.564c4.751,0,8.895-2.921,10.561-7.256c0.182-0.469,0.343-0.95,0.464-1.451l2.381-9.991
			l0.592-2.484c0.054-0.23,0.098-0.46,0.138-0.691c0.007-0.039,0.017-0.077,0.023-0.116c0.022-0.136,0.034-0.272,0.052-0.408
			c0.483-3.787-0.97-7.577-3.874-10.041c-0.156-0.134-0.312-0.268-0.477-0.393l-10.083-7.71l-6.187-4.732
			c0.605-11.877,2.988-58.735,4.844-95.363c1.107-21.829,19.02-38.928,40.783-38.928c20.833,0,40.16-9.448,53.019-25.921
			C449.489,226.303,448.882,221.378,445.47,218.715z M284.576,419.525h-21.977l0.893-11.296l12.313-2.277
			c0.216,0.161,0.443,0.312,0.673,0.46c0.046,0.029,0.087,0.065,0.133,0.093l9.34,5.774L284.576,419.525z M272.205,390.679
			l-7.432,1.374l6.577-83.096l16.063,0.568L272.205,390.679z M352.69,413.108l-1.531,6.414h-25.889l-2.025-9.847l-0.69-3.353
			l15.891-4.106l6.641,5.078L352.69,413.108z"/>
	</g>
</g>
<g>
	<g>
		<path d="M487.852,102.525h-31.166c-1.364-2.31-3.013-4.449-4.893-6.329c-6.127-6.141-14.274-9.435-22.901-9.362
			c-5.21-4.734-13.658-9.855-25.933-10.034c-0.001,0-0.002,0-0.003,0c-3.414-0.062-6.915,1.474-9.333,4.077
			c-2.186,2.353-3.244,5.28-2.983,8.237c0.86,9.778,3.446,17.572,7.523,23.021c-0.519,2.329-0.789,4.715-0.789,7.139v50.678
			c0,12.007-9.716,21.776-21.66,21.776h-27.789c-11.826-24.097-36.097-39.393-63.233-39.393h-8.906
			c-4.857-10.042-12.377-19.177-21.986-26.654c-3.416-2.658-8.338-2.045-10.996,1.372c-2.658,3.416-2.044,8.339,1.372,10.997
			c8.938,6.955,15.563,15.576,19.157,24.932c1.163,3.027,4.071,5.026,7.315,5.026h14.043c22.501,0,42.471,13.532,50.876,34.475
			c1.192,2.971,4.071,4.917,7.273,4.917h32.872c20.586,0,37.333-16.8,37.333-37.449v-49.245c2.458-0.042,4.963-0.86,7.079-2.376
			c4.906-3.512,11.419-8.742,14.587-13.711c0.202-0.316,0.365-0.643,0.53-0.97c2.014,0.808,3.868,2.028,5.459,3.623
			c1.629,1.628,2.915,3.637,3.722,5.812c1.139,3.073,4.071,5.114,7.348,5.114h36.079c4.673,0,8.474,3.83,8.474,8.537v8.537h-43.05
			c-4.329,0-7.837,3.508-7.837,7.837v45.004c0,4.329,3.508,7.837,7.837,7.837s7.837-3.508,7.837-7.837v-37.167h36.499
			c7.934,0,14.388-6.468,14.388-14.42v-9.791C512,113.385,501.168,102.525,487.852,102.525z M412.506,104.49
			c-2.764-1.89-4.558-6.65-5.532-11.619c5.717,1.018,9.633,3.788,12.049,6.165C417.358,100.658,415.091,102.561,412.506,104.49z"/>
	</g>
</g>
<g>
	<g>
		<circle cx="431.877" cy="119.337" r="7.837"/>
	</g>
</g>
<g>
</g>
<g>
</g>
<g>
</g>
<g>
</g>
<g>
</g>
<g>
</g>
<g>
</g>
<g>
</g>
<g>
</g>
<g>
</g>
<g>
</g>
<g>
</g>
<g>
</g>
<g>
</g>
<g>
</g>
</svg>
