<?xml version="1.0" encoding="utf-8"?>
<!-- Generator: Adobe Illustrator 23.0.1, SVG Export Plug-In . SVG Version: 6.00 Build 0)  -->
<svg version="1.1" id="Layer_1" xmlns="http://www.w3.org/2000/svg" xmlns:xlink="http://www.w3.org/1999/xlink" x="0px" y="0px"
	 viewBox="0 0 512 512" style="enable-background:new 0 0 512 512;" xml:space="preserve">
<g>
	<g id="Layer_1-2">
		<path d="M509,219.1c-18.1-19.7-40.6-34.8-65.7-44c-22.6-9.4-46.2-16.2-70.3-20.4c-2-2-6.6-6.6-14.5-13.8
			c-4.6-3.9-9.9-7.9-14.5-11.2c-4.6-3.9-10.4-6.2-16.4-6.6c-8.2,0.3-15.5,5.1-19.1,12.5c-2.4,5.8-3.5,12.1-3.3,18.4
			c-0.1,2.2,0.1,4.4,0.7,6.6c-2.6-0.7-4.6-1.3-8.5-2.6c-13.1-3.6-33.3-9.3-63.6-17c0,7.4,1.3,14.7,3.9,21.6
			c25.2,6.6,42.7,11.2,54.4,14.5c7.9,2.6,13.8,3.9,17.1,5.3c2,0.7,3.3,0.7,3.9,1.3s0.7,0,1.3,0.7c0.7,0.7,0.7,0.7,3.3,0.7l3.9-1.3
			l2-1.3c0,0,1.3-0.7,1.3-1.3c1.2-1,1.9-2.4,2-3.9c0.4-1,0.7-2.2,0.7-3.3v-2.6c0.1-1.8-0.2-3.6-0.7-5.3c-0.6-4.4-0.8-8.7-0.7-13.1
			c-0.1-3.3,0.3-6.7,1.3-9.9c1.8,0.7,3.6,1.6,5.3,2.6c4.5,2.9,8.7,6.2,12.5,9.9c8.5,7.2,15.8,14.5,15.8,14.5l2.6,2.6l3.3,0.7
			c23.7,3.8,46.8,10.5,69,19.7c35.5,13.8,49.9,30.2,53.9,34.8l-2.6,9.9c-0.7,1.3-8.5,13.1-14.5,21c-12.6,13.1-28.5,22.7-46,27.6
			c-8.5,2.6-23.6,5.9-38.1,9.9c-1.1-0.2-2.3,0.1-3.3,0.7c-14.7,4.5-30,7-45.3,7.2c-11.3,0.3-22.5-1.9-32.8-6.6
			c-10.3-4.8-18-14-21-25c-1.2-4.5-5.5-7.5-10.1-7.2c-3.2,0.2-6.2,1.9-7.9,4.6c-1.8,2.7-2.2,6.1-1.3,9.2c5.2,16,16.6,29.2,31.5,36.8
			c13.2,6,27.6,8.9,42,8.5h9.2c-5.6,9.3-8.3,20-7.9,30.9v9.9c-7.4-1.6-14.3-4.7-20.4-9.2c-13-9.2-27.2-16.7-42-22.3
			c-70.3-23.6-149.8-23.6-201.7,0.7c-9.9,5.5-17.7,14-22.3,24.3c-1.5,2.3-2.9,4.7-3.9,7.2c-2.3-1.9-4.3-4.1-5.9-6.6
			c-7.4-10.5-12.8-22.3-15.8-34.8c-8.3-30.9-8.3-76.2,21.3-135.3c14.5-23.6,31.5-36.8,55.8-42c9.9-2.2,20.1-3.4,30.2-3.3
			c22.2,0.5,44.3,3.8,65.7,9.9l11.3,2.6c4.9-5.2,6.3-12.7,3.7-19.3l-10.4-2.4c-42-10.5-76.2-13.1-105.8-6.6
			c-22.8,5.2-43.1,17.9-57.8,36.1C33.7,158,25.4,149.4,20,139c-1.8-3.4-5.3-5.7-9.2-5.9c-3.6,0.1-6.9,1.8-9.2,4.6
			c-1.8,3-2.1,6.7-0.7,9.9c7,13.2,17.5,24.3,30.2,32.2C-0.1,242.7-0.1,294,9.1,329.5c3.7,14.9,10.1,28.9,19.1,41.4
			c3.2,4.2,6.7,8.2,10.5,11.8c3.1,3.7,7.6,5.9,12.5,5.9c5.8-0.5,11.2-3.3,14.8-7.9c2.6-3.9,4.6-7.9,7.2-11.2
			c2.8-6.4,7.3-11.9,13.1-15.8c44.7-20.4,120.9-21.7,186.6,0.7c13.2,5.1,25.8,11.7,37.4,19.7c11.8,7.2,23,15.1,37.4,15.1
			c4.9-0.3,9.3-3,11.8-7.2c1.1-2.8,2-5.6,2.6-8.5c0.6-6.1,0.8-12.3,0.7-18.4c-0.8-17.3,10.8-32.7,27.6-36.8
			c15.8-3.9,32.8-7.9,42.7-11.2c21.5-5.7,40.9-17.6,55.8-34.2c6.1-7.8,11.8-15.9,17.1-24.3l0.7-1.3L512,223L509,219.1z"/>
		<circle cx="380.9" cy="212.3" r="16.4"/>
	</g>
</g>
</svg>
