<svg xmlns="http://www.w3.org/2000/svg" viewBox="0 0 77.94 40.5"><title>Asset 1</title><g id="Layer_2" data-name="Layer 2"><g id="Layer_1-2" data-name="Layer 1"><path d="M77.44,14.6a25.53,25.53,0,0,0-10-6.7,49.72,49.72,0,0,0-10.7-3.1c-.3-.3-1-1-2.2-2.1-.7-.6-1.5-1.2-2.2-1.7a4.3,4.3,0,0,0-2.5-1,3.38,3.38,0,0,0-2.9,1.9,6.92,6.92,0,0,0-.5,2.8,3.4,3.4,0,0,0,.1,1c-.4-.1-.7-.2-1.3-.4-2-.55-5.07-1.42-9.68-2.59A9,9,0,0,0,36.16,6C40,7,42.66,7.7,44.44,8.2c1.2.4,2.1.6,2.6.8.3.1.5.1.6.2s.1,0,.2.1.1.1.5.1l.6-.2.3-.2s.2-.1.2-.2a.86.86,0,0,0,.3-.6,1.34,1.34,0,0,0,.1-.5V7.3a2.49,2.49,0,0,0-.1-.8,12.75,12.75,0,0,1-.1-2,4.39,4.39,0,0,1,.2-1.5,5.9,5.9,0,0,1,.8.4,12.45,12.45,0,0,1,1.9,1.5c1.3,1.1,2.4,2.2,2.4,2.2l.4.4.5.1a46.58,46.58,0,0,1,10.5,3c5.4,2.1,7.6,4.6,8.2,5.3l-.4,1.5c-.1.2-1.3,2-2.2,3.2a15.55,15.55,0,0,1-7,4.2c-1.3.4-3.6.9-5.8,1.5a.75.75,0,0,0-.5.1,24.67,24.67,0,0,1-6.9,1.1,11.46,11.46,0,0,1-5-1,5.92,5.92,0,0,1-3.2-3.8A1.5,1.5,0,0,0,42,21.6a1.52,1.52,0,0,0-1.2.7,1.7,1.7,0,0,0-.2,1.4,9.64,9.64,0,0,0,4.8,5.6,14.68,14.68,0,0,0,6.4,1.3h1.4A8.47,8.47,0,0,0,52,35.3v1.5a8.07,8.07,0,0,1-3.1-1.4,29.19,29.19,0,0,0-6.4-3.4c-10.7-3.6-22.8-3.6-30.7.1a7.89,7.89,0,0,0-3.4,3.7,6.4,6.4,0,0,0-.6,1.1,4.5,4.5,0,0,1-.9-1,15.53,15.53,0,0,1-2.4-5.3C3.24,25.9,3.24,19,7.74,10c2.2-3.6,4.8-5.6,8.5-6.4a20.21,20.21,0,0,1,4.6-.5,39.77,39.77,0,0,1,10,1.5L32.56,5a2.79,2.79,0,0,0,.56-2.94L31.54,1.7c-6.4-1.6-11.6-2-16.1-1a15.83,15.83,0,0,0-8.8,5.5A9.39,9.39,0,0,1,3,2.4a1.69,1.69,0,0,0-1.4-.9,1.91,1.91,0,0,0-1.4.7,1.62,1.62,0,0,0-.1,1.5,12.89,12.89,0,0,0,4.6,4.9C-.06,18.2-.06,26,1.34,31.4a18.51,18.51,0,0,0,2.9,6.3,14.54,14.54,0,0,0,1.6,1.8,2.46,2.46,0,0,0,1.9.9A3.23,3.23,0,0,0,10,39.2c.4-.6.7-1.2,1.1-1.7a5.54,5.54,0,0,1,2-2.4c6.8-3.1,18.4-3.3,28.4.1a28.1,28.1,0,0,1,5.7,3c1.8,1.1,3.5,2.3,5.7,2.3a2.28,2.28,0,0,0,1.8-1.1,9.29,9.29,0,0,0,.4-1.3,25.28,25.28,0,0,0,.1-2.8,5.49,5.49,0,0,1,4.2-5.6c2.4-.6,5-1.2,6.5-1.7a17.46,17.46,0,0,0,8.5-5.2A41.94,41.94,0,0,0,77,19.1l.1-.2.8-3.7Z"/><circle cx="57.94" cy="13.56" r="2.5"/></g></g></svg>