<?xml version="1.0" encoding="iso-8859-1"?>
<!-- Generator: Adobe Illustrator 19.0.0, SVG Export Plug-In . SVG Version: 6.00 Build 0)  -->
<svg version="1.1" id="Layer_1" xmlns="http://www.w3.org/2000/svg" xmlns:xlink="http://www.w3.org/1999/xlink" x="0px" y="0px"
	 viewBox="0 0 512 512" style="enable-background:new 0 0 512 512;" xml:space="preserve">
<g>
	<g>
		<circle cx="430.09" cy="144.477" r="7.837"/>
	</g>
</g>
<g>
	<g>
		<path d="M484.922,130.827c-7.93-1.449-16.358-2.496-21.868-2.972l-2.086-4.058c-4.637-9.009-13.809-14.607-23.938-14.607h-3.146
			c-36.686,0-66.533,29.856-66.533,66.555v3.165c0,14.297-11.629,25.929-25.922,25.929h-54.606c-4.329,0-7.837,3.509-7.837,7.837
			c0,4.328,3.508,7.837,7.837,7.837h54.607c22.936,0,41.595-18.663,41.595-41.603v-3.165c0-28.057,22.815-50.881,50.859-50.881
			h3.146c4.231,0,8.063,2.34,9.999,6.1l4.123,8.025c1.343,2.612,4.032,4.255,6.97,4.255c6,0,28.75,3.171,37.325,6.174
			c-0.82,2.09-2.406,5.394-5.472,10.306c-2.145,3.436-5.861,5.486-9.945,5.486c-0.005,0-0.011,0-0.017,0
			c-7.057-0.009-15.892-0.018-20.394-0.018c-3.515,0-6.826,1.364-9.38,3.892c-2.473,2.498-3.836,5.811-3.836,9.325v11.582
			c-19.113,6.238-32.397,24.125-32.397,44.777v19.728c0,4.285-0.637,8.5-1.829,12.535v-14.317c0-4.328-3.508-7.837-7.837-7.837
			c-4.329,0-7.837,3.509-7.837,7.837v88.074c0,0.03,0,0.061,0,0.091v25.107c0,4.328,3.508,7.837,7.837,7.837h10.604
			c5.564,0,10.091,4.529,10.091,10.095v3.218h-61.264v-91.087c0-4.328-3.508-7.837-7.837-7.837s-7.837,3.509-7.837,7.837v2.772
			h-85.464c-24.901,0-45.884,17.007-51.434,40.573h-21.103c-6.297,0-11.421,5.123-11.421,11.421v14.273
			c0,6.298,5.123,11.421,11.421,11.421h14.943c1.67,0,3.277,0.404,4.717,1.173v9.453h-77.652h-11.891v-59.434
			c0-59.103,48.075-107.186,107.166-107.186h15.559c4.329,0,7.837-3.509,7.837-7.837c0-4.328-3.508-7.837-7.837-7.837h-15.559
			c-65.101,0-118.526,50.916-122.581,115.022H62.38C27.983,319.864,0,347.853,0,382.255v9.132c0,6.298,5.123,11.421,11.421,11.421
			h38.734c4.329,0,7.837-3.509,7.837-7.837c0-4.328-3.508-7.837-7.837-7.837H15.673v-4.88c0-25.76,20.953-46.717,46.707-46.717
			h42.162v51.597H93.518c-4.329,0-7.837,3.509-7.837,7.837c0,4.328,3.508,7.837,7.837,7.837h22.455h16.132h90.864
			c4.329,0,7.837-3.509,7.837-7.837v-7.581c0-0.014,0.002-0.026,0.002-0.041v-0.744c0-2.745-0.43-5.418-1.246-7.949
			c-1.104-3.429-2.927-6.59-5.389-9.296c-0.357-0.394-0.723-0.782-1.108-1.157c-0.017-0.016-0.036-0.028-0.052-0.044
			c-4.825-4.723-11.202-7.325-17.974-7.325h-10.689v-5.768h23.468h130.282v36.319c0,6.299,5.124,11.423,11.423,11.423h69.767
			c6.298,0,11.423-5.124,11.423-11.423v-7.469c0-14.208-11.559-25.768-25.764-25.768h-2.767v-12.296
			c30.473-15.007,49.894-45.945,49.894-80.249c0-4.328-3.508-7.837-7.837-7.837c-4.329,0-7.837,3.509-7.837,7.837
			c0,25.6-13.112,48.925-34.22,62.305v-31.071c11.16-11.212,17.502-26.443,17.502-42.341v-19.728
			c0-11.945,6.65-22.505,16.718-27.818v21.622c0,4.328,3.508,7.837,7.837,7.837c0.001,0,0.001,0,0.002,0s0.001,0,0.002,0
			c4.329,0,7.837-3.509,7.837-7.837v-47.705c4.811,0.002,11.99,0.009,17.916,0.018c0.014,0,0.024,0,0.038,0
			c9.525,0,18.213-4.805,23.24-12.86C511.095,155.491,512,149.681,512,146.4C512,137.514,502.071,133.962,484.922,130.827z
			 M348.102,339.392H227.495c5.072-14.66,18.927-24.9,35.14-24.9h85.466V339.392z"/>
	</g>
</g>
<g>
</g>
<g>
</g>
<g>
</g>
<g>
</g>
<g>
</g>
<g>
</g>
<g>
</g>
<g>
</g>
<g>
</g>
<g>
</g>
<g>
</g>
<g>
</g>
<g>
</g>
<g>
</g>
<g>
</g>
</svg>
