<?xml version="1.0" encoding="iso-8859-1"?>
<!-- Generator: Adobe Illustrator 19.0.0, SVG Export Plug-In . SVG Version: 6.00 Build 0)  -->
<svg version="1.1" id="Layer_1" xmlns="http://www.w3.org/2000/svg" xmlns:xlink="http://www.w3.org/1999/xlink" x="0px" y="0px"
	 viewBox="0 0 512 512" style="enable-background:new 0 0 512 512;" xml:space="preserve">
<g>
	<g>
		<circle cx="438.565" cy="116.662" r="7.837"/>
	</g>
</g>
<g>
	<g>
		<path d="M495.279,115.263l-30.43-10.522c-4.137-1.43-7.597-4.513-9.494-8.457c-4.375-9.098-12.907-15.663-22.822-17.563
			l-7.605-1.458V57.897c0-14.64-11.915-26.551-26.561-26.551h-4.786c-2.674,0-5.031,1.341-6.446,3.384
			c-4.26-2.159-9.071-3.384-14.166-3.384c-4.329,0-7.837,3.509-7.837,7.837v62.163c-8.303,1.381-15.564,6.805-19.155,14.617
			l-18.389,40.094c-4.874,10.622-15.576,17.485-27.266,17.485h-57.825c-4.329,0-7.837,3.509-7.837,7.837
			c0,4.328,3.508,7.837,7.837,7.837h57.825c17.795,0,34.089-10.449,41.512-26.623l18.387-40.089
			c1.632-3.548,5.198-5.842,9.085-5.842h3.591c0.024,0,0.047,0.003,0.071,0.003s0.047-0.003,0.071-0.003h4.052
			c1.457,0,2.709,0.986,3.049,2.405l2.342,9.741c4.206,17.453,19.688,29.642,37.649,29.642h11.661c2.724,0,4.941,2.216,4.941,4.94
			v2.619c-0.001,0.099-0.003,0.197,0,0.298v52.094c0,4.328,3.508,7.837,7.837,7.837s7.837-3.509,7.837-7.837v-45.334l37.633-4.398
			C502.559,167.206,512,156.6,512,143.999v-5.262C512,128.155,505.28,118.722,495.279,115.263z M401.418,47.455
			c4.523,1.321,7.837,5.502,7.837,10.443V74.26l-4.841-0.928V62.785c0-4.781-1.077-9.314-2.996-13.376V47.455z M496.328,143.999
			L496.328,143.999c-0.001,4.65-3.485,8.563-8.104,9.102l-36.71,4.29c-2.576-8.449-10.439-14.615-19.719-14.615h-11.661
			c-10.692,0-19.908-7.254-22.411-17.637l-2.338-9.729c-1.738-7.257-7.489-12.63-14.575-14.042V49.108
			c4.737,2.723,7.934,7.835,7.934,13.678V79.81c0,3.76,2.67,6.989,6.362,7.697l34.482,6.608c5.06,0.97,9.414,4.32,11.646,8.962
			c3.694,7.684,10.435,13.69,18.496,16.477l30.43,10.522c3.691,1.276,6.17,4.756,6.17,8.661V143.999z"/>
	</g>
</g>
<g>
	<g>
		<path d="M194.175,362.162h-86.488c-4.329,0-7.837,3.509-7.837,7.837v17.614c0,11.433-7.533,21.138-17.899,24.428
			c-0.016,0.005-0.03,0.01-0.046,0.016c-2.432,0.766-5.017,1.182-7.698,1.182H51.127c-1.579,0-2.863-1.279-2.863-2.85v-55.069
			c0-0.007,0.001-0.014,0.001-0.02s-0.001-0.014-0.001-0.02v-98.209c0-37.414,30.455-67.852,67.888-67.852h80.289
			c4.329-0.002,7.837-3.511,7.837-7.839c0-4.328-3.508-7.837-7.837-7.837h-80.29c-41.896,0-76.682,30.983-82.648,71.23
			c-8.504,0.911-16.377,4.657-22.488,10.78C3.912,262.642,0,272.078,0,282.122v45.255c0,18.645,14.352,33.994,32.589,35.608v47.401
			c0,10.214,8.315,18.524,18.536,18.524h1.703v43.907c0,4.328,3.508,7.837,7.837,7.837H98.22c4.329,0,7.837-3.509,7.837-7.837
			v-10.115c0-9.375-5.732-17.534-13.949-21.008v-16.865c0.792-0.381,1.563-0.797,2.326-1.227c3.365,3.305,7.969,5.307,13.003,5.307
			h3.29v43.907c0,4.328,3.508,7.837,7.837,7.837h37.554c4.329,0,7.837-3.509,7.837-7.837v-10.115c0-9.375-5.732-17.534-13.95-21.008
			v-17.67c13.242-7.116,21.818-21.124,21.818-36.418v-9.77h22.354c4.329,0,7.837-3.509,7.837-7.837S198.505,362.162,194.175,362.162
			z M32.589,347.184c-9.571-1.531-16.916-9.817-16.916-19.807v-45.255c0-5.851,2.278-11.349,6.424-15.487
			c2.926-2.932,6.548-4.907,10.492-5.822V347.184z M90.384,464.979h-21.88v-36.07h5.705c0.747,0,1.489-0.022,2.226-0.062v18.932
			c0,4.128,3.203,7.549,7.324,7.82c3.716,0.245,6.626,3.364,6.626,7.101V464.979z M148.281,464.979h-21.88v-36.07h4.117
			c1.28,0,2.552-0.061,3.813-0.176v19.046c0,4.128,3.203,7.549,7.324,7.82c3.716,0.245,6.627,3.364,6.627,7.101V464.979z
			 M156.151,387.604c0,10.666-6.716,20.328-16.712,24.043c-2.835,1.054-5.836,1.588-8.919,1.588h-23.082
			c-0.266,0-0.522-0.048-0.77-0.119c5.539-7.028,8.858-15.885,8.858-25.506v-9.776h40.626V387.604z"/>
	</g>
</g>
<g>
	<g>
		<path d="M444.573,260.179c-4.329,0-7.837,3.509-7.837,7.837v27.6c0,26.296-15.537,50.179-39.582,60.845
			c-2.833,1.257-4.659,4.065-4.659,7.164v23.986c0,14.129-11.503,25.625-25.642,25.625h-8.067c-7.463,0-13.864-4.598-16.539-11.105
			c-0.007-0.02-0.015-0.04-0.022-0.06c-0.843-2.074-1.319-4.335-1.319-6.708v-25.365c0-4.328-3.508-7.837-7.837-7.837h-56.143
			c-0.013,0-0.025,0-0.038,0h-37.957c-4.329,0-7.837,3.509-7.837,7.837c0,4.328,3.508,7.837,7.837,7.837h25.84l-3.877,8.793
			c-5.316,12.056-2.37,26.048,6.698,35.033l-12.933,29.685c-1.35,3.108-1.873,6.478-1.529,9.801
			c-0.005,0.188-0.008,0.375-0.008,0.563v11.107c0,4.328,3.508,7.837,7.837,7.837h37.554c4.329,0,7.837-3.509,7.837-7.837v-10.115
			c0-6.15-2.512-11.959-6.744-16.174l5.212-11.976c11.784-0.925,22.724-6.584,30.313-15.422c3.356,3.34,7.414,5.972,11.93,7.661
			v46.024c0,4.328,3.508,7.837,7.837,7.837h37.553c4.329,0,7.837-3.509,7.837-7.837v-10.115c0-9.375-5.732-17.534-13.949-21.008
			v-17.679c12.98-6.97,21.828-20.672,21.828-36.403v-19.066c27.039-14.086,44.241-42.171,44.241-72.929v-27.601
			C452.409,263.688,448.901,260.179,444.573,260.179z M290.68,464.979H268.8v-3.271c0-0.085,0.003-0.168,0.009-0.253
			c0.016-0.197,0.022-0.405,0.022-0.604c0-0.389-0.028-0.777-0.087-1.162c-0.104-0.693-0.002-1.419,0.29-2.093l12.093-27.756
			l2.634,1.146c1.556,0.682,3.144,1.26,4.753,1.755l-5.784,13.289c-1.693,3.89,0.018,8.421,3.858,10.222
			c2.485,1.166,4.091,3.697,4.091,6.447V464.979z M300.028,418.982c-3.446-0.168-6.802-0.959-9.992-2.357l-6.666-2.901
			c-0.743-0.325-1.44-0.688-2.057-1.07c-6.602-4.111-9.212-12.582-6.073-19.705l6.664-15.115h43.332v17.528
			c0,3.093,0.429,6.086,1.217,8.932C321.209,413.691,310.919,419.511,300.028,418.982z M384.616,464.979h-21.88v-36.07h4.116
			c1.286,0,2.558-0.067,3.814-0.183v19.054c0.001,4.128,3.205,7.549,7.325,7.82c3.716,0.245,6.626,3.364,6.626,7.101V464.979z"/>
	</g>
</g>
<g>
	<g>
		<circle cx="291.464" cy="296.385" r="7.837"/>
	</g>
</g>
<g>
	<g>
		<circle cx="266.062" cy="226.241" r="7.837"/>
	</g>
</g>
<g>
	<g>
		<circle cx="228.833" cy="264.944" r="7.837"/>
	</g>
</g>
<g>
	<g>
		<circle cx="122.807" cy="249.751" r="7.837"/>
	</g>
</g>
<g>
	<g>
		<circle cx="320.261" cy="247.149" r="7.837"/>
	</g>
</g>
<g>
	<g>
		<circle cx="365.129" cy="279.259" r="7.837"/>
	</g>
</g>
<g>
	<g>
		<circle cx="382.433" cy="226.241" r="7.837"/>
	</g>
</g>
<g>
	<g>
		<circle cx="188.604" cy="226.241" r="7.837"/>
	</g>
</g>
<g>
	<g>
		<circle cx="163.986" cy="283.188" r="7.837"/>
	</g>
</g>
<g>
	<g>
		<circle cx="88.738" cy="299.279" r="7.837"/>
	</g>
</g>
<g>
</g>
<g>
</g>
<g>
</g>
<g>
</g>
<g>
</g>
<g>
</g>
<g>
</g>
<g>
</g>
<g>
</g>
<g>
</g>
<g>
</g>
<g>
</g>
<g>
</g>
<g>
</g>
<g>
</g>
</svg>
