<?xml version="1.0" encoding="utf-8"?>
<!-- Generator: Adobe Illustrator 23.0.1, SVG Export Plug-In . SVG Version: 6.00 Build 0)  -->
<svg version="1.1" id="Layer_1" xmlns="http://www.w3.org/2000/svg" xmlns:xlink="http://www.w3.org/1999/xlink" x="0px" y="0px"
	 viewBox="0 0 512 512" style="enable-background:new 0 0 512 512;" xml:space="preserve">
<style type="text/css">
	.st0{fill:none;stroke:#ffffff;stroke-width:9;stroke-miterlimit:10;}
</style>
<g>
	<path class="st0" d="M366.3,139.4c0,0.1,0,0.2,0,0.4C366.4,139.7,366.3,139.6,366.3,139.4z"/>
	<path class="st0" d="M385.7,221c-0.1-0.1-0.1-0.1-0.1-0.1c-0.9,0.1-1.6,0.8-1.6,1.7c0,0.4,0.3,9.5,4,14.9c0.3,0.4,0.8,0.7,1.4,0.7
		c0.3,0,0.7-0.1,1-0.3c0.8-0.5,1-1.5,0.4-2.3c-3.2-4.7-3.4-13.1-3.4-13.2C387.3,221.7,386.5,221,385.7,221z"/>
	<path class="st0" d="M375,151.2c-0.8,0.5-1.1,1.4-0.7,2.3l4.3,8.3c0.3,0.5,0.8,0.9,1.4,0.9c0.3,0,0.5-0.1,0.8-0.2
		c0.8-0.4,1.1-1.4,0.7-2.2l-4.3-8.4C376.8,151,375.8,150.8,375,151.2z"/>
	<path class="st0" d="M397.4,291.8c-3.8-4.1-6.9-8.8-9.2-13.8c0.1,0.4-0.1,0.9-0.3,1.2c0,0-0.6,0.8-1.6,2.1
		c2.9,5.6,6.7,10.8,11.1,15.2V291.8z"/>
	<path class="st0" d="M418.1,188.7c-2.1,3.3-3.4,5.5-3.4,12.1c0,7.1,0.8,14.2,2.4,21.2c0.1,0.3,1.6,3.8,1.6,12.7
		c0.3,2.7-0.6,5.3-2.4,7.3c-1.3,1.4-3,2.6-5.2,3.5c-0.2,0-0.4,0.1-0.5,0.2c0,0-0.1,0.1-0.1,0.1c-3,1.1-6.8,1.7-11.3,1.7
		c-0.9,0-1.6,0.8-1.6,1.6s0.8,1.6,1.6,1.6c3.8,0.1,7.7-0.5,11.4-1.5c2.1,4.8,8.1,22.4-10,42.6v-13.5c-0.1-0.8-0.7-1.5-1.5-1.5
		c-0.9-0.1-1.7,0.6-1.7,1.5v21.5l1.5-1.5l1.6,1.6v-3.2c0,0,0,0,0.1-0.1c21.8-22.2,15.4-42.8,13-48.6c0,0,0,0,0,0
		c1.9-0.9,3.6-2.2,4.9-3.7c2.3-2.7,3.4-6.2,3.1-9.7c0-9.4-1.7-13.3-1.8-13.5c-1.4-6.6-2.1-13.4-2.2-20.1c0-5.7,1-7.3,2.9-10.4
		c1.8-2.8,4.1-6.7,7-15.3c2.3-7.2,4.2-14.5,5.5-21.9c-0.6-0.2-1.2-0.5-1.9-0.8c-0.4-0.2-0.7-0.5-0.9-0.9c-1.2,7-3,14.7-5.6,22.4
		C422.1,182.2,419.8,185.9,418.1,188.7z"/>
	<path class="st0" d="M409.9,237.6c3.8-5.5,4-14.5,4-14.9c0-0.9-0.7-1.6-1.6-1.6c-0.9,0.1-1.6,0.8-1.6,1.6c0,0.1-0.3,8.4-3.5,13.2
		c-0.5,0.8-0.3,1.8,0.4,2.3C408.4,238.5,409.4,238.4,409.9,237.6z"/>
	<path class="st0" d="M418.1,162.7c0.6,0,1.2-0.3,1.4-0.9l4.3-8.3c0.4-0.8,0.1-1.8-0.7-2.2c-0.8-0.4-1.8-0.1-2.2,0.7l-4.3,8.3
		c-0.4,0.8-0.1,1.8,0.7,2.2C417.5,162.6,417.8,162.7,418.1,162.7z"/>
	<polygon class="st0" points="397.5,299.8 397.5,299.7 397.4,299.8 	"/>
	<path class="st0" d="M486.2,134.3c-0.5-1.6-1.9-2.8-3.6-2.9c-5.4-0.8-18.5,1-30.1,3.1c5-1.3,9.7-3.8,13.6-7.2
		c6.1-5.6,9.3-13.7,9.3-23.9c-0.1-34.8-40.5-36.6-48.7-36.6c4.5,0.1,9.4,1.9,14.2,4.7c13.6,2.7,31.2,10.3,31.2,31.9
		c0,9.3-2.7,16.5-8.2,21.5c-8.8,8.1-22.4,8.5-28.3,8.2c-0.6,0-1.2-0.1-1.6-0.1c-0.4,0-0.9,0.1-1.2,0.4c0.3-0.3,0.8-0.5,1.3-0.5
		c0.4,0.1,1,0.1,1.6,0.1c0.3-4.3,0.3-7.7,0.3-9.6c0-1.5-0.3-3.1-0.8-4.6h0.4c5.3,0,15.6-0.8,21.4-6.1c2.9-2.7,4.6-6.4,4.5-10.4
		c0-12.2-9.7-24.4-20.6-30.9c-4.7-2.8-9.7-4.5-14.1-4.7H426c-1,0-1.7,0.7-1.8,1.6c0,0.1,0,0.1,0,0.1c0,0.8,0.7,1.5,1.5,1.5h1
		c13.2,0.5,31.6,16.7,31.6,32.2c0.1,3-1.2,6-3.4,8c-6.2,5.6-18.9,5.3-21.8,5.2l-0.6-0.1l0-0.1l0.6,0.1c-0.2-0.3-0.4-0.5-0.7-0.8
		c-5.7-5.5-16.2-5.1-16.6-5.1h-16.7c-0.9,0-1.6,0.8-1.6,1.6s0.8,1.6,1.6,1.6h16.7c0.1,0,9.6-0.3,14.3,4.2c1.7,1.6,2.7,4,2.6,6.4
		c0,2-0.1,5.6-0.4,10.3c-0.2,0.2-0.3,0.5-0.3,0.8c0,0.3,0,0.6,0.2,0.9c-0.1,1.1-0.2,2.3-0.3,3.5c-0.3,0.4-0.4,0.8-0.4,1.3
		c0,0.2,0.1,0.3,0.2,0.5c-0.3,2.8-0.7,5.9-1.2,9.2c-0.2,0.2-0.3,0.3-0.4,0.6c-0.1,0.2-0.1,0.4,0,0.6c0,0.2,0,0.5,0.1,0.7
		c0,0,0-0.1,0-0.1c0.2,0.4,0.5,0.7,0.9,0.9c0.6,0.3,1.2,0.5,1.9,0.8c6.2,2.3,12.6,3.5,19.2,3.6c12,0,21.7-4.5,27.7-10
		C484.7,142.4,487.2,137.5,486.2,134.3z M449.8,134.9c-1.8,0.3-3.5,0.6-5.2,0.9C446.2,135.5,448,135.2,449.8,134.9z M432.9,149.6
		c0.1,0,0.2,0.1,0.2,0.1C433.1,149.7,433,149.6,432.9,149.6z M477.8,144.3c-4.1,3.7-19.2,14.9-44.1,5.6c0.5-3.1,0.8-5.9,1.2-8.7
		l-1.2,0.3c-0.5,0.1-0.9-0.1-1.3-0.3c0.3,0.2,0.8,0.3,1.2,0.3l1.2-0.3c14.7-3.1,40-7.7,47.3-6.5c0.8,0.1,0.9,0.5,1,0.7
		C483.5,136.6,482.4,140.1,477.8,144.3z"/>
	<path class="st0" d="M308.1,295.5c0-0.2,0-0.4,0-0.7c0-0.1,0-0.3,0-0.4c0,0.1-0.1,0.2-0.1,0.3C308,295,308,295.3,308.1,295.5z"/>
	<path class="st0" d="M318.4,408.3c1.6,3.1,3.6,5.9,6,8.4h-16.2c-0.6-6.2-4.7-11-7.3-13.4c-0.6-0.6-1-1.4-0.9-2.3
		c0.6-31-12.8-110.8-12.9-111.5l-0.2-1.4h-1.4c-31.8,0-56.6-2.4-75.8-6c-0.6,1-1.1,2.1-1.5,3.2c19.3,3.6,44.1,6,75.9,6
		c1.8,10.7,13.2,81.1,12.6,109.6c-0.1,1.8,0.7,3.5,1.9,4.7c2.3,2.2,6.3,6.9,6.3,12.6v1.6h21.1c1.1,0,2.1-0.8,2.5-1.8
		c0.3-1,0-2.2-0.9-2.9c-1.6-1.2-4-3.7-6.6-8.5c-6.9-13.1-14.1-42.8-10-109.8c-0.6-0.1-1.2-0.3-1.9-0.4c-0.6-0.1-1-0.6-1.2-1.1
		C303.7,364.2,311.3,394.7,318.4,408.3z"/>
	<path class="st0" d="M146.1,254.6l-2.3-3.8l-0.8,4.3c-3.4,18.7-34.4,42.4-34.8,42.6c-1,0.5-30,15.3-30,36c0,14.8,15.4,52.7,24.6,74
		c1.6,3.8,3,7,3.9,8.9H91.5L63.9,314.9c4.2-2.7,8.1-6,11.7-9.5c0.1-0.1,0.2-0.1,0.3-0.2c0.1-0.1,0.1-0.2,0.2-0.3
		c27.4-28,14.3-61.8,7.4-71.4c-4.2-6-6.8-12.9-7.9-20.2c-0.5,1.8-1.1,4-1.7,6.5c1.4,5.6,3.8,10.8,7.1,15.5c6.2,8.8,18,38.8-4.7,64.7
		c0,0.5-0.1,0.9-0.1,1.4c0-0.4,0-0.9-0.1-1.3c-0.7-15.1-3.2-27.8-7.7-37.7c0,0.1,0,0.2,0,0.3v0.5l-0.3,0.4c-0.1,0.1-0.7,0.8-1.6,2.3
		c4,9.9,6.2,22.6,6.5,37.4v0.7c0,0.4,0.2,0.8,0.4,1.1c-0.3-0.3-0.5-0.7-0.5-1.1v-0.7c-3.6,3.6-7.6,6.7-11.9,9.5l-1,0.6l9.5,35
		c0,0,0,0,0,0.1c-2.1,12.9-4.5,24.1-6.4,31.7c0,0,0,0,0,0c-2.4-15.5-9.5-40.3-10.6-43.9c-6-36.7,8.7-62.7,13.8-70.4
		c1-1.5,1.6-2.3,1.6-2.3l0.3-0.4v-0.5c0-0.1,0-0.2,0-0.3c0.8-19.5,2.9-33.2,5.2-42.4c0.6-2.5,1.2-4.7,1.8-6.6l0.1-0.5
		c0-0.9-0.8-1.6-1.6-1.6c-0.2,0-0.3,0-0.5,0.1c0.2-0.1,0.4-0.1,0.7-0.1c0.5,0,1,0.3,1.3,0.7c-0.2-2-0.3-4.1-0.2-6.1
		c3.2-49.1,98.7-58.4,139.7-60.1l1-0.1c14.6-0.6,23-7.7,23.4-8c7.7-5.1,16-9.5,24.6-13.1c0.5-1.3,0.8-2.6,1-3.9
		c-9.7,3.8-18.9,8.7-27.6,14.4c-0.2,0.2-8.1,6.7-21.5,7.3l-1,0.1C172.9,144,75.3,153.8,72,205.5c-0.1,2.3,0,4.5,0.3,6.7
		c0,0.1-0.1,0.2-0.1,0.3l-0.1,0.1c-2.7,8.9-6.1,24.6-7.1,49.4c-2.7,3.8-22.5,32.6-15.6,75c3.6,12.6,12.7,46.4,11.1,53.1v0.1v0.2
		l-0.1,0.3c0,0.9,0.8,1.6,1.6,1.6c0.8,0,1.4-0.5,1.6-1.3v-0.1c0-0.2,0.1-0.4,0.1-0.6c3.1-11.3,5.8-22.8,7.8-34.3L89,419.9h18.7
		c0.4,0,0.8-0.1,1.2-0.3c1.4-0.6,2-2.3,1.3-3.6c-0.8-1.9-2.3-5.2-4.3-9.6c-7.3-16.9-24.3-57.9-24.3-72.7c0-18.7,28.2-33.1,28.5-33.3
		c1.5-1.1,29.3-22.3,35.4-41.4c4.5,5,17.3,15.4,48.1,23.2c1-0.9,1.9-1.9,2.7-2.9C155.6,269.5,146.2,254.8,146.1,254.6z M71.2,346.8
		c-0.1,0-0.1,0-0.1,0c-0.8,0-1.5,0.7-1.5,1.5c0,0,0,0,0-0.1c0-0.1,0-0.1,0-0.1C69.6,347.3,70.4,346.7,71.2,346.8
		c1,0.1,1.6,0.8,1.6,1.8C72.9,347.6,72.2,346.9,71.2,346.8z"/>
	<path class="st0" d="M75.6,213.3c0,0,0-0.1,0-0.1l0.1-0.5c0-0.3-0.1-0.7-0.3-0.9c0,0.3,0.1,0.5,0.1,0.8
		C75.5,212.9,75.5,213.1,75.6,213.3z"/>
	<path class="st0" d="M388.2,277.8c-0.1-0.3-0.1-0.5-0.3-0.7c0,0,0,0-0.1-0.1c-5.8-13.6-2.1-24.3-0.5-28c3.8,1.1,7.7,1.6,11.6,1.6
		c-0.9,0-1.6-0.8-1.6-1.6s0.8-1.6,1.6-1.6c-4.4,0-8.2-0.5-11.2-1.6c-0.1-0.1-0.2-0.2-0.3-0.2c-0.3-0.2-0.6-0.2-0.9-0.2
		c-2-0.9-3.6-2-4.7-3.3c-1.6-2-2.5-4.5-2.3-7.1c0,0.1-0.1,0.2-0.1,0.3c-0.8,1.8-1.5,3.5-2.3,5.2c0.5,1.3,1.3,2.5,2.2,3.6
		c1.4,1.6,3.1,2.9,5,3.8c0.4-1,0.8-1.6,0.8-1.6c0.1-0.1,0.1-0.2,0.2-0.3c0,0.1-0.1,0.1-0.1,0.2c0,0.1-0.3,0.6-0.8,1.6
		c-1.7,4.2-5.5,15.8,0.3,30.1c-1.8,2.3-7.5,9.7-14.7,18.2c-5.9,6.9-11.3,12.9-16.2,17.8c-4,4.3-8.4,8.2-13,11.8
		c-1.6-7.3-7.8-27-29.3-32.2c0,0-0.1,0-0.1,0c0.1-0.7,0.1-1.4,0.1-2.2c5.6,3.7,12.5,5.1,19.2,3.6c16.5-3.4,32-21.7,46.4-54.4
		c0.8-1.7,1.5-3.4,2.3-5.2c0.1-0.1,0.1-0.3,0.1-0.4c0-0.1,0-0.2,0-0.3c0-0.4-0.1-0.8-0.3-1.1c0.2,0.3,0.4,0.6,0.4,0.9
		c0.1-8.8,1.5-12.3,1.5-12.3c1.6-7.1,2.5-14.2,2.5-21.5c0-6.6-1.3-8.8-3.4-12.1c-1.6-2.7-4-6.4-6.7-14.7c-3.6-11.1-6-22.6-7.2-34.2
		c0,0.1,0,0.2,0,0.2c-0.2,0.8-0.9,1.3-1.7,1.3c0.7,0,1.3-0.6,1.5-1.3c0.1-0.2,0.1-0.4,0-0.6c-0.1-0.5-0.4-0.9-0.8-1.1
		c0.5,0.2,1,0.6,1.1,1.2c-0.8-7.5-0.9-13.3-0.9-16c-0.1-2.4,0.8-4.7,2.6-6.4c4.7-4.5,14.1-4.2,14.3-4.2h16.8
		c-1.2-0.2-1.9-0.9-1.9-1.9c0-0.9,0.8-1.6,1.6-1.6h-16.7c-0.3-0.1-10.8-0.4-16.5,5.1c-0.2,0.3-0.5,0.5-0.7,0.8l0.8-0.1
		c0.9,0,1.6,0.7,1.6,1.6c0,0.9-0.6,1.6-1.5,1.7c-0.1,0-1.2,0.1-2.9,0.1c-0.5,1.5-0.9,3.1-0.8,4.7c0,1.9,0.1,5.2,0.3,9.5
		c0,0-0.1,0-0.1,0c-5.9,0.3-19.5-0.1-28.3-8.2c-5.4-5-8.2-12.2-8.2-21.5c0-21.4,17.4-29.1,31-31.8c-10.9,6.5-20.6,18.6-20.6,30.7
		c-0.1,4,1.5,7.7,4.5,10.4c5.8,5.3,16.1,6.1,21.5,6.1h0.5c1.8,0,2.9-0.1,2.9-0.1c0.9-0.1,1.5-0.8,1.5-1.7c0.2-0.8-0.5-1.4-1.4-1.4
		l-0.8,0.1c-3.3,0.1-15.7,0.3-21.8-5.2c-2.3-2.1-3.5-4.9-3.4-8c0-15.4,18.4-31.7,31.6-32.2h0.5c1,0,1.7-0.7,1.8-1.6
		c0-0.1,0-0.1,0-0.1c0-0.8-0.6-1.5-1.5-1.5h-1c0,0,0,0,0,0c-8.6,0-48.5,2.1-48.5,36.6c0,2,0.1,3.9,0.4,5.9h-0.1
		c-15.2,0.1-30.4,2.5-45.1,6.9c0,1.1,0.1,2.2,0.3,3.3c14.7-4.5,30-6.9,45.4-6.9h1.3c0.8-0.1,1.5-0.7,1.5-1.5
		c0.1-0.9-0.6-1.7-1.5-1.7h0.1c0.8,0.1,1.5,0.7,1.5,1.5c-0.1,1-0.8,1.7-1.6,1.8h-1.3c1.2,5.6,4,10.8,8.3,14.7
		c3.9,3.4,8.6,6,13.6,7.3c3.2,0.5,6.1,1.1,8.8,1.6c0.2,0,0.4,0,0.6,0.1c3.2,0.6,5.8,1.2,7.8,1.6c-0.1-0.5-0.1-1-0.1-1.4l1.6-0.1
		c0.9-0.1,1.6-0.9,1.5-1.8c0-0.5-0.4-1-0.8-1.3c0.5,0.3,0.8,0.7,0.9,1.3c0.1,0.9-0.6,1.7-1.5,1.8l-1.6,0.1c0.1,0.5,0.1,0.9,0.1,1.4
		l-0.3-0.1c-1.9-0.4-4.8-1-8.3-1.6c-2.7-0.5-5.8-1.1-8.8-1.6c-11.6-2.1-24.8-3.9-30.2-3c-1.7,0.2-3.1,1.4-3.6,2.9
		c-1,3.2,1.5,8,6.2,12.3c6,5.6,15.7,10,27.7,10c6.6-0.1,13-1.2,19.2-3.6c0.6-0.2,1.2-0.5,1.9-0.8c0.8-0.3,1.2-1.3,0.9-2.1
		c-0.3-0.8-1.3-1.2-2.1-0.9c0,0-0.1,0-0.1,0c0.1,0,0.2-0.1,0.3-0.1c0.8-0.3,1.7,0.1,2.1,1c0.3,0.8-0.1,1.8-0.9,2.1
		c-0.6,0.3-1.2,0.5-1.9,0.8c1.3,7.4,3.2,14.7,5.5,21.9c2.9,8.6,5.3,12.5,7,15.3c1.9,3.1,2.9,4.7,2.9,10.4c0,6.9-0.8,13.7-2.3,20.4
		c0,0-1.6,3.8-1.7,13.2l0,0c-18,43.1-35,55-46,57.3c-6.7,1.5-13.7-0.3-18.9-4.7l-2.5-2.4l-0.3,4.4c-0.1,1.9-0.3,3.7-0.4,5.5
		c0.1-0.3,0.4-0.6,0.7-0.8c-0.3,0.2-0.5,0.6-0.6,1c-0.2,0.9,0.4,1.7,1.2,1.9c0.6,0.1,1.2,0.3,1.9,0.4c23.5,6,26.6,30.9,26.7,31.9
		l0.3,2.7l2.3-1.5c4.3-3,9.6-7.6,15.6-13.7c4.9-5,10.4-11,16.3-18c6.2-7.3,11.3-13.8,13.8-17c1-1.3,1.6-2.1,1.6-2.1
		C388.2,278.8,388.3,278.3,388.2,277.8z M364.2,149.8c-25,9.5-40-1.8-44.2-5.6c-4.6-4.2-5.7-7.7-5.3-9.1c0.1-0.2,0.1-0.5,1-0.7
		c7.3-1.2,32.6,3.4,47.3,6.5l0.1,0c0.3,2.7,0.7,5.6,1.2,8.7c0,0,0.1,0,0.1,0C364.4,149.7,364.3,149.8,364.2,149.8z M378.8,233.2
		c-0.1,0-0.1-0.1-0.2-0.1c-0.6-0.2-1.3-0.1-1.7,0.3c0.3-0.2,0.6-0.4,1-0.5C378.2,233,378.5,233,378.8,233.2z M376.8,233.5
		c-0.1,0.1-0.1,0.1-0.2,0.2C376.7,233.6,376.7,233.6,376.8,233.5z"/>
	<path class="st0" d="M330.6,162.5c-0.9-0.2-1.8,0.3-2,1.2c-0.1,0.5-12.1,53,15.6,92.7c0.6,0.8,1.6,1,2.3,0.4
		c0.8-0.5,0.9-1.5,0.4-2.3c-26.8-38.5-15.2-89.6-15.1-90.1C332.1,163.6,331.5,162.7,330.6,162.5z"/>
	<path class="st0" d="M309,158c-0.9-0.3-1.8,0.3-2.1,1.1c-0.1,0.5-14.8,52,7,106.6c0.3,0.6,0.8,1,1.5,1c0.3,0.1,0.5,0,0.7-0.1
		c0.8-0.3,1.2-1.3,0.9-2.1c-21.4-53.6-7.1-104-6.9-104.5C310.4,159.2,309.9,158.3,309,158z"/>
	<path class="st0" d="M283.7,165.1c-0.8-0.5-1.8-0.3-2.3,0.5c-0.3,0.4-27.6,43.8-6.4,93.9c0.3,0.6,0.8,1,1.5,1
		c0.2,0,0.4-0.1,0.6-0.1c0.8-0.3,1.2-1.3,0.9-2.1c-20.5-48.6,5.8-90.5,6.1-90.9C284.7,166.6,284.5,165.6,283.7,165.1z"/>
	<path class="st0" d="M227.9,180.7c-0.8-0.5-1.8-0.3-2.3,0.5c-0.2,0.3-21.5,34-6.5,78.2c0.2,0.7,0.8,1.1,1.6,1.1
		c0.2,0,0.3,0,0.5-0.1c0.8-0.3,1.2-1.2,1-2.1c-14.5-42.7,6-75.1,6.2-75.4C228.9,182.2,228.7,181.2,227.9,180.7z"/>
	<path class="st0" d="M249.2,195.9c-0.8-0.3-1.8,0-2.1,0.8c-0.5,1-11.1,25.4-0.1,59.3c0.3,0.8,1.2,1.3,2.1,1c0.8-0.3,1.3-1.2,1-2.1
		c-10.7-32.7-0.2-56.7-0.1-57C250.3,197.2,250,196.2,249.2,195.9z"/>
</g>
</svg>
