<?xml version="1.0" encoding="utf-8"?>
<!-- Generator: Adobe Illustrator 23.0.0, SVG Export Plug-In . SVG Version: 6.00 Build 0)  -->
<svg version="1.1" id="Layer_1" xmlns="http://www.w3.org/2000/svg" xmlns:xlink="http://www.w3.org/1999/xlink" x="0px" y="0px"
	 viewBox="0 0 649.5 525.1" style="enable-background:new 0 0 649.5 525.1;" xml:space="preserve">
<style type="text/css">
	.st0{fill:none;stroke:#000000;stroke-width:10;stroke-miterlimit:10;}
</style>
<title>Asset 1</title>
<g>
	<g id="Layer_1-2">
		<path class="st0" d="M456,11.8c-19.8,3.9-45.6,14.9-45.6,46.5c0,13.5,4,24,11.9,31.4c12.9,11.8,32.7,12.4,41.3,12
			c-0.4-6.3-0.5-11.2-0.5-14c0-2.4,0.4-4.7,1.2-6.9h-0.7c-7.8,0-22.8-1.1-31.3-8.9c-4.3-3.9-6.7-9.4-6.5-15.2
			C425.9,39,440,21.2,456,11.8z"/>
		<path class="st0" d="M569.2,113.5c-0.4,4-1,8.2-1.7,12.7c36.4,13.8,58.4-2.6,64.4-8.1c6.7-6.1,8.3-11.3,7.7-13.2
			c-0.1-0.3-0.2-0.8-1.4-1C627.6,102.3,590.7,109,569.2,113.5z"/>
		<path class="st0" d="M573.9,106.5c-1.5,0-2.9-0.1-4-0.1c-0.1,0.7-0.1,1.4-0.2,2.2c3.1-0.6,7.4-1.5,12.4-2.5
			C579.1,106.3,576.3,106.5,573.9,106.5z"/>
		<path class="st0" d="M464.2,108.5c-0.1-0.7-0.1-1.5-0.2-2.2c-1.1,0.1-2.5,0.1-3.9,0.1c-2.4,0-5.2-0.1-8.2-0.4
			C456.9,107,461.1,107.9,464.2,108.5z"/>
		<path class="st0" d="M570.3,80.7h-0.8c0.9,2.2,1.3,4.5,1.3,6.8c0,2.8-0.1,7.7-0.5,14c8.6,0.4,28.4-0.1,41.3-12
			c7.9-7.3,11.9-17.8,11.9-31.3c0-31.5-25.7-42.6-45.6-46.5C593.8,21.2,608,39,608,56.6c0.2,5.8-2.2,11.3-6.5,15.2
			C593,79.6,578,80.7,570.3,80.7z"/>
		<path class="st0" d="M41.4,350.1c-0.5-21.7-3.8-40.1-9.5-54.6c-7.4,11.2-28.8,49.1-20.1,102.6c1.5,5.2,11.9,41.5,15.4,64
			c2.7-10.9,6.3-27.2,9.3-46.2l-13.9-51.1l1.5-0.9C30.3,359.9,36.1,355.2,41.4,350.1z"/>
		<path class="st0" d="M467.9,87.6c0,4,0.2,12.5,1.3,23.5l0,0c1.7,17.1,5.2,34,10.5,50.4c4,12,7.3,17.4,9.8,21.4
			c2.9,4.8,4.9,8,4.9,17.6c0,10.5-1.2,21-3.6,31.3c0,0.1-2.1,5.1-2.2,17.9c0,0.2,0,0.3,0,0.5c0,0,0,0.1,0,0.1
			c-0.3,3.8,1,7.5,3.5,10.3c4.5,5.2,13.2,7.9,25,7.9c11.8,0,20.5-2.7,24.9-7.9c2.6-2.9,3.8-6.8,3.5-10.7c0-12.9-2.2-18.1-2.3-18.5
			c-2.3-10.1-3.4-20.5-3.5-30.9c0-9.6,1.9-12.8,4.9-17.6c2.4-3.9,5.7-9.4,9.7-21.4c10.9-32.7,11.8-64.8,11.8-73.9
			c0.1-3.5-1.2-6.9-3.8-9.4c-6.9-6.6-20.6-6.1-20.9-6.1h-48.9c-0.1,0-13.9-0.5-20.8,6.1C469.1,80.7,467.7,84.1,467.9,87.6z
			 M543.6,144.7C543.6,144.7,543.6,144.7,543.6,144.7c-1.2-0.6-1.6-2-1-3.2l6.2-12.2c0.6-1.2,2-1.6,3.2-1s1.6,2,1,3.2l-6.2,12.1
			c-0.4,0.8-1.2,1.3-2.1,1.3C544.3,145,544,144.9,543.6,144.7L543.6,144.7z M528.9,251.6c4.7-6.9,5-19.1,5-19.2
			c0.1-1.3,1.2-2.3,2.4-2.3c1.3,0,2.4,1.1,2.3,2.4c0,0.6-0.4,13.8-5.9,21.8c-0.7,1.1-2.2,1.4-3.3,0.6
			C528.4,254.2,528.1,252.7,528.9,251.6z M501.1,254.3c-5.5-8-5.9-21.3-5.9-21.8c0-1.3,1-2.4,2.3-2.4c1.3,0,2.4,1.1,2.4,2.4
			c0,0.1,0.3,12.3,5,19.2c0.7,1.1,0.5,2.6-0.6,3.3C503.2,255.6,501.7,255.4,501.1,254.3L501.1,254.3z M480.8,131.5
			c-0.6-1.2-0.1-2.6,1-3.2c1.2-0.6,2.6-0.1,3.2,1l6.2,12.2c0.6,1.2,0.2,2.6-1,3.2c-0.3,0.2-0.7,0.3-1.1,0.3c-0.9,0-1.7-0.5-2.1-1.3
			L480.8,131.5L480.8,131.5z"/>
		<path class="st0" d="M488.3,263.6c-1.3-1.6-2.4-3.4-3.2-5.3c-20.9,47.7-43.6,74.3-67.5,79.3c-9.7,2.1-19.8,0.2-28-5.3
			c-0.1,1.2-0.2,2.4-0.2,3.6c31.3,7.6,40.4,36.5,42.7,47c6.7-5.3,13.1-11,19-17.2c7.1-7.2,15-16,23.6-26
			c10.6-12.4,19-23.2,21.5-26.6c-8.5-20.9-3.1-37.9-0.5-43.9C492.8,267.9,490.3,266,488.3,263.6z"/>
		<path class="st0" d="M466.4,126.2c-0.7-4.5-1.3-8.7-1.7-12.7c-21.5-4.5-58.4-11.2-69-9.5c-1.2,0.2-1.3,0.7-1.4,1
			c-0.6,1.9,1,7.1,7.7,13.2C407.9,123.6,430,140,466.4,126.2z"/>
		<path class="st0" d="M500.8,312.1c0.2,0.3,0.4,0.6,0.4,1c3.4,7.3,7.9,14.1,13.4,20.1v-19.7c0.1-1.2,1-2.2,2.2-2.2
			c1.3-0.1,2.5,0.9,2.5,2.2v19.8c26.4-29.6,17.7-55.3,14.5-62.2c-5.5,1.6-11.2,2.4-16.9,2.3c-5.7,0.1-11.4-0.7-16.9-2.3
			C497.7,276.2,492.1,292,500.8,312.1z"/>
		<path class="st0" d="M52.9,250.9c-4.8-6.8-8.3-14.5-10.4-22.6c-3.3,13.4-6.5,33.5-7.6,61.8c6.5,14.6,10.2,33,11.2,55
			C79.1,307.5,61.9,263.7,52.9,250.9z"/>
		<path class="st0" d="M488.5,250.3C488.5,250.3,488.5,250.2,488.5,250.3c0,0.1-0.1,0.3-0.2,0.5c-1.1,2.6-2.2,5.1-3.3,7.6
			c0.8,1.9,1.9,3.7,3.2,5.3c2,2.3,4.5,4.2,7.3,5.5c0.6-1.5,1.1-2.3,1.1-2.4c0.7-1.1,2.1-1.5,3.3-0.9s1.5,2.1,0.9,3.3
			c-0.1,0.2-0.4,0.8-0.9,1.8c5.5,1.6,11.2,2.4,16.9,2.3c-1.3,0-2.4-1.1-2.4-2.4s1.1-2.4,2.4-2.4c-11.9,0-20.6-2.7-25-7.9
			C489.5,257.7,488.2,254,488.5,250.3z"/>
		<path class="st0" d="M471.2,126.9c0.5,1.2-0.1,2.6-1.3,3.1c-0.9,0.4-1.8,0.7-2.7,1.1c1.9,10.8,4.6,21.5,8,32
			c4.2,12.5,7.7,18.2,10.2,22.3c2.8,4.5,4.2,6.8,4.2,15.1c0,10-1.1,20-3.3,29.7l0,0c0,0-2.4,5.6-2.5,19.2l0.2-0.4
			c0.3-0.8,1.1-1.4,2-1.5c1.3-0.1,2.4,0.9,2.6,2.2c0.1-12.8,2.2-17.9,2.2-17.9c2.4-10.3,3.6-20.7,3.6-31.3c0-9.6-1.9-12.8-4.9-17.6
			c-2.4-3.9-5.8-9.4-9.8-21.4c-5.3-16.4-8.8-33.3-10.5-50.4c0.1,0.3,0.1,0.6,0,0.9c-0.3,1.3-1.5,2.1-2.8,1.8l-1.7-0.4
			c0.4,4,1,8.2,1.7,12.7c0.6-0.2,1.2-0.4,1.8-0.7c0,0,0,0,0,0C469.3,125,470.7,125.6,471.2,126.9
			C471.2,126.8,471.2,126.8,471.2,126.9z"/>
		<path class="st0" d="M514.6,69.7c0-1.3,1.1-2.4,2.4-2.4h-24.4c-0.5-0.1-15.8-0.6-24.1,7.4c-0.3,0.4-0.7,0.7-1,1.1l1.2-0.1
			c1.3,0,2.3,1,2.4,2.3c0,1.3-0.9,2.4-2.2,2.5c-0.1,0-1.7,0.2-4.3,0.2c-0.8,2.2-1.3,4.5-1.2,6.9c0,2.8,0.1,7.7,0.5,14
			c0.9,0,1.7-0.1,2.3-0.1c1.3-0.1,2.4,0.9,2.6,2.2c0,0,0,0,0,0c0.1,1.3-0.9,2.5-2.2,2.6l-2.4,0.2c0.1,0.7,0.1,1.4,0.2,2.2l3.2,0.7
			c0.9,0.2,1.7,0.9,1.9,1.9c-1.1-11-1.3-19.4-1.3-23.4c-0.1-3.5,1.2-6.9,3.8-9.4c6.9-6.6,20.6-6.1,20.8-6.1h24.5c0,0,0,0,0,0
			C515.6,72.1,514.6,71.1,514.6,69.7C514.6,69.8,514.6,69.7,514.6,69.7z"/>
		<path class="st0" d="M497.3,230c-1.3,0.1-2.3,1.2-2.3,2.5c0,0.6,0.4,13.8,5.9,21.8c0.5,0.6,1.2,1,2,1c0.5,0,1-0.1,1.4-0.4
			c1.1-0.7,1.4-2.2,0.6-3.3c-4.7-6.9-5-19.1-5-19.2c-0.1-1.3-1.2-2.3-2.4-2.3C497.4,230,497.4,230,497.3,230z"/>
		<path class="st0" d="M480.9,131.5l6.2,12.1c0.4,0.8,1.2,1.3,2.1,1.3c0.4,0,0.7-0.1,1.1-0.3c1.2-0.6,1.6-2,1-3.2l-6.2-12.2
			c-0.6-1.2-2-1.6-3.2-1C480.8,128.9,480.3,130.3,480.9,131.5z"/>
		<path class="st0" d="M409,71.6h-1.9c1.7,8.2,5.9,15.7,12.1,21.5c5.7,5,12.5,8.7,19.8,10.6c4.6,0.8,8.9,1.6,12.9,2.4
			c3,0.3,5.8,0.4,8.2,0.4c1.5,0,2.8-0.1,3.9-0.1l2.4-0.2c0,0,0,0,0,0c1.3-0.1,2.3-1.3,2.2-2.6c-0.1-1.3-1.3-2.3-2.6-2.2
			c-0.6,0.1-1.4,0.1-2.3,0.1c-8.6,0.4-28.4-0.1-41.3-12c-7.9-7.3-11.9-17.8-11.9-31.3c0-31.5,25.7-42.6,45.6-46.5
			c6.9-4.1,14.1-6.6,20.7-6.8c-11.9,0-71,2.6-71,53.3c0,2.9,0.2,5.7,0.6,8.6h2.8c1.2,0.1,2.2,1,2.2,2.2
			C411.3,70.4,410.3,71.5,409,71.6L409,71.6z"/>
		<path class="st0" d="M468.6,75.8l-1.2,0.1c-4.8,0.2-22.9,0.5-31.8-7.6c-3.3-3-5.1-7.2-5-11.7c0-22.4,26.9-46.2,46.1-46.9h0.8
			c1.4,0,2.5-1,2.6-2.4c0-0.1,0-0.1,0-0.2c0-1.2-0.9-2.2-2.2-2.2h-1.4c-6.6,0.2-13.8,2.7-20.7,6.8c-16,9.4-30.2,27.2-30.2,44.8
			c-0.2,5.8,2.2,11.3,6.5,15.2c8.5,7.8,23.5,8.9,31.3,8.9h0.7c2.6,0,4.3-0.2,4.3-0.2c1.3-0.1,2.2-1.2,2.2-2.5
			C470.9,76.8,469.9,75.8,468.6,75.8z"/>
		<path class="st0" d="M518.6,340.8l-1.7,1.7l2.4,2.4v-4.8C519.1,340.4,518.9,340.6,518.6,340.8z"/>
		<path class="st0" d="M496.1,313.1c0.5-0.7,0.8-1.1,0.8-1.1c0.8-1,2.3-1.3,3.3-0.5c0.2,0.1,0.3,0.3,0.5,0.5
			c-8.6-20.1-3.1-35.9-0.7-41.1c0.5-1,0.8-1.6,0.9-1.8c0.7-1.1,0.3-2.6-0.9-3.3s-2.6-0.3-3.3,0.9c0,0.1-0.5,0.9-1.1,2.4
			C493.1,275.3,487.6,292.2,496.1,313.1z"/>
		<path class="st0" d="M500.8,314.9c0,0-0.9,1.2-2.4,3.1c4.2,8.2,9.7,15.7,16.2,22.2v-7c-5.5-6-10-12.8-13.4-20.1
			C501.3,313.7,501.1,314.4,500.8,314.9z"/>
		<path class="st0" d="M451.8,106.1c-3.9-0.8-8.4-1.6-12.9-2.4c-16.9-3-36.1-5.7-44-4.4c-2.5,0.3-4.5,2-5.3,4.3
			c-1.4,4.6,2.2,11.7,9.1,18c8.8,8.1,22.9,14.6,40.4,14.6c9.6-0.1,19-1.8,28-5.2c0.9-0.3,1.8-0.7,2.7-1.1c1.2-0.5,1.8-1.9,1.3-3.1
			c-0.5-1.2-1.9-1.8-3.1-1.3c-0.6,0.2-1.2,0.4-1.8,0.7c-36.4,13.8-58.4-2.6-64.4-8.1c-6.7-6.1-8.3-11.3-7.7-13.2
			c0.1-0.3,0.2-0.8,1.4-1c10.7-1.7,47.6,5,69,9.5l1.7,0.4c1.3,0.3,2.5-0.6,2.8-1.8c0.1-0.3,0.1-0.6,0-0.9l0,0
			c-0.2-0.9-0.9-1.7-1.9-1.9l-3.2-0.7C461.1,107.9,456.9,107,451.8,106.1z"/>
		<path class="st0" d="M537.1,266.8c0,0.1,0.5,0.9,1.1,2.4c2.8-1.3,5.3-3.2,7.3-5.5c3.4-3.9,5-9,4.5-14.1c0-13.7-2.5-19.4-2.6-19.7
			l0,0c-2.1-9.6-3.1-19.5-3.2-29.3c0-8.3,1.4-10.6,4.2-15.1c2.6-4.1,6-9.8,10.2-22.3c3.4-10.5,6.1-21.2,8-32
			c-0.9-0.3-1.8-0.7-2.7-1.1c-1.2-0.5-1.8-1.9-1.3-3.1c0.5-1.2,1.9-1.8,3.1-1.3c0.6,0.2,1.2,0.4,1.8,0.7c0.7-4.5,1.2-8.7,1.7-12.7
			l-1.7,0.4c-1.2,0.2-2.4-0.6-2.7-1.8c-0.3-1.3,0.4-2.6,1.7-2.9l3.2-0.7c0.1-0.7,0.2-1.5,0.2-2.2l-2.3-0.2l0,0
			c-1.3-0.1-2.3-1.3-2.2-2.6c0.1-1.3,1.3-2.3,2.6-2.2c0.6,0.1,1.4,0.1,2.3,0.1c0.4-6.3,0.5-11.2,0.5-14c0-2.3-0.4-4.7-1.2-6.9
			c-2.5,0-4.1-0.2-4.1-0.2v-2.4l0.3-2.4l0.9,0.1c-0.3-0.4-0.6-0.8-1-1.1c-8.3-8-23.6-7.4-24.2-7.4h-24.3c-1.3,0-2.4,1.1-2.4,2.4
			c0,1.3,1.1,2.4,2.4,2.4h24.4c0.2,0,14-0.5,20.9,6.1c2.5,2.4,3.9,5.9,3.8,9.4c0,9.1-0.8,41.2-11.8,73.9c-4,12-7.3,17.4-9.7,21.4
			c-3,4.8-4.9,8-4.9,17.6c0,10.4,1.2,20.7,3.5,30.9c0.1,0.4,2.3,5.6,2.3,18.5c0.4,3.9-0.9,7.8-3.5,10.7c-4.5,5.1-13.1,7.9-24.9,7.9
			c-1.3,0-2.4,1.1-2.4,2.4s1.1,2.4,2.4,2.4c5.7,0.1,11.4-0.7,16.9-2.3c-0.5-1-0.8-1.6-0.9-1.8c0,0,0,0,0,0c-0.7-1.1-0.3-2.6,0.9-3.2
			C535,265.3,536.4,265.7,537.1,266.8z"/>
		<path class="st0" d="M528.9,251.6c-0.7,1.1-0.5,2.6,0.6,3.3c1.1,0.7,2.6,0.5,3.3-0.6c5.5-8,5.9-21.2,5.9-21.8c0-1.3-1-2.4-2.3-2.4
			c-1.3,0.1-2.3,1.1-2.4,2.3C534,232.5,533.6,244.7,528.9,251.6z"/>
		<path class="st0" d="M542.6,141.5c-0.6,1.2-0.2,2.6,1,3.2c0.3,0.2,0.7,0.3,1.1,0.3c0.9,0,1.7-0.5,2.1-1.3l6.2-12.1
			c0.6-1.2,0.1-2.6-1-3.2s-2.6-0.1-3.2,1L542.6,141.5z"/>
		<path class="st0" d="M582.1,106.1c3.9-0.8,8.2-1.5,12.7-2.3c7.4-1.9,14.3-5.6,20-10.6c8.9-8.2,13.5-20,13.5-34.8
			C628.2,7.7,569.3,5,557.3,5c6.5,0.2,13.7,2.7,20.7,6.8c19.8,3.9,45.5,15,45.5,46.5c0,13.5-4,24-12,31.4
			c-12.9,11.8-32.7,12.4-41.3,12c-0.9,0-1.7-0.1-2.3-0.1l0,0c-1.3-0.1-2.5,0.9-2.6,2.2c-0.1,1.3,0.9,2.5,2.2,2.6l2.3,0.2
			c1.2,0.1,2.5,0.1,4,0.1C576.3,106.5,579.1,106.3,582.1,106.1z"/>
		<path class="st0" d="M577.9,11.8C571,7.7,563.8,5.2,557.3,5h-1c-1.4,0-2.5,1-2.6,2.4c0,0.1,0,0.2,0,0.2c0,1.2,1,2.2,2.2,2.2h1.4
			c19.2,0.7,46.1,24.4,46.1,46.9c0.1,4.4-1.7,8.7-5,11.7c-9,8.2-27.5,7.8-31.8,7.6l-0.9-0.1l-0.3,2.4v2.4c0,0,1.6,0.2,4.1,0.2h0.8
			c7.7,0,22.7-1.1,31.2-8.9c4.3-3.9,6.7-9.4,6.5-15.2C608,39,593.9,21.2,577.9,11.8z"/>
		<path class="st0" d="M514.6,344.9l2.4-2.4l1.7-1.7c0.2-0.2,0.5-0.5,0.7-0.7c31.8-32.4,22.5-62.4,18.9-70.9
			c-0.6-1.5-1.1-2.3-1.1-2.4c-0.7-1.1-2.1-1.5-3.3-0.9c-1.1,0.7-1.5,2.1-0.9,3.3c0.1,0.2,0.4,0.8,0.9,1.8
			c3.1,6.9,11.9,32.6-14.5,62.2v-19.7c-0.1-1.2-1-2.2-2.2-2.2c-1.3-0.1-2.5,0.9-2.5,2.2V344.9z"/>
		<path class="st0" d="M563.9,129.9c0.9,0.4,1.8,0.7,2.7,1.1c9,3.4,18.4,5.1,28,5.2c17.5,0,31.6-6.5,40.4-14.6
			c6.9-6.2,10.5-13.3,9.1-18c-0.7-2.4-2.8-4.1-5.3-4.3c-7.9-1.2-27.2,1.5-44.1,4.5c-4.5,0.8-8.8,1.6-12.7,2.3c-5,1-9.3,1.8-12.4,2.5
			l-3.2,0.7c-1.2,0.3-2,1.5-1.8,2.7c0.2,1.3,1.5,2.2,2.8,2l1.7-0.4c21.5-4.5,58.4-11.2,69-9.5c1.2,0.2,1.3,0.7,1.4,1
			c0.6,1.8-1,7-7.7,13.1c-6,5.4-28,21.8-64.4,8.1c-0.6-0.2-1.2-0.4-1.8-0.7c-1.2-0.5-2.6,0.1-3.1,1.3
			C562.2,128,562.7,129.4,563.9,129.9z"/>
		<path class="st0" d="M487.1,247.7c-1.2-0.5-2.6,0.1-3.1,1.3l-0.2,0.4c-26.2,62.9-51,80.2-67.1,83.6c-9.8,2.2-20-0.4-27.6-6.9
			l-3.7-3.5L385,329c-0.2,3-0.4,5.9-0.6,8.7c-6.5,100.8,4.6,145.6,15,165.5c2.3,4.5,5.2,8.6,8.8,12.2h-23.6
			c-0.9-9.1-6.9-16-10.6-19.5c-0.9-0.9-1.4-2.1-1.3-3.3c0.9-45.2-18.6-161.5-18.8-162.6l-0.3-2h-2c-46.4,0-82.6-3.5-110.6-8.7
			c-0.9,1.5-1.6,3-2.2,4.6c28.1,5.2,64.3,8.7,110.7,8.8c2.6,15.6,19.3,118.3,18.4,159.8c-0.1,2.6,1,5.1,2.8,6.9
			c3.4,3.2,9.2,10,9.2,18.4v2.4h30.8c1.6,0,3.1-1.1,3.6-2.6c0.5-1.5,0-3.2-1.3-4.2c-2.3-1.8-5.9-5.4-9.6-12.4
			c-10-19.1-20.6-62.4-14.6-160.1c-0.9-0.2-1.8-0.5-2.7-0.6c-1.3-0.3-2.1-1.5-1.8-2.8c0.3-1.3,1.5-2.1,2.8-1.8
			c0.7,0.1,1.3,0.3,2,0.5c0.1-1.2,0.2-2.4,0.2-3.6c8.2,5.4,18.3,7.4,28,5.3c24-4.9,46.7-31.6,67.6-79.3c1.1-2.5,2.2-5,3.3-7.6
			c0.1-0.2,0.1-0.4,0.2-0.6c0-0.2,0-0.3,0-0.5C488.5,248.8,487.9,248,487.1,247.7C487.1,247.7,487.1,247.7,487.1,247.7z"/>
		<path class="st0" d="M41.3,416.1c-0.6,3.7-1.2,7.3-1.8,10.8l25.3,93.2H92c0.6,0,1.2-0.1,1.8-0.4c2-0.9,2.9-3.3,1.9-5.3
			c-1.2-2.7-3.4-7.6-6.2-14c-10.7-24.7-35.5-84.5-35.5-106c0-27.3,41.1-48.3,41.5-48.5c2.2-1.6,42.7-32.5,51.6-60.4
			c6.6,7.3,25.2,22.5,70.2,33.8c1.4-1.3,2.7-2.7,3.9-4.2c-59.3-14.4-72.9-35.8-73.1-36.1l-3.3-5.5l-1.1,6.3
			c-4.9,27.2-50.2,61.8-50.7,62.1c-1.4,0.7-43.8,22.3-43.8,52.5c0,21.6,22.5,76.9,35.9,107.9c2.4,5.6,4.4,10.2,5.7,13H68.5
			L28.2,366.9c6.2-4.1,12.1-8.9,17.4-14.2l0,0c-0.4,0.5-1,0.7-1.7,0.7h-0.1c-1.3,0-2.4-1-2.4-2.3v-1c-5.3,5.2-11.1,9.8-17.3,13.8
			l-1.5,0.9l13.9,51.1c0-0.1,0-0.2,0-0.3c0-0.1,0-0.1,0-0.2c0.1-1.2,1.2-2.1,2.4-2C40.3,413.6,41.3,414.7,41.3,416.1z"/>
		<path class="st0" d="M46.2,351.1c0,0.6-0.2,1.2-0.7,1.7c40.5-40.9,21.2-90.4,11.2-104.5c-6.3-9.1-10.2-19.5-11.6-30.5
			c-0.5-3.3-0.6-6.7-0.5-10c4.6-71.6,143.9-85.2,203.7-87.7l1.4-0.1c21.3-0.9,33.5-11.2,34.1-11.6c11.3-7.5,23.3-13.9,35.9-19.1
			c0.7-1.9,1.2-3.8,1.5-5.7c-14.1,5.6-27.6,12.7-40.2,21c-0.3,0.3-11.8,9.8-31.4,10.6l-1.4,0.1c-61,2.5-203.4,16.7-208.2,92.1
			c-0.1,3.5,0,6.9,0.5,10.4l0.1-0.2c0.2-1.2,1.2-2,2.4-2c1.3,0,2.4,1.1,2.4,2.4l-0.1,0.7c-0.8,2.7-1.7,5.9-2.6,9.6
			c2.1,8.1,5.6,15.7,10.4,22.6c9,12.8,26.2,56.6-6.8,94.3C46.1,347.1,46.2,349,46.2,351.1z"/>
		<path class="st0" d="M340.5,76.8c0,1.6,0.1,3.2,0.4,4.8c21.5-6.6,43.8-10,66.2-10.1h1.9l0,0c1.2-0.1,2.2-1,2.2-2.2
			c0.1-1.3-0.9-2.5-2.2-2.5h-2.8C384,67,361.8,70.4,340.5,76.8z"/>
		<path class="st0" d="M384.5,337.4c-0.3,1.3,0.6,2.5,1.8,2.8c0.9,0.2,1.8,0.4,2.7,0.6c34.3,8.8,38.8,45,39,46.5l0.4,3.9l3.3-2.2
			c6.3-4.4,14-11.1,22.7-20c7.2-7.3,15.2-16.1,23.8-26.3c9-10.6,16.5-20.1,20.1-24.8c1.5-1.9,2.4-3.1,2.4-3.1
			c0.4-0.5,0.6-1.2,0.4-1.9c-0.1-0.4-0.2-0.7-0.4-1c-0.1-0.2-0.3-0.3-0.5-0.5c-1.1-0.8-2.5-0.6-3.3,0.5c0,0.1-0.3,0.4-0.8,1.1
			c-2.6,3.3-11,14.1-21.5,26.6c-8.6,10-16.5,18.8-23.6,26c-5.9,6.2-12.3,11.9-19,17.2c-2.3-10.6-11.4-39.4-42.7-47
			c-0.6-0.2-1.3-0.3-2-0.5C386,335.3,384.8,336.1,384.5,337.4C384.5,337.4,384.5,337.4,384.5,337.4z"/>
		<path class="st0" d="M27.9,477.8v0.1l0,0c4.7-16.8,8.6-33.8,11.6-51c0.6-3.5,1.2-7.1,1.8-10.8c0-1.4-1-2.5-2.4-2.6
			c-0.1,0-0.1,0-0.2,0c-1.2,0-2.2,1-2.2,2.2c0,0.1,0,0.2,0,0.3c-3,18.9-6.6,35.2-9.3,46.2C28.3,469.1,28.7,474.8,27.9,477.8
			L27.9,477.8z"/>
		<path class="st0" d="M43.9,353.5c0.6,0,1.2-0.3,1.7-0.7l0,0c0.4-0.5,0.7-1.1,0.7-1.7c0-2-0.1-3.9-0.2-5.8c-1-22-4.7-40.5-11.2-55
			c0,0.2,0,0.3,0,0.5v0.8l-0.5,0.6c-0.1,0.1-1,1.2-2.4,3.4c5.8,14.5,9,32.9,9.5,54.6v1C41.5,352.4,42.5,353.5,43.9,353.5L43.9,353.5
			z"/>
		<path class="st0" d="M7.2,399.2c5.3,18.4,18.5,67.7,16.2,77.4v0.1l0,0.3l-0.1,0.4c0,0,0,0,0,0c0,1.3,1.1,2.4,2.4,2.4
			c1.1,0,2.1-0.8,2.3-1.9l0,0v-0.1l0,0c0.7-3,0.3-8.7-0.8-15.7c-3.5-22.6-13.9-58.8-15.4-64c-8.7-53.5,12.7-91.5,20.1-102.6
			c1.4-2.2,2.4-3.3,2.4-3.4l0.5-0.6v-0.8c0-0.2,0-0.3,0-0.5c1.1-28.4,4.3-48.4,7.6-61.8c0.9-3.7,1.8-6.9,2.6-9.6l0.1-0.7
			c0-1.3-1.1-2.4-2.4-2.4c-1.2,0-2.2,0.8-2.4,2l-0.1,0.2c-4,13-8.9,35.9-10.3,72C25.9,295.4-2.9,337.4,7.2,399.2z"/>
		<path class="st0" d="M440.4,282.3c1.1-0.7,1.3-2.2,0.6-3.3c-39.1-56.1-22.2-130.6-22-131.4c0.3-1.3-0.5-2.6-1.8-2.9
			c-1.3-0.3-2.6,0.5-2.9,1.8c-0.2,0.8-17.6,77.3,22.7,135.2c0,0,0,0,0,0C437.9,282.8,439.3,283.1,440.4,282.3
			C440.4,282.3,440.4,282.3,440.4,282.3z"/>
		<path class="st0" d="M396.1,296.7c1.2-0.5,1.8-1.9,1.3-3.1c-31.2-78.1-10.3-151.6-10.1-152.4c0.4-1.3-0.4-2.6-1.6-3
			c-1.3-0.4-2.6,0.4-3,1.6c-0.2,0.8-21.6,75.8,10.2,155.5c0.4,0.9,1.2,1.5,2.2,1.5C395.5,296.9,395.8,296.8,396.1,296.7
			C396.1,296.7,396.1,296.7,396.1,296.7z"/>
		<path class="st0" d="M340.6,284.4c-29.9-70.9,8.5-132,8.9-132.6c0,0,0,0,0,0c0.7-1.1,0.4-2.6-0.7-3.3s-2.6-0.4-3.3,0.7
			c-0.4,0.6-40.2,63.8-9.3,137c0.4,0.9,1.2,1.5,2.2,1.5c0.3,0,0.6-0.1,0.9-0.2C340.5,287,341.1,285.6,340.6,284.4z"/>
		<path class="st0" d="M259.1,284.6c-21.1-62.3,8.7-109.5,9-110l0,0c0.7-1.1,0.4-2.6-0.7-3.3c-1.1-0.7-2.6-0.4-3.3,0.7
			c-0.3,0.5-31.3,49.6-9.5,114.1c0.3,1,1.2,1.6,2.3,1.6c0.3,0,0.5,0,0.8-0.1C258.8,287.2,259.5,285.9,259.1,284.6z"/>
		<path class="st0" d="M299.7,279.6c-15.6-47.7-0.3-82.7-0.1-83.1c0.5-1.2,0-2.6-1.2-3.1c-1.2-0.5-2.6,0-3.1,1.2
			c-0.7,1.5-16.2,37.1-0.1,86.5c0.4,1.2,1.8,1.9,3,1.5C299.4,282.2,300.1,280.9,299.7,279.6z"/>
	</g>
</g>
</svg>
