<?xml version="1.0" encoding="utf-8"?>
<!-- Generator: Adobe Illustrator 23.0.1, SVG Export Plug-In . SVG Version: 6.00 Build 0)  -->
<svg version="1.1" id="Lag_1" xmlns="http://www.w3.org/2000/svg" xmlns:xlink="http://www.w3.org/1999/xlink" x="0px" y="0px"
	 viewBox="0 0 512 512" style="enable-background:new 0 0 512 512;" xml:space="preserve">
<style type="text/css">
	.st0{fill:#8A8989;stroke:#D3D3D3;stroke-width:7;stroke-miterlimit:10;}
</style>
<path class="st0" d="M463.5,362.8c-4.4-5.4-11.7-7.4-18.2-5.1c-18.1,6.5-37.8,9.8-58.5,9.8c-99.1,0-179.8-80.7-179.8-179.8
	c0-59.7,29.4-115.2,78.8-148.6c5.6-3.8,8.3-10.6,6.8-17.2c-1.5-6.6-6.9-11.5-13.6-12.5C271.3,8.4,263.7,8,256,8
	C120.8,8,10.9,118,10.9,253.1s110,245.1,245.1,245.1c85.8,0,163.9-43.6,208.7-116.6C468.4,375.7,467.8,368.2,463.5,362.8z"/>
</svg>
