<?xml version="1.0" encoding="utf-8"?>
<!-- Generator: Adobe Illustrator 23.0.1, SVG Export Plug-In . SVG Version: 6.00 Build 0)  -->
<svg version="1.1" id="Lag_1" xmlns="http://www.w3.org/2000/svg" xmlns:xlink="http://www.w3.org/1999/xlink" x="0px" y="0px"
	 viewBox="0 0 640 512" style="enable-background:new 0 0 640 512;" xml:space="preserve">
<style type="text/css">
	.st0{fill:#8A8989;stroke:#D3D3D3;stroke-width:7;stroke-miterlimit:10;}
	.st1{fill:#FFFFFF;stroke:#D3D3D3;stroke-width:7;stroke-miterlimit:10;}
</style>
<g>
	<path class="st0" d="M532.7,192.2c0-102.5-83.4-186-186-186c-5.8,0-11.6,0.3-17.5,1.1c-5.1,0.8-9.2,4.5-10.3,9.5
		c-1.1,5,0.9,10.2,5.2,13c37.5,25.3,59.8,67.4,59.8,112.7c0,39-16.5,74.2-42.8,99.1c3.8-0.7,7.7-1.1,11.7-1.1
		c33.6,0,60.7,27.1,60.7,60.7c0,11.4-3.3,21.9-8.7,31c15.7,1.3,30.1,7.4,41.6,16.8C498.2,316.1,532.7,258.1,532.7,192.2z"/>
</g>
<path class="st1" d="M376.3,360.8c5.4-9.1,8.7-19.6,8.7-31c0-33.6-27.1-60.7-60.7-60.7c-16.3,0-31.1,6.5-42,17
	c-15.5-28.1-45.1-47.4-79.4-47.4c-50.3,0-91.1,40.8-91.1,91.1c0,1.9,0.5,3.6,0.6,5.4C76.7,347.6,51,381,51,420.9
	c0,50.3,40.8,91.1,91.1,91.1h227.8c41.9,0,75.9-34,75.9-75.9C445.8,396.3,415.1,364.1,376.3,360.8z"/>
</svg>
