<?xml version="1.0" encoding="utf-8"?>
<!-- Generator: Adobe Illustrator 23.0.1, SVG Export Plug-In . SVG Version: 6.00 Build 0)  -->
<svg version="1.1" id="Lag_1" xmlns="http://www.w3.org/2000/svg" xmlns:xlink="http://www.w3.org/1999/xlink" x="0px" y="0px"
	 viewBox="0 0 640 512" style="enable-background:new 0 0 640 512;" xml:space="preserve">
<style type="text/css">
	.st0{fill:#AEAEAE;stroke:#D3D3D3;stroke-width:7;stroke-miterlimit:10;}
	.st1{fill:#FFFFFF;stroke:#D3D3D3;stroke-width:7;stroke-miterlimit:10;}
</style>
<path class="st0" d="M561.3,180.7c3.2-8.2,4.9-17.2,4.9-26.6c0-40.7-33.1-73.8-73.8-73.8c-15.1,0-29.3,4.6-41,12.5
	c-21.3-36.9-61-61.6-106.6-61.6c-67.9,0-123,55-123,123c0,2.1,0.1,4.2,0.2,6.2c-43,15.1-73.9,56.2-73.9,104.5
	c0,61.1,49.6,110.7,110.7,110.7h282.9c54.3,0,98.4-44,98.4-98.4C640,229.5,606.2,189.7,561.3,180.7z"/>
<path class="st1" d="M413.2,285.2c3.2-8.2,4.9-17.2,4.9-26.6c0-40.7-33.1-73.8-73.8-73.8c-15.1,0-29.3,4.6-41,12.5
	c-21.3-36.9-61-61.6-106.6-61.6c-67.9,0-123,55-123,123c0,2.1,0.1,4.2,0.2,6.2C30.9,280,0,321.1,0,369.3C0,430.4,49.6,480,110.7,480
	h282.9c54.3,0,98.4-44,98.4-98.4C491.9,334,458.1,294.3,413.2,285.2z"/>
</svg>
