<?xml version="1.0" encoding="utf-8"?>
<!-- Generator: Adobe Illustrator 23.0.1, SVG Export Plug-In . SVG Version: 6.00 Build 0)  -->
<svg version="1.1" id="Lag_1" xmlns="http://www.w3.org/2000/svg" xmlns:xlink="http://www.w3.org/1999/xlink" x="0px" y="0px"
	 viewBox="0 0 640 512" style="enable-background:new 0 0 640 512;" xml:space="preserve">
<style type="text/css">
	.st0{fill:#AEAEAE;stroke:#D3D3D3;stroke-width:7;stroke-miterlimit:10;}
	.st1{fill:#FFFFFF;stroke:#D3D3D3;stroke-width:7;stroke-miterlimit:10;}
	.st2{fill:#0000DE;stroke:#D3D3D3;stroke-width:7;stroke-miterlimit:10;}
</style>
<path class="st0" d="M492.6,119.2c2.3-5.9,3.5-12.3,3.5-19c0-29.1-23.7-52.8-52.8-52.8c-10.8,0-21,3.3-29.3,8.9
	c-15.2-26.4-43.6-44.1-76.3-44.1c-48.6,0-88,39.3-88,88c0,1.5,0.1,3,0.1,4.4c-30.8,10.8-52.9,40.2-52.9,74.8
	c0,43.7,35.5,79.2,79.2,79.2h202.4c38.8,0,70.4-31.5,70.4-70.4C548.9,154.1,524.7,125.6,492.6,119.2z"/>
<path class="st1" d="M386.6,193.9c2.3-5.9,3.5-12.3,3.5-19c0-29.1-23.7-52.8-52.8-52.8c-10.8,0-21,3.3-29.3,8.9
	C292.8,104.6,264.4,87,231.8,87c-48.6,0-88,39.3-88,88c0,1.5,0.1,3,0.1,4.4C113.1,190.2,91,219.6,91,254.1
	c0,43.7,35.5,79.2,79.2,79.2h202.4c38.8,0,70.4-31.5,70.4-70.4C442.9,228.8,418.8,200.4,386.6,193.9z"/>
<path class="st2" d="M184.1,403.6c5.1-9.8,5.7-54.5,5.7-54.5s-36.1,26.4-41.2,36.2c-5.1,9.8-1.2,21.9,8.6,26.9
	C166.9,417.3,179,413.4,184.1,403.6L184.1,403.6z M184.1,403.6"/>
<path class="st2" d="M258.2,403.6c5.1-9.8,5.7-54.5,5.7-54.5s-36.1,26.4-41.2,36.2c-5.1,9.8-1.2,21.9,8.6,26.9
	C241.1,417.3,253.2,413.4,258.2,403.6L258.2,403.6z M258.2,403.6"/>
<path class="st2" d="M311.2,412.2c9.8,5.1,21.9,1.2,26.9-8.6c5.1-9.8,5.7-54.5,5.7-54.5s-36.1,26.4-41.2,36.2
	C297.5,395.1,301.4,407.1,311.2,412.2L311.2,412.2z M311.2,412.2"/>
<path class="st2" d="M174.3,486.3c9.8,5.1,21.9,1.2,26.9-8.6c5.1-9.8,5.7-54.5,5.7-54.5s-36.1,26.3-41.2,36.1
	C160.6,469.2,164.4,481.3,174.3,486.3L174.3,486.3z M174.3,486.3"/>
<path class="st2" d="M248.4,486.3c9.8,5.1,21.9,1.2,26.9-8.6c5.1-9.8,5.7-54.5,5.7-54.5s-36.1,26.3-41.2,36.1
	C234.8,469.2,238.6,481.3,248.4,486.3L248.4,486.3z M248.4,486.3"/>
</svg>
