<?xml version="1.0" encoding="utf-8"?>
<!-- Generator: Adobe Illustrator 23.0.1, SVG Export Plug-In . SVG Version: 6.00 Build 0)  -->
<svg version="1.1" id="Lag_1" xmlns="http://www.w3.org/2000/svg" xmlns:xlink="http://www.w3.org/1999/xlink" x="0px" y="0px"
	 viewBox="0 0 640 512" style="enable-background:new 0 0 640 512;" xml:space="preserve">
<style type="text/css">
	.st0{fill:#0000DE;stroke:#D3D3D3;stroke-width:7;stroke-miterlimit:10;}
	.st1{fill:#FFFFFF;stroke:#D3D3D3;stroke-width:7;stroke-miterlimit:10;}
	.st2{fill:#EBBB1B;stroke:#D3D3D3;stroke-width:7;stroke-miterlimit:10;}
</style>
<path class="st0" d="M184.1,403.6c5.1-9.8,5.7-54.5,5.7-54.5s-36.1,26.4-41.2,36.2c-5.1,9.8-1.2,21.9,8.6,26.9
	C166.9,417.3,179,413.4,184.1,403.6L184.1,403.6z"/>
<path class="st0" d="M258.2,403.6c5.1-9.8,5.7-54.5,5.7-54.5s-36.1,26.4-41.2,36.2c-5.1,9.8-1.2,21.9,8.6,26.9
	C241.1,417.3,253.2,413.4,258.2,403.6L258.2,403.6z"/>
<path class="st0" d="M311.2,412.2c9.8,5.1,21.9,1.2,26.9-8.6c5.1-9.8,5.7-54.5,5.7-54.5s-36.1,26.4-41.2,36.2
	C297.5,395.1,301.4,407.1,311.2,412.2L311.2,412.2z"/>
<path class="st0" d="M174.3,486.3c9.8,5.1,21.9,1.2,26.9-8.6c5.1-9.8,5.7-54.5,5.7-54.5s-36.1,26.3-41.2,36.1
	C160.6,469.2,164.4,481.3,174.3,486.3L174.3,486.3z"/>
<path class="st0" d="M248.4,486.3c9.8,5.1,21.9,1.2,26.9-8.6c5.1-9.8,5.7-54.5,5.7-54.5s-36.1,26.3-41.2,36.1
	C234.8,469.2,238.6,481.3,248.4,486.3L248.4,486.3z"/>
<path class="st1" d="M358.4,228.3c3.6-6.1,5.9-13.2,5.9-20.9c0-22.6-18.3-40.9-40.9-40.9c-11,0-21,4.4-28.3,11.4
	C284.6,159,264.7,146,241.5,146c-33.9,0-61.4,27.5-61.4,61.4c0,1.3,0.3,2.4,0.4,3.6c-24,8.4-41.3,30.9-41.3,57.7
	c0,33.9,27.5,61.4,61.4,61.4H354c28.3,0,51.1-22.9,51.1-51.1C405.2,252.2,384.5,230.5,358.4,228.3z"/>
<path class="st2" d="M513.8,164.5c-5-4.3-5-12.1,0-16.5l30.4-26.3c8.2-7.1,3.7-20.5-7-21.3l-39.4-3c-6.5-0.5-11.1-6.7-9.5-13l9.6-40
	c2.5-10.4-9-18.5-18-12.8l-33.6,21.3c-5.5,3.5-12.8,1.2-15.3-4.9l-15-37.6c-4-10.1-18-10.1-22.1,0l-15,37.4c-2.4,6.1-9.8,8.5-15.5,5
	l-33.4-21.2c-9-5.8-20.5,2.4-18,12.8l9.6,40c1.5,6.3-3,12.6-9.5,13l-39.1,2.9c-10.9,0.8-15.3,14.4-7.1,21.5l19.9,17.3
	c5,3.3,9.7,7,13.9,11.4c7.3-3,15.2-4.6,23.3-4.6c3.8,0,7.5,0.4,11.1,1.2c4.5-35.2,34.3-62.5,70.7-62.5c39.5,0,71.6,32.1,71.6,71.6
	s-32.1,71.6-71.6,71.6c-0.6,0-1.2-0.2-1.8-0.2c8.8,8.4,15.7,18.9,19.3,30.9h17.3c4,0,7.9,1.2,11.3,3.4l28.8,19
	c9.1,5.8,20.4-2.7,17.8-13.3l-9.5-39.2c-1.5-6.5,3.1-12.8,9.7-13.4l39.1-2.9c10.7-0.8,15.2-14.2,7-21.3L513.8,164.5L513.8,164.5z"/>
<path class="st2" d="M384.3,202.8c6.4,2.9,13.4,4.6,20.9,4.6c28.2,0,51.1-23,51.1-51.1s-23-51.1-51.1-51.1
	c-27.6,0-50.1,22.1-51,49.5C371.1,164.6,382.7,182.2,384.3,202.8L384.3,202.8z"/>
</svg>
