<?xml version="1.0" encoding="utf-8"?>
<!-- Generator: Adobe Illustrator 23.0.1, SVG Export Plug-In . SVG Version: 6.00 Build 0)  -->
<svg version="1.1" id="Lag_1" xmlns="http://www.w3.org/2000/svg" xmlns:xlink="http://www.w3.org/1999/xlink" x="0px" y="0px"
	 viewBox="0 0 640 512" style="enable-background:new 0 0 640 512;" xml:space="preserve">
<style type="text/css">
	.st0{fill:#0000DE;stroke:#D3D3D3;stroke-width:7;stroke-miterlimit:10;}
	.st1{fill:#8A8989;stroke:#D3D3D3;stroke-width:7;stroke-miterlimit:10;}
	.st2{fill:#FFFFFF;stroke:#D3D3D3;stroke-width:7;stroke-miterlimit:10;}
</style>
<path class="st0" d="M210.4,428.1c5-9.7,5.6-53.9,5.6-53.9s-35.7,26.1-40.7,35.8c-5,9.7-1.2,21.6,8.5,26.6
	C193.4,441.6,205.4,437.7,210.4,428.1L210.4,428.1z"/>
<path class="st0" d="M283.6,428.1c5-9.7,5.6-53.9,5.6-53.9s-35.7,26.1-40.7,35.8c-5,9.7-1.2,21.6,8.5,26.6
	C266.7,441.6,278.7,437.7,283.6,428.1L283.6,428.1z"/>
<path class="st0" d="M336,436.6c9.7,5,21.6,1.2,26.6-8.5c5-9.7,5.6-53.9,5.6-53.9s-35.7,26.1-40.7,35.8
	C322.5,419.7,326.3,431.5,336,436.6L336,436.6z"/>
<path class="st0" d="M200.7,509.8c9.7,5,21.6,1.2,26.6-8.5c5-9.7,5.6-53.9,5.6-53.9s-35.7,26-40.7,35.7
	C187.2,492.9,190.9,504.8,200.7,509.8L200.7,509.8z"/>
<path class="st0" d="M273.9,509.8c9.7,5,21.6,1.2,26.6-8.5c5-9.7,5.6-53.9,5.6-53.9s-35.7,26-40.7,35.7
	C260.5,492.9,264.3,504.8,273.9,509.8L273.9,509.8z"/>
<g>
	<path class="st1" d="M483.4,133.2C483.4,62.5,425.9,5,355.2,5c-4,0-8,0.2-12.1,0.8c-3.5,0.6-6.3,3.1-7.1,6.5c-0.8,3.4,0.6,7,3.6,9
		c25.9,17.4,41.2,46.5,41.2,77.7c0,26.9-11.4,51.2-29.5,68.3c2.6-0.5,5.3-0.8,8.1-0.8c23.2,0,41.8,18.7,41.8,41.8
		c0,7.9-2.3,15.1-6,21.4c10.8,0.9,20.8,5.1,28.7,11.6C459.7,218.6,483.4,178.6,483.4,133.2z"/>
</g>
<path class="st2" d="M375.6,249.4c3.7-6.3,6-13.5,6-21.4c0-23.2-18.7-41.8-41.8-41.8c-11.2,0-21.4,4.5-29,11.7
	c-10.7-19.4-31.1-32.7-54.7-32.7c-34.7,0-62.8,28.1-62.8,62.8c0,1.3,0.3,2.5,0.4,3.7c-24.6,8.5-42.3,31.6-42.3,59.1
	c0,34.7,28.1,62.8,62.8,62.8h157c28.9,0,52.3-23.4,52.3-52.3C423.5,273.9,402.4,251.7,375.6,249.4z"/>
</svg>
