<?xml version="1.0" encoding="utf-8"?>
<!-- Generator: Adobe Illustrator 23.0.1, SVG Export Plug-In . SVG Version: 6.00 Build 0)  -->
<svg version="1.1" id="Lag_1" xmlns="http://www.w3.org/2000/svg" xmlns:xlink="http://www.w3.org/1999/xlink" x="0px" y="0px"
	 viewBox="0 0 640 512" style="enable-background:new 0 0 640 512;" xml:space="preserve">
<style type="text/css">
	.st0{fill:#AEAEAE;stroke:#D3D3D3;stroke-width:7;stroke-miterlimit:10;}
	.st1{fill:#FFFFFF;stroke:#D3D3D3;stroke-width:7;stroke-miterlimit:10;}
	.st2{fill:#EBBB1B;stroke:#D3D3D3;stroke-width:7;stroke-miterlimit:10;}
</style>
<path class="st0" d="M492.6,119.2c2.3-5.9,3.5-12.3,3.5-19c0-29.1-23.7-52.8-52.8-52.8c-10.8,0-21,3.3-29.3,8.9
	c-15.2-26.4-43.6-44.1-76.3-44.1c-48.6,0-88,39.3-88,88c0,1.5,0.1,3,0.1,4.4c-30.8,10.8-52.9,40.2-52.9,74.8
	c0,43.7,35.5,79.2,79.2,79.2h202.4c38.8,0,70.4-31.5,70.4-70.4C548.9,154.1,524.7,125.6,492.6,119.2z"/>
<path class="st1" d="M386.6,193.9c2.3-5.9,3.5-12.3,3.5-19c0-29.1-23.7-52.8-52.8-52.8c-10.8,0-21,3.3-29.3,8.9
	c-15.2-26.4-43.6-44-76.2-44c-48.6,0-88,39.3-88,88c0,1.5,0.1,3,0.1,4.4C113.1,190.2,91,219.6,91,254.1c0,43.7,35.5,79.2,79.2,79.2
	h202.4c38.8,0,70.4-31.5,70.4-70.4C442.9,228.8,418.8,200.4,386.6,193.9z"/>
<path class="st2" d="M260.6,330.7c-0.7,0.8-0.9,1.9-0.4,2.8c0.4,0.9,1.3,1.5,2.3,1.5h29.2L170,465.6l72.1-103.9
	c0.6-0.8,0.6-1.8,0.2-2.7c-0.5-0.9-1.4-1.4-2.3-1.4h-53.4l68.9-82.2h54L260.6,330.7z"/>
<path class="st2" d="M304.2,374.4c-0.5,0-0.9,0.2-1.2,0.5l-43.5,51.9c-0.4,0.5-0.5,1.1-0.2,1.6c0.3,0.5,0.8,0.9,1.4,0.9h31.4
	l-52.5,75.5c-0.5,0.6-0.3,1.5,0.3,2c0.3,0.2,0.6,0.4,0.9,0.4c0.4,0,0.9-0.2,1.1-0.5l87.8-94.1c0.4-0.5,0.5-1.1,0.3-1.7
	c-0.3-0.5-0.8-0.9-1.4-0.9h-17.1l29.4-33.2c0.4-0.5,0.5-1.1,0.3-1.6c-0.2-0.6-0.8-0.9-1.4-0.9H304.2z M304.2,374.4"/>
</svg>
