<?xml version="1.0" encoding="utf-8"?>
<!-- Generator: Adobe Illustrator 23.0.1, SVG Export Plug-In . SVG Version: 6.00 Build 0)  -->
<svg version="1.1" id="Lag_1" xmlns="http://www.w3.org/2000/svg" xmlns:xlink="http://www.w3.org/1999/xlink" x="0px" y="0px"
	 viewBox="0 0 640 512" style="enable-background:new 0 0 640 512;" xml:space="preserve">
<style type="text/css">
	.st0{fill:#AEAEAE;stroke:#D3D3D3;stroke-width:7;stroke-miterlimit:10;}
	.st1{fill:#FFFFFF;stroke:#D3D3D3;stroke-width:7;stroke-miterlimit:10;}
	.st2{fill:#AEAEAE;}
</style>
<path class="st0" d="M492.6,119.2c2.3-5.9,3.5-12.3,3.5-19c0-29.1-23.7-52.8-52.8-52.8c-10.8,0-21,3.3-29.3,8.9
	c-15.2-26.4-43.6-44.1-76.3-44.1c-48.6,0-88,39.3-88,88c0,1.5,0.1,3,0.1,4.4c-30.8,10.8-52.9,40.2-52.9,74.8
	c0,43.7,35.5,79.2,79.2,79.2h202.4c38.8,0,70.4-31.5,70.4-70.4C548.9,154.1,524.7,125.6,492.6,119.2z"/>
<path class="st1" d="M386.6,193.9c2.3-5.9,3.5-12.3,3.5-19c0-29.1-23.7-52.8-52.8-52.8c-10.8,0-21,3.3-29.3,8.9
	c-15.2-26.4-43.6-44-76.2-44c-48.6,0-88,39.3-88,88c0,1.5,0.1,3,0.1,4.4C113.1,190.2,91,219.6,91,254.1c0,43.7,35.5,79.2,79.2,79.2
	h202.4c38.8,0,70.4-31.5,70.4-70.4C442.9,228.8,418.8,200.4,386.6,193.9z"/>
<path class="st2" d="M235.3,342.6l-25.4,6.8l-9.8-5.7v-10.6l9.7-5.6l25.5,6.8c0.5,0.1,1,0.2,1.5,0.2c2.6,0,5-1.8,5.7-4.4
	c0.8-3.2-1-6.4-4.2-7.3l-14-3.8l12.9-7.4c2.8-1.6,3.8-5.3,2.2-8.1c-1.6-2.8-5.3-3.8-8.1-2.2l-12.9,7.4l3.8-14c0.8-3.2-1-6.4-4.2-7.3
	c-3.2-0.8-6.4,1-7.3,4.2l-6.8,25.4l-9.8,5.6l-9.2-5.3v-11.2l18.7-18.7c2.3-2.3,2.3-6.1,0-8.4c-2.3-2.3-6.1-2.3-8.4,0l-10.3,10.3
	v-14.9c0-3.3-2.7-5.9-5.9-5.9c-3.3,0-5.9,2.7-5.9,5.9v14.9l-10.2-10.2c-2.3-2.3-6.1-2.3-8.4,0c-2.3,2.3-2.3,6.1,0,8.4l18.6,18.6
	v11.3l-9.2,5.3l-9.8-5.6l-6.8-25.4c-0.8-3.2-4.1-5-7.3-4.2c-3.2,0.8-5.1,4.1-4.2,7.3l3.8,14l-12.9-7.4c-2.9-1.6-6.5-0.7-8.1,2.2
	c-1.6,2.8-0.6,6.5,2.2,8.1l12.9,7.4l-14,3.8c-3.2,0.8-5.1,4.1-4.2,7.3c0.7,2.7,3.1,4.4,5.7,4.4c0.5,0,1-0.1,1.5-0.2l25.5-6.8
	l9.7,5.6l0,10.6l-9.8,5.7l-25.4-6.8c-3.2-0.8-6.4,1-7.3,4.2c-0.8,3.2,1,6.4,4.2,7.3l14,3.7l-12.9,7.4c-2.8,1.6-3.8,5.3-2.2,8.1
	c1.1,1.9,3.1,3,5.2,3c1,0,2-0.3,3-0.8l12.9-7.5l-3.8,14.1c-0.9,3.2,1,6.4,4.2,7.3c0.5,0.1,1,0.2,1.5,0.2c2.6,0,5-1.8,5.7-4.4
	l6.8-25.5l9.7-5.6l9.2,5.3v11.5l-18.6,18.6c-2.3,2.3-2.3,6.1,0,8.4c1.2,1.2,2.7,1.7,4.2,1.7c1.5,0,3-0.6,4.2-1.7l10.2-10.2v14.9
	c0,3.3,2.7,5.9,5.9,5.9c3.3,0,5.9-2.7,5.9-5.9v-14.9l10.3,10.3c1.2,1.2,2.7,1.7,4.2,1.7c1.5,0,3-0.6,4.2-1.7c2.3-2.3,2.3-6.1,0-8.4
	l-18.7-18.7v-11.4l9.2-5.3l9.7,5.6l6.8,25.5c0.7,2.7,3.1,4.4,5.7,4.4c0.5,0,1-0.1,1.5-0.2c3.2-0.9,5.1-4.1,4.2-7.3l-3.8-14.1
	l12.9,7.5c0.9,0.5,2,0.8,3,0.8c2.1,0,4-1.1,5.1-3c1.6-2.8,0.7-6.5-2.2-8.1l-12.9-7.4l14-3.7c3.2-0.8,5.1-4.1,4.2-7.3
	C241.8,343.6,238.5,341.7,235.3,342.6L235.3,342.6z M188.2,343.7L179,349l-9.2-5.3l0-10.6l9.2-5.3l9.2,5.3V343.7z M188.2,343.7"/>
<path class="st2" d="M370.8,324l-16.5,4.4l-6.4-3.7v-6.9l6.3-3.6l16.6,4.5c0.3,0.1,0.7,0.1,1,0.1c1.7,0,3.3-1.1,3.7-2.9
	c0.6-2.1-0.7-4.2-2.7-4.7l-9.1-2.4l8.4-4.8c1.9-1.1,2.5-3.4,1.4-5.3c-1.1-1.9-3.4-2.5-5.3-1.4l-8.4,4.8l2.4-9.1
	c0.6-2.1-0.7-4.2-2.7-4.7c-2.1-0.5-4.2,0.7-4.7,2.7l-4.4,16.5l-6.3,3.6l-6-3.5v-7.3l12.2-12.2c1.5-1.5,1.5-4,0-5.5
	c-1.5-1.5-4-1.5-5.5,0l-6.7,6.7v-9.7c0-2.1-1.7-3.9-3.9-3.9c-2.1,0-3.9,1.7-3.9,3.9v9.7l-6.6-6.6c-1.5-1.5-4-1.5-5.5,0
	c-1.5,1.5-1.5,4,0,5.5l12.1,12.1v7.4l-6,3.4l-6.3-3.6l-4.4-16.5c-0.6-2.1-2.7-3.3-4.7-2.7c-2.1,0.6-3.3,2.7-2.7,4.7l2.4,9.1
	l-8.4-4.8c-1.9-1.1-4.2-0.4-5.3,1.4c-1.1,1.9-0.4,4.2,1.4,5.3l8.4,4.8l-9.1,2.4c-2.1,0.6-3.3,2.7-2.7,4.7c0.5,1.7,2,2.9,3.7,2.9
	c0.3,0,0.7,0,1-0.1l16.6-4.5l6.3,3.6l0,6.9l-6.4,3.7l-16.5-4.4c-2-0.5-4.2,0.7-4.7,2.7c-0.6,2.1,0.7,4.2,2.7,4.7l9.1,2.4l-8.4,4.8
	c-1.8,1.1-2.5,3.4-1.4,5.3c0.7,1.2,2,1.9,3.4,1.9c0.7,0,1.3-0.2,1.9-0.5l8.4-4.9l-2.4,9.1c-0.6,2.1,0.7,4.2,2.7,4.7
	c0.3,0.1,0.7,0.1,1,0.1c1.7,0,3.3-1.1,3.7-2.9l4.5-16.6l6.3-3.7l6,3.4v7.5l-12.1,12.1c-1.5,1.5-1.5,4,0,5.5c0.8,0.8,1.7,1.1,2.7,1.1
	c1,0,2-0.4,2.7-1.1l6.6-6.6v9.7c0,2.1,1.7,3.9,3.9,3.9c2.1,0,3.9-1.7,3.9-3.9v-9.7l6.7,6.7c0.8,0.8,1.7,1.1,2.7,1.1
	c1,0,2-0.4,2.7-1.1c1.5-1.5,1.5-4,0-5.5L338,342.3v-7.4l6-3.5l6.3,3.7l4.5,16.6c0.5,1.7,2,2.9,3.7,2.9c0.3,0,0.7,0,1-0.1
	c2.1-0.6,3.3-2.7,2.7-4.7l-2.5-9.1l8.4,4.9c0.6,0.4,1.3,0.5,1.9,0.5c1.3,0,2.6-0.7,3.3-1.9c1.1-1.8,0.4-4.2-1.4-5.3l-8.4-4.8
	l9.1-2.4c2.1-0.5,3.3-2.7,2.7-4.7C375,324.6,372.9,323.4,370.8,324L370.8,324z M340.1,324.7l-6,3.5l-6-3.5l0-6.9l6-3.5l6,3.5V324.7z
	 M340.1,324.7"/>
<path class="st2" d="M340.3,443.9l-20.6,5.5l-7.9-4.6v-8.6l7.8-4.5l20.7,5.5c0.4,0.1,0.8,0.2,1.2,0.2c2.1,0,4.1-1.4,4.6-3.6
	c0.7-2.6-0.8-5.2-3.4-5.9l-11.3-3l10.4-6c2.3-1.3,3.1-4.3,1.8-6.6c-1.3-2.3-4.3-3.1-6.6-1.8l-10.5,6l3-11.3c0.7-2.6-0.8-5.2-3.4-5.9
	c-2.5-0.7-5.2,0.8-5.9,3.4l-5.5,20.6l-7.9,4.5l-7.5-4.3v-9.1l15.1-15.1c1.9-1.9,1.9-4.9,0-6.8c-1.9-1.9-4.9-1.9-6.8,0l-8.3,8.3
	v-12.1c0-2.7-2.2-4.8-4.8-4.8c-2.7,0-4.8,2.2-4.8,4.8v12l-8.3-8.3c-1.9-1.9-4.9-1.9-6.8,0c-1.9,1.9-1.9,4.9,0,6.8l15.1,15.1v9.2
	l-7.4,4.3l-7.9-4.5l-5.5-20.6c-0.7-2.6-3.3-4.1-5.9-3.4c-2.6,0.7-4.1,3.3-3.4,5.9l3,11.3l-10.5-6c-2.3-1.3-5.2-0.5-6.6,1.8
	c-1.3,2.3-0.5,5.2,1.8,6.6l10.4,6l-11.3,3c-2.6,0.7-4.1,3.3-3.4,5.9c0.6,2.1,2.5,3.6,4.6,3.6c0.4,0,0.8-0.1,1.2-0.2l20.7-5.5
	l7.8,4.5l0,8.6l-7.9,4.6l-20.6-5.5c-2.5-0.7-5.2,0.8-5.9,3.4c-0.7,2.6,0.8,5.2,3.4,5.9l11.3,3l-10.4,6c-2.3,1.3-3.1,4.3-1.8,6.6
	c0.9,1.5,2.5,2.4,4.2,2.4c0.8,0,1.6-0.2,2.4-0.6l10.5-6l-3,11.4c-0.7,2.6,0.8,5.2,3.4,5.9c0.4,0.1,0.8,0.2,1.2,0.2
	c2.1,0,4.1-1.4,4.6-3.6l5.5-20.7l7.9-4.5l7.4,4.3v9.3l-15.1,15.1c-1.9,1.9-1.9,4.9,0,6.8c0.9,0.9,2.2,1.4,3.4,1.4
	c1.2,0,2.5-0.5,3.4-1.4l8.3-8.3v12c0,2.7,2.2,4.8,4.8,4.8c2.7,0,4.8-2.1,4.8-4.8v-12.1l8.3,8.3c0.9,0.9,2.2,1.4,3.4,1.4
	c1.2,0,2.5-0.5,3.4-1.4c1.9-1.9,1.9-4.9,0-6.8l-15.1-15.1v-9.2l7.5-4.3l7.9,4.5l5.5,20.7c0.6,2.1,2.5,3.6,4.6,3.6
	c0.4,0,0.8-0.1,1.2-0.2c2.6-0.7,4.1-3.3,3.4-5.9l-3.1-11.4l10.5,6c0.8,0.4,1.6,0.6,2.4,0.6c1.7,0,3.3-0.9,4.2-2.4
	c1.3-2.3,0.5-5.2-1.8-6.6l-10.4-6l11.3-3c2.6-0.7,4.1-3.3,3.4-5.9C345.5,444.7,342.8,443.2,340.3,443.9L340.3,443.9z M302.1,444.8
	l-7.4,4.3l-7.4-4.3l0-8.6l7.4-4.3l7.4,4.3V444.8z M302.1,444.8"/>
</svg>
