<svg xmlns="http://www.w3.org/2000/svg" viewBox="0 0 448.32 437.86"><defs><style>.cls-1{fill:#ebbb1b;}</style></defs><title>Asset 1</title><g id="Layer_2" data-name="Layer 2"><g id="Layer_1-2" data-name="Layer 1"><path class="cls-1" d="M394.26,252.89a17,17,0,0,1,0-25.76L441.73,186c12.76-11,5.84-32-11-33.3L369.14,148a16.62,16.62,0,0,1-14.9-20.43l14.95-62.48c3.89-16.26-14-29-28.08-20.07L288.6,78.32a16.29,16.29,0,0,1-23.85-7.72L241.28,11.86a18.48,18.48,0,0,0-34.51,0L183.39,70.35a16.51,16.51,0,0,1-24.17,7.82L106.93,45.05C92.8,36.1,75,48.86,78.85,65.12l15,62.48A16.61,16.61,0,0,1,78.9,148l-61.15,4.64c-17,1.29-24,22.46-11.1,33.62l31.23,27.05a127.64,127.64,0,0,1,21.78,17.84,92.86,92.86,0,0,1,53.81-5.42C120.56,170.78,167.15,128,224,128a112,112,0,0,1,0,224c-.95,0-1.83-.26-2.77-.28,13.83,13.2,24.61,29.47,30.16,48.28h27a32,32,0,0,1,17.6,5.27L341.12,435c14.19,9,31.89-4.17,27.92-20.76l-14.69-61.38a17,17,0,0,1,15.22-20.87l61.16-4.64c16.84-1.28,23.76-22.25,11-33.3l-47.47-41.11Z"/><path class="cls-1" d="M191.6,312.83A79.28,79.28,0,0,0,224.32,320a80,80,0,1,0-79.75-82.51,95.53,95.53,0,0,1,47,75.33Z"/></g></g></svg>