<?xml version="1.0" encoding="iso-8859-1"?>
<!-- Generator: Adobe Illustrator 19.0.0, SVG Export Plug-In . SVG Version: 6.00 Build 0)  -->
<svg version="1.1" id="Layer_1" xmlns="http://www.w3.org/2000/svg" xmlns:xlink="http://www.w3.org/1999/xlink" x="0px" y="0px"
	 viewBox="0 0 512.001 512.001" style="enable-background:new 0 0 512.001 512.001;" xml:space="preserve">
<g>
	<g>
		<path d="M511.596,147.636c-1.779-7.724-9.219-15.843-18.051-24.911c-0.851-0.874-1.709-1.753-2.582-2.645
			c-6.197-6.332-12.592-12.866-15.866-18.01c0.128-1.686,0.42-4.635,1.035-9.748c0.17-1.411,0.359-2.934,0.565-4.556
			c0-0.001,0-0.002,0-0.003c0.002-0.022,0.005-0.044,0.008-0.066c0.166-1.31,0.343-2.681,0.532-4.12
			c0.003-0.021,0-0.042,0.003-0.063c0.289-2.101,0.538-3.996,0.717-5.394c0.076-0.554,0.117-1.109,0.125-1.661
			c0.059-3.866-1.511-7.617-4.34-10.262c-22.517-21.237-37.518-26.261-44.45-27.366c-1.029-0.165-2.06-0.299-3.092-0.418
			c-0.278-0.032-0.555-0.063-0.832-0.091c-0.916-0.095-1.833-0.176-2.75-0.235c-0.166-0.01-0.331-0.024-0.496-0.033
			c-0.92-0.053-1.839-0.084-2.758-0.1c-0.398-0.008-0.795-0.01-1.193-0.011c-0.613-0.001-1.226,0.008-1.838,0.023
			c-0.79,0.019-1.578,0.053-2.365,0.098c-0.419,0.024-0.839,0.046-1.257,0.078c-0.654,0.049-1.305,0.111-1.956,0.179
			c-0.068,0.007-0.136,0.012-0.204,0.019c-3.04-1.899-10.565-6.214-19.834-8.737c-10.2-2.777-18.827-2.371-25.64,1.207
			c-6.055,3.179-13.412,10.453-14.08,27.051c-0.349,8.525,0.294,16.426,1.91,23.531c-0.031,0.073-0.058,0.149-0.089,0.223
			c-0.25,0.605-0.492,1.212-0.725,1.823c-0.172,0.453-0.337,0.91-0.5,1.369c-0.208,0.583-0.408,1.17-0.601,1.759
			c-0.142,0.435-0.282,0.87-0.416,1.308c-0.232,0.755-0.449,1.515-0.656,2.279c-0.073,0.271-0.147,0.541-0.217,0.813
			c-0.246,0.951-0.47,1.907-0.676,2.867c-0.041,0.189-0.077,0.379-0.117,0.568c-0.213,1.038-0.411,2.079-0.578,3.127
			c-0.414,2.572-0.683,5.149-0.8,7.623c-0.017,0.325-0.068,0.597-0.164,0.821c-0.953,2.254-3.871,8.94-8.689,18.166
			c-0.904,1.73-1.874,3.548-2.91,5.445c-11.749,21.486-32.024,52.837-60.208,75.895c-1.658,1.356-3.344,2.684-5.056,3.979
			c-5.138,3.886-10.52,7.48-16.145,10.683c-2.812,1.602-5.685,3.105-8.617,4.498c-46.889,22.274-80.31,58.586-91.553,98.713
			c-19.729-7.471-37.34-20.574-50.201-37.511c-2.973-3.914-5.656-7.983-8.067-12.176c-0.004-0.008-0.008-0.017-0.013-0.025
			c-4.866-8.488-8.606-17.587-11.116-27.044c-0.009-0.037-0.024-0.072-0.034-0.109c-2.452-9.314-3.726-18.982-3.726-28.853v-20.407
			v-31.347v-11.233c0-4.328-3.508-7.837-7.837-7.837c-4.329,0-7.837,3.509-7.837,7.837v3.396H15.673v-48.818h49.685v2.32
			c0,4.328,3.508,7.837,7.837,7.837c4.329,0,7.837-3.509,7.837-7.837v-10.156V70.041V45.779c0-22.361-18.173-40.552-40.511-40.552
			C18.177,5.226,0,23.418,0,45.779v24.263v31.347v64.491v31.347v20.407c0,19.633,2.992,38.982,8.721,57.445
			c0.055,0.278,0.122,0.555,0.209,0.831c3.251,10.33,7.427,20.498,12.413,30.219c0.099,0.193,0.219,0.368,0.332,0.55
			c7.088,13.706,15.826,26.62,26.117,38.423c9.006,10.329,19.011,19.596,29.805,27.713c0.085,0.069,0.163,0.141,0.251,0.207
			c0.373,0.279,0.752,0.55,1.127,0.826c0.358,0.264,0.717,0.528,1.077,0.789c0.779,0.567,1.563,1.128,2.351,1.684
			c0.362,0.255,0.723,0.51,1.087,0.762c0.809,0.562,1.622,1.117,2.438,1.667c0.339,0.228,0.677,0.457,1.017,0.682
			c0.872,0.58,1.751,1.15,2.632,1.715c0.281,0.18,0.561,0.362,0.843,0.54c0.975,0.618,1.954,1.224,2.938,1.823
			c0.191,0.117,0.381,0.235,0.574,0.35c1.104,0.668,2.215,1.323,3.331,1.968c0.078,0.045,0.156,0.092,0.234,0.137
			c2.65,1.526,5.327,2.992,8.031,4.38c0.07,0.036,0.143,0.061,0.213,0.094c17.788,9.12,36.97,15.478,56.897,18.722
			c4.301,5.26,9.328,10,15.015,13.997c22.906,16.102,51.135,15.935,75.783-0.361l-16.704,38.251
			c-0.116,0.265-0.217,0.538-0.303,0.815c-3.298,10.633-1.402,21.87,5.201,30.83c6.594,8.948,16.748,14.082,27.858,14.082h81.204
			c10.945,0,19.849-8.91,19.849-19.861c0-19.742-16.048-35.803-35.773-35.803h-36.047l9.295-18.329
			c1.957-3.86,0.414-8.577-3.445-10.534c-3.859-1.956-8.576-0.415-10.535,3.445l-15.066,29.71c-1.232,2.429-1.113,5.325,0.312,7.646
			c1.425,2.322,3.954,3.735,6.678,3.735h48.808c11.083,0,20.1,9.03,20.1,20.13c0,2.309-1.873,4.188-4.175,4.188H269.49
			c-6.076,0-11.632-2.809-15.24-7.706c-3.538-4.801-4.609-10.796-2.963-16.507l33.134-75.872c0.475-0.998,0.728-1.664,0.828-1.941
			c1.415-3.978-0.575-8.36-4.5-9.914c-3.925-1.553-8.376,0.281-10.065,4.151l-0.519,1.189c-1.336,2.661-7.242,12.795-24.36,24.543
			c-19.609,13.456-41.164,13.926-59.135,1.292c-19.576-13.759-29.665-39.485-23.988-61.168
			c3.157-12.063,13.402-31.079,46.063-41.596c0.553-0.109,1.093-0.282,1.617-0.511c8.652-2.651,18.825-4.715,30.786-5.922
			c0.063-0.006,0.125-0.014,0.188-0.022l83.32-10.457c5.842-0.729,11.721,1.081,16.135,4.977c4.425,3.905,6.963,9.532,6.963,15.437
			c0,5.688-1.359,11.375-3.932,16.446l-33.278,65.622c-1.957,3.86-0.414,8.577,3.445,10.534c3.86,1.957,8.576,0.416,10.535-3.445
			l27.656-54.538c9.218-9.724,17.754-20.268,25.487-31.488L427.92,434.08v18.287c0,2.736,0.934,5.423,2.631,7.568l2.593,3.281
			l-14.004,7.009c-4.157,2.08-6.739,6.261-6.739,10.91v6.974c0,6.726,5.47,12.198,12.195,12.198h37.338
			c6.724,0,12.194-5.472,12.194-12.198v-73.008c0-1.187-0.172-2.365-0.51-3.493l-27.788-93.014
			c-1.239-4.146-5.607-6.506-9.752-5.265c-4.147,1.239-6.506,5.605-5.266,9.752l27.643,92.527v69.025h-30.38v-1.353l15.904-7.961
			c3.297-1.65,5.647-4.66,6.447-8.26c0.801-3.601-0.052-7.326-2.34-10.218l-4.493-5.682v-17.775c0-1.63-0.32-3.219-0.949-4.718
			l-56.294-134.288c-0.024-0.055-0.045-0.112-0.07-0.166l-15.561-37.121c-1.674-3.993-6.266-5.871-10.257-4.198
			c-3.992,1.674-5.871,6.266-4.198,10.257l14.102,33.64c-2.29,3.628-4.668,7.188-7.127,10.678
			c-0.906-9.059-5.192-17.506-12.08-23.584c-7.786-6.869-18.159-10.069-28.457-8.775l-83.226,10.446
			c-0.239,0.024-0.471,0.052-0.71,0.077c9.437-6.119,19.527-11.926,29.907-17.897c17.459-10.044,35.512-20.43,51.253-33.037
			c49.174-39.404,62.623-82.499,73.429-117.125c1.372-4.398,2.669-8.552,4.013-12.633c0.983-2.996,1.87-5.581,2.712-7.903
			c1.169-3.226,2.542-5.958,4.071-8.112c1.611-2.259,5.886-8.247,16.454-5.443c-2.546,5.341-3.389,11.255-3.528,16.222
			c-0.731,26.188,12.74,32.538,22.578,37.173c7.527,3.547,12.967,6.111,15.173,16.756c1.243,6.026,2.043,11.983,2.412,17.802
			c-9.816-0.859-21.149-3.282-33.831-7.248c-1.023-0.417-1.841-0.49-2.965-0.443c-2.991,0.128-6.809,1.685-8.014,8.386
			c-0.256,1.421-0.526,3.366-0.867,5.827c-0.594,4.281-1.439,10.352-2.783,17.751c-1.848-2.837-5.401-4.25-8.806-3.232
			c-4.147,1.239-6.506,5.605-5.266,9.752l24.698,82.674c1.016,3.399,4.132,5.595,7.507,5.595c0.743,0,1.498-0.107,2.245-0.33
			c4.147-1.239,6.506-5.605,5.266-9.752l-16.345-54.716c5.211-19.255,7.529-34.971,8.81-44.155
			c14.316,3.933,27.082,5.922,38.053,5.922c0.137,0,0.276,0,0.413-0.001c0.343-0.002,0.669-0.018,1.007-0.023
			c0.677-0.011,1.356-0.021,2.02-0.047c0.318-0.013,0.624-0.037,0.937-0.053c0.695-0.036,1.388-0.072,2.067-0.125
			c0.22-0.017,0.434-0.042,0.652-0.061c0.761-0.066,1.516-0.137,2.257-0.225c0.134-0.016,0.263-0.036,0.397-0.052
			c0.813-0.1,1.615-0.211,2.404-0.338c0.063-0.01,0.123-0.022,0.185-0.032c0.838-0.137,1.664-0.287,2.475-0.453
			c0.031-0.006,0.063-0.014,0.094-0.021c0.82-0.169,1.628-0.353,2.42-0.554c0.044-0.01,0.086-0.023,0.128-0.033
			c0.755-0.192,1.499-0.396,2.229-0.617c0.118-0.036,0.233-0.074,0.35-0.111c0.627-0.193,1.249-0.393,1.856-0.608
			c0.285-0.099,0.56-0.208,0.84-0.311c0.412-0.154,0.825-0.305,1.228-0.468c0.629-0.253,1.239-0.518,1.839-0.791
			c0.037-0.017,0.075-0.032,0.112-0.049c15.016-6.876,21.001-19.747,21.146-31.253C512.015,150.048,511.875,148.846,511.596,147.636
			z M15.673,45.779c0-13.718,11.147-24.879,24.848-24.879c13.694,0,24.837,11.161,24.837,24.879v16.426H15.673V45.779z
			 M15.673,77.878h49.685v15.673H15.673V77.878z M15.673,173.716h49.685v15.673H15.673V173.716z M21.551,262.969
			c-3.867-14.692-5.878-29.92-5.878-45.336v-12.57h49.685v12.57c0,8.918,0.903,17.693,2.669,26.236L21.551,262.969z M26.223,277.993
			l45.962-18.889c1.685,4.943,3.679,9.781,5.971,14.496l-45.979,18.892C29.979,287.748,27.994,282.91,26.223,277.993z
			 M80.531,355.173c-7.469-6.175-14.476-12.977-20.924-20.371c-7.693-8.822-14.438-18.321-20.197-28.334l46.515-19.112
			c1.756,2.707,3.608,5.369,5.58,7.965c4.696,6.184,9.965,11.902,15.677,17.123L80.531,355.173z M105.395,372.426
			c-0.162-0.093-0.323-0.188-0.485-0.282c-0.95-0.55-1.895-1.108-2.835-1.675c-0.227-0.137-0.452-0.276-0.678-0.414
			c-0.868-0.53-1.733-1.066-2.593-1.61c-0.292-0.185-0.581-0.373-0.872-0.56c-0.794-0.51-1.586-1.024-2.372-1.546
			c-0.333-0.221-0.665-0.446-0.997-0.671c-0.494-0.333-0.984-0.671-1.475-1.008l26.338-42.231c4.262,3.044,8.699,5.82,13.284,8.312
			l-26.345,42.227C106.04,372.788,105.715,372.61,105.395,372.426z M120.381,380.111l26.656-42.726
			c0.888,0.35,1.784,0.681,2.679,1.011c-0.928,2.401-1.646,4.686-2.2,6.802c-3.946,15.074-2.249,31.236,4.011,45.717
			C140.805,388.288,130.381,384.662,120.381,380.111z M366.659,58.496c0.294-7.331,2.213-11.977,5.704-13.809
			c3.583-1.88,9.192-1.448,15.1,0.273c-3.744,1.815-7.362,3.955-10.801,6.449c-3.66,2.655-7.011,5.62-10.047,8.84
			C366.629,59.666,366.635,59.088,366.659,58.496z M391.382,79.839c-2.355,3.315-4.385,7.304-6.036,11.86
			c-0.895,2.474-1.834,5.206-2.865,8.346c-1.379,4.191-2.694,8.402-4.086,12.861c-10.701,34.288-22.83,73.152-68.267,109.562
			c-14.8,11.853-32.323,21.933-49.268,31.682c-20.126,11.579-40.906,23.55-57.539,38.699c-9.462,3.09-17.371,6.845-23.988,10.982
			c11.414-20.677,32.877-45.909,73.136-65.033c28.381-13.484,54.607-37.263,77.949-70.676c18.071-25.87,28.593-49.435,31.371-56.005
			c0.814-1.899,1.284-3.969,1.4-6.191c0.09-1.925,0.298-3.911,0.622-5.917c0.002-0.011,0.004-0.022,0.006-0.033
			c0.128-0.799,0.278-1.591,0.439-2.379c0.044-0.212,0.089-0.423,0.135-0.634c0.14-0.647,0.293-1.289,0.455-1.928
			c0.044-0.17,0.083-0.343,0.128-0.513c0.195-0.739,0.408-1.47,0.632-2.197c0.088-0.284,0.183-0.566,0.276-0.849
			c0.15-0.46,0.306-0.916,0.468-1.371c0.118-0.33,0.234-0.66,0.358-0.988c0.186-0.493,0.383-0.981,0.584-1.468
			c0.207-0.502,0.422-1,0.644-1.496c3.89-8.713,10-16.3,17.929-22.052c7.16-5.193,15.279-8.504,23.769-9.825
			c0.611-0.097,1.224-0.18,1.838-0.255c0.231-0.028,0.463-0.053,0.695-0.077c0.514-0.056,1.029-0.11,1.545-0.152
			c0.445-0.036,0.892-0.058,1.339-0.083c0.483-0.027,0.965-0.05,1.448-0.065c0.638-0.018,1.277-0.029,1.917-0.024
			c0.284,0.002,0.568,0.011,0.854,0.019c0.561,0.013,1.122,0.031,1.684,0.062c0.288,0.015,0.577,0.032,0.864,0.053
			c0.586,0.041,1.171,0.091,1.758,0.15c0.252,0.025,0.504,0.047,0.755,0.076c0.83,0.095,1.66,0.204,2.49,0.336
			c7.461,1.188,17.608,7.67,26.763,15.072c-6.72-1.062-14.193-0.994-20.769,1.982C415.867,63.468,400.93,66.441,391.382,79.839z
			 M496.323,151.173c-0.048,2.31-0.704,7.896-5.5,12.637c-3.988,3.943-10.094,6.479-17.876,7.487
			c-0.389-6.823-1.314-13.801-2.768-20.838c-3.794-18.313-15.38-23.772-23.839-27.759c-9.052-4.266-14.039-6.615-13.593-22.557
			c0.201-7.191,2.065-11.899,5.538-13.994c2.072-1.25,4.721-1.738,7.572-1.738c5.077,0,10.801,1.545,15.076,3.078
			c-0.814,6.527-1.299,11.003-1.49,13.723c-0.014,0.194-0.025,0.371-0.037,0.547c-0.001,0.029-0.003,0.057-0.005,0.087
			c-0.014,0.229-0.03,0.47-0.04,0.67c-0.002,0.052,0.005,0.103,0.004,0.156c-0.018,0.498-0.008,0.994,0.037,1.486
			c0.002,0.018,0.005,0.034,0.006,0.052c0.104,1.08,0.357,2.14,0.758,3.151c0.003,0.008,0.008,0.017,0.011,0.026
			c0.188,0.47,0.409,0.929,0.659,1.376c0.019,0.033,0.03,0.07,0.049,0.103c4.033,7.016,11.575,14.722,18.869,22.173
			c0.176,0.18,0.366,0.374,0.549,0.56c6.043,6.176,15.5,15.931,16.021,19.526C496.324,151.14,496.323,151.158,496.323,151.173z"/>
	</g>
</g>
<g>
	<g>
		<circle cx="449.306" cy="100.792" r="8.17"/>
	</g>
</g>
<g>
</g>
<g>
</g>
<g>
</g>
<g>
</g>
<g>
</g>
<g>
</g>
<g>
</g>
<g>
</g>
<g>
</g>
<g>
</g>
<g>
</g>
<g>
</g>
<g>
</g>
<g>
</g>
<g>
</g>
</svg>
