<?xml version="1.0" encoding="utf-8"?>
<!-- Generator: Adobe Illustrator 23.0.1, SVG Export Plug-In . SVG Version: 6.00 Build 0)  -->
<svg version="1.1" id="Lag_1" xmlns="http://www.w3.org/2000/svg" xmlns:xlink="http://www.w3.org/1999/xlink" x="0px" y="0px"
	 viewBox="0 0 488.2 488.2" style="enable-background:new 0 0 488.2 488.2;" xml:space="preserve">
<path d="M300.2,381h-65.8l2.4-47.4l-12,27c0,2,1.5,10.1,3,16.9l0.8,3.6h-50.5l8.5-58.8l-10.1,4.6l-3-6.4l-9.3,5.8l-4.5-7.9
	l-10.7,0.1L138.9,357l10.3,24H90.1l0.5-3.5c0-0.3,4.1-26.5,4.5-39.6l-11.2,21.9l2.6,21.2h-54l25.3-100.2l-14.2-7.4l14.1-43
	l82.9-64.4l94.3-27.5l10.6-19l12.5-1.3l-1.6-8.9l29.2,2.5l8.4-4.6l27.6,4.9l-6.1,6.1l21,8.7l-13.6,5.1l19.7,22l-9.2,0.9l36.6,56.4
	l0.8,41.7l-0.1,0.5c1.8,1.8,3.2,3.6,4.5,5.2c2.5,3.2,4.5,5.7,8.3,7.1c2.3,0.6,4.8,1.1,7.7,1.3c11.4,1,21.5-2.5,29.2-10.2
	c15.7-15.6,17.2-42.8,3.1-59.4c-4.4-5.2-9.7-8.9-15.7-11.1c-8.1-3-17.7-3.1-26.8-0.3l-14.4,4.3l11.6-9.5
	c7.7-6.3,16.5-10.2,25.7-11.3c9.8-1.2,18.9,1,26.4,6.2l0,0c22.4,15.7,25.4,37.5,25.4,56.7c0,19.1-7.5,34.5-23.7,48.2
	c-3.1,2.6-6.2,4.8-9.8,6.7c-18.7,10.3-37.5,6-53.4,0.4c-2.6-0.9-5.3-2.1-8-3.6l-2.8,1.2l-33.6,22.4l18.9,27.9l-18.9-4.5l-4.3,14.5
	l-21.7-38.6l29.6-38.4l-5.1-5.4l-7.1,6.5L296.4,248l-8.1,3.9l-12,46.5c0.9,5.2,7.6,42.8,11.3,63.7L300.2,381z M240.7,375H289
	l-7.1-10.6l-0.1-0.6c-11.5-65.1-11.5-65.1-11.5-65.5v-0.4l12.9-50.2l14.7-7l18.2,20.7l7-6.3l12.7,13.4l-30.3,39.3l12.8,22.8l1.9-6.4
	l9.4,2.2L316,306.2l39.1-26l6.1-2.5l1.3,0.7c2.9,1.6,5.7,2.9,8.3,3.9c14.7,5.1,31.9,9.1,48.6,0c3.1-1.7,6-3.7,8.8-6
	c14.8-12.5,21.6-26.4,21.6-43.7c0-18.6-2.8-37.7-22.8-51.8l0,0c-6.2-4.4-13.9-6.2-22.2-5.2c-3.4,0.4-6.7,1.2-10,2.5
	c5.3,0,10.5,0.9,15.2,2.7c7.1,2.6,13.2,6.9,18.2,12.9c16,18.9,14.4,49.8-3.5,67.6c-9.1,9-20.8,13.1-34,11.9
	c-3.3-0.3-6.2-0.8-8.9-1.5l-0.2-0.1c-5.5-1.9-8.4-5.5-11.2-9.1c-1.5-1.9-3.1-4-5.2-5.8l-1.5-1.3l1-3.2l-0.7-39L322.9,150l7.2-0.7
	l-17.7-19.8l7.4-2.6l-14.9-6.2l4.3-4.3l-14.2-2.5l-8.1,4.4l-23.2-2l1.4,7.5l-15.9,1.7l-10.3,18.4l-95.6,27.8l-80.6,62.6l-12,36.4
	l2.2,1.2c1.5-3.7,4.3-7.4,5-8.3l2.1-2.7l7.1,7.1L40.2,375h39.7l-2-16.3l31.2-61.1l34.9,4.5l-4.7,9.4l-24.4-3.7
	c-5.1,9.6-12.2,23.3-13.6,26.2c0.4,9.7-2.8,32.2-4.1,40.9h42.9l-7.5-17.6l11.8-44.9l18.8-0.2l3.2,5.6l9.8-6.1l3.3,7.1l14.7-6.8
	l-9.1,62.9h36c-3-14.3-2.4-15.7-2-16.5l12.5-28.2L207.5,307l-0.6-19.4l9.8-0.8l0.6,16.5l25.7,24.6L240.7,375z M101.2,333.3
	L101.2,333.3L101.2,333.3z M60.3,270.8c-1.3,2.2-2.3,4.3-2.3,5.3v3.8L60.3,270.8z M270.6,191.6l-9.2-9.5v-27.8l23.3,4.9l-0.3,10.6
	l-13.6-4.4l0.5,13.6l7,9.1L270.6,191.6z M316.3,182.9L305.4,172l11.4-1.4l9,5.6L316.3,182.9z"/>
</svg>
