<svg id="Layer_1" data-name="Layer 1" xmlns="http://www.w3.org/2000/svg" viewBox="0 0 512 512">
  <title>Artboard 1</title>
  <path d="M226,125.59q-12.77,3.53-46.94,10.31-26.85,6.51-35,13.29-15.72,14.1-61,43.13Q45.6,221.08,45.6,246.86l-.27.54-3,23.34a6.23,6.23,0,0,1-1.9,3.52,3.63,3.63,0,0,1-3,1.36l-.81-.28a5.29,5.29,0,0,1-3.53-1.9A4.34,4.34,0,0,1,32,269.37l3-23.06q0-30.66,42-62.4,47.48-31.47,59.69-42.59,9.5-8.69,40.15-15.74,33.92-7,46.12-10.58,9.22-2.16,21.71-20.07Q258,74.85,284.35,68.88l1.08-.27h8.95a5.18,5.18,0,0,1,3.8,1.63,4.9,4.9,0,0,1,1.63,3.53q0,5.42-5.43,5.42h-8.14q-21.71,5.7-32.82,22Q239.31,121.51,226,125.59ZM258.3,183.9a4.06,4.06,0,0,0,4.07,3A44.87,44.87,0,0,1,273,185q6.51,0,13.84,9.23,3.52,4.6,7,4.61,1.91,0,7.33-3.26,8.13-5.69,14.65-5.7a29.85,29.85,0,0,1,7.32.82,6.18,6.18,0,0,1,3,2.71,5.33,5.33,0,0,1,.54,4.07,6.48,6.48,0,0,1-2.44,3.25,5.3,5.3,0,0,1-4.07.55,12.4,12.4,0,0,0-4.34-.55q-3.26,0-9,4.07c-5.6,3.08-9.95,4.62-13,4.62q-9,0-15.73-9-3.25-4.6-4.89-4.88-2.18,0-8.68,1.9h-1.36q-11.12,0-14.92-10.31c-.72-2.34-1.08-6.78-1.08-13.29a159.24,159.24,0,0,1,6-44q9.77-33.63,29.3-33.64a31.68,31.68,0,0,1,9.76,1.91l4.34,1.08a4.82,4.82,0,0,1,3.26,2.72,5.24,5.24,0,0,1,.54,4.07,4.86,4.86,0,0,1-2.71,3.25,5.3,5.3,0,0,1-4.07.54,25.78,25.78,0,0,0-4.34-1.08,21.12,21.12,0,0,0-6.78-1.63q-11.94,0-18.72,25.5a144,144,0,0,0-6,41.25Q257.76,182.3,258.3,183.9Zm222.47-5.69a54.48,54.48,0,0,0-9.5-9.77q15.19,17.64,15.19,42.86,0,17.1-11.93,31.48-14.92,16.28-38,16.27-19,0-33.37-4.34h-.27v-.27a63.18,63.18,0,0,1-16-8.14q-15.73-11.93-19-36.08a11,11,0,0,0-5.16,2.71q-2.72,3.54-2.71,11.4,0,15.46,23.6,34.46l8.14,6q25.77,11.65,45.58,11.93,19.53.56,38.52-14.37,18.72-15.47,18.72-38Q494.6,196.4,480.77,178.21Zm24.41,46.14q0,28.23-22.79,46.13-22.25,17.36-45.3,16.54-21.16,0-46.94-11.12l-31.74,22.79q-9,8.42-9,17.36a5.8,5.8,0,0,0,1.35,3.8l1.09,1.08L356,317.4q6.51-7.57,11.39-7.59,12.5,0,16.28,18.45a6.36,6.36,0,0,1-.81,4.07,4.69,4.69,0,0,1-3,2.44h-1.35q-4.35,0-5.16-4.07-1.62-9.22-5.42-10c-.55.18-2,1.44-4.35,3.8q-6.51,7.59-11.66,7.59-6,0-9.77-6a17.89,17.89,0,0,1-3.25-10q0-13.83,12.21-25.23,2.7-2.71,24.14-16.82l5.43-4.07-3.53-3q-27.94-22-27.94-42.59,0-12.21,6-18.72,6.53-6,17.1-6.78a5.12,5.12,0,0,1,3.79,1.08,4.87,4.87,0,0,1,1.9,3.8q1.9,23.6,15.47,34.18a41.08,41.08,0,0,0,8.41,4.88,55.43,55.43,0,0,0,4.34-21.7q0-29.29-25.23-67.28-13.29-19.55-51.82-64a5.27,5.27,0,0,1,0-7.06l-3.53.28a4.36,4.36,0,0,1-3.52-1.08,6.35,6.35,0,0,1-1.9-3.8,4.78,4.78,0,0,1,1.08-3.8,7,7,0,0,1,3.53-1.63l20.08-1.9a4.35,4.35,0,0,1,3.79,1.36,5.06,5.06,0,0,1,1.9,3.25,4.35,4.35,0,0,1-1.35,3.8,5.26,5.26,0,0,1-3.53,1.9L337,82.18l.54.27q39.62,46.67,52.09,65.38Q417,188.53,417,221.08a68.06,68.06,0,0,1-4.61,24.7q9.77,2.43,24.14,2.43,18.72,0,29.85-12.75a35.12,35.12,0,0,0,9.49-24.14q0-22.26-13.83-37.17-13.56-14.39-35.81-16.28a4.94,4.94,0,0,1-3.53-1.63,4.75,4.75,0,0,1-1.36-3.53,3.33,3.33,0,0,1,1.09-3.25,5.08,5.08,0,0,1,3.25-1.91l8.68-.8q35.82,0,54.81,24.68Q505.19,192.87,505.18,224.35ZM325.31,55.6q4.35,3,1.9,7.59l-6,10.31a5.72,5.72,0,0,1-4.88,2.17,5.06,5.06,0,0,1-2.71-.55q-4.35-2.43-1.9-7.33L318,57.49C319.8,54.78,322.24,54.14,325.31,55.6Zm-33.91-.55A4.39,4.39,0,0,1,295.2,54a5.73,5.73,0,0,1,3.8,1.36l9.76,10.31a4,4,0,0,1,1.36,3.8,5.17,5.17,0,0,1-1.63,3.79,4.4,4.4,0,0,1-3.25,1.08A6.15,6.15,0,0,1,301.17,73l-10-10.31a4.65,4.65,0,0,1-1.63-3.79A6.33,6.33,0,0,1,291.4,55.05Zm41.24,179.59q26,4.89,26,20.35,0,6.24-19.26,24.15Q324,293.24,324,306.27q0,14.1,4.88,25Q335.62,344,348.64,344a19.53,19.53,0,0,0,9.23-2.44l6-3.8a4.76,4.76,0,0,1,3.79-1.08,4.41,4.41,0,0,1,3.8,1.9,4,4,0,0,1,1.09,3.53,4.39,4.39,0,0,1-1.9,3.79,65.83,65.83,0,0,1-7.87,5.15,26.54,26.54,0,0,1-14.11,3.8q-19.8,0-29-18.72-6.51-12.47-6.51-29.84,0-17.64,19-35,14.66-13.83,15.47-16.82-.27-6-16.82-9.49a46.19,46.19,0,0,1-16-5.16Q290,268.29,312,395a4.12,4.12,0,0,1-1.09,4.07,5.16,5.16,0,0,1-4.34,2.17H256.4a4.42,4.42,0,0,1-3.53-1.63,5.22,5.22,0,0,1-1.62-3.8l-1.09-31.47-1.9-13.57a261.5,261.5,0,0,0-12.75,45.85q-.81,4.62-5.42,4.62H190.2a5.75,5.75,0,0,1-4.07-1.9,4.39,4.39,0,0,1-1.35-3.8l4.61-63.21a142.77,142.77,0,0,1-20.62,2.17q-7.87,0-17.36-4.62-7.32,30.38-6,65.92a4,4,0,0,1-1.36,3.53,5.67,5.67,0,0,1-4.07,1.9H89.28a5.46,5.46,0,0,1-3.8-1.9,4.35,4.35,0,0,1-1.35-3.8l1.62-33.64-3.25,6a65,65,0,0,0-6,27.93,5.57,5.57,0,0,1-5.43,5.43H18.47a5.45,5.45,0,0,1-4.34-2.44c-1.26-1.81-1.45-3.43-.54-4.88Q48,307.35,49.67,301.11a38.42,38.42,0,0,0,1.63-10.57q0-14.4-5.16-34.47a5.53,5.53,0,0,1,.55-4.06,6.05,6.05,0,0,1,3.52-2.45,5.55,5.55,0,0,1,4.07.55,6,6,0,0,1,2.45,3.52q5.15,20.63,5.15,36.91A48.5,48.5,0,0,1,60,304.1Q57.82,312,26.34,390.64H65.68a72,72,0,0,1,7.59-27.94q9-16.27,12.21-21.16l11.67-24.42q7.59-15.47,22.79-15.46,12.21,0,26.86,12.48l4.34,3.25q9.5,6.24,17.63,6.24,9.22,0,25.23-3.25h.27L201.6,319q23.07-5.16,25.5-5.15,18.18,0,26.32,19,5.7,12.75,7.32,30.38.56,6.25,1.09,27.4h38.79q-22.78-134.56,10-162,3.25-2.72,6.78,0Q322.6,232.48,332.64,234.64ZM97.42,340.73l-2.17,49.91h39.61a253.55,253.55,0,0,1,7-67l-1.9-1.35q-12.19-9.76-20.07-9.77-8.41,0-13.3,9.22Zm130-16.56L200,330.41l-4.34,60.23H226a257.51,257.51,0,0,1,16.82-55.34Q237.41,325,227.37,324.17Z" stroke="#fff" stroke-miterlimit="10" stroke-width="2" fill-rule="evenodd"/>
</svg>