<svg xmlns="http://www.w3.org/2000/svg" viewBox="0 0 74.29 47.49"><title>Asset 1</title><g id="Layer_2" data-name="Layer 2"><g id="Layer_1-2" data-name="Layer 1"><path d="M6.79,38.81c-1-1.24-1.88-2.37-2.33-2.92s-.83-1.42.3-3c1-1.45.54-5.19.35-6.3A1.06,1.06,0,0,0,5,26.23c0-.06-3.68-6.43-2.88-10.41C2.87,12,8,5.71,15.66,3.8c6.91-1.73,15.12.23,17.49.88l.67.2C36,5.57,41.9,7.4,45,6.9a47.08,47.08,0,0,0,7.5-2.27L54,4.09a4.38,4.38,0,0,0,.1.81,1,1,0,0,0,1,.78l.23,0a1,1,0,0,0,.75-1.2,5.43,5.43,0,0,1,.61-3A1,1,0,1,0,54.92.54a10.12,10.12,0,0,0-.55,1.39,16.3,16.3,0,0,0-2.51.82,47.58,47.58,0,0,1-7.13,2.18c-2.67.42-8.43-1.37-10.32-2l-.75-.23C31.19,2.06,22.56,0,15.18,1.86c-8,2-14,8.6-15,13.56-.88,4.38,2.4,10.54,3,11.65.28,1.83.33,4.13,0,4.64-1.46,2-1.53,3.87-.23,5.45.45.54,1.34,1.67,2.32,2.9,3.32,4.19,3.86,4.84,4.12,5a1.06,1.06,0,0,0,.63.21,1,1,0,0,0,.8-.39,1,1,0,0,0-.17-1.37C10.3,43.23,8.19,40.57,6.79,38.81Z"/><path d="M40.26,28.5a1,1,0,1,0-1.69-1.07,13.13,13.13,0,0,0-1.63,3.88,1.13,1.13,0,0,0-.26,0c-6.86,1.25-14.1-.22-16.57-.81a12.52,12.52,0,0,0,1.25-5.29,1,1,0,0,0-2,.05,10.32,10.32,0,0,1-1.6,5.34c-.79,1.2-2.32,1.68-3.8,2.15s-3.1,1-3.83,2.33c-1.37,2.52,2.61,7.54,3.86,9a1,1,0,0,0,1,.32,2.84,2.84,0,0,1,2.25.15,2.61,2.61,0,0,1,.68.59c-2.23.08-5.51.32-5.69.34a1,1,0,0,0,.07,2h.08c1.6-.12,6-.42,7.09-.35a1,1,0,0,0,.83-.36,1,1,0,0,0,.21-.88,5.35,5.35,0,0,0-2.25-3,4.53,4.53,0,0,0-3.15-.51c-2-2.42-3.69-5.49-3.25-6.31.34-.64,1.48-1,2.67-1.37A9.32,9.32,0,0,0,19,32.28,48.7,48.7,0,0,0,30.82,33.8a35.36,35.36,0,0,0,6.08-.5c.37,3,1.9,11.48,2,11.87a1,1,0,0,0,1,.83L40,46a1,1,0,0,0,.81-1.16c-.54-3-2-10.93-2-12.4A9,9,0,0,1,40.26,28.5Z"/><path d="M71.92,7l-.3-.26a25.48,25.48,0,0,0-4.68-3.13L65.55,2.8C63.41,1.53,61.39.32,58.4,1.06a1,1,0,0,0-.73,1.22A1,1,0,0,0,58.89,3c2.08-.52,3.43.2,5.64,1.52.46.28.94.55,1.42.82a24.82,24.82,0,0,1,4.34,2.89l.33.29c1.11,1,1.67,1.59,1.67,1.89a4.1,4.1,0,0,1-.09.65l-.59-.27a1,1,0,1,0-.84,1.81l.82.38c-.49,1.22-1.15,2.44-1.76,2.68a10.93,10.93,0,0,1-3.82.59,11.43,11.43,0,0,1-1.27-.07,8,8,0,0,0-2.72.07c-2.16.54-3.6,2.33-4.86,3.91l-.89,1.07c-.66.75-1.3,1.51-2,2.27-1.38,1.62-2.8,3.3-4.32,4.82a37.3,37.3,0,0,0-6,8,8.43,8.43,0,0,0-.64,7.51,1,1,0,0,0,1,.56,3.57,3.57,0,0,1,3.21.95c-1.26.05-3.09.12-4.78.17a1,1,0,0,0,0,2h0c2.28-.06,6.15-.19,6.61-.28a1,1,0,0,0,.66-.47,1,1,0,0,0,.1-.8A5.38,5.38,0,0,0,45,42.33a6.88,6.88,0,0,1,.8-5.06,35,35,0,0,1,5.65-7.53c1.58-1.58,3-3.29,4.44-4.95.64-.75,1.27-1.5,1.93-2.24.31-.36.62-.74.94-1.14,1.12-1.4,2.27-2.84,3.79-3.22a6.28,6.28,0,0,1,2,0,12.45,12.45,0,0,0,1.5.08,13,13,0,0,0,4.52-.73c2.36-.95,3.72-5.9,3.72-7.11C74.29,9,72.87,7.81,71.92,7Z"/><path d="M64,8.51a1.14,1.14,0,0,0,.4.08,1,1,0,0,0,.41-1.91l-1.19-.53a1,1,0,0,0-1.32.51A1,1,0,0,0,62.85,8Z"/></g></g></svg>