<?xml version="1.0" encoding="utf-8"?>
<!-- Generator: Adobe Illustrator 23.0.1, SVG Export Plug-In . SVG Version: 6.00 Build 0)  -->
<svg version="1.1" id="Layer_1" xmlns="http://www.w3.org/2000/svg" xmlns:xlink="http://www.w3.org/1999/xlink" x="0px" y="0px"
	 viewBox="0 0 512 512" style="enable-background:new 0 0 512 512;" xml:space="preserve">
<g>
	<g id="Layer_1-2_1_">
		<path d="M46.6,364.9c-6.9-8.5-13-16.3-16.1-20.1s-5.7-9.8,2.1-20.7c6.9-10,3.7-35.8,2.4-43.4c-0.1-0.9-0.4-1.7-0.8-2.5
			c0-0.4-25.4-44.3-19.9-71.8c5.2-26.3,40.5-69.7,93.4-82.9c47.6-11.9,104.2,1.6,120.6,6.1l4.6,1.4c15,4.8,55.7,17.4,77.1,13.9
			c17.6-3.8,34.9-9,51.7-15.7l10.3-3.7c0.1,1.9,0.3,3.7,0.7,5.6c0.7,3.2,3.6,5.5,6.9,5.4h1.6c3.7-0.9,6-4.6,5.2-8.3c0,0,0,0,0,0
			c-0.6-7.2,0.8-14.3,4.2-20.7c1.8-3.4,0.5-7.6-2.9-9.3c-3.4-1.8-7.6-0.5-9.3,2.9c-1.5,3.1-2.8,6.3-3.8,9.6
			c-5.9,1.4-11.7,3.3-17.3,5.7c-16,6.3-32.4,11.3-49.2,15c-18.4,2.9-58.1-9.4-71.2-13.8l-5.2-1.6c-17-4.4-76.5-18.6-127.4-5.8
			C49.3,123.9,7.9,169.4,1,203.6c-6.1,30.2,16.5,72.7,20.7,80.3c1.9,12.6,2.3,28.5,0,32c-10.1,13.8-10.5,26.7-1.6,37.6
			c3.1,3.7,9.2,11.5,16,20c22.9,28.9,26.6,33.4,28.4,34.5c1.3,0.9,2.8,1.4,4.3,1.4c2.2,0,4.2-1,5.5-2.7c2.2-3,1.7-7.1-1.2-9.4
			C70.8,395.3,56.3,377,46.6,364.9z"/>
		<path d="M277.4,293.8c2-3.2,1.1-7.5-2.1-9.5c-3.2-2-7.5-1.1-9.5,2.1c-5.2,8.3-9,17.3-11.2,26.8c-0.6-0.1-1.2-0.1-1.8,0
			c-47.3,8.6-97.2-1.5-114.2-5.6c5.5-11.4,8.5-23.8,8.6-36.5c-0.1-3.8-3.3-6.8-7.1-6.7c-3.8,0.1-6.8,3.3-6.7,7.1l0,0
			c-0.2,13.1-4,25.8-11,36.8c-5.4,8.3-16,11.6-26.2,14.8s-21.4,6.9-26.4,16.1c-9.4,17.4,18,52,26.6,62.1c1.7,2,4.4,2.8,6.9,2.2
			c5.1-1.8,10.7-1.4,15.5,1c1.8,1.1,3.4,2.5,4.7,4.1c-15.4,0.6-38,2.2-39.2,2.3c-3.8,0.1-6.8,3.3-6.7,7.1s3.3,6.8,7.1,6.7h0.6
			c11-0.8,41.4-2.9,48.9-2.4c2.2,0.1,4.3-0.8,5.7-2.5c1.4-1.7,2-3.9,1.4-6.1c-2.5-8.5-8-15.9-15.5-20.7c-6.6-3.8-14.3-5-21.7-3.5
			c-13.8-16.7-25.4-37.9-22.4-43.5c2.3-4.4,10.2-6.9,18.4-9.4c11.6-2.6,22.3-8.4,30.8-16.7c26.6,6.8,54,10.3,81.5,10.5
			c14,0.1,28.1-1.1,41.9-3.4c2.6,20.7,13.1,79.2,13.8,81.8c0.6,3.3,3.5,5.8,6.9,5.7h0.7c3.7-0.7,6.3-4.2,5.6-8c0,0,0,0,0,0
			c-3.7-20.7-13.8-75.4-13.8-85.5C268.5,311.2,271.9,301.9,277.4,293.8z"/>
		<path d="M495.7,145.5l-2.1-1.8c-9.9-8.4-20.7-15.6-32.3-21.6l-9.6-5.6c-14.8-8.8-28.7-17.1-49.3-12c-3.7,0.9-6,4.6-5.1,8.3
			c0,0,0,0,0,0.1c0.9,3.7,4.7,5.9,8.4,5c0,0,0,0,0,0c14.3-3.6,23.6,1.4,38.9,10.5c3.2,1.9,6.5,3.8,9.8,5.7
			c10.6,5.6,20.7,12.3,29.9,19.9l2.3,2c7.7,6.9,11.5,11,11.5,13c-0.1,1.5-0.3,3-0.6,4.5l-4.1-1.9c-3.3-1.8-7.5-0.6-9.4,2.7
			c-1.8,3.3-0.6,7.5,2.7,9.4c0.3,0.1,0.6,0.3,0.8,0.4l5.7,2.6c-3.4,8.4-7.9,16.8-12.1,18.5c-8.5,2.9-17.4,4.3-26.3,4.1
			c-2.9,0-5.8-0.2-8.8-0.5c-6.2-0.9-12.6-0.7-18.8,0.5c-14.9,3.7-24.8,16.1-33.5,27l-6.1,7.4c-4.6,5.2-9,10.4-13.8,15.7
			c-9.5,11.2-19.3,22.8-29.8,33.2c-16.2,16.4-30.1,35-41.4,55.2c-9.5,15.6-11.2,34.8-4.4,51.8c1.3,2.6,4,4.1,6.9,3.9
			c8-1.6,16.3,0.8,22.1,6.6c-8.7,0.3-21.3,0.8-33,1.2c-3.8,0-6.9,3.1-6.9,6.9c0,3.8,3.1,6.9,6.9,6.9l0,0c15.7-0.4,42.4-1.3,45.6-1.9
			c1.9-0.4,3.6-1.6,4.6-3.2c1-1.7,1.2-3.7,0.7-5.5c-5.2-15-19.3-25.1-35.2-25c-2.7-11.9-0.7-24.4,5.5-34.9
			c10.6-19,23.7-36.4,39-51.9c10.9-10.9,20.7-22.7,30.6-34.1c4.4-5.2,8.8-10.3,13.3-15.4c2.1-2.5,4.3-5.1,6.5-7.9
			c7.7-9.7,15.7-19.6,26.1-22.2c4.6-0.7,9.2-0.7,13.8,0c3.4,0.4,6.9,0.6,10.3,0.6c10.6,0.2,21.2-1.5,31.2-5
			c16.3-6.6,25.6-40.7,25.6-49C512,159.3,502.2,151.1,495.7,145.5z"/>
		<path d="M441.1,155.9c0.9,0.3,1.8,0.5,2.8,0.6c3.8,0,6.9-3.1,6.9-6.9c0-2.7-1.6-5.1-4-6.2l-8.2-3.7c-3.5-1.5-7.6,0-9.1,3.5
			c0,0,0,0,0,0c-1.6,3.5,0,7.6,3.5,9.1c0.1,0,0.2,0.1,0.3,0.1L441.1,155.9z"/>
	</g>
</g>
</svg>
