<?xml version="1.0" encoding="utf-8"?>
<!-- Generator: Adobe Illustrator 23.0.0, SVG Export Plug-In . SVG Version: 6.00 Build 0)  -->
<svg version="1.1" id="Layer_1" xmlns="http://www.w3.org/2000/svg" xmlns:xlink="http://www.w3.org/1999/xlink" x="0px" y="0px"
	 viewBox="0 0 512 512" style="enable-background:new 0 0 512 512;" xml:space="preserve">
<g>
	<g>
		<path d="M-0.4,276.4c0.2,3.4,2.4,6.3,5.6,7.5c0.3,0.1,2.6,0.9,6.2,0.9c4.1,0,9.7-1.1,15.6-5.4c0.8,8.9,2.6,18,5.5,26.8
			c5.1,16.1,9.8,28,13.7,35l-18,28.1c-1.4,2.1-1.7,4.8-0.9,7.2l37.2,113.2c1.1,3.5,4.4,5.8,8.1,5.8h29.3c2.7,0,5.2-1.3,6.8-3.4
			c1.6-2.1,2.1-4.9,1.4-7.5l-27.8-95.8c2.7-2.5,6.7-6.3,11.4-11l8.9,15.4l22.5,95.7c0.9,3.8,4.3,6.5,8.3,6.5h33.2
			c2.6,0,5.1-1.2,6.7-3.2s2.2-4.7,1.6-7.3l-25.1-102.2c6.5-11.6,17.3-35.5,22.1-46.4c10.4,0.8,23.1,1.1,38.8-0.1
			c13.5-1,24.8-2.6,34.2-4.4l16.6,50.1v105c0,4.7,3.8,8.5,8.5,8.5h27.6h24.7c4.7,0,8.5-3.8,8.5-8.5V324c8.4-8.6,36.3-37.3,49.4-53.2
			c13.8-16.7,35.7-74.3,42.8-93.6c23.7,0,50,0.1,50.3,0.1c3.3,0,6.4-1.9,7.7-4.9l13.2-28.7c1-2.2,1-4.6,0.1-6.8
			c-0.9-2.2-2.7-3.9-4.9-4.7l-35-12.6c-3.4-10.9-14.8-34.9-49.8-37.3l3.3-8.2h13.9c0,0,0,0,0,0c0,0,0,0,0,0h34.6c0,0,0,0,0,0
			c0,0,0,0,0,0h12.9c20.3,0,37.7-14.4,41.3-34.2c1-5.4,1.1-10.8,0.4-16.1c-0.6-4.6-4.9-7.9-9.5-7.3c-4.6,0.6-7.9,4.9-7.3,9.5
			c0.5,3.5,0.4,7.1-0.3,10.8c-2,10.8-10.9,18.9-21.8,20.2c4.9-11.2,7.5-24,8.1-27.5c0.8-4.6-2.2-9-6.8-9.9c-4.6-0.8-9,2.2-9.9,6.8
			c-2.1,11.5-6.7,25.4-10.7,30.8h-13.5c5-11.3,6.5-24.7,6.8-28.5c0.4-4.7-3-8.8-7.7-9.2c-4.7-0.4-8.8,3-9.2,7.7
			c-1.3,14.5-6,27-9.7,30h-14.4c-12.3-11.6-11-27.7-11-28.4c0.4-4.6-3-8.8-7.6-9.2c-4.6-0.4-8.8,2.9-9.2,7.5
			c-0.1,0.7-1.1,11.5,3.7,23.8c-14.6-7.1-14-15.5-13.8-18.3c0.3-4.7-3.2-8.7-7.9-9c-4.7-0.3-8.7,3.2-9,7.9
			c-1.1,15.4,8.1,28.2,25.9,36c4.9,2.2,9.9,3.7,14.1,4.7L385.9,83c-0.2,0-0.5,0.1-0.7,0.1c-0.4-0.8-1-1.5-1.7-2.1l-24.6-21.7
			c-1.5-1.4-3.5-2.1-5.6-2.1h-8.7c-17.9-4.9-18.6-24.2-18.6-25c-0.1-4.7-4-8.4-8.6-8.3c-4.7,0.1-8.4,3.9-8.3,8.6
			c0.1,6.3,2.2,16.1,8,24.7h-7.4c-5-2.2-10.5-8.5-15.6-18c-4.7-8.7-7.3-16.8-7.4-16.9c-1.4-4.5-6.2-6.9-10.7-5.5
			c-4.5,1.4-6.9,6.2-5.5,10.7c0.7,2.3,4.9,14.6,12.3,26.1c-4.3-1.7-8.3-4-11.9-6.8c-6.8-5.3-15.2-13.6-16-22.7
			c-0.4-4.7-4.6-8.1-9.2-7.6c-4.7,0.4-8.1,4.6-7.6,9.2c1.1,12.1,8.7,23.7,22.5,34.4c11.5,9,26.1,14,41,14h6.6c0,0,0,0,0,0
			c0,0,0,0,0,0h33.6c-0.5,1-0.8,2.1-0.8,3.3c-0.1,2.2-0.6,16.7,3.2,30.7L309,173.1c-15.2-1.7-56.2-4.8-84.4,5.3
			c-4.4,1.6-6.7,6.4-5.1,10.8c1.2,3.5,4.5,5.6,8,5.6c1,0,1.9-0.2,2.9-0.5c30.5-10.9,81.7-3.8,82.2-3.7c3.5,0.5,7-1.2,8.7-4.4
			l32.2-59.5c1.6,1.5,3.7,2.3,5.8,2.3c1.9,0,3.7-0.6,5.3-1.9c3.7-2.9,4.3-8.3,1.3-11.9c-5.3-6.6-7.2-18.9-7.8-27.9
			c18.5,4.3,23.9,21.7,25.2,27.5c1,4.6,5.5,7.5,10.1,6.4c4.6-1,7.5-5.5,6.4-10.1c-0.9-3.9-2.2-8-4.1-12c15.5-0.6,27.3,3.4,35,12
			c6.7,7.5,8.1,16,8.1,16.1c0.4,3.1,2.5,5.7,5.5,6.8l30.5,11l-7.1,15.3c-13.5-0.1-48.9-0.2-68.7,0c-0.1,0-0.2,0-0.3,0
			c-16.6,0-19.8-17.4-20.1-19.4c-0.7-4.6-5-7.8-9.6-7.1c-4.6,0.7-7.8,5-7.1,9.6c0.9,6,3.8,14.6,9.9,21.7l-26,47.9
			c-1.4,2.6-1.4,5.8,0.2,8.4c1.5,2.6,4.3,4.1,7.3,4.1h0.8c-8.6,15-20.1,40.7-19,69.4c-10.4,10.9-18.9,19.6-19.1,19.8
			c-1.6,1.6-2.4,3.7-2.4,5.9v158h-7.8v-68.6c0-4.7-3.8-8.5-8.5-8.5s-8.5,3.8-8.5,8.5v68.6h-10.7v-97.9c0-0.9-0.1-1.8-0.4-2.7
			l-16.5-49.9c5.4-1.5,9.8-3.1,13.2-4.5l14.6,59.9c0.9,3.9,4.4,6.5,8.2,6.5c0.7,0,1.3-0.1,2-0.2c4.5-1.1,7.3-5.7,6.2-10.2
			l-17.1-70.2c-0.7-2.7-2.6-4.9-5.2-5.9c-2.6-1-5.5-0.6-7.8,1c-0.1,0.1-17.7,11.4-66.2,15c-25,1.9-41.9-0.3-54.3-1.8
			c-4.8-0.6-9.2-1.2-13.2-1.4c13.8-25.5,16.6-47.3,8.2-65c-2-4.2-7.1-6-11.3-4c-4.2,2-6,7.1-4,11.3c13,27.4-18,70.3-44.6,98.9
			c-0.6,0.5-1.1,1-1.5,1.6c-8.1,8.6-15.7,15.8-21.4,20.7c-2.5,2.2-3.5,5.6-2.6,8.8l26.2,90.1H78.7L44.7,375l18.8-29.4
			c2.1-3.4,1.6-7.7-1.1-10.5c-0.6-0.8-5.3-7.5-13.7-34.1c-6.1-19.1-6.9-38.9-2.2-55.7c3.2-11.6,8.7-21.7,16.6-30.2
			c0.4-0.4,0.8-0.8,1.1-1.2c5.7-5.9,12.5-11,20.4-15.3c25.4-13.8,58.2-9,87.1-4.8c11.4,1.7,22.2,3.2,32.2,3.7
			c4.6,0.2,8.6-3.4,8.8-8.1c0.2-4.7-3.4-8.6-8.1-8.8c-9.1-0.4-19.5-1.9-30.5-3.5c-31.5-4.6-67.3-9.8-97.6,6.7
			c-9,4.9-16.8,10.7-23.5,17.5c-4.9,1.5-15.9,5.5-26.6,13.9C13.2,225.3-2.2,244.3-0.4,276.4z M353.3,275.4
			c5.1-29.7,22.8-52.9,23.1-53.2c2-2.6,2.3-6,0.9-8.9c-1.4-2.9-4.4-4.7-7.6-4.7h-2.1l18.2-33.5c3.8,1.4,8.1,2.3,13.1,2.3
			c0.2,0,0.3,0,0.5,0c1.7,0,3.5,0,5.4,0c-9.8,26-27.8,70.6-37.8,82.7C363.3,264.3,358.5,269.7,353.3,275.4z M105.7,365.1
			c5.6-6.2,11.5-13.1,17.3-20.6c2.6-3.4,5.1-6.8,7.4-10.1c4.9-2.1,10.8-1.5,22.4,0c0.4,0,0.8,0.1,1.1,0.1
			c-5.9,13.1-15.9,34.8-20.6,42.4c-1.2,1.9-1.6,4.3-1,6.5l23.3,95.1h-15.7l-21.2-90.4c-0.2-0.8-0.5-1.6-0.9-2.3L105.7,365.1z
			 M16.6,265.9c1.1-13.8,6.6-25.3,16.5-34.4c-1.2,3-2.2,6.1-3.1,9.3c-0.7,2.7-1.4,5.5-1.9,8.4c-0.3,0.4-0.5,0.8-0.7,1.3
			C23.6,259.3,19.7,263.7,16.6,265.9z"/>
	</g>
</g>
<g>
	<g>
		<path d="M410.7,124.5c0.7,4.1,3.9,7.3,8,8c6.7,1.1,12.5-4.6,11.4-11.3c-0.7-4.1-3.9-7.3-8-8C415.3,112,409.6,117.8,410.7,124.5z"
			/>
	</g>
</g>
</svg>
