<?xml version="1.0" encoding="iso-8859-1"?>
<!-- Generator: Adobe Illustrator 19.0.0, SVG Export Plug-In . SVG Version: 6.00 Build 0)  -->
<svg version="1.1" id="Layer_1" xmlns="http://www.w3.org/2000/svg" xmlns:xlink="http://www.w3.org/1999/xlink" x="0px" y="0px"
	 viewBox="0 0 512.002 512.002" style="enable-background:new 0 0 512.002 512.002;" xml:space="preserve">
<g>
	<g>
		<path d="M433.189,242.719c-0.176-4.323-3.837-7.686-8.146-7.516c-4.325,0.172-7.69,3.818-7.518,8.143
			c1.078,27.058-3.053,53.783-12.281,79.435c-17.051,47.383-27.617,109.79-30.117,125.493l-15.175,3.91l-1.43-96.367
			c-0.008-0.568-0.078-1.134-0.209-1.686c-1.265-5.354-5.983-9.196-11.403-9.34l-163.734-5.784c-0.016-0.001-0.03-0.004-0.046-0.005
			l-31.194-1.099c-3.216-0.094-6.282,1.063-8.647,3.253l-44.962,41.785c-0.005,0.005-0.009,0.01-0.015,0.016l-11.141,10.354H69.703
			c-6.712,0-12.173,5.465-12.173,12.183v48.388l-11.369,1.693V378.61c0.173-0.163,0.341-0.333,0.5-0.512l11.567-13.026
			c3.239-2.249,5.247-5.993,5.247-10.005v-58.995c0-15.081,5.461-29.631,15.376-40.973c9.91-11.329,23.543-18.66,38.433-20.682
			l82.218,0.747c0.024,0,0.048,0,0.073,0c4.295,0,7.796-3.462,7.835-7.766c0.04-4.329-3.438-7.868-7.765-7.908l-82.766-0.752
			c-0.362-0.001-0.709,0.019-1.062,0.064c-17.928,2.283-34.427,10.713-46.789,23.823c-11.422,2.016-22.176,6.905-31.256,14.255
			c-12.187,9.867-20.701,23.752-23.975,39.094c-0.903,4.233,1.796,8.397,6.029,9.3c0.551,0.117,1.101,0.174,1.643,0.174
			c3.618,0,6.871-2.521,7.657-6.204c2.528-11.847,9.101-22.567,18.508-30.183c2.198-1.779,4.526-3.366,6.954-4.763
			c-4.428,9.919-6.785,20.73-6.785,31.772v44.467c-2.185,2.785-4.665,5.321-7.437,7.533c-6.811,5.452-15.103,8.829-23.745,9.736
			l3.142-14.708c0.904-4.233-1.794-8.396-6.027-9.301c-4.234-0.894-8.397,1.796-9.301,6.028l-4.167,19.508
			c-0.76,3.532,0.108,7.167,2.375,9.976c2.27,2.809,5.643,4.419,9.257,4.419c7.049,0,14.025-1.239,20.602-3.588
			c-1.279,1.952-2.013,4.262-2.013,6.681v87.732c0,0.038-0.005,0.074-0.005,0.112v23.143c0,5.874,4.179,10.791,9.718,11.926
			c0.792,0.162,1.611,0.248,2.45,0.248h35.579c3.766,0,7.254-1.699,9.571-4.661c0.418-0.534,0.768-1.102,1.087-1.684
			c1.455-2.654,1.886-5.747,1.139-8.766l-3.693-14.782c-0.21-0.851-0.523-1.67-0.911-2.45c-0.753-1.531-1.819-2.885-3.121-3.956
			c-0.157-0.132-0.31-0.268-0.474-0.391l-7.052-5.294l-1.573-1.182v-47.832h15.339c2.636,0,5.171-0.853,7.283-2.426v54.635
			c0,0.02-0.002,0.038-0.002,0.057v26.981c0,4.265,2.29,7.995,5.698,10.054c1.77,1.071,3.836,1.699,6.05,1.699h38.494
			c3.492,0,6.779-1.54,9.018-4.226c2.24-2.686,3.164-6.2,2.537-9.633l-2.788-15.321l-0.332-1.828c0-0.002-0.001-0.004-0.001-0.004
			l-0.003-0.02c-0.023-0.123-0.061-0.242-0.087-0.366c-0.06-0.279-0.117-0.558-0.198-0.831c-0.034-0.117-0.083-0.23-0.121-0.345
			c-0.089-0.272-0.176-0.544-0.284-0.808c-0.118-0.285-0.256-0.562-0.396-0.838c-0.043-0.085-0.076-0.173-0.121-0.256
			c-0.966-1.801-2.394-3.343-4.168-4.448l-14.006-8.661v-43.6l16.434-1.359c2.505-0.207,4.757-1.603,6.058-3.753l29.569-48.859
			l101.47,3.585l-9.286,117.12l-0.887,11.173c-0.022,0.243-0.019,0.487-0.026,0.73c-0.006,0.19-0.023,0.379-0.021,0.568
			c0,0.031,0.005,0.065,0.006,0.097c0.067,2.981,1.192,5.856,3.198,8.051c0.003,0.004,0.008,0.007,0.011,0.011v0.001
			c0.025,0.026,0.053,0.05,0.077,0.076c0.255,0.273,0.517,0.536,0.794,0.782c0.08,0.07,0.168,0.132,0.25,0.2
			c0.229,0.192,0.458,0.385,0.699,0.558c0.133,0.096,0.275,0.176,0.412,0.265c0.201,0.132,0.397,0.271,0.605,0.389
			c0.167,0.096,0.343,0.173,0.514,0.261c0.187,0.095,0.369,0.199,0.561,0.283c0.154,0.068,0.315,0.119,0.471,0.182
			c0.217,0.085,0.432,0.179,0.653,0.25c0.032,0.011,0.067,0.017,0.099,0.026c1.115,0.353,2.281,0.543,3.464,0.543h34.105
			c0.684,0,1.356-0.064,2.011-0.183c4.022-0.737,7.378-3.651,8.753-7.601c0.192-0.55,0.354-1.116,0.466-1.703l2.899-15.234
			c0.339-1.807,0.25-3.631-0.21-5.341c-0.706-2.636-2.299-4.992-4.561-6.595c-0.188-0.134-0.377-0.266-0.575-0.39l-10.996-6.78
			l18.022-95.925l2.761,0.098l1.513,101.974c0,0.007,0,0.015,0,0.021l0.001,0.055c0.002,0.159,0.018,0.318,0.029,0.476
			c0.006,0.076,0.006,0.153,0.015,0.229c0.027,0.255,0.065,0.509,0.117,0.762l5.475,26.55c0.014,0.067,0.028,0.135,0.044,0.202
			c1.293,5.526,6.162,9.385,11.842,9.385h36.467c5.469,0,10.169-3.718,11.425-9.023l1.969-8.227l1.364-5.697
			c0.001-0.006,0.002-0.014,0.004-0.02l0.002-0.007c0.006-0.025,0.009-0.052,0.016-0.077c0.959-4.162-0.422-8.497-3.551-11.336
			c-0.248-0.227-0.503-0.447-0.771-0.654l-18.303-13.957c2.369-14.757,12.942-77.107,29.42-122.901
			C429.909,300.523,434.348,271.803,433.189,242.719z M73.727,484.309H46.162V471.42l17.012-2.533l2.182,1.637l6.066,4.56
			L73.727,484.309z M139.387,473.474l1.97,10.835h-29.857v-16.462l14.684-2.538L139.387,473.474z M146.269,392.152l-19.638,1.625
			c-4.064,0.336-7.191,3.732-7.191,7.811v48.982l-7.941,1.373v-59.843l41.403-38.478l16.337,0.577L146.269,392.152z
			 M322.594,474.856l-1.799,9.453h-26.409l0.05-0.63l1.086-13.669l14.92-2.751c0.01,0.008,0.022,0.015,0.032,0.022
			c0.313,0.249,0.643,0.48,0.983,0.696c0.048,0.031,0.091,0.068,0.139,0.099L322.594,474.856z M306.973,451.961l-10.171,1.875
			l7.522-94.867l19.988,0.706L306.973,451.961z M397.34,475.866l-2.022,8.444h-30.503l-3.367-16.326l19.103-4.922L397.34,475.866z"
			/>
	</g>
</g>
<g>
	<g>
		<path d="M496.292,103.727h-30.32h-4.549c-5.358,0-10.593-2.176-14.355-5.963l-6.109-6.164c-1.57-1.582-3.288-2.998-5.114-4.251
			V23.918c0-3.147-1.225-6.121-3.448-8.377c-0.026-0.026-0.053-0.054-0.08-0.08c-2.255-2.22-5.229-3.444-8.373-3.444
			c-8.371,0-16.279,2.61-22.839,7.189c-0.58-1.343-1.404-2.586-2.462-3.66c-0.026-0.027-0.053-0.054-0.081-0.081
			c-2.253-2.224-5.228-3.448-8.378-3.448c-22.053,0-39.993,17.954-39.993,40.023v54.907c-1.078,2.074-2.005,4.225-2.765,6.414
			l-22.582,64.991c-8.699,25.035-32.223,41.752-58.654,41.752c-0.19,0-0.381-0.001-0.572-0.003l-25.215-0.232
			c-0.024,0-0.049,0-0.073,0c-4.295,0-7.795,3.462-7.835,7.765c-0.04,4.329,3.437,7.869,7.765,7.909l25.216,0.232
			c0.24,0.002,0.476,0.003,0.717,0.003c33.102,0,62.565-20.935,73.458-52.28l22.583-64.995c0.672-1.937,1.539-3.83,2.578-5.627
			c0.69-1.193,1.053-2.546,1.053-3.924V52.04c0-12.141,8.921-22.234,20.546-24.056v60.835c0,4.329,3.509,7.837,7.837,7.837h21.222
			c5.353,0,10.591,2.183,14.365,5.983l6.109,6.164c5.704,5.744,13.298,9.387,21.304,10.34l-3.783,34.066l-27.975-0.688
			c-0.066-0.001-0.131-0.002-0.196-0.002c-4.167,0-7.623,3.275-7.824,7.461c-0.028,0.589-0.697,14.706-0.776,36.431
			c-0.016,4.328,3.481,7.849,7.809,7.865c0.009,0,0.02,0,0.029,0c4.314,0,7.82-3.49,7.837-7.809
			c0.044-12.039,0.277-21.822,0.473-28.088l42.604,1.047c0.715,0.11,1.43,0.187,2.146,0.248c0.215,0.019,0.43,0.032,0.646,0.047
			c0.561,0.037,1.121,0.059,1.681,0.065c0.131,0.002,0.261,0.016,0.391,0.016c0.061,0,0.121-0.004,0.182-0.004
			c0.061,0,0.12-0.003,0.181-0.004c0.47-0.005,0.939-0.022,1.407-0.048c0.115-0.006,0.229-0.015,0.343-0.022
			c0.425-0.027,0.851-0.066,1.274-0.11c0.113-0.013,0.226-0.024,0.339-0.038c0.465-0.055,0.928-0.119,1.389-0.196
			c0.057-0.009,0.115-0.017,0.172-0.026c1.058-0.18,2.107-0.414,3.141-0.699c0.097-0.026,0.193-0.057,0.29-0.085
			c0.405-0.116,0.809-0.239,1.209-0.372c0.132-0.044,0.262-0.088,0.393-0.134c0.377-0.13,0.752-0.269,1.125-0.414
			c0.123-0.048,0.248-0.094,0.371-0.144c0.433-0.174,0.862-0.358,1.288-0.552c0.05-0.023,0.102-0.044,0.153-0.067
			c0.483-0.224,0.961-0.459,1.434-0.707c0.088-0.046,0.173-0.096,0.261-0.143c0.37-0.199,0.737-0.403,1.098-0.618
			c0.145-0.086,0.289-0.174,0.434-0.262c0.305-0.187,0.609-0.378,0.909-0.577c0.151-0.1,0.303-0.2,0.453-0.303
			c0.303-0.207,0.603-0.421,0.9-0.641c0.131-0.095,0.261-0.189,0.391-0.286c0.419-0.319,0.834-0.645,1.239-0.985
			c7.192-6.045,11.316-14.904,11.316-24.306v-18.617C511.998,110.776,504.953,103.727,496.292,103.727z M420.174,81.306
			c-1.556-0.209-3.127-0.326-4.705-0.326h-13.385V41.412c3.523-7.236,10.287-12.208,18.09-13.429V81.306z M496.325,138.056
			c0,4.763-2.088,9.248-5.727,12.308c-3.632,3.053-8.395,4.337-13.072,3.519c-0.381-0.066-0.768-0.104-1.155-0.114l-7.181-0.177
			l3.795-34.18l23.339,0.026V138.056z"/>
	</g>
</g>
<g>
	<g>
		<circle cx="420.173" cy="115.504" r="7.837"/>
	</g>
</g>
<g>
</g>
<g>
</g>
<g>
</g>
<g>
</g>
<g>
</g>
<g>
</g>
<g>
</g>
<g>
</g>
<g>
</g>
<g>
</g>
<g>
</g>
<g>
</g>
<g>
</g>
<g>
</g>
<g>
</g>
</svg>
