<?xml version="1.0" encoding="iso-8859-1"?>
<!-- Generator: Adobe Illustrator 19.0.0, SVG Export Plug-In . SVG Version: 6.00 Build 0)  -->
<svg version="1.1" id="Layer_1" xmlns="http://www.w3.org/2000/svg" xmlns:xlink="http://www.w3.org/1999/xlink" x="0px" y="0px"
	 viewBox="0 0 512.003 512.003" style="enable-background:new 0 0 512.003 512.003;" xml:space="preserve">
<g>
	<g>
		<path d="M216.718,184.736l-111.105-1.023c-0.345,0.01-0.7,0.022-1.055,0.064c-11.358,1.441-21.932,5.251-31.222,10.889
			c-7.889,0.439-18.787,2.129-30.124,7.277c-18.62,8.435-32.81,23.314-42.162,44.215c-1.567,3.497-1.369,7.58,0.522,10.909
			c1.891,3.321,5.277,5.565,9.07,6.014c3.73,0.449,8.286,0.805,13.281,0.805c3.448-0.001,7.105-0.168,10.836-0.607v9.26
			c0,4.333,3.5,7.83,7.837,7.83c4.326,0,7.837-3.497,7.837-7.83v-9.573c0-1.096,0.031-2.182,0.084-3.257
			c0.355-6.974,1.829-13.677,4.274-19.92c3.971-10.2,10.491-19.188,18.819-26.133c5.329-4.437,11.4-8.037,18.024-10.586
			c4.556-1.753,9.373-3.006,14.388-3.685l110.551,1.014h0.073c4.295,0,7.795-3.466,7.837-7.768
			C224.523,188.307,221.044,184.768,216.718,184.736z M36.336,247.232c-6.823,1.138-13.615,1.097-18.787,0.762
			c8.923-17.319,21.023-26.841,32.559-31.989C43.41,225.171,38.635,235.789,36.336,247.232z"/>
	</g>
</g>
<g>
	<g>
		<path d="M422.887,208.782c-4.3-0.415-8.127,2.766-8.527,7.074c-1.797,19.323-4.344,36.036-7.57,49.674
			c-2.754,11.639-8.418,22.659-16.832,32.752c-31.594,37.886-40.824,104.228-42.731,121.327l-15.833,4.074l-1.472-99.311
			c-0.008-0.569-0.078-1.137-0.21-1.691c-1.279-5.385-6.035-9.264-11.489-9.427l-176.468-7.074
			c-3.312-0.111-6.438,1.067-8.796,3.285L86.492,352.59c-0.005,0.005-0.01,0.009-0.016,0.015l-11.33,10.515H57.068
			c-6.78,0-12.296,5.512-12.296,12.288v49.926l-12.158,1.808v-79.439c0.203-0.186,0.397-0.381,0.581-0.588l11.913-13.406
			c3.286-2.267,5.324-6.053,5.324-10.114v-10.918c0-4.326-3.508-7.83-7.837-7.83c-4.329,0-7.837,3.505-7.837,7.83v9.156
			c-0.203,0.186-0.397,0.381-0.58,0.588l-11.914,13.407c-3.285,2.267-5.324,6.057-5.324,10.123v90.274v23.783v0.01
			c0,6.77,5.511,12.278,12.286,12.278h36.619c3.805,0,7.33-1.716,9.673-4.706c2.347-2.995,3.168-6.833,2.249-10.547l-3.799-15.187
			c-0.672-2.721-2.285-5.154-4.555-6.864l-8.967-6.724v-49.486h16.019c2.83,0,5.533-0.968,7.719-2.727v56.57
			c0,0.03-0.004,0.061-0.004,0.091v27.726c0,6.537,5.322,11.855,11.864,11.855h39.61h0.003c3.533,0,6.854-1.557,9.115-4.273
			c2.086-2.505,3.018-5.722,2.649-8.911c-0.03-0.265-0.052-0.531-0.1-0.796l-3.209-17.626c-0.033-0.188-0.088-0.369-0.131-0.553
			c-0.05-0.217-0.091-0.438-0.154-0.651c-0.04-0.135-0.094-0.262-0.138-0.395c-0.086-0.258-0.166-0.518-0.27-0.769
			c-0.091-0.22-0.201-0.432-0.305-0.646c-0.074-0.153-0.137-0.31-0.217-0.459c-0.974-1.817-2.419-3.377-4.22-4.504l-14.524-8.97
			v-45.13l17.132-1.413c2.504-0.206,4.758-1.599,6.059-3.748L177.74,323.3l80.773,3.238l-10.52,132.369
			c-0.11,1.252-0.024,2.5,0.23,3.705c0.013,0.058,0.018,0.117,0.03,0.176c0.026,0.115,0.066,0.227,0.095,0.341
			c0.502,1.971,1.463,3.808,2.849,5.32c2.241,2.447,5.403,3.85,8.675,3.85h0.004h35.098h0.004c0.69,0,1.368-0.064,2.028-0.185
			c4.306-0.787,7.858-4.03,9.057-8.359c0.094-0.333,0.173-0.675,0.239-1.021l1.287-6.757l1.7-8.896
			c0.631-3.35-0.195-6.758-2.123-9.396c-0.876-1.199-1.978-2.24-3.276-3.043l-11.448-7.048l18.615-98.949l3.252,0.131l1.558,105.008
			c0,0.02,0,0.04,0.001,0.06v0.025c0.001,0.07,0.01,0.14,0.013,0.209c0.007,0.172,0.014,0.345,0.032,0.518
			c0.027,0.248,0.065,0.495,0.115,0.739l5.637,27.295c0.015,0.069,0.029,0.138,0.046,0.207c1.308,5.57,6.225,9.462,11.958,9.462
			h37.526c5.513,0,10.257-3.742,11.537-9.095l3.432-14.316c0.039-0.163,0.067-0.327,0.098-0.491
			c0.024-0.121,0.053-0.242,0.073-0.365c0.024-0.147,0.038-0.295,0.055-0.442c0.018-0.139,0.04-0.278,0.052-0.417
			c0.014-0.15,0.016-0.299,0.023-0.449c0.007-0.136,0.019-0.273,0.022-0.409c0.002-0.146-0.006-0.291-0.008-0.436
			c-0.003-0.139-0.001-0.28-0.008-0.418c-0.007-0.133-0.025-0.264-0.037-0.396c-0.014-0.151-0.022-0.301-0.042-0.45
			c-0.031-0.248-0.074-0.493-0.121-0.737c-0.006-0.032-0.01-0.066-0.017-0.098c-0.053-0.265-0.117-0.528-0.189-0.788
			c-0.003-0.011-0.005-0.023-0.008-0.034c-0.678-2.442-2.136-4.657-4.236-6.258l-19.1-14.546
			c1.586-14.236,10.237-79.021,39.273-113.844c9.983-11.973,16.727-25.153,20.044-39.172c3.394-14.345,6.06-31.783,7.923-51.83
			C430.365,212.998,427.197,209.183,422.887,208.782z M61.509,456.633H32.613v-13.659l17.803-2.648l3.573,2.678l5.06,3.795
			L61.509,456.633z M128.988,445.139l2.091,11.494H99.856v0v-17.329l15.384-2.656L128.988,445.139z M136.008,361.919l-20.338,1.676
			c-4.066,0.335-7.193,3.728-7.193,7.804v50.525l-8.62,1.489v-61.852l42.745-39.673l17.249,0.692L136.008,361.919z M293.422,446.589
			l-1.077,5.651l-0.839,4.393h-27.61l1.201-15.105l15.631-2.879c0.036,0.029,0.076,0.052,0.113,0.081
			c0.359,0.287,0.734,0.56,1.13,0.807L293.422,446.589z M277.289,423.356l-10.91,2.009l7.804-98.204l21.043,0.844L277.289,423.356z
			 M370.344,447.643l-2.155,8.99h-31.758l-3.544-17.162l19.973-5.141L370.344,447.643z"/>
	</g>
</g>
<g>
	<g>
		<path d="M498.199,65.73c-7.798-3.484-51.864-22.57-82.916-23.531c-2.4-1.518-5.2-2.366-8.178-2.405l-6.093-0.084
			c-5.294-0.08-10.455,0.748-15.308,2.442h-0.001c-0.115,0-0.235,0.008-0.353,0.01c-0.045,0-0.089-0.002-0.134-0.003
			c-0.825-0.016-1.68,0.011-2.587,0.083l-55.307,4.678c-43.703,3.702-83.912,25.902-110.317,60.909
			c-2.143,2.84-2.1,6.767,0.104,9.56c1.522,1.929,3.811,2.983,6.158,2.983c1.05,0,2.113-0.212,3.123-0.651l33.304-14.473
			c17.557-7.638,36.179-11.512,55.344-11.512h21.623l-16.81,48.326c-8.983,25.814-33.274,43.051-60.573,43.051
			c-0.196,0-0.397-0.001-0.594-0.003c-0.024,0-0.048,0-0.072,0c-4.295,0-7.796,3.459-7.836,7.758
			c-0.04,4.325,3.437,7.862,7.766,7.903c0.247,0.002,0.492,0.003,0.738,0.003c33.97,0,64.201-21.45,75.376-53.57l18.598-53.467h6.1
			c1.092,6.476,6.01,11.438,13.178,13.004c1.626,0.354,3.329,0.529,5.074,0.529c4.83,0,9.988-1.335,14.74-3.884
			c4.963-2.659,11.783-7.856,16.152-17.511l12.286-25.28c0.354-0.732,0.635-1.484,0.856-2.243
			c29.975,3.412,70.713,21.921,71.163,22.126c0.373,0.171,0.76,0.312,1.154,0.422c1.073,1.568,2.373,5.247,2.373,6.95v9.344
			c0,5.841-1.959,10.448-5.824,13.693c-5.301,4.455-14.063,6.14-23.432,4.507l-40.783-7.12c-2.326-0.406-4.72,0.259-6.502,1.814
			c-1.783,1.554-2.766,3.83-2.678,6.192c0.01,0.257,0.949,26.109-0.208,58.69c-0.154,4.323,3.229,7.949,7.554,8.102
			c0.095,0.003,0.189,0.005,0.283,0.005c4.199,0,7.677-3.326,7.826-7.553c0.751-21.143,0.632-39.554,0.446-50.18l31.368,5.477
			c14.081,2.452,27.282-0.444,36.213-7.946c7.466-6.27,11.411-15.151,11.411-25.68v-9.344C512,81.916,507.865,67.595,498.199,65.73z
			 M361.705,69.437l-1.066,8.641h-45.607c-19.55,0-38.592,3.622-56.68,10.771c20.378-14.908,44.665-24.154,70.29-26.323
			l36.132-3.057C363.185,62.575,362.139,65.926,361.705,69.437z M394.346,79.137c-0.034,0.072-0.068,0.145-0.101,0.217
			c-3.351,7.47-9.533,11.102-14.2,12.011c-2.841,0.55-4.654,0.047-5.216-0.288l0.521-4.204c0.001-0.006,0-0.013,0.001-0.018
			l1.91-15.502c0.7-5.663,4.933-10.66,11.395-13.54h16.054L394.346,79.137z"/>
	</g>
</g>
<g>
	<g>
		<ellipse cx="425.242" cy="73.487" rx="7.837" ry="7.83"/>
	</g>
</g>
<g>
</g>
<g>
</g>
<g>
</g>
<g>
</g>
<g>
</g>
<g>
</g>
<g>
</g>
<g>
</g>
<g>
</g>
<g>
</g>
<g>
</g>
<g>
</g>
<g>
</g>
<g>
</g>
<g>
</g>
</svg>
