<?xml version="1.0" encoding="utf-8"?>
<!-- Generator: Adobe Illustrator 23.0.0, SVG Export Plug-In . SVG Version: 6.00 Build 0)  -->
<svg version="1.1" id="Layer_1" xmlns="http://www.w3.org/2000/svg" xmlns:xlink="http://www.w3.org/1999/xlink" x="0px" y="0px"
	 viewBox="0 0 512 512" style="enable-background:new 0 0 512 512;" xml:space="preserve">
<g>
	<g>
		<path d="M61.8,420.8l10.3,62.4c0.2,1.2,0.7,2.4,1.4,3.4l15,21.7c1.6,2.3,4.2,3.7,7,3.7h25c3.7,0,7-2.4,8.1-5.9s-0.2-7.4-3.2-9.5
			c-0.3-0.2-8.4-6.3-13.5-21.6c-1.4-4.3-5.7-31.6-8.8-52.6c4-2.3,10-5.8,17-10.3l31,94.2c1.1,3.5,4.4,5.8,8,5.8h36
			c2.5,0,4.9-1.1,6.5-3s2.3-4.4,1.9-6.9c-1.2-7.1-9.7-15-17.8-21l-5.3-52.5c19.2-12.5,30-36.5,34.7-49c21.2,5.4,39.7,4.4,50.3,3
			l13.1,95c0.2,1.1,0.5,2.2,1.1,3.1l15.8,27.1c1.5,2.6,4.3,4.2,7.3,4.2H341H377c2.8,0,5.4-1.4,7-3.7s1.9-5.2,0.9-7.8
			c-4.4-11.6-16.5-27.1-21.9-33.7l22.2-163c1.7-3,3.3-6,4.9-9c10.6-19.9,13.9-54.6,9.8-103.1c-2.1-25.6-5.8-48.1-7.7-59.1l20.3-7.7
			c0.9-0.1,1.9-0.1,3-0.1c8.8-0.3,22-0.8,29.4-10.7c4.8-6.5,5.7-15.4,2.7-26.5c-2.8-10.6-14.5-14-25.8-17.3
			c-4.5-1.3-9.1-2.6-12.8-4.3c-2.8-7.1-9-16.1-19.3-20c0.4-8.9,0.4-23.3-3.4-32c-4.3-10-16.1-16-26.1-13.5
			c-2.5,0.6-8.6,2.9-12.4,10.2c-0.9-0.6-1.9-1.2-2.9-1.6c-6.1-2.9-12.7-2.9-19,0.1c-9.2,4.3-11.8,11-12.4,15.8
			c-1.5,12.5,10,26,18.4,34.2c-5.4,5.8-9.1,13.4-10.3,23.3c-1.4,5.2-10.1,39.9-13.6,91.8c-0.3,4.7,3.2,8.7,7.9,9c0.2,0,0.4,0,0.6,0
			c4.4,0,8.1-3.4,8.4-7.9c3.6-53.5,13.2-88.8,13.3-89.2c0.1-0.4,0.2-0.9,0.2-1.3c1.1-10.1,6.1-16.8,15.2-20.6
			c3.4-1.4,6.9-2.3,10.4-2.8c0,0,0.1,0,0.1,0c5.9-0.9,11.5-0.8,15.3-0.5c-7.3,1-13.1,3-14.3,3.5c-0.8,0.3-1.6,0.8-2.3,1.3
			c-12.5,9.9-18.2,20.7-16.9,32.3c1.1,9.7,7.3,19,18.2,27.4c4.1,3.2,8.2,5.7,11,7.2c1.7,9.2,5.7,33.3,8,60.5
			c3.7,44.6,1,76.9-7.9,93.6c-23,43.1-56.3,85.5-56.7,85.9c-1.1,1.4-1.7,3-1.8,4.7l-2.1,33.3c-0.3,4.7,3.2,8.7,7.9,9
			c0.2,0,0.4,0,0.5,0c4.4,0,8.2-3.4,8.4-7.9l2-30.7c4.3-5.6,16.3-21.4,29.8-41.7l-17.5,128.7c-0.3,2.4,0.4,4.8,1.9,6.6
			c3.1,3.7,9.9,12.1,15.1,20.3h-15.4c-4.1-9.2-13.4-19.3-19.6-25.5l2.2-34.1c0.3-4.7-3.2-8.7-7.9-9c-4.7-0.3-8.7,3.2-9,7.9l-2.4,38
			c-0.2,2.5,0.8,5,2.6,6.7c5.4,5.1,10.7,11.1,14.4,16h-20.2L295,473.6l-14.1-102.1c-0.3-2.4-1.7-4.5-3.7-5.9c-2-1.3-4.5-1.8-6.8-1.2
			c-0.4,0.1-44.5,10.8-86.1-16.9c4.4-8.8,7.3-18,7.9-27.7c0.3-4.7-3.3-8.7-7.9-9c-4.7-0.3-8.7,3.3-9,7.9
			c-1.5,24.8-24.1,48-42.9,63.2c-21.1,17.1-42.3,28-42.5,28.1c-3.2,1.6-5,5.2-4.5,8.7c1.3,8.9,7.7,53.6,10.3,61.4
			c1.9,5.8,4.3,10.7,6.7,14.7h-2.5l-11.4-16.5l-9.6-58.1l12.7-29.4c0.7-1.5,0.9-3.2,0.6-4.9c-0.1-0.3-5.8-32.7-10-68.6
			c-3.7-31.7,11-47.4,11.2-47.5c3.1-3.1,3.3-8.2,0.4-11.5c-0.8-1-20.5-24.5-6.6-42.7c5.7-7.4,12.2-10.5,19.8-9.3
			c5.8,0.9,10.2,3.9,10.2,3.9c2.4,1.8,5.6,2.1,8.4,0.9c4.4-1.9,12.2-4.7,16.1-1.7c4.9,3.8,5.4,17,4.3,24.8c-0.4,2.6,0.5,5.3,2.3,7.3
			c1.9,1.9,4.6,2.8,7.2,2.4c29.6-4.2,158,0,159.3,0.1c2.4,0.1,4.6-0.8,6.3-2.5c1.7-1.7,2.6-3.9,2.5-6.3c-0.3-10.8-0.4-21.9-0.1-32.9
			c0.1-4.7-3.6-8.6-8.3-8.7c-4.7-0.1-8.6,3.6-8.7,8.3c-0.2,8.2-0.2,16.5-0.1,24.8c-27.1-0.8-107.5-2.9-143-0.6
			c0-9.5-2-22.9-11.4-30.2c-7.3-5.7-17.1-6.4-29-2.1c-11.8-6.3-32.8-9.9-49.3,11.4c-17.3,22.4-4.4,47.5,2.9,58.5
			c-5.8,8.8-14.7,27.2-11.4,55.6c3.5,30.6,8.2,58.7,9.7,67.1L62.3,416C61.7,417.5,61.5,419.2,61.8,420.8z M351.9,47.1
			c-2,0.6-4,1.4-5.9,2.2c-10-9-16.2-18.5-15.8-22.3c0.1-0.8,1-1.6,2.8-2.4c2.2-1,3.5-0.7,4.5-0.2c2.8,1.3,5.6,4.7,8.1,9
			c0.1,0.2,0.3,0.5,0.4,0.7C348.3,38,350.4,42.6,351.9,47.1z M372.7,43.9c-1.3,0-2.6,0.1-3.9,0.1c-1-2.9-2.2-6.3-3.8-10
			c-1.1-2.5-2.3-4.9-3.4-7.1c-0.2-6.1,1.1-9.6,2.7-10c1.9-0.5,5.4,1.3,6.5,3.8C372.7,25.4,373.1,35.4,372.7,43.9z M383.2,117.9
			c-7.1-4-19.5-12.7-20.5-21.8c-0.6-5,2.6-10.4,9.4-16.1c5.6-1.8,18.5-4.6,25.4-0.8c0.4,0.2,0.7,0.4,1.1,0.6
			c5.7,3.1,12.1,5,18.4,6.8c4.8,1.4,12.7,3.7,14.2,5.5c1.5,5.6,1.5,9.8,0,11.8c-2.5,3.3-10.8,3.6-16.3,3.8c-1.8,0.1-3.4,0.1-5,0.3
			c-0.8,0.1-1.5,0.2-2.2,0.5L383.2,117.9z M134.6,401.9c14.1-10.5,29.5-24.1,40.9-39.8c7.9,5.2,15.7,9.2,23.5,12.3
			c-4.3,11.5-14.5,33.6-31.3,42c-3.1,1.6-5,4.9-4.6,8.4l6.2,61.8c0.2,2.4,1.5,4.7,3.5,6.1c1.1,0.8,2.2,1.6,3.2,2.4h-10.8
			L134.6,401.9z"/>
	</g>
</g>
<g>
	<g>
		<path d="M379,92c0,5.4,4.4,9.8,9.8,9.8c5.4,0,9.8-4.4,9.8-9.8c0-5.4-4.4-9.8-9.8-9.8S379,86.6,379,92z"/>
	</g>
</g>
</svg>
