<?xml version="1.0" encoding="utf-8"?>
<!-- Generator: Adobe Illustrator 23.0.0, SVG Export Plug-In . SVG Version: 6.00 Build 0)  -->
<svg version="1.1" id="Layer_1" xmlns="http://www.w3.org/2000/svg" xmlns:xlink="http://www.w3.org/1999/xlink" x="0px" y="0px"
	 viewBox="0 0 512 512" style="enable-background:new 0 0 512 512;" xml:space="preserve">
<g>
	<g>
		<path d="M339.4,88.3c1.7,2.8,4.7,4.3,7.8,4.3c1.6,0,3.3-0.4,4.8-1.4c4.3-2.7,5.6-8.3,3-12.6c-6.3-10.2-6.4-15.2-5.6-16.4
			c1.4-2.2,9.3-3.2,14.8-2.5c5,0.7,9.6-2.8,10.3-7.9c0.7-5-2.8-9.6-7.9-10.3c-2.4-0.3-23.9-2.8-32.6,10.7
			C328.3,61.1,330.1,73.2,339.4,88.3z"/>
	</g>
</g>
<g>
	<g>
		<path d="M18.1,508.1c1.7,2.4,4.5,3.9,7.5,3.9h62.3c30.6,0,61-3.7,90.4-11c30.5-7.6,53-15.5,67.1-23.8l11.5,29
			c1.4,3.5,4.8,5.8,8.5,5.8h123.6h96.3c2.6,0,5-1.1,6.8-3c1.7-1.9,2.6-4.5,2.3-7c-1.2-12.8-6.7-23.2-16.4-30.8
			c-16.3-12.8-40.7-14.2-55-13.7c1.7-6.1,5.4-16.4,13.8-32.9c11.5-22.8,12.2-49.5,2-77.4c-5.7-15.6-13.3-27.4-16.8-32.4
			c0-6.9,0-13.6,0-19.9l7.5,2.5c-0.9,16.6,0.2,46.7,19,50.7c1.4,0.3,2.8,0.4,4.2,0.4c4.1,0,7.9-1.4,11.2-4
			c9.5-7.7,13.4-24.7,13.4-58.9c0-13.2-14.1-28.5-35.5-50.3c-6.5-6.6-12.6-12.8-15.6-16.8c-1.9-2.5-3.4-5.5-4.6-9.1
			c-0.2-0.5-0.4-1-0.6-1.4c-1.3-29.9-4.2-45.5-10.6-61.8c-6.9-17.6,2.8-31.3,6.9-36c13.8-2.1,28.7-3.2,41-1.3c2.6,0.4,5.3-0.3,7.3-2
			c0.3-0.3,7.7-6.5,14.5-13.8c8.3-8.9,17.1-20.4,11.1-30c-4-6.4-12.1-9.4-21.6-12.9c-5.3-2-14.3-5.3-16-7.8
			c-0.4-0.5-0.7-1.1-1.2-1.8c-7.9-12.2-28.8-44.8-72.3-39.9c-24.9,2.8-44.8,13.2-60.8,31.9c-18.2,21.3-30.8,53-38.6,96.7
			c-0.9,5,2.4,9.7,7.4,10.6c0.5,0.1,1.1,0.1,1.6,0.1c4.4,0,8.2-3.1,9-7.6c16.9-95.4,55.7-110.6,83.3-113.6
			c32.2-3.6,47.5,20.2,54.9,31.6c0.5,0.7,0.9,1.4,1.3,2c5,7.6,15.1,11.3,24.9,14.9c3.3,1.2,7.9,2.9,10.6,4.3
			c-2.6,4.3-9.6,11.8-17.1,18.6c-36.2-3.8-85,11.4-87.1,12.1c-4.8,1.5-7.5,6.7-6,11.5c1.5,4.8,6.7,7.5,11.5,6
			c0.2-0.1,7.4-2.3,18.1-4.8c-4,9.9-5.9,23,0,38c10.4,26.5,10.4,53.1,10.4,164.9c0,27.2-3,52.5-8.9,75.1c-0.8,3.1-1.7,6.2-2.6,9.2
			c-1.5,4.8,1.2,10,6.1,11.5c0.9,0.3,1.8,0.4,2.7,0.4c3.9,0,7.5-2.5,8.8-6.5c1-3.3,2-6.6,2.8-10c3.8-14.7,6.5-30.3,8-46.8
			c0.4,1.1,0.8,2.2,1.3,3.3c8.3,23.1,7.9,44.1-1.3,62.3c-14.5,28.6-19.8,47.2-15.8,55.2c1.8,3.5,5.6,5.5,9.5,5
			c0.1,0,9.2-1.3,20.5-0.6c14,0.8,25.1,4.2,32.1,9.7c2.9,2.3,5.1,5,6.7,8.1h-76.8c-2.4-8.4-7.3-15.3-14.4-20.3
			c-1.6-1.1-3.2-2.1-4.9-3c6.5-7.8,15-20,22.8-37.4c2.1-4.6,0-10-4.6-12.1c-4.6-2.1-10,0-12.1,4.6c-9.7,21.5-20.3,33.9-25.3,38.9
			c-11.9-1.9-24.3-1.2-33.8,0c3.7-6.6,10.3-16.2,22.2-28.9c15.1-16.2,18.2-36.5,8.9-58.9c-6.6-15.7-17.1-26.9-17.6-27.4
			c-3.5-3.7-9.3-3.8-13-0.3c-3.7,3.5-3.8,9.3-0.3,12.9c1.3,1.4,32.8,35.3,8.6,61.1c-30.9,33-32.1,49.7-31.8,54
			c0.2,2.7,1.6,5.1,3.8,6.7c2.2,1.6,4.9,2.1,7.5,1.4c8.6-2.1,29.9-5.5,46.2-1.9c0,0,0.1,0,0.1,0c4.8,1.1,9.2,2.7,12.6,5.2
			c2.2,1.5,3.9,3.3,5.2,5.4H271.7l-13.5-34.1c-1.1-2.8-3.5-4.9-6.5-5.5c-2.9-0.7-6,0.1-8.2,2.2c-5.4,5-21.7,15.1-69.6,27
			c-28,6.9-56.9,10.5-86,10.5H42.5c15.3-13.8,46.2-17.1,81-20.7c23.6-2.5,47.9-5.1,71.3-11.2c27.8-7.3,49.5-41.1,66.1-103.3
			c13.6-50.8,22-113.1,28.8-163.2c1.4-10.6,2.8-20.6,4.1-30.1c0.7-5-2.8-9.6-7.8-10.4c-5-0.7-9.6,2.8-10.4,7.8
			c-1.3,9.5-2.7,19.5-4.1,30.2c-6.7,49.6-15.1,111.3-28.3,161c-14.6,54.5-32.4,84.9-53,90.3c-22,5.8-45.7,8.3-68.6,10.7
			c-47.4,5-92.1,9.7-104.6,45C16,502.6,16.4,505.7,18.1,508.1z M422,275.6c0-12.8-0.1-24.2-0.2-34.4c2.2,2.2,4.5,4.6,6.9,7.1
			c7.2,7.3,15.3,15.6,21.4,23c8.7,10.6,8.8,14.3,8.8,14.4c0,37.2-5.3,43.6-6.5,44.5c0,0,0,0-0.1,0c-2.6-1.8-6.3-16.7-4.1-38.3
			c0.4-4.3-2.1-8.3-6.2-9.6L422,275.6z"/>
	</g>
</g>
<g>
	<g>
		<path d="M295.9,285.3l54.7,18.4c-0.2,4.5-0.3,10.7,0.1,17c1.4,20,7.7,31.3,18.8,33.6c1.4,0.3,2.8,0.4,4.2,0.4
			c4.1,0,7.9-1.4,11.2-4c9.5-7.7,13.4-24.7,13.4-58.9c0-13.2-14.1-28.5-35.5-50.3c-6.5-6.6-12.6-12.8-15.6-16.8
			c-8.5-11.1-6.8-29.5-6.8-29.6c0.5-5-3.2-9.5-8.2-10c-5-0.5-9.5,3.1-10,8.2c-0.1,1-2.5,25.6,10.4,42.6c3.8,5,10,11.3,17.1,18.5
			c7.2,7.3,15.3,15.6,21.4,23c8.7,10.6,8.8,14.3,8.8,14.4c0,37.2-5.3,43.6-6.5,44.5c0,0,0,0-0.1,0c-3-2.1-6.2-18.2-4.1-38.3
			c0.4-4.3-2.1-8.3-6.2-9.6l-61.4-20.6c-4.8-1.6-10,1-11.6,5.8C288.5,278.5,291.1,283.7,295.9,285.3z"/>
	</g>
</g>
<g>
	<g>
		<path d="M403,59.2c0,5.8,4.7,10.5,10.5,10.5s10.5-4.7,10.5-10.5s-4.7-10.5-10.5-10.5C407.7,48.7,403,53.4,403,59.2z"/>
	</g>
</g>
</svg>
