<?xml version="1.0" encoding="utf-8"?>
<!-- Generator: Adobe Illustrator 23.0.0, SVG Export Plug-In . SVG Version: 6.00 Build 0)  -->
<svg version="1.1" id="Layer_1" xmlns="http://www.w3.org/2000/svg" xmlns:xlink="http://www.w3.org/1999/xlink" x="0px" y="0px"
	 viewBox="0 0 512 512" style="enable-background:new 0 0 512 512;" xml:space="preserve">
<g>
	<g>
		<path d="M351.9,275.2c1.4,0.9,3,1.3,4.5,1.3c2.8,0,5.5-1.4,7.1-3.9c12.1-18.8,17.9-31.2,18.2-31.7c2-4.2,0.2-9.2-4-11.2
			c-4.2-2-9.2-0.2-11.2,4c-0.1,0.1-5.7,12-17.1,29.8C346.9,267.5,348,272.7,351.9,275.2z"/>
	</g>
</g>
<g>
	<g>
		<path d="M0.8,471.5c1.6,2.5,4.3,3.9,7.1,3.9c1,0,2.1-0.2,3.1-0.6l80.4-31.3c4.3-1.7,6.5-6.6,4.8-10.9s-6.6-6.5-10.9-4.8
			l-39.9,15.5l82.3-77.5h38.7c0.8,10.7,2.2,20.5,3.8,28.9l-58,22.6c-4.3,1.7-6.5,6.6-4.8,10.9c1.3,3.3,4.5,5.4,7.9,5.4
			c1,0,2.1-0.2,3.1-0.6l55.6-21.7c2.1,7.9,3.8,12.8,4.1,13.6c0.8,2.2,2.5,4,4.7,4.9c1,0.4,2.1,0.6,3.2,0.6c1.2,0,2.5-0.3,3.6-0.8
			c37.4-17.7,69-40.4,95-63.9h0.2l14,33.7h-27.1c-4.7,0-8.4,3.8-8.4,8.4s3.8,8.4,8.4,8.4h39.8c0,0,0,0,0,0c0,0,0,0,0,0h48.7
			c4.7,0,8.4-3.8,8.4-8.4s-3.8-8.4-8.4-8.4h-43.1L303,365.9c80.1-2.3,144.6-68.2,144.6-148.9v-55.3c2.7-0.4,5.8-0.9,9.1-1.7
			c8.3-2.1,15.1-5.2,20.4-9.2c1.8,2.9,3.3,5.4,4.2,7.1c1.4,2.7,4.2,4.5,7.3,4.6c0.1,0,0.1,0,0.2,0c3,0,5.8-1.6,7.3-4.2
			c16.8-29.2,19.8-53.1,9.1-71.1c-15.6-26.3-55.5-29.7-69.1-30.2c-9.8-12.3-24.8-20.3-41.7-20.3c-46,0-83.5,37.4-83.5,83.5v35.6
			l-20,20.3c-52,18.9-88.5,49.7-108.2,91.7c-4.6,9.7-8,19.4-10.6,29.2l-53.7,54.7L2.1,460.9C-0.8,463.7-1.4,468.1,0.8,471.5z
			 M447.6,126.5c1.4-0.4,2.9-0.4,4.5,0c5,1.2,10.2,5.5,14.8,10.6c-5.4,4.1-13.1,6.3-19.4,7.4V126.5z M445.3,74.4
			c3.6,0.4,7.7,1,12,1.9c11.5,2.5,26.6,7.9,33.4,19.3c5.9,10,5,23.8-2.6,41.1c-7.3-10.4-18.7-23.4-32-26.6c-2.9-0.7-5.7-0.9-8.5-0.7
			V89.7C447.6,84.4,446.8,79.2,445.3,74.4z M430.7,198.4c-37-11.2-62.1-38.8-62.1-69.9c0-27,19.6-52.4,50.2-65.6
			c7.3,6.6,11.8,16.2,11.8,26.8h0V198.4z M187.9,303.6c0.1-0.4,0.2-0.8,0.3-1.2c2.3-9.3,5.5-18.6,9.8-27.7
			c18.1-38.2,51.8-66.4,100.4-83.6c0.1-0.1,0.3-0.1,0.4-0.2c0,0,0,0,0,0c0.2-0.1,0.5-0.2,0.7-0.3c0,0,0.1,0,0.1-0.1
			c0.2-0.1,0.4-0.2,0.6-0.4c0,0,0.1-0.1,0.1-0.1c0.2-0.1,0.4-0.3,0.5-0.4c0.1,0,0.1-0.1,0.2-0.1c0.1-0.1,0.3-0.3,0.4-0.4
			c0,0,0.1-0.1,0.1-0.1l23.7-24.1c1.5-1.6,2.4-3.7,2.4-5.9v-39c0-36.7,29.9-66.6,66.6-66.6c1.7,0,3.4,0.1,5.1,0.4
			c-11.5,6.6-21.4,14.9-29.1,24.4c-12.2,14.9-18.6,32.3-18.6,50.3c0,40,32.1,75.2,79,87.4v1c0,71.6-57.3,130.1-128.4,132.1
			c18.9-19,34.3-37.9,46.2-54.3c2.7-3.8,1.9-9-1.9-11.8c-3.8-2.7-9-1.9-11.8,1.9c-14.4,19.8-34,43.3-59,66.2
			c-0.2,0.2-0.5,0.4-0.7,0.6c-23.3,21.2-51.3,41.9-84.2,58.6C186.1,391.9,176.9,348.3,187.9,303.6z M144.4,349.1l22.4-22.8
			c-0.8,7.8-1.1,15.4-1.1,22.8H144.4z"/>
	</g>
</g>
<g>
	<g>
		<path d="M388.6,102.8c0,5.4,4.4,9.7,9.7,9.7s9.7-4.4,9.7-9.7c0-5.4-4.4-9.7-9.7-9.7C393,93.1,388.6,97.4,388.6,102.8z"/>
	</g>
</g>
</svg>
