<?xml version="1.0" encoding="utf-8"?>
<!-- Generator: Adobe Illustrator 23.0.0, SVG Export Plug-In . SVG Version: 6.00 Build 0)  -->
<svg version="1.1" id="Layer_1" xmlns="http://www.w3.org/2000/svg" xmlns:xlink="http://www.w3.org/1999/xlink" x="0px" y="0px"
	 viewBox="0 0 512 512" style="enable-background:new 0 0 512 512;" xml:space="preserve">
<g>
	<g>
		<path d="M34.8,363.3c1.6,1.8,3.9,2.8,6.2,2.8h159.8v29c0,4.7,3.8,8.4,8.4,8.4s8.4-3.8,8.4-8.4v-29h26.7v137.5
			c0,4.7,3.8,8.4,8.4,8.4c4.7,0,8.4-3.8,8.4-8.4V366.1h39.5c18.9,0,36.5-8.5,48.3-23.4c10.8-13.7,15.3-30.9,12.5-47.9
			c0.3-0.3,0.6-0.7,0.9-1c18.5-20.6,26.6-40.8,24.8-61.7c-2.9-34.2-31.2-56.6-58.5-78.2c-23-18.2-44.8-35.4-44.8-53.4
			c0-12,12-22.4,22.6-29.4c8.2,14.3,23.6,23.9,41.2,23.9c23.1,0,42.2-16.1,46.5-38h31.5c-2.4,9.1-8.8,17-17.7,21
			c-3,1.4-4.9,4.3-4.9,7.6c0,3.3,1.9,6.2,4.8,7.7c6.5,3.1,13.5,4.7,20.8,4.8c0.1,0,0.2,0,0.3,0c26.9,0,48.9-21.8,49.1-48.8
			c0.1-13.1-4.9-25.5-14.2-34.8C455,5.3,442.7,0.1,429.6,0L359,0.1c-1.8,0-3.5,0.1-5.2,0.3c-2-0.2-3.9-0.4-5.9-0.4
			c-2.3,0-4.5,0.2-6.7,0.5c-2.2,0-4.3,0.3-6.3,0.8c-1,0.3-24.7,6.4-48.5,19.9c-45.9,26-55.5,57.4-55.5,79.3c0,43.8,36,72.3,65,95.2
			c16.7,13.2,37.5,29.7,38.5,40.9c0,0.3,0,0.7,0,1c-24.6-28-62.6-42.2-113.4-42.2c-88.6,0-135.1,43.9-158.6,80.8
			c-25.2,39.7-29.5,78.9-29.6,80.5C32.4,359.2,33.2,361.5,34.8,363.3z M359,53.4c-11.6,0-21.1-8.2-21.1-18.2c0-0.6,0-1.2,0.1-1.8
			c0-0.2,0.1-0.4,0.1-0.6c0.1-0.4,0.1-0.8,0.2-1.1c0-0.2,0.1-0.4,0.2-0.6c0.1-0.3,0.2-0.7,0.3-1c0.1-0.2,0.1-0.4,0.2-0.6
			c0.1-0.3,0.3-0.7,0.4-1c0.1-0.2,0.2-0.4,0.3-0.6c0.2-0.4,0.4-0.7,0.6-1.1c0.1-0.1,0.2-0.3,0.3-0.4c0.3-0.4,0.5-0.8,0.8-1.2
			c0.1-0.1,0.1-0.1,0.2-0.2c1.1-1.4,2.5-2.7,4-3.8c0.1,0,0.1-0.1,0.2-0.1c0.4-0.3,0.9-0.6,1.4-0.9c0.1-0.1,0.3-0.2,0.4-0.2
			c0.4-0.2,0.8-0.4,1.2-0.6c0.2-0.1,0.4-0.2,0.6-0.3c0.3-0.2,0.7-0.3,1.1-0.4c0.3-0.1,0.5-0.2,0.8-0.3c0.3-0.1,0.6-0.2,0.9-0.3
			c0.3-0.1,0.7-0.2,1-0.3c0.3-0.1,0.5-0.1,0.8-0.2c0.4-0.1,0.8-0.2,1.2-0.2c1.3-0.2,2.6-0.3,3.9-0.3c0,0,0,0,0,0l70.5-0.1
			c8.5,0.1,16.6,3.5,22.7,9.6c6,6.1,9.3,14.2,9.3,22.8c-0.1,16.9-13.3,30.7-29.8,31.9c7.6-8.7,12.1-20.1,12.2-32c0-0.2,0-0.4,0-0.7
			c-0.1-4.6-3.8-8.3-8.4-8.3v0H387h-2.5c-2.9,0-5.5,1.4-7.1,3.8C373.6,49.9,366.6,53.4,359,53.4z M317.2,47.6c0-0.6,0-1.2,0.1-1.8
			c0-0.1,0-0.3,0-0.4c0.3-4.6,1.7-8.9,3.8-12.7c0,0.1,0,0.2,0,0.3c-0.1,0.8-0.1,1.5-0.1,2.3c0,19.3,17,35.1,38,35.1
			c0.9,0,1.7,0,2.6-0.1c0.3,0,0.5,0,0.8-0.1c0.6-0.1,1.2-0.1,1.9-0.2c0.3,0,0.5-0.1,0.8-0.1c0.7-0.1,1.4-0.2,2.1-0.4
			c0.1,0,0.2,0,0.4-0.1c0.8-0.2,1.6-0.4,2.4-0.6c0.1,0,0.1,0,0.2-0.1c-5.6,5.8-13.5,9.5-22.2,9.5c-13.9,0-25.7-9.3-29.4-22
			c-0.1-0.5-0.3-1-0.4-1.5c-0.1-0.2-0.1-0.4-0.1-0.6c-0.1-0.6-0.3-1.3-0.4-1.9c0-0.1,0-0.2,0-0.3c-0.1-0.6-0.1-1.2-0.2-1.8
			c0-0.2,0-0.4,0-0.5C317.3,48.9,317.2,48.3,317.2,47.6z M92.4,349.2H51c2.7-13.3,9.6-39.1,25.9-64.5c30.8-48.1,79.3-72.4,144-72.4
			c51.6,0,88.2,15.7,108.6,46.7c1.6,2.4,4.2,3.8,7,3.8c0,0,0,0,0,0c2.8,0,5.5-1.4,7-3.8c5.6-8.5,8.1-16.5,7.5-23.8
			c-1.6-18.5-22.6-35.1-44.8-52.7c-28.8-22.8-58.6-46.3-58.6-82c0-31.4,25.5-52.5,47-64.6c2.9-1.6,5.7-3.1,8.5-4.5
			c-1,2.9-1.8,5.8-2.2,8.9c0,0,0,0,0,0c-0.1,0.7-0.2,1.4-0.3,2.1c0,0.1,0,0.3,0,0.4c-0.1,0.6-0.1,1.2-0.1,1.9c0,0.2,0,0.3,0,0.5
			c0,0.8-0.1,1.5-0.1,2.3c0,0.7,0,1.5,0.1,2.2c0,0.2,0,0.4,0,0.7c0,0.5,0.1,1.1,0.1,1.6c0,0.2,0,0.5,0.1,0.7
			c0.1,0.6,0.2,1.3,0.2,1.9c0,0.1,0,0.2,0,0.2c0,0,0,0,0,0.1c-22.1,13.4-33.7,29-33.7,45.6c0,26.2,24.9,45.8,51.2,66.6
			c24.5,19.4,49.8,39.4,52.1,66.4c1.4,16-5.4,32-20.6,49c-0.6,0.7-1.3,1.3-2.1,1.8c-3.1,1.9-4.6,5.6-3.7,9.1l0.2,1
			c3.1,13.3,0.1,27.1-8.4,37.8c-8.5,10.8-21.3,17-35.1,17H109.4c1.8-18.1,8.7-34.4,20.6-48.6c3-3.6,2.5-8.9-1-11.9
			c-3.6-3-8.9-2.5-11.9,1C102.5,307.1,94.3,327,92.4,349.2L92.4,349.2L92.4,349.2z"/>
	</g>
</g>
<g>
	<g>
		<path d="M136.2,281.9c1.7,2.2,4.2,3.3,6.7,3.3c1.8,0,3.6-0.6,5.1-1.7c19.4-14.7,39-20.6,39.2-20.7c4.5-1.3,7-6,5.7-10.5
			c-1.3-4.5-6-7-10.4-5.7c-0.9,0.3-22.6,6.8-44.6,23.4C134.1,273,133.4,278.2,136.2,281.9z"/>
	</g>
</g>
<g>
	<g>
		<path d="M200.9,417.7v85.9c0,4.7,3.8,8.4,8.4,8.4s8.4-3.8,8.4-8.4v-85.9c0-4.7-3.8-8.4-8.4-8.4S200.9,413.1,200.9,417.7z"/>
	</g>
</g>
<g>
	<g>
		<path d="M350.8,33.9c0,5.5,4.5,10,10,10c5.5,0,10-4.5,10-10s-4.5-10-10-10C355.3,23.9,350.8,28.3,350.8,33.9z"/>
	</g>
</g>
</svg>
