<?xml version="1.0" encoding="utf-8"?>
<!-- Generator: Adobe Illustrator 23.0.0, SVG Export Plug-In . SVG Version: 6.00 Build 0)  -->
<svg version="1.1" id="Layer_1" xmlns="http://www.w3.org/2000/svg" xmlns:xlink="http://www.w3.org/1999/xlink" x="0px" y="0px"
	 viewBox="0 0 512 512" style="enable-background:new 0 0 512 512;" xml:space="preserve">
<g>
	<g>
		<path d="M150.8,333.1c18.1,1.4,38.1,1,59.8-1.2l2.8,53.2c0.2,4.5,3.9,8,8.4,8h45.9c2.6,0,5.1-1.2,6.7-3.3c1.6-2.1,2.2-4.8,1.5-7.3
			c-2.2-8.5-7.2-16.1-10.2-20.2l6-40.5c0.6-0.1,1.1-0.2,1.7-0.4l10.2,64.4c0.7,4.1,4.2,7.1,8.3,7.1h45.5c2.5,0,4.8-1.1,6.4-3
			s2.3-4.4,1.9-6.8c-0.2-1.3-2.3-12.2-13.2-23.7l0.9-35.5c11.2-6.4,43.5-24.5,66.1-31.7c12.3,17.9,25.7,27.8,40.1,29.6
			c6.1,0.8,12,1.1,17.5,1.1c20.9,0,37.4-5.3,46.5-15.1c6.8-7.4,9.3-17,7-27.9c-2.7-12.9-6.5-18-11-23.8c-2.5-3.2-5.2-6.9-8.5-13
			c-2.1-3.9-4.1-11.4-6.2-19.4c-6.2-23.5-14.7-55.3-41.9-61.3c-2.9-7.8-8.1-14.8-17.2-15.7c-5.2-0.6-9.9,0.9-13.5,4.2
			c-17-5.1-67.2-19.9-91-23.6c-3.3-0.5-8.8-1.1-15.7-1.8c-4.6-0.4-8.8,2.9-9.2,7.6c-0.5,4.6,2.9,8.8,7.6,9.2
			c6.5,0.6,11.8,1.2,14.8,1.7c21.5,3.3,68.1,16.9,86.5,22.4c-1,8,0.3,16.6,2.4,21.9c1.3,3.3,4.5,5.4,7.9,5.4c1,0,2.1-0.2,3.1-0.6
			c4.3-1.7,6.5-6.6,4.8-10.9c-0.9-2.3-1.8-6.9-1.5-11.6c0.2-4.7,1.4-6.7,1.8-7.2c0.1,0,0.2,0,0.4,0c2.2,0.2,5.8,10.3,5.9,21.8
			c0,4.6,3.8,8.4,8.4,8.4c0,0,0,0,0,0c4.7,0,8.4-3.8,8.4-8.4c0-0.7,0-1.8-0.1-3.1c12,8.4,17.5,28.8,22,45.9
			c2.5,9.3,4.6,17.4,7.7,23.1c3.9,7.2,7.2,11.6,9.9,15.2c3.9,5.1,6,7.9,7.9,17c1.1,5.5,0.2,9.6-2.9,13c-7.5,8.1-26.9,11.5-49.5,8.7
			c-12.5-1.5-23.4-14.4-31.3-27.1c0,0,0,0,0,0c-1.4-2.2-2.6-4.4-3.8-6.5c-9.2-16.6-14.3-32.9-14.3-33c-1.4-4.4-6.1-6.9-10.6-5.6
			c-4.5,1.4-6.9,6.1-5.6,10.6c0.2,0.7,5.2,16.7,14.5,34c-29.3,10.3-68,33.3-69.8,34.4c-2.5,1.5-4,4.1-4.1,7l-1.2,43.9
			c-0.1,2.4,0.9,4.8,2.7,6.4c2.6,2.4,4.6,4.8,6.1,6.9h-25.2L288.6,310c-0.4-2.3-1.7-4.4-3.6-5.7c-1.9-1.3-4.4-1.7-6.6-1.2
			c-49,11.5-91.4,15.9-126.2,13.2c-4.7-0.4-8.7,3.1-9.1,7.7C142.7,328.6,146.2,332.7,150.8,333.1z M227.4,329.9
			c8.7-1.2,17.5-2.7,26.7-4.4l-5.7,38c-0.4,2.4,0.4,4.9,2,6.8c0,0,2.1,2.4,4.3,5.9h-24.9L227.4,329.9z"/>
	</g>
</g>
<g>
	<g>
		<path d="M1.4,279.7c5.7,61,2.4,103.8,2.3,104.2c-0.2,2.3,0.6,4.7,2.2,6.4c1.6,1.7,3.8,2.7,6.2,2.7h41.4c4.4,0,8.1-3.4,8.4-7.8
			c0.1-1.8,1-16.5-7.4-28.5l1-17.7l22.8,49.1c1.4,3,4.4,4.9,7.6,4.9h41.1c2.5,0,4.8-1.1,6.4-2.9c1.6-1.9,2.3-4.3,2-6.7
			c-2.1-14.5-15.9-24.9-23.3-29.6v-27.5c4,1.1,8.2,2.2,12.8,3.1c4.6,0.9,9-2,10-6.6c0.9-4.6-2-9-6.6-10
			c-36.9-7.6-48.9-23.2-49.6-24.2c-1.5-2.5-4.2-3.9-7.1-3.9c0,0-0.1,0-0.1,0c-3,0-5.7,1.8-7.2,4.4c-8.8,15.7-22.9,32.3-23,32.5
			c-1.2,1.4-1.9,3.2-2,5L37.5,359c-0.1,2.2,0.6,4.3,2.1,6c2.8,3.3,4.2,7.5,4.9,11.2H21.1c0.7-15.9,1.5-51.5-2.9-98.1
			c-6.6-70.4,4.5-109.1,36.9-129.4c24.5-15.4,129.3-15.3,222.2-8.5c4.6,0.3,8.7-3.1,9-7.8c0.3-4.6-3.1-8.7-7.8-9
			c-45.1-3.3-195-12.3-232.4,11c-21,13.1-34.5,32.7-41.4,59.7C-0.9,216.5-2,243.7,1.4,279.7z M64.7,319c2.7-3.6,5.5-7.7,8.3-12
			c4.8,4,12,8.9,22.1,13.3v38.4c0,3.2,1.8,6.1,4.6,7.5c2.8,1.4,8.8,5.2,13.4,10H91.3L64.7,319z"/>
	</g>
</g>
<g>
	<g>
		<path d="M439.9,229.9c0,5.3,4.4,9.7,9.7,9.7c5.4,0,9.7-4.3,9.7-9.7c0-5.3-4.4-9.7-9.7-9.7C444.3,220.2,439.9,224.5,439.9,229.9z"
			/>
	</g>
</g>
</svg>
