<?xml version="1.0" encoding="utf-8"?>
<!-- Generator: Adobe Illustrator 23.0.0, SVG Export Plug-In . SVG Version: 6.00 Build 0)  -->
<svg version="1.1" id="Lag_1" xmlns="http://www.w3.org/2000/svg" xmlns:xlink="http://www.w3.org/1999/xlink" x="0px" y="0px"
	 viewBox="0 0 770 424" style="enable-background:new 0 0 770 424;" xml:space="preserve">
<style type="text/css">
	.st0{clip-path:url(#SVGID_2_);fill:#D61019;}
	.st1{clip-path:url(#SVGID_2_);fill:#FFFFFF;}
</style>
<g>
	<defs>
		<rect id="SVGID_1_" x="0.14" y="0.59" width="769.72" height="416.41"/>
	</defs>
	<clipPath id="SVGID_2_">
		<use xlink:href="#SVGID_1_"  style="overflow:visible;"/>
	</clipPath>
	<path class="st0" d="M69.22,298.05c-41.35,0-56.03-25.86-56.03-47.98c0-18.89,9.08-31.29,28.16-50.38l87.44-88.35H74.92
		c-40.46,0-54.87-22.82-54.87-44.17c0-21.36,14.41-44.18,54.87-44.18h165.02c32.18,0,52.97,18.84,52.97,47.97
		c0,15.46-5.76,27.03-21.25,42.72l-95.1,96.04h67.56c47.8,0,52.97,30.88,52.97,44.17c0,13.28-5.17,44.17-52.97,44.17H69.22z"/>
	<path class="st1" d="M239.93,36.04c27.76,0,39.91,15.56,39.91,34.91c0,11.42-4.17,20.07-17.47,33.55L145.26,222.77h98.86
		c26.23,0,39.91,10.71,39.91,31.11c0,20.4-13.68,31.11-39.91,31.11H69.21c-29.65,0-42.96-15.56-42.96-34.93
		c0-13.12,5.33-22.12,24.34-41.14l109.5-110.64H74.92c-28.52,0-41.83-12.45-41.83-31.12c0-18.68,13.31-31.12,41.83-31.12H239.93
		 M239.93,9.93h-165c-50.15,0-67.94,30.83-67.94,57.24c0,26.4,17.79,57.23,67.94,57.23h22.58l-65.48,66.16
		c-21.11,21.13-31.88,36.19-31.88,59.52c0,30.38,21.36,61.04,69.07,61.04h174.91c48.68,0,66.02-29.56,66.02-57.23
		c0-27.67-17.35-57.24-66.02-57.24h-36.25l73.05-73.77c13.02-13.19,25.04-28.59,25.04-51.92C305.96,40.58,285.55,9.93,239.93,9.93"
		/>
	<path class="st0" d="M256.79,158.45c0,79.85,64.96,144.82,144.81,144.82c79.84,0,144.8-64.96,144.8-144.82
		c0-79.85-64.95-144.82-144.8-144.82C321.75,13.64,256.79,78.6,256.79,158.45"/>
	<path class="st1" d="M401.6,0.59c-87.05,0-157.87,70.81-157.87,157.86c0,87.06,70.82,157.87,157.87,157.87
		c87.04,0,157.86-70.81,157.86-157.87C559.46,71.4,488.64,0.59,401.6,0.59 M269.84,158.45c0-72.76,58.98-131.75,131.76-131.75
		c72.77,0,131.75,58.98,131.75,131.75c0,72.79-58.98,131.77-131.75,131.77C328.83,290.22,269.84,231.24,269.84,158.45"/>
	<path class="st0" d="M467.21,158.45c0,79.85,64.96,144.82,144.81,144.82c79.85,0,144.8-64.96,144.8-144.82
		c0-79.85-64.95-144.82-144.8-144.82C532.18,13.64,467.21,78.6,467.21,158.45"/>
	<path class="st1" d="M612.02,0.59c-87.05,0-157.87,70.81-157.87,157.86c0,87.06,70.82,157.87,157.87,157.87
		c87.04,0,157.84-70.81,157.84-157.87C769.86,71.4,699.06,0.59,612.02,0.59 M480.26,158.45c0-72.76,58.97-131.75,131.76-131.75
		c72.77,0,131.73,58.98,131.73,131.75c0,72.79-58.96,131.77-131.73,131.77C539.24,290.22,480.26,231.24,480.26,158.45"/>
	<path class="st0" d="M244.68,222.55c26.23,0,39.91,10.71,39.91,31.12c0,20.4-13.68,31.11-39.91,31.11H69.78
		c-29.66,0-42.96-15.55-42.96-34.91c0-13.14,5.32-22.12,24.33-41.16l109.5-110.64H75.48c-28.52,0-41.83-12.45-41.83-31.11
		c0-18.68,13.31-31.12,41.83-31.12h165c27.76,0,39.93,15.55,39.93,34.92c0,11.42-4.19,20.05-17.49,33.54L145.82,222.55H244.68z"/>
	<path class="st0" d="M536.37,161.06c0,72.78-58.96,131.77-131.74,131.77c-72.77,0-131.75-58.99-131.75-131.77
		c0-72.76,58.98-131.76,131.75-131.76C477.41,29.3,536.37,88.3,536.37,161.06"/>
	<path class="st0" d="M745.74,161.06c0,72.78-58.96,131.77-131.75,131.77c-72.77,0-131.75-58.99-131.75-131.77
		c0-72.76,58.98-131.76,131.75-131.76C686.77,29.3,745.74,88.3,745.74,161.06"/>
	<path class="st1" d="M375.36,181.69c0,2.51-1.93,4.6-4.68,4.6c-3.94,0-5.02-2.44-5.86-7.78c-3.94,4.94-9.38,8.11-17.91,8.11
		c-21.25,0-29.38-14.63-29.38-31.54c0-20.34,12.72-31.55,31.38-31.55c15.23,0,23.35,9.13,23.35,14.48c0,4.77-3.51,6.03-6.45,6.03
		c-6.78,0-4.27-9.47-17.65-9.47c-9.46,0-16.91,6.19-16.91,21.43c0,11.87,5.86,20.07,17.07,20.07c7.28,0,13.64-4.94,14.31-12.3h-8.96
		c-2.93,0-6.19-1.09-6.19-5.27c0-3.34,1.92-5.27,5.35-5.27h16.9c4.01,0,5.61,2.01,5.61,5.78V181.69z"/>
	<path class="st1" d="M387.66,130.73c0-4.09,2.68-6.86,6.86-6.86c4.18,0,6.87,2.76,6.87,6.86v48.7c0,4.09-2.68,6.86-6.87,6.86
		c-4.18,0-6.86-2.77-6.86-6.86V130.73z"/>
	<path class="st1" d="M442.96,181.52c-1.42,3.94-4.1,4.77-8.36,4.77c-4.27,0-6.96-0.84-8.38-4.77L409.33,134
		c-0.59-1.6-0.83-2.94-0.83-4.02c0-4.6,3.51-6.1,6.95-6.1c3.68,0,5.69,1.92,6.95,6.01l12.38,41.01h0.16l12.89-41.01
		c1.25-4.09,3.26-6.01,6.44-6.01c3.44,0,6.95,1.5,6.95,6.1c0,1.09-0.26,2.43-0.84,4.02L442.96,181.52z"/>
	<path class="st1" d="M499.86,150.31c12.54,2.85,15.73,10.3,15.73,17.32c0,10.88-8.21,19-24.77,19c-17.4,0-25.2-8.71-25.2-15.23
		c0-3.36,2.45-5.69,5.78-5.69c7.45,0,5.52,10.89,19.42,10.89c7.11,0,11.03-3.95,11.03-7.97c0-2.41-1.15-5.08-5.85-6.26l-15.48-3.94
		c-12.45-3.19-14.72-10.05-14.72-16.48c0-13.4,12.38-18.41,24.01-18.41c10.7,0,23.34,6.02,23.34,14.05c0,3.44-2.93,5.44-6.27,5.44
		c-6.36,0-5.18-8.94-17.99-8.94c-6.36,0-9.88,2.92-9.88,7.1c0,4.19,5.03,5.52,9.38,6.53L499.86,150.31z"/>
	<path class="st1" d="M525.63,130.73c0-4.09,2.68-6.86,6.86-6.86c4.18,0,6.86,2.76,6.86,6.86v19.92l21.59-23.76
		c1.58-1.68,3-3.01,5.44-3.01c3.27,0,6.54,2,6.54,5.51c0,2.09-1.09,3.52-2.26,4.7l-14.06,14.8l16.65,25.35
		c1.25,1.94,2.59,3.69,2.59,5.44c0,5.11-3.77,6.62-7.02,6.62c-2.76,0-4.27-0.67-6.11-3.6l-15.82-24.44l-7.53,7.53v13.65
		c0,4.09-2.68,6.86-6.86,6.86c-4.17,0-6.86-2.77-6.86-6.86V130.73z"/>
	<path class="st1" d="M582.94,130.73c0-4.09,2.68-6.86,6.86-6.86c4.18,0,6.86,2.76,6.86,6.86v32.96c0,8.2,4.6,11.89,12.47,11.89
		c7.86,0,12.46-3.69,12.46-11.89v-32.96c0-4.09,2.68-6.86,6.86-6.86c4.19,0,6.87,2.76,6.87,6.86v31.88
		c0,16.56-10.21,24.01-26.19,24.01c-15.98,0-26.19-7.46-26.19-24.01V130.73z"/>
	<path class="st1" d="M648.04,133.01c0-6.13,3.17-8.03,8.03-8.03h16.73c14.97,0,28.68,6.51,28.68,30.11
		c0,19.07-10.61,30.12-28.94,30.12h-16.47c-4.86,0-8.03-1.93-8.03-8.03V133.01z M661.75,174.16h11.55
		c10.96,0,14.47-9.79,14.47-19.07c0-11.89-4.52-19.08-14.56-19.08h-11.46V174.16z"/>
	<path class="st1" d="M724.18,386.87h-20.44l10.33-30.76h0.21L724.18,386.87z M681.18,402.2c-0.64,1.71-1.71,4.79-1.71,6.71
		c0,4.68,3.31,7.66,8.1,7.66c4.15,0,6.59-1.38,7.77-4.79l4.57-12.78h28.11l4.47,12.78c1.28,3.41,4.04,4.79,7.88,4.79
		c4.47,0,8.19-3.41,8.19-7.66c0-1.92-1.07-5-1.71-6.71l-21.07-58.66c-1.92-5.43-5.43-6.39-9.37-6.39h-4.15
		c-4.26,0-7.03,1.39-8.52,5.32L681.18,402.2z M631.68,407.84c0,5.22,3.4,8.73,8.73,8.73c5.32,0,8.72-3.51,8.72-8.73v-61.96
		c0-5.21-3.4-8.73-8.72-8.73c-5.33,0-8.73,3.51-8.73,8.73V407.84z M552.9,351.96h14.48c8.62,0,14.05,3.19,14.05,10.85
		c0,6.6-5.22,10.86-12.24,10.86H552.9V351.96z M535.44,407.84c0,5.22,3.4,8.73,8.72,8.73c5.33,0,8.73-3.51,8.73-8.73v-20.76h19.38
		c16.93,0,26.61-10.33,26.61-24.27c0-17.03-11.82-24.27-26.51-24.27h-26.72c-6.17,0-10.21,2.46-10.21,10.22V407.84z M441.33,375.9
		c0-14.69,7.03-25.12,21.3-25.12c14.26,0,21.29,10.43,21.29,25.12c0,14.69-5.43,27.04-21.29,27.04
		C446.23,402.95,441.33,390.6,441.33,375.9 M423.88,375.9c0,23.21,11.28,41.09,38.75,41.09c26.19,0,38.75-19.48,38.75-41.09
		c0-22.46-13.63-39.17-38.75-39.17C437.51,336.73,423.88,353.44,423.88,375.9 M355.52,407.84c0,5.22,3.41,8.73,8.73,8.73
		c5.33,0,8.73-3.51,8.73-8.73v-54.61h16.5c5,0,9.05-2.55,9.05-7.35c0-4.79-4.04-7.34-9.05-7.34h-50.46c-5,0-9.05,2.55-9.05,7.34
		c0,4.8,4.05,7.35,9.05,7.35h16.5V407.84z M245.32,375.9c0-14.69,7.03-25.12,21.29-25.12c14.27,0,21.29,10.43,21.29,25.12
		c0,14.69-5.43,27.04-21.29,27.04C250.22,402.95,245.32,390.6,245.32,375.9 M227.87,375.9c0,23.21,11.29,41.09,38.75,41.09
		c26.19,0,38.75-19.48,38.75-41.09c0-22.46-13.62-39.17-38.75-39.17C241.5,336.73,227.87,353.44,227.87,375.9 M137.17,375.9
		c0-14.69,7.02-25.12,21.29-25.12c14.26,0,21.29,10.43,21.29,25.12c0,14.69-5.44,27.04-21.29,27.04
		C142.07,402.95,137.17,390.6,137.17,375.9 M119.71,375.9c0,23.21,11.29,41.09,38.76,41.09c26.18,0,38.75-19.48,38.75-41.09
		c0-22.46-13.63-39.17-38.75-39.17C133.34,336.73,119.71,353.44,119.71,375.9 M26.88,399.86c-1.6,1.92-2.88,3.94-2.88,6.7
		c0,6.5,3.73,8.63,10.11,8.63H81.5c5,0,9.05-2.55,9.05-7.35c0-4.79-4.05-7.35-9.05-7.35H47.43l40.13-47.69
		c1.6-1.81,2.45-4.15,2.45-6.28c0-6.06-3.62-7.98-8.09-7.98H35.93c-5,0-9.05,2.55-9.05,7.34c0,4.8,4.05,7.35,9.05,7.35h30.44
		L26.88,399.86z"/>
</g>
</svg>
