<svg xmlns="http://www.w3.org/2000/svg" viewBox="0 0 556 556"><defs><style>.cls-1{fill:#fff;}.cls-2{fill:#cd3632;}</style></defs><title>Asset 1</title><g id="Layer_2" data-name="Layer 2"><g id="Layer_1-2" data-name="Layer 1"><circle class="cls-1" cx="278" cy="278" r="187"/><path class="cls-2" d="M278,541A263,263,0,0,1,92,92,263,263,0,0,1,464,464,261.29,261.29,0,0,1,278,541ZM386.26,165a4.94,4.94,0,0,0-2.08.5l-144.33,66a16.88,16.88,0,0,0-8.37,8.37l-66,144.35a4.38,4.38,0,0,0,.24,4.45,4.57,4.57,0,0,0,6.08,1.87l144.34-66a16.88,16.88,0,0,0,8.37-8.37l66-144.35a4.38,4.38,0,0,0-.24-4.45A5,5,0,0,0,386.26,165ZM278,325a47,47,0,1,1,33.24-13.77A46.68,46.68,0,0,1,278,325Z"/><path class="cls-1" d="M278,30c137,0,248,111,248,248S415,526,278,526,30,415,30,278,141,30,278,30M169.74,406a19.92,19.92,0,0,0,8.32-1.86l144.34-66a31.94,31.94,0,0,0,15.77-15.77l66-144.35c6.33-13.85-4.48-28.05-17.88-28.05a19.89,19.89,0,0,0-8.31,1.85l-144.34,66a31.94,31.94,0,0,0-15.77,15.77l-66,144.35c-6.33,13.85,4.48,28.06,17.88,28.06M278,246a32,32,0,1,1-22.62,9.37A31.9,31.9,0,0,1,278,246M278,0A277.93,277.93,0,0,0,81.42,474.58,278,278,0,1,0,386.22,21.86,276.17,276.17,0,0,0,278,0Zm22.55,220.21,64.89-29.66-29.65,64.88a62.46,62.46,0,0,0-35.24-35.22Zm-110,145.23,29.66-64.89a62.46,62.46,0,0,0,35.23,35.23l-64.89,29.66Z"/></g></g></svg>