<?xml version="1.0" encoding="utf-8"?>
<!-- Generator: Adobe Illustrator 23.0.0, SVG Export Plug-In . SVG Version: 6.00 Build 0)  -->
<svg version="1.1" id="Layer_1" xmlns="http://www.w3.org/2000/svg" xmlns:xlink="http://www.w3.org/1999/xlink" x="0px" y="0px"
	 viewBox="0 0 721.9 642.1" style="enable-background:new 0 0 721.9 642.1;" xml:space="preserve">
<style type="text/css">
	.st0{fill:#CD3632;}
	.st1{fill:#FFFFFF;}
</style>
<title>Asset 5</title>
<g>
	<g id="Layer_1-2">
		<path class="st0" d="M152.1,289.6l294.5-161.8c11.6-6.4,26.2-2.1,32.6,9.5l100.1,182.3c6.4,11.6,2.1,26.2-9.5,32.6L275.4,514
			c-11.6,6.4-26.2,2.1-32.6-9.5L142.6,322.2C136.2,310.6,140.5,296,152.1,289.6z"/>
		<path class="st0" d="M250.3,617.9c-30.5,16.7-68.8,5.6-85.6-24.9l-53.4-97.3l13.1-7.2c16-8.8,21.8-28.8,13-44.8
			c-8.8-16-28.8-21.8-44.8-13l-13.1,7.2l-53.4-97.3C9.4,310.1,20.5,271.8,51,255L471.7,23.9c30.5-16.7,68.8-5.6,85.6,24.9l53.4,97.3
			l-13.1,7.2c-16,8.8-21.8,28.8-13,44.8c8.8,16,28.8,21.8,44.8,13l13.1-7.2l53.4,97.3c16.7,30.5,5.6,68.8-24.9,85.6L250.3,617.9z
			 M159.3,302.7c-4.4,2.4-5.9,7.9-3.6,12.2l100.1,182.3c2.4,4.4,7.9,5.9,12.2,3.6L562.6,339c4.4-2.4,5.9-7.9,3.6-12.2L466,144.5
			c-2.4-4.4-7.9-5.9-12.2-3.6L159.3,302.7z"/>
		<path class="st1" d="M478.9,37.1c23.2-12.8,52.4-4.3,65.2,19l46.2,84.1c-23.2,12.8-31.7,41.9-19,65.2c12.8,23.2,41.9,31.7,65.2,19
			l46.2,84.1c12.8,23.2,4.3,52.4-19,65.2L243.1,604.7c-23.2,12.8-52.4,4.3-65.2-19l-46.2-84.1c23.2-12.8,31.7-41.9,19-65.2
			c-12.8-23.2-41.9-31.7-65.2-19l-46.2-84.1c-12.8-23.2-4.3-52.4,19-65.2L478.9,37.1 M275.4,514l294.5-161.8
			c11.6-6.4,15.9-21,9.5-32.6L479.2,137.3c-6.4-11.6-21-15.9-32.6-9.5L152.1,289.6c-11.6,6.4-15.9,21-9.5,32.6l100.1,182.3
			C249.1,516.1,263.7,520.4,275.4,514 M464.4,10.8L43.7,241.9C6,262.7-7.8,310,12.9,347.8l60.7,110.4l26.3-14.4
			c8.7-4.8,19.7-1.6,24.4,7.1c4.8,8.7,1.6,19.7-7.1,24.4l-26.3,14.4l60.7,110.4c20.8,37.7,68.2,51.5,105.9,30.8l420.7-231.1
			c37.7-20.8,51.5-68.2,30.8-105.9l-60.7-110.4L622.1,198c-8.7,4.8-19.7,1.6-24.4-7.1c-4.8-8.7-1.6-19.7,7.1-24.4L631,152
			L570.3,41.6C549.6,3.9,502.2-9.9,464.4,10.8z M171.8,313l284-156l94.4,171.8l-284,156L171.8,313z"/>
	</g>
</g>
</svg>
