<svg xmlns="http://www.w3.org/2000/svg" viewBox="0 0 508 572"><defs><style>.cls-1{fill:#fff;}.cls-2{fill:#cd3632;}</style></defs><title>Asset 2</title><g id="Layer_2" data-name="Layer 2"><g id="Layer_1-2" data-name="Layer 1"><rect class="cls-1" y="155" width="508" height="148"/><path class="cls-2" d="M78,557a63.07,63.07,0,0,1-63-63V234a27,27,0,0,1,27-27H466a27,27,0,0,1,27,27V494a63.07,63.07,0,0,1-63,63ZM42,205a27,27,0,0,1-27-27V142A63.07,63.07,0,0,1,78,79h33V42a27,27,0,0,1,27-27h40a27,27,0,0,1,27,27V79h98V42a27,27,0,0,1,27-27h40a27,27,0,0,1,27,27V79h33a63.07,63.07,0,0,1,63,63v36a27,27,0,0,1-27,27Z"/><path class="cls-1" d="M370,30a12,12,0,0,1,12,12V94h48a48,48,0,0,1,48,48v36a12,12,0,0,1-12,12H42a12,12,0,0,1-12-12V142A48,48,0,0,1,78,94h48V42a12,12,0,0,1,12-12h40a12,12,0,0,1,12,12V94H318V42a12,12,0,0,1,12-12h40m96,192a12,12,0,0,1,12,12V494a48,48,0,0,1-48,48H78a48,48,0,0,1-48-48V234a12,12,0,0,1,12-12H466M370,0H330a42,42,0,0,0-42,42V64H220V42A42,42,0,0,0,178,0H138A42,42,0,0,0,96,42V64H78A78.09,78.09,0,0,0,0,142v36a41.85,41.85,0,0,0,10.72,28A41.85,41.85,0,0,0,0,234V494a78.09,78.09,0,0,0,78,78H430a78.09,78.09,0,0,0,78-78V234a41.85,41.85,0,0,0-10.72-28A41.85,41.85,0,0,0,508,178V142a78.09,78.09,0,0,0-78-78H412V42A42,42,0,0,0,370,0Z"/></g></g></svg>