<?xml version="1.0" encoding="utf-8"?>
<!-- Generator: Adobe Illustrator 23.0.0, SVG Export Plug-In . SVG Version: 6.00 Build 0)  -->
<svg version="1.1" id="Layer_1" xmlns="http://www.w3.org/2000/svg" xmlns:xlink="http://www.w3.org/1999/xlink" x="0px" y="0px"
	 viewBox="0 0 512 512" style="enable-background:new 0 0 512 512;" xml:space="preserve">
<g>
	<g>
		<path d="M164.4,273.6c0.9,0.3,1.7,0.4,2.6,0.4c3.6,0,6.9-2.3,8-5.8c2.9-8.9,4-17.1,3.4-24.6c-0.4-4.6-4.4-8.1-9.1-7.7
			c-4.6,0.4-8.1,4.4-7.7,9.1c0.4,5.2-0.4,11.3-2.6,18C157.6,267.4,160,272.2,164.4,273.6z"/>
	</g>
</g>
<g>
	<g>
		<path d="M271.2,198.1c0.5,0.1,1,0.1,1.5,0.1c4,0,7.5-2.9,8.3-6.9c5.7-31.9,43.8-43,44.1-43.1c4.5-1.3,7.1-5.9,5.8-10.4
			c-1.3-4.5-5.9-7.1-10.4-5.8c-0.5,0.1-12.3,3.5-24.9,11.9c-17.3,11.4-28.1,26.8-31.2,44.4C263.6,192.9,266.7,197.3,271.2,198.1z"/>
	</g>
</g>
<g>
	<g>
		<path d="M-0.5,311.2c0,4.6,3.8,8.3,8.4,8.3c0,0,0.1,0,0.1,0c4.6,0,8.4-3.8,8.3-8.5c-0.4-40.4,3.4-68.3,8-87.3
			c2,16.4,7.1,33.6,15.4,51.4c38.8,83.5,23.4,147.1,23.2,147.8c-0.6,2.5-0.1,5.2,1.5,7.2c1.6,2,4,3.2,6.6,3.2h74.2
			c2.8,0,5.4-1.4,7-3.7c1.6-2.3,1.9-5.3,0.8-7.9c-0.3-0.7-6.8-16.3-19.1-28.7v-60.3c2.5-2.7,6.6-7.4,11.4-13.4
			c7.4,2.2,21.2,5.3,39.8,5.3c14.4,0,31.7-1.9,51.3-7.4c3.4,9.9,7.1,19.5,10.8,27.6V425c0,4.6,3.8,8.4,8.4,8.4h67.2
			c3.6,0,6.9-2.3,8-5.8c0.6-1.9,5.1-18.4-19.3-37l13.3-117c4.9,1.5,9.5,2.2,13.8,2.2c5.1,0,9.7-1.1,13.5-3.2
			c3.6-2,8.1-5.8,12.6-15.3l9.7,1.1c11.9,18.3,42.2,27.7,54.8,31c7.1,28.5,15.2,74.6,0.2,97.4c-4.7,7.1-9.6,8.5-10.4,8.8
			c-0.4,0-0.5-0.1-0.5-0.2c-1.1-1.1-1.7-4.8-1.6-6.7c0.2-3.8-2.2-7.3-5.9-8.5l-16.8-5.3c-3.8-1.2-7.9,0.5-9.9,4
			c-7.8,14.2-3.5,35.1,9.5,46.6c4.1,3.6,12.4,9.1,24.9,9.1c10.3,0,23.5-3.8,39.6-15.5c30.8-22.5,35.6-70.7,31.8-117.4
			c0.6,0,1.1,0,1.7,0c3.9,0,8-0.2,12-0.6c3.7-0.4,6.7-3.1,7.4-6.7c0.7-3.6-1-7.3-4.2-9.1c-0.2-0.1-8.7-4.7-20.1-11.2
			c-4-27.8-10-52.9-13.8-69c-0.4-1.8-0.8-3.4-1.2-4.9c-6.1-25.9-14.2-36.6-20.8-40.8c-1.4-16-9.6-40.3-34.6-47.4
			c-25.8-7.3-57.8-2.9-69.1-0.9c-8.7-7-33.4-24.2-72.9-27.7c-4.5-0.4-9.5-0.9-14.7-1.4c-49.4-4.9-124.1-12.3-166.7,15.1
			c-34.2,22-56,48.3-65,78.1C20.5,183.4-1.4,214.9-0.5,311.2z M441.5,398.9c10.7-14,20-43.2,6.4-103.7c6.8,1.9,15.5,4,25.2,5.2
			c0.4,4,0.6,7.9,0.9,11.9c2.6,47.6-6,78.9-25.5,93.2c-18,13.1-33.8,15.8-43.4,7.4c-5.8-5.1-8.2-12.9-7.7-19.3l3.2,1
			c0.7,3.9,2.2,8.7,5.7,12.4c3.4,3.5,7.9,5.4,13,5.4C423.7,412.4,433.3,409.6,441.5,398.9z M434.4,261.7c9.5,6.5,22,14.2,33.5,20.9
			c-16.5-3-28.3-7.9-28.5-8c-0.1-0.1-0.3-0.1-0.4-0.2c0,0,0,0,0,0c0,0,0,0,0,0c-5.3-1.9-7.5-4.1-7.7-5.4
			C430.9,267.2,432.4,264.4,434.4,261.7z M102.3,111.4c37.7-24.2,108.9-17.2,156-12.5c5.3,0.5,10.2,1,14.8,1.4
			c42.6,3.9,65.9,25.8,66.1,26c2,1.9,4.9,2.8,7.6,2.2c0.4-0.1,37.9-7.9,65.2-0.1c9.4,2.7,16,9.4,19.7,19.9c3,8.7,2.9,16.9,2.9,17
			c0,2.4,0.9,4.7,2.7,6.3c1.3,1.3,3.1,2,4.9,2.2c1.2,0.7,7.7,5.7,13.5,30.3c0.4,1.5,0.7,3.1,1.2,4.9c3.1,12.9,7.7,32.2,11.4,54.2
			c-11.3-6.8-22.6-13.9-29.8-19.4c-3.1-2.4-7.5-2.3-10.5,0.3c-1.4,1.2-12.4,10.8-13.4,22.7c-12.1-5-23.6-11.9-27.1-19.7
			c-1.2-2.7-3.8-4.6-6.7-4.9l-9.9-1.1c2.2-7.7,4.3-17.3,6.3-29.3c3.9-23.9,5.1-46,5.2-47c0.3-4.6-3.3-8.6-7.9-8.9
			c-4.6-0.2-8.6,3.3-8.9,7.9c0,0.2-1.3,22.3-5,45.4c-6.7,41.3-14.8,47.8-16.4,48.6c-2.9,1.6-9.4,1.9-19.2-2.1
			c-16.2-6.6-36.5-23.4-42.8-44.6c-1.3-4.5-6-7-10.4-5.7c-4.5,1.3-7,6-5.7,10.4c6.6,22.5,24.9,40.5,42.8,50.6l-14.5,127
			c-0.4,3.1,1,6.1,3.6,7.9c9,6.1,13.2,11.3,15.2,15.1h-49V343c0-1.2-0.3-2.5-0.8-3.6c-13.8-29.5-28.5-85.5-28.6-86.1
			c-1.2-4.5-5.8-7.2-10.2-6c-4.5,1.2-7.2,5.8-6,10.2c0.4,1.4,5.6,21.3,12.7,43.7c-34.5,9.6-61.1,6.5-74.9,3.5
			c2.9-4.3,5.8-8.9,8.5-13.7c2.3-4,0.9-9.2-3.2-11.5c-4-2.3-9.2-0.9-11.5,3.2c-12.5,22-30.4,40.6-30.6,40.8
			c-1.5,1.6-2.4,3.7-2.4,5.9v67.2c0,2.4,1,4.7,2.8,6.3c4.6,4.2,8.5,9.2,11.3,13.7H81.1c3.2-22.5,6.2-78.9-26.2-148.5
			C25,203.5,40.9,150.8,102.3,111.4z"/>
	</g>
</g>
<g>
	<g>
		<path d="M413.3,205c0,5.4,4.4,9.7,9.8,9.7s9.8-4.4,9.8-9.7s-4.4-9.7-9.8-9.7S413.3,199.6,413.3,205z"/>
	</g>
</g>
</svg>
