<?xml version="1.0" encoding="iso-8859-1"?>
<!-- Generator: Adobe Illustrator 19.0.0, SVG Export Plug-In . SVG Version: 6.00 Build 0)  -->
<svg version="1.1" id="Layer_1" xmlns="http://www.w3.org/2000/svg" xmlns:xlink="http://www.w3.org/1999/xlink" x="0px" y="0px"
	 viewBox="0 0 512 512" style="enable-background:new 0 0 512 512;" xml:space="preserve">
<g>
	<g>
		<path d="M511.941,260.874c-0.532-6.289-4.561-11.484-10.513-13.558l-9.674-3.38l-20.177-18.955
			c-0.951-0.89-1.934-1.74-2.933-2.569c0.752-1.289,1.418-2.645,1.969-4.078c1.234-3.221,2.035-7.103,2.452-11.862
			c0.946-10.711-5.195-20.356-15.282-23.999c-9.328-3.374-19.331-0.626-25.622,6.806c-5.376-6.523-13.839-9.641-22.484-7.896
			c-10.513,2.122-18.004,10.757-18.641,21.488c-0.284,4.779-0.06,8.736,0.688,12.101c0.557,2.504,1.44,4.841,2.606,7.02
			c-1.648,2.127-3.077,4.427-4.238,6.86c-19.252,12.561-42.187,26.154-47.563,27.335h-57.975c-4.329,0-7.837,3.508-7.837,7.837
			s3.508,7.837,7.837,7.837h58.316c3.473,0,9.236-1.241,33.785-16.077c12.352-7.465,23.873-15.03,23.988-15.106
			c1.351-0.888,2.395-2.173,2.987-3.679c0.532-1.351,1.205-2.64,1.99-3.857c3.143,1.538,6.594,2.339,10.131,2.339
			c1.566,0,3.149-0.156,4.729-0.474c6.654-1.341,12.235-5.349,15.575-11.099c6.014,1.107,11.832,3.326,17.047,6.562
			c0.016,0.009,0.031,0.02,0.047,0.029c2.728,1.693,5.325,3.684,7.706,5.915l21.379,20.083c0.798,0.75,1.746,1.325,2.781,1.685
			l11.286,3.922c0.022,0.04,0.029,0.141-0.017,0.18l-7.491,4.112c-3.96,2.181-7.649,5.744-11.217,9.19
			c-3.065,2.96-8.729,8.43-11.146,8.43c-0.036,0-0.071-0.001-0.108-0.003l-21.191-1.526c-3.607-0.263-6.929,1.987-8.029,5.436
			l-6.039,18.944c-1.314,4.124,0.962,8.533,5.086,9.847c0.792,0.253,1.593,0.372,2.382,0.372c3.32,0,6.402-2.126,7.465-5.459
			l4.164-13.065l15.038,1.083c9.326,0.674,16.736-6.478,23.266-12.786c2.83-2.732,5.756-5.559,7.879-6.727l7.495-4.114
			C509.369,272.971,512.473,267.168,511.941,260.874z M423.68,213.069c-0.203,0.812-0.49,1.62-0.879,2.425
			c-1.036,2.151-3.01,3.664-5.415,4.148c-2.402,0.485-4.8-0.145-6.584-1.723c-1.981-1.753-3.217-3.83-3.776-6.345
			c-0.288-1.303-0.584-3.71-0.343-7.772c0.326-5.468,4.749-6.781,6.097-7.054c0.356-0.071,0.938-0.16,1.648-0.16
			c1.973,0,4.921,0.682,6.7,4.294c1.605,3.256,2.301,5.459,2.602,6.831C423.535,209.504,423.519,211.3,423.68,213.069z
			 M457.453,205.101c-0.353,4.044-0.997,6.379-1.473,7.623c-0.16,0.416-0.348,0.806-0.543,1.189
			c-5.02-2.428-10.346-4.209-15.813-5.282c-0.017-0.259-0.026-0.518-0.05-0.778c0.079-0.307,0.174-0.624,0.289-0.957
			c0.427-1.259,1.423-3.467,3.736-6.821c3.113-4.499,7.569-3.326,8.862-2.859C453.753,197.682,457.937,199.632,457.453,205.101z"/>
	</g>
</g>
<g>
	<g>
		<path d="M455.134,395.282l-13.939-5.581c-1.453-0.587-2.621-1.74-3.205-3.175l-8.91-21.753l5.113-16.051
			c1.313-4.124-0.966-8.533-5.089-9.846c-4.132-1.315-8.533,0.964-9.846,5.089l-5.977,18.766c-0.558,1.752-0.482,3.646,0.215,5.348
			l9.985,24.377c2.17,5.323,6.488,9.615,11.866,11.788l13.969,5.593c0.179,0.071,0.34,0.168,0.483,0.286h-33.209
			c-5.404,0-10.643-2.25-14.368-6.169l-42.006-44.241c-1.48-1.558-3.535-2.44-5.682-2.44h-46.993c-0.011,0-0.022-0.001-0.033,0
			H224.7l10.803-6.132c3.764-2.138,5.081-6.921,2.943-10.685c-2.138-3.764-6.922-5.079-10.685-2.943l-74.468,42.264
			c-5.013,2.845-8.127,8.199-8.127,13.972c0,3.849,1.392,7.575,3.914,10.485c0.367,0.424,0.568,0.969,0.568,1.532v2.017
			c0,1.29-1.05,2.341-2.34,2.341h-37.951c-2.672,0-5.088-1.25-6.631-3.43c-1.543-2.181-1.916-4.878-1.024-7.404l23.239-65.984
			c0.02-0.056,0.031-0.112,0.05-0.168c0.05-0.155,0.098-0.31,0.139-0.469c0.029-0.113,0.054-0.227,0.078-0.341
			c0.026-0.123,0.05-0.248,0.071-0.374c0.024-0.145,0.042-0.289,0.057-0.436c0.005-0.055,0.017-0.108,0.022-0.162
			c0.274-3.268,0.97-6.593,2.071-9.89c3.079-9.25,9.21-18.09,18.221-26.278c2.67-2.427,6.266-4.768,10.699-6.96
			c21.647-10.742,60.67-16.362,88.029-16.362c4.329,0,7.837-3.508,7.837-7.837s-3.508-7.837-7.837-7.837
			c-27.417,0-67.521,5.29-92.642,16.871c-15.48-2.763-36.024-9.319-50.637-24.857c-0.093-0.098-0.183-0.202-0.275-0.302
			c-0.468-0.505-0.928-1.017-1.378-1.536c-0.166-0.191-0.331-0.386-0.495-0.581c-0.429-0.507-0.852-1.022-1.264-1.542
			c-0.11-0.138-0.221-0.274-0.33-0.413c-1.1-1.413-2.139-2.868-3.113-4.367c-0.143-0.22-0.278-0.449-0.418-0.672
			c-0.358-0.568-0.717-1.137-1.057-1.717c-0.203-0.346-0.393-0.702-0.589-1.053c-0.256-0.456-0.516-0.906-0.761-1.369
			c-0.887-1.68-1.706-3.414-2.45-5.19c-2.608-6.231-4.356-13.163-5.197-20.628c-0.001-0.008-0.001-0.017-0.001-0.024
			c-0.16-1.406-0.279-2.72-0.365-4.044c-0.393-5.811-0.748-11.385-1.087-16.729l-0.06-0.934c-0.044-0.823-0.097-1.647-0.149-2.443
			l-0.079-1.229c-0.498-7.708-0.969-14.991-1.473-21.751c-0.003-0.044-0.006-0.088-0.009-0.133c-0.003-0.06-0.006-0.118-0.011-0.178
			c-0.782-10.386-1.5-17.909-2.329-24.384c-2.542-19.94-6.827-40.824-23.776-48.096C49.69,86.852,43.959,85.88,37,86.299
			c-0.068,0.004-0.135,0.014-0.203,0.019c-0.464,0.03-0.94,0.072-1.427,0.128c-0.256,0.027-0.51,0.062-0.764,0.095
			c-0.228,0.032-0.458,0.067-0.689,0.107c-8.767,1.389-15.995,6.428-21.495,14.811c-0.196,0.297-0.392,0.598-0.585,0.906
			c-0.092,0.147-0.185,0.293-0.275,0.442c-5.144,8.371-9.27,20.833-10.875,39.276c-0.026,0.295-0.05,0.589-0.075,0.887
			c-0.066,0.799-0.126,1.609-0.182,2.43c-0.013,0.182-0.028,0.357-0.041,0.54c-0.005,0.074-0.006,0.154-0.01,0.229
			c-0.118,1.854-0.208,3.742-0.271,5.662c-0.004,0.115-0.007,0.231-0.01,0.346c-0.063,1.948-0.095,3.93-0.098,5.941
			c0,0.103,0,0.206,0,0.308c0,2.026,0.027,4.081,0.085,6.163c0.003,0.097,0.005,0.193,0.008,0.288c0.06,2.1,0.148,4.226,0.266,6.376
			c0.002,0.038,0.003,0.075,0.005,0.113c0,0,0.001,0.013,0.002,0.019c0.539,9.594,1.657,19.46,3.323,29.314
			c0.25,1.494,0.525,2.977,0.797,4.461c0.17,0.93,0.342,1.857,0.522,2.784c0.731,3.761,1.527,7.482,2.399,11.132
			c0.487,2.043,0.996,4.073,1.528,6.086c0.004,0.017,0.013,0.03,0.017,0.046c0.397,1.516,0.796,3.013,1.217,4.471
			c2.406,8.507,5.725,16.721,9.862,24.404c0.856,1.596,1.77,3.185,2.715,4.767c0.214,0.358,0.42,0.719,0.637,1.075
			c0.24,0.394,0.493,0.785,0.74,1.177c0.365,0.582,0.725,1.165,1.099,1.742c0.214,0.329,0.438,0.654,0.655,0.982
			c0.417,0.629,0.832,1.257,1.261,1.881c0.028,0.041,0.054,0.083,0.083,0.123c0.555,0.802,1.092,1.56,1.616,2.284
			c0.317,0.438,0.643,0.869,0.966,1.304c0.158,0.211,0.323,0.441,0.479,0.646c0.033,0.045,0.07,0.09,0.104,0.135
			c0.566,0.75,1.142,1.494,1.726,2.234c0.253,0.323,0.503,0.644,0.76,0.963c0.529,0.657,1.07,1.308,1.613,1.956
			c0.206,0.247,0.405,0.5,0.613,0.744c0.068,0.086,0.138,0.171,0.209,0.254c6.891,8.053,14.965,15.524,23.998,22.208
			c1.402,1.037,3.035,1.538,4.655,1.537c2.4,0,4.769-1.098,6.306-3.175c2.575-3.479,1.841-8.386-1.638-10.961
			c-4.703-3.481-9.1-7.196-13.169-11.1l37.802-12.344c12.238,11.497,26.962,18.317,40.466,22.36
			c-8.155,7.681-14.324,15.966-18.405,24.718c-4.439-1.345-11.204-3.692-19.34-7.471c-3.925-1.825-8.585-0.118-10.409,3.806
			c-1.823,3.926-0.12,8.586,3.806,10.409c8.792,4.083,16.196,6.667,21.131,8.175c-0.272,1.468-0.486,2.936-0.639,4.401
			l-22.95,65.163c-2.567,7.274-1.442,15.374,3.011,21.668c4.453,6.293,11.714,10.052,19.426,10.052h37.951
			c9.933,0,18.013-8.081,18.013-18.014v-2.017c0-4.326-1.557-8.51-4.391-11.788c-0.048-0.055-0.092-0.121-0.092-0.229
			c0-0.234,0.143-0.315,0.19-0.341l2.084-1.183l3.686,9.331c5.808,14.726,19.788,24.24,35.617,24.24h39.518
			c10.078,0,18.275-8.204,18.275-18.286c0-2.969-0.732-5.925-2.127-8.565c-1.404-2.645-3.45-4.921-5.915-6.584
			c-0.413-0.279-0.849-0.516-1.308-0.713l-4.595-1.959c-7.286-3.119-12.946-9.286-15.5-16.744h63.816l-8.084,15.269
			c-4.562,7.776-4.633,17.084-0.177,24.941c4.49,7.914,12.6,12.64,21.696,12.64h45.161c3.793,0,7.37-1.473,10.124-4.203
			c2.676-2.701,4.149-6.278,4.149-10.071c0-7.201-4.32-13.577-10.941-16.218l-0.562-0.231c-2.571-1.03-3.298-3.241-3.491-4.143
			c-0.193-0.903-0.434-3.219,1.513-5.233l4.68-4.875l32.21,33.925c6.674,7.022,16.053,11.048,25.732,11.048h35.254
			c3.816,0,7.401-1.483,10.122-4.201c2.678-2.701,4.152-6.282,4.152-10.083C466.117,404.315,461.802,397.944,455.134,395.282z
			 M15.669,158.488c0-0.063-0.001-0.126-0.001-0.189c0.002-1.778,0.033-3.522,0.084-5.246c0.015-0.348,0.025-0.697,0.038-1.045
			c0.06-1.714,0.135-3.405,0.241-5.056c0.67-10.29,4.227-43.951,21.902-45.003c0.103-0.006,0.204-0.009,0.307-0.015
			c0.554-0.028,1.094-0.045,1.626-0.051c1.376-0.016,2.685,0.046,3.924,0.222c0.351,0.049,0.697,0.109,1.036,0.176
			c0.026,0.005,0.051,0.011,0.077,0.017c0.313,0.064,0.622,0.136,0.926,0.215c0.045,0.013,0.091,0.024,0.136,0.037
			c0.283,0.077,0.562,0.162,0.838,0.254c0.057,0.02,0.116,0.039,0.173,0.06c0.26,0.091,0.516,0.189,0.77,0.294
			c0.067,0.028,0.134,0.055,0.2,0.085c0.241,0.104,0.479,0.217,0.715,0.335c0.073,0.037,0.146,0.072,0.218,0.11
			c0.226,0.119,0.448,0.247,0.669,0.379c0.076,0.046,0.153,0.091,0.228,0.138c0.214,0.135,0.424,0.28,0.633,0.428
			c0.076,0.055,0.155,0.108,0.23,0.163c0.206,0.153,0.406,0.318,0.607,0.485c0.074,0.063,0.15,0.12,0.225,0.186
			c0.202,0.176,0.399,0.364,0.596,0.554c0.068,0.066,0.138,0.129,0.206,0.196c0.208,0.21,0.412,0.435,0.614,0.664
			c0.052,0.058,0.106,0.112,0.158,0.172c0.504,0.585,0.988,1.23,1.458,1.937c0.085,0.129,0.166,0.269,0.251,0.401
			c0.145,0.23,0.29,0.458,0.433,0.701c0.102,0.174,0.202,0.363,0.302,0.544c0.12,0.216,0.24,0.429,0.357,0.656
			c0.107,0.205,0.21,0.422,0.315,0.636c0.108,0.219,0.216,0.437,0.321,0.666c0.107,0.231,0.21,0.472,0.315,0.713
			c0.1,0.23,0.201,0.458,0.298,0.696c0.104,0.254,0.207,0.517,0.309,0.781c0.094,0.242,0.189,0.486,0.281,0.738
			c0.101,0.275,0.202,0.559,0.301,0.844c0.09,0.259,0.18,0.52,0.268,0.789c0.098,0.296,0.194,0.599,0.291,0.906
			c0.086,0.276,0.171,0.555,0.256,0.839c0.095,0.32,0.188,0.644,0.281,0.975c0.083,0.294,0.164,0.592,0.246,0.895
			c0.091,0.34,0.181,0.682,0.27,1.033c0.079,0.315,0.158,0.634,0.235,0.957c0.087,0.362,0.174,0.725,0.259,1.099
			c0.077,0.336,0.153,0.682,0.228,1.029c0.083,0.378,0.165,0.758,0.246,1.148c0.075,0.365,0.149,0.741,0.223,1.115
			c0.078,0.397,0.157,0.792,0.233,1.201c0.073,0.39,0.144,0.794,0.215,1.195c0.074,0.415,0.149,0.827,0.221,1.255
			c0.072,0.421,0.141,0.86,0.211,1.293c0.07,0.43,0.14,0.854,0.208,1.297c0.072,0.469,0.142,0.959,0.213,1.442
			c0.063,0.429,0.127,0.848,0.188,1.288c0.087,0.614,0.169,1.253,0.253,1.89c0.043,0.322,0.086,0.63,0.128,0.957
			c0.592,4.637,1.13,9.868,1.679,16.424l-48.616,6.609C15.699,160.825,15.669,159.64,15.669,158.488z M17.909,189.908
			c-0.559-4.091-1.023-8.165-1.373-12.198l48.972-6.657c0.177,2.59,0.352,5.231,0.53,7.95L17.909,189.908z M22.286,213.821
			c-0.279-1.203-0.559-2.405-0.822-3.623c-0.032-0.151-0.068-0.301-0.1-0.452c-0.308-1.44-0.596-2.895-0.881-4.352l46.564-10.55
			c0.183,2.846,0.372,5.751,0.569,8.712L22.286,213.821z M30.937,240.831c-1.763-3.837-3.301-7.797-4.605-11.857l43.223-9.787
			c0.579,2.856,1.279,5.642,2.102,8.352L30.937,240.831z M43.955,262.126c-0.214-0.277-0.431-0.551-0.643-0.83
			c-0.662-0.867-1.322-1.736-1.955-2.617c-0.119-0.165-0.245-0.347-0.365-0.516c-0.684-0.962-1.349-1.934-1.998-2.912
			c-0.102-0.154-0.208-0.307-0.31-0.462l38.93-12.706c0.018,0.034,0.039,0.067,0.057,0.101c0.632,1.189,1.299,2.352,1.985,3.497
			c0.177,0.294,0.364,0.581,0.543,0.872c0.357,0.579,0.706,1.164,1.077,1.729c0.312,0.477,0.614,0.924,0.912,1.359L43.955,262.126z
			 M240.105,404.103l3.68,1.569c0.177,0.178,0.327,0.382,0.446,0.608c0.202,0.382,0.305,0.797,0.305,1.23
			c0,1.441-1.167,2.612-2.602,2.612h-39.518c-9.349,0-17.607-5.619-21.038-14.321l-4.499-11.387l20.204-11.468h17.4l0.453,1.769
			C218.275,387.799,227.679,398.783,240.105,404.103z M308.014,410.123c-4.871,0-7.261-3.286-8.063-4.699
			c-0.804-1.416-2.4-5.162,0.108-9.355c0.07-0.117,0.137-0.236,0.2-0.355l12.055-22.767h32.17l-1.804,1.878
			c-4.973,5.142-7.049,12.387-5.554,19.382c1.494,6.992,6.348,12.756,12.934,15.396l0.576,0.235
			c0.179,0.071,0.341,0.169,0.484,0.286H308.014z"/>
	</g>
</g>
<g>
	<g>
		<circle cx="448.357" cy="247.328" r="7.837"/>
	</g>
</g>
<g>
</g>
<g>
</g>
<g>
</g>
<g>
</g>
<g>
</g>
<g>
</g>
<g>
</g>
<g>
</g>
<g>
</g>
<g>
</g>
<g>
</g>
<g>
</g>
<g>
</g>
<g>
</g>
<g>
</g>
</svg>
