<?xml version="1.0" encoding="utf-8"?>
<!-- Generator: Adobe Illustrator 23.0.0, SVG Export Plug-In . SVG Version: 6.00 Build 0)  -->
<svg version="1.1" id="Layer_1" xmlns="http://www.w3.org/2000/svg" xmlns:xlink="http://www.w3.org/1999/xlink" x="0px" y="0px"
	 viewBox="0 0 512 512" style="enable-background:new 0 0 512 512;" xml:space="preserve">
<g>
	<g>
		<path d="M172.6,137.3c0.1,4.6,3.8,8.3,8.4,8.3c0,0,0.1,0,0.1,0c7.3-0.1,13.8-0.2,19.7-0.2c54.7-0.5,57.1-1.5,83.8-33.9
			c3.2-3.9,6.8-8.3,11-13.2c14.4-17,24.8-32.3,33.3-44.5c20.8-30.2,28.5-41.5,58-35.3c39.3,8.3,69.7,54.1,76.8,65.6l-4.5,22.6
			c-0.7,3.5,0.9,7.1,3.9,8.9c0.8,0.5,21.3,13.5,19.2,41.2c-0.3,3.9-1.9,7-5.2,9.7c-7.8,6.4-22.2,8.7-34.9,9.2c-0.3,0-0.6,0-0.9,0
			c-4.7,0.2-9.1,0.1-12.8-0.1c-2.7-29.8-13.1-54.3-40.9-62.4c-4.5-1.3-9.2,1.3-10.5,5.7c-1.3,4.5,1.3,9.2,5.7,10.5
			c38.1,11.1,30.9,72.2,24.6,126.1c-3,25.7-5.9,50-3.1,66.5c3.2,19.1-0.5,56-10.6,106.8c-5.8,29-12.2,54.9-15.1,66.4h-59.7
			c3.2-19.9,21.8-23.8,24.1-24.2c2.7-0.5,5-2.2,6.1-4.6c1.2-2.4,1.1-5.3-0.1-7.7c-11-20.3-16.7-65.2-19.8-89.3
			c-0.6-4.6-4.8-7.9-9.4-7.3c-4.6,0.6-7.9,4.8-7.3,9.4c3.9,30.3,8.7,63.7,17.4,86c-13.6,5.9-29.5,19.8-28.4,46.6
			c0.2,4.5,3.9,8.1,8.4,8.1h75.1h45.7c3.7,0,7-2.4,8.1-5.9c12.6-40.7,17.5-114.4,20.7-163.1c1.2-17.8,2.1-31.8,3.1-38.9
			c3.6-26.2-6.6-88.3-10.8-112.1c12.7-1.3,26.5-4.7,35.8-12.4c6.7-5.5,10.6-12.9,11.2-21.4c2.2-29-13.8-46.3-22.3-53.3l4.1-20.6
			c0.4-2,0.1-4-0.9-5.8c-1.5-2.7-37.3-65.4-89.6-76.4c-40.5-8.5-54.4,11.7-75.4,42.3c-8.6,12.6-18.4,26.8-32.2,43.2
			c-4.2,5-7.9,9.4-11.1,13.4c-11.9,14.5-17.4,21.1-25,24.2c-8.2,3.3-20.8,3.4-45.9,3.6c-5.9,0.1-12.4,0.1-19.8,0.2
			C176.3,128.8,172.6,132.7,172.6,137.3z M446,301.8c-1,7.7-2,22-3.2,40.1c-3,45.6-7.5,113.4-18.3,153.3H396
			c8.3-33.1,32-133.3,24.9-175.9c-2.4-14.2,0.3-37.3,3.2-61.8c2.4-20.9,5.1-43.7,5-64.9c1.8,0.1,3.7,0.1,5.8,0.2
			C438.7,213.9,449.3,277.4,446,301.8z"/>
	</g>
</g>
<g>
	<g>
		<path d="M22.3,356.8c2.4,14,5.1,29.9,4.3,33.5c-6.7,25.5,6.2,105.6,7.7,114.6c0.7,4.1,4.2,7.1,8.3,7.1h93.5h44.9
			c4.7,0,8.4-3.8,8.4-8.4c0-20.4-15.3-49.3-19.8-57.2v-61.1c5.9-13.1,14-47.8,17.7-64.6c13.4,3.4,29.6,6.5,48.1,7.9
			c2,0.2,4,0.2,6,0.2c26.6,0,46.7-13.8,60.1-27.5c0,5.6,0.6,10.4,2,14c2.2,5.9,4.2,19.3,5.8,31.8c0.6,4.2,4.2,7.3,8.4,7.3
			c0.4,0,0.7,0,1.1-0.1c4.6-0.6,7.9-4.8,7.3-9.5c-2.1-16.2-4.1-28.5-6.7-35.5c-4.9-13.1,8.3-65.3,19.2-98.1
			c1.5-4.4-0.9-9.2-5.3-10.7c-4.4-1.5-9.2,0.9-10.7,5.3c-2.7,8.2-11.7,36-17,62.4c-4.1,7.1-28.5,46.5-68.8,43.4
			c-36.2-2.8-63.7-12.5-75.2-17.2c5.4-30.1,5.5-55,5.5-57.1c0-4.7-3.8-8.4-8.4-8.4c-4.7,0-8.4,3.8-8.4,8.4c0,0.9-0.5,94-39,135
			c-1.4,1.5-2.2,3.4-2.3,5.4l-3.9,80.1c-0.1,3,1.3,5.8,3.7,7.4c0.2,0.1,17.7,12.3,19.3,29.8H49.8c-4.2-27.6-11.4-83.5-6.9-100.5
			c1.7-6.6-0.1-17.8-4-40.7C30.3,304.2,16,220.9,51.1,177c14.5-18.2,35.9-27.7,65.4-29.2c13.5-0.7,26.3-1.2,39.1-1.6
			c4.7-0.1,8.3-4,8.2-8.7c-0.1-4.7-4-8.3-8.7-8.2c-13,0.4-25.9,0.9-39.5,1.6c-34.1,1.7-60.3,13.7-77.8,35.5
			C-1.9,216.3,13.2,304.2,22.3,356.8z M122.2,454.3l3.5-72.6c16.5-18.8,26.5-45.2,32.4-70.3c3.5,1.4,7.9,3,13,4.6
			c-5.1,23-13.1,55.4-17.3,63.4c-0.6,1.2-1,2.6-1,3.9v65.2c0,1.5,0.4,3,1.2,4.3c4.3,7.4,14.4,27,17.6,42.3H145
			C144,474.8,129.4,460.3,122.2,454.3z"/>
	</g>
</g>
<g>
	<g>
		<path d="M379.1,84.6c1,3.8,4.4,6.4,8.2,6.4c0.7,0,1.4-0.1,2.1-0.3c4.5-1.1,7.3-5.7,6.1-10.2c0-0.2-0.1-0.3-0.1-0.5
			c1.9-0.4,5.7-0.1,8.1,0.4c4.5,1.1,9.1-1.7,10.1-6.3c1.1-4.5-1.7-9.1-6.3-10.1c-3.9-0.9-17.2-3.3-24.6,4.2
			C380.4,70.5,376.9,75.7,379.1,84.6z"/>
	</g>
</g>
<g>
	<g>
		<path d="M430.5,104.5c0,5.5,4.5,9.9,10,9.9s10-4.5,10-9.9c0-5.5-4.5-9.9-10-9.9S430.5,99.1,430.5,104.5z"/>
	</g>
</g>
</svg>
