<?xml version="1.0" encoding="iso-8859-1"?>
<!-- Generator: Adobe Illustrator 19.0.0, SVG Export Plug-In . SVG Version: 6.00 Build 0)  -->
<svg version="1.1" id="Layer_1" xmlns="http://www.w3.org/2000/svg" xmlns:xlink="http://www.w3.org/1999/xlink" x="0px" y="0px"
	 viewBox="0 0 512.002 512.002" style="enable-background:new 0 0 512.002 512.002;" xml:space="preserve">
<g>
	<g>
		<circle cx="418.743" cy="131.732" r="7.452"/>
	</g>
</g>
<g>
	<g>
		<path d="M411.387,241.369c-4.328-0.189-7.986,3.154-8.181,7.477c-0.305,6.815-0.523,13.381-0.648,19.516
			c-0.14,6.992-1.39,13.873-3.71,20.447c-3.054,8.631-5.197,15.026-6.948,20.731c-7.058,22.976-9.081,38.915-15.785,91.729
			c-0.91,7.166-1.906,15.014-3.013,23.653l-15.539,4.002l-1.451-97.984c-0.008-0.575-0.081-1.147-0.214-1.706
			c-1.278-5.346-6.008-9.2-11.473-9.374l-73.523-2.596c-4.318-0.159-7.956,3.229-8.108,7.555c-0.153,4.326,3.23,7.956,7.555,8.108
			l15.039,0.531l-10.349,130.369c-0.194,2.183,0.187,4.355,1.07,6.301c0.53,1.17,1.241,2.258,2.119,3.216
			c2.232,2.438,5.379,3.836,8.637,3.836h34.653c5.174,0,9.681-3.564,11.057-8.589c0.086-0.309,0.163-0.623,0.225-0.944l2.472-13.004
			l0.465-2.44c0.001-0.005,0.002-0.01,0.003-0.017c0.041-0.217,0.069-0.436,0.097-0.653c0.01-0.083,0.027-0.164,0.037-0.247
			c0.018-0.158,0.024-0.316,0.034-0.473c0.01-0.147,0.027-0.294,0.031-0.441c0.003-0.106-0.001-0.21-0.001-0.316
			c0.002-0.197,0.006-0.396-0.002-0.593c-0.002-0.057-0.01-0.115-0.014-0.172c-0.014-0.243-0.029-0.486-0.057-0.727
			c-0.003-0.025-0.008-0.051-0.011-0.076c-0.033-0.272-0.073-0.542-0.124-0.81c-0.003-0.018-0.008-0.036-0.013-0.054
			c-0.053-0.274-0.115-0.547-0.187-0.815c-0.011-0.044-0.027-0.086-0.04-0.128c-0.068-0.241-0.139-0.483-0.221-0.719
			c-0.037-0.104-0.082-0.207-0.121-0.31c-0.066-0.172-0.128-0.346-0.201-0.514c-0.08-0.186-0.172-0.368-0.262-0.551
			c-0.041-0.081-0.075-0.166-0.118-0.247c-0.959-1.838-2.39-3.425-4.201-4.548l-11.241-6.927l18.335-97.567l3.041,0.108
			l1.534,103.59c0,0.524,0.05,1.055,0.161,1.587l2.472,11.981l3.089,14.983c0.016,0.074,0.032,0.149,0.049,0.223
			c0.31,1.312,0.828,2.527,1.504,3.622c0.037,0.06,0.068,0.122,0.106,0.181c0.045,0.071,0.097,0.136,0.144,0.206
			c2.214,3.307,5.96,5.402,10.148,5.402h37.041c4.118,0,7.804-2.099,9.928-5.401c0.024-0.038,0.045-0.078,0.068-0.117
			c0.149-0.239,0.295-0.481,0.428-0.731c0.063-0.118,0.115-0.243,0.174-0.365c0.086-0.176,0.177-0.349,0.254-0.531
			c0.047-0.11,0.084-0.226,0.128-0.338c0.078-0.2,0.16-0.398,0.229-0.605c0.004-0.011,0.006-0.024,0.01-0.037
			c0.1-0.307,0.191-0.621,0.267-0.939l3.387-14.137c0.752-3.132,0.182-6.368-1.46-9.004c-0.006-0.01-0.014-0.019-0.02-0.029
			c-0.143-0.229-0.293-0.453-0.451-0.672c-0.021-0.028-0.044-0.054-0.065-0.083c-0.651-0.88-1.427-1.678-2.325-2.362l-18.735-14.281
			c1.141-8.897,2.164-16.96,3.097-24.306c6.574-51.786,8.558-67.416,15.22-89.104c1.684-5.488,3.763-11.687,6.742-20.107
			c2.881-8.157,4.43-16.689,4.604-25.355c0.121-6.005,0.335-12.441,0.635-19.128C419.058,245.227,415.712,241.564,411.387,241.369z
			 M319.869,451.733l-1.86,9.768h-27.062l1.17-14.734l15.304-2.819c0.021,0.017,0.045,0.03,0.067,0.047
			c0.363,0.292,0.74,0.566,1.14,0.816L319.869,451.733z M303.97,428.646l-10.572,1.949l7.667-96.582l20.553,0.725L303.97,428.646z
			 M395.793,452.77l-2.091,8.732h-31.185l-2.371-11.488l-1.09-5.288l19.571-5.041L395.793,452.77z"/>
	</g>
</g>
<g>
	<g>
		<path d="M496.17,121.179h-35.412c-5.477,0-10.828-2.224-14.676-6.094l-1.318-1.329H465.8c19.703,0,35.732-16.034,35.732-35.742
			V62.633c0-16.386-13.328-29.718-29.711-29.718h-5.547c-4.328,0-7.837,3.509-7.837,7.837v15.903h-6.453
			c-0.435-13.165-11.277-23.74-24.54-23.74h-11.418c-4.328,0-7.837,3.509-7.837,7.837v24.741h-46.537v-24.74
			c0-4.328-3.509-7.837-7.837-7.837h-11.416c-13.265,0-24.107,10.576-24.54,23.74h-6.453V40.753c0-4.328-3.509-7.837-7.837-7.837
			h-5.548c-16.382,0-29.711,13.332-29.711,29.718v15.381c0,19.708,16.03,35.742,35.732,35.742h41.599l-31.041,38.414l-58.867,4.871
			c-14.111,1.177-43.031,3.59-65.991,26.096l-33.22,3.657c-4.302,0.473-7.405,4.346-6.932,8.648
			c0.474,4.302,4.339,7.407,8.648,6.932l35.988-3.962c1.838-0.203,3.545-1.048,4.819-2.388
			c19.151-20.125,45.384-22.313,57.991-23.364l62.2-5.147c2.134-0.177,4.103-1.219,5.449-2.885l41.105-50.87h48.272
			c5.477,0,10.832,2.227,14.686,6.103l6.213,6.265c6.775,6.815,16.177,10.724,25.797,10.724h35.412c0.087,0,0.157,0.07,0.157,0.157
			v23.96c0,4.97-2.06,9.86-5.65,13.413c-3.454,3.419-7.929,5.258-12.592,5.228c-7.357-0.071-13.862-4.536-16.572-11.374
			c-1.266-3.193-4.46-5.192-7.89-4.925l-37.397,2.894c-3.753,0.29-6.77,3.208-7.184,6.949c-0.016,0.135-1.511,13.675-3.056,32.621
			c-0.352,4.313,2.86,8.096,7.173,8.448c0.217,0.018,0.433,0.026,0.646,0.026c4.04,0,7.468-3.103,7.802-7.2
			c0.891-10.928,1.765-20.022,2.34-25.721l25.668-1.986c6.001,9.731,16.579,15.826,28.316,15.94
			c8.881,0.067,17.322-3.376,23.773-9.761c6.544-6.477,10.296-15.427,10.296-24.552v-23.959
			C512,128.281,504.899,121.179,496.17,121.179z M304.043,98.084c-11.06,0-20.059-9.003-20.059-20.068V62.634
			c0-6.965,5.093-12.761,11.748-13.857v15.716c0,4.328,3.509,7.837,7.837,7.837h22.114c4.328,0,7.837-3.509,7.837-7.837v-7.018
			c0-4.9,3.984-8.886,8.881-8.886h3.579v24.741c0,4.328,3.509,7.837,7.837,7.837h62.21c4.328,0,7.837-3.509,7.837-7.837V48.59h3.58
			c4.897,0,8.881,3.986,8.881,8.886v7.018c0,4.328,3.509,7.837,7.837,7.837h22.114c4.328,0,7.837-3.509,7.837-7.837V48.777
			c6.655,1.097,11.748,6.893,11.748,13.857v15.381c0,11.065-8.999,20.068-20.059,20.068H304.043z"/>
	</g>
</g>
<g>
	<g>
		<path d="M225.971,315.678l-79.517-2.808c-3.252-0.115-6.475,1.096-8.761,3.271l-57.039,52.982H62.851
			c-6.747,0-12.236,5.489-12.236,12.236v49.239l-11.797,1.755v-78.321c0.19-0.174,0.371-0.359,0.543-0.554l11.747-13.235
			c3.268-2.258,5.297-6.025,5.297-10.064v-59.894c0-31.788,23.766-58.781,55.281-62.788c4.293-0.545,7.332-4.469,6.786-8.763
			c-0.545-4.293-4.468-7.335-8.763-6.786c-19.607,2.492-36.808,12.117-49.13,26.056c-8.104,0.002-25.899,1.281-36.95,11.612
			c-5.929,5.543-9.063,13.001-9.063,21.569c0,11.384-2.691,17.947-4.944,21.446C3.327,282.388,0,293.381,0,304.423v16.363
			c0,4.328,3.509,7.837,7.837,7.837h25.119c2.622,0,5.226-0.27,7.774-0.789v0.552c-0.193,0.178-0.378,0.366-0.553,0.563
			l-11.749,13.237c-3.262,2.257-5.284,6.027-5.284,10.074v89.096c0,0.03-0.004,0.06-0.004,0.09v23.496
			c0,6.749,5.486,12.24,12.228,12.24h36.146c3.315,0,6.418-1.31,8.704-3.636c0.183-0.185,0.347-0.392,0.518-0.59
			c0.134-0.155,0.278-0.299,0.404-0.461c0.001-0.001,0.001-0.001,0.001-0.002c0.002-0.002,0.004-0.004,0.006-0.007
			c2.192-2.802,3.023-6.346,2.358-9.825c-0.043-0.224-0.071-0.448-0.126-0.672l-0.609-2.436l-3.143-12.59
			c-0.675-2.702-2.28-5.119-4.528-6.814l-8.812-6.615v-48.736h15.705c2.755,0,5.388-0.911,7.513-2.569v85.054
			c0,5.22,3.413,9.654,8.123,11.208c0.063,0.021,0.121,0.048,0.184,0.068c0.03,0.009,0.062,0.015,0.092,0.023
			c1.083,0.328,2.228,0.508,3.416,0.508h0.003h39.09h0.004c3.512,0,6.817-1.547,9.068-4.248c2.251-2.7,3.179-6.233,2.547-9.683
			l-1.462-8.033l-1.702-9.365c-0.147-0.82-0.381-1.617-0.694-2.379c-0.073-0.179-0.165-0.348-0.247-0.522
			c-0.091-0.194-0.173-0.393-0.275-0.582c-0.97-1.807-2.407-3.359-4.198-4.477l-14.285-8.831v-44.441l16.81-1.391
			c2.504-0.207,4.755-1.602,6.057-3.75l31.213-51.532l42.167,1.489c4.318,0.163,7.956-3.23,8.108-7.555
			C233.679,319.461,230.296,315.831,225.971,315.678z M40.73,270.285v41.316c-2.484,0.883-5.113,1.348-7.774,1.348H15.673v-8.526
			c0-8.022,2.461-16.077,7.12-23.298c4.941-7.665,7.446-17.739,7.446-29.939c0-4.283,1.295-7.493,4.073-10.1
			c3.669-3.442,9.385-5.35,14.926-6.365C43.795,245.463,40.73,257.562,40.73,270.285z M67.103,461.502H38.818v-13.302l17.439-2.597
			l8.458,6.348L67.103,461.502z M133.75,452.225l2.034,11.189h-30.601v-16.932l15.066-2.604L133.75,452.225z M140.704,369.845
			l-20.016,1.655c-4.064,0.336-7.191,3.732-7.191,7.811v49.829l-8.317,1.437v-62.843l42.146-39.149l17.985,0.635L140.704,369.845z"
			/>
	</g>
</g>
<g>
</g>
<g>
</g>
<g>
</g>
<g>
</g>
<g>
</g>
<g>
</g>
<g>
</g>
<g>
</g>
<g>
</g>
<g>
</g>
<g>
</g>
<g>
</g>
<g>
</g>
<g>
</g>
<g>
</g>
</svg>
