<?xml version="1.0" encoding="utf-8"?>
<!-- Generator: Adobe Illustrator 23.0.0, SVG Export Plug-In . SVG Version: 6.00 Build 0)  -->
<svg version="1.1" id="Layer_1" xmlns="http://www.w3.org/2000/svg" xmlns:xlink="http://www.w3.org/1999/xlink" x="0px" y="0px"
	 viewBox="0 0 512 512" style="enable-background:new 0 0 512 512;" xml:space="preserve">
<g>
	<g>
		<path d="M205.1,327.2c15.5,1.3,30.1,1.9,43.4,1.9c2.7,0,5.3,0,7.8-0.1l5.5,91.3c0.3,4.4,3.9,7.9,8.3,7.9h33.5
			c4.6,0,8.4-3.7,8.4-8.4c0-12.3-5.7-19.4-9.9-24.6c-2.9-3.6-4.5-5.8-4.9-8.6c-0.7-5.7,8.1-33.4,17.2-57.7c0.9-0.1,1.9-0.2,2.8-0.3
			l9,92.1c0.4,4.3,4,7.5,8.3,7.5h38.2c2.7,0,5.2-1.3,6.8-3.5c1.6-2.2,2-5,1.1-7.5c-0.3-1-3.5-9.9-14.8-24l0.7-78.8
			c10.8-4.9,19.6-10,25.8-13.9c4.7,11.8,10.9,21.9,18.2,29.2c8.3,8.3,17.8,12.7,27.3,12.7c0.3,0,0.6,0,0.9,0
			c24.4-0.7,36.7-23.7,41.5-35.8c3.7,0,8.2-0.8,12.7-3.6c8.9-5.6,14.5-17.1,16.6-34.3c0,0,0-0.1,0-0.1c0.1-0.3,0.1-0.7,0.1-1
			c0.4-3.2,0.6-6.5,0.7-10l0.2-4.3c1.8-50.1,3.4-93.3-26.7-124.3c-17-17.5-61.1-11.5-66.1-10.8c-0.3,0-0.5,0.1-0.8,0.2
			c-2.8-5.6-4.8-11.7-5.3-18.2c-0.3-4-3.5-7.2-7.4-7.6c-4-0.4-7.7,2.1-8.9,5.9c-0.5,1.7-2.5,8.4-4.1,17.1
			c-18.2-12.3-53.2-33.8-74.4-31.7c-7.9,0.8-17,3.8-28.7,9.5c-4.1,2-5.9,7-3.9,11.2c2,4.1,7,5.9,11.2,3.9c9.7-4.7,17.3-7.3,23.1-7.9
			c15.3-1.5,49.7,18.9,70.3,33.7c-0.7,11.5,0.3,23.2,5.4,31.1c10.2,15.8,39.1,37,40.3,37.9c1.5,1.1,3.2,1.6,4.9,1.6
			c2.6,0,5.1-1.2,6.7-3.4c2.7-3.7,1.9-8.9-1.8-11.7c-7.7-5.6-29.1-22.5-36.1-33.5c-3-4.7-3.5-13.8-2.5-23.9
			c14.7,23.6,39.4,37,40.8,37.8c4.1,2.2,9.1,0.6,11.3-3.4c2.2-4.1,0.6-9.1-3.4-11.3c-0.4-0.2-14.7-8.1-26.7-21.6
			c16.4-1.4,37.4-0.3,44.2,6.7c25.1,25.9,23.7,64,22,112.1l-0.2,4.3c0,0.5,0,1.1-0.1,1.6c-6.3,0.4-14.5,2.3-20.6,8.6
			c-6.7,6.8-9,16.7-6.9,29.5c-2,6.2-10.5,28.5-27.8,29c-6.5,0.2-12.3-4.2-16-7.8c-7.5-7.5-13.5-18.7-17.6-32.1
			c-0.1-0.5-0.3-1-0.5-1.5c-3.9-13.4-5.9-28.9-5.5-44.7c0.1-4.6-3.5-8.5-8.1-8.6c-4.6-0.1-8.5,3.5-8.6,8.1
			c-0.4,15.6,1.3,30.9,4.9,44.9c-11.3,7.6-43,26.7-79,28.7c-3.3,0.2-6.1,2.3-7.3,5.3c-5.2,13.3-21.9,57.7-20.1,70.9
			c1,7.6,5.1,12.7,8.4,16.8c1.7,2.1,3.1,3.9,4.2,5.9h-15.2l-8.5-140.8c-0.3-4.6-4.2-8.1-8.8-7.8c-4.6,0.3-8.1,4.2-7.8,8.8l2.5,40.6
			c-14.7,0.3-31.1-0.3-48.9-1.8c-4.6-0.4-8.6,3-9,7.6C197.1,322.8,200.5,326.8,205.1,327.2z M485.1,278.8c1.6-1.7,4-2.6,6.4-3.1
			c-2.2,8.7-5.4,11.9-7.1,13c-0.7,0.5-1.4,0.8-2.1,0.9C482,285.5,482.6,281.4,485.1,278.8z M333.8,325.6c5.6-1.3,11-2.9,16.1-4.6
			l-0.7,75c0,2,0.7,3.9,1.9,5.4c3.2,3.8,5.7,7.2,7.6,10.1h-16.5L333.8,325.6z"/>
	</g>
</g>
<g>
	<g>
		<path d="M-0.4,256.3c0.2,4.5,3.9,8,8.3,8c0.1,0,0.3,0,0.4,0c4.6-0.2,8.2-4.1,8-8.7c-1-20.7,5.7-39.4,14.4-54.9
			c-2.4,18.2-1,38.5,4.4,60.9l-28.6,59c-0.8,1.7-1.1,3.7-0.6,5.6l23.1,95.6c0.9,3.8,4.3,6.4,8.1,6.4h39.3c3.9,0,7.3-2.7,8.2-6.6
			c2.2-9.8,0.9-30.5-18.4-41c-2.3-4.9-6-21.3-8.9-37c5-1.4,12-3.6,20.1-6.8l29.3,85.9c1.2,3.4,4.3,5.7,7.9,5.7h49.7
			c2.3,0,4.5-0.9,6.1-2.6c1.6-1.7,2.4-3.9,2.3-6.2c-0.8-13.9-6.3-21-10.7-24.6c-2.3-1.8-4.5-2.9-6.4-3.6l-17-30.4l13.4-39.9
			c8,1.2,16.9,2.5,26.4,3.6c0.3,0,0.7,0.1,1,0.1c4.2,0,7.8-3.1,8.3-7.4c0.6-4.6-2.7-8.7-7.3-9.3c-19.5-2.4-36.5-5.2-48.1-7.3
			c9-9.7,15.9-20.4,20.6-31.9c1.7-4.3-0.4-9.1-4.6-10.9c-4.3-1.7-9.1,0.4-10.9,4.6C116.1,315,46.8,329,46.1,329.1
			c-4.5,0.9-7.4,5.1-6.7,9.6c8.6,51.6,14.1,54.3,17.7,56c8.6,4.2,11,11.4,11.4,16.8H43.6l-20.8-86.3l28.6-59.1
			c0.9-1.8,1.1-3.8,0.6-5.7c-6.9-27.6-12.2-72.8,15.5-103.5c0,0,0.1-0.1,0.1-0.1c0.7-0.6,1.3-1.2,1.8-2c6.4-6.6,14.4-12.4,24.3-17.2
			c17.1-8.2,62.6-4.1,95.8-1.1c24.2,2.2,38.3,3.3,46,1.8c8.9-1.7,19.7-7.7,34.1-15.9c4-2.3,5.4-7.4,3.1-11.4
			c-2.3-4-7.4-5.4-11.4-3.1c-9.9,5.7-22.2,12.7-29.1,14c-5.7,1.1-23.8-0.5-41.3-2.1c-37.1-3.3-83.3-7.4-104.5,2.7
			c-8.9,4.3-19.8,11-29.7,21.4C50.4,149.2-3.3,194.1-0.4,256.3z M92.6,329.8c8.8-4.5,16.9-9.6,24.1-15.1c3.8,0.8,10.1,2,18.5,3.4
			L121.4,359c-0.7,2.2-0.5,4.7,0.6,6.7l20.6,36.8c1.5,2.7,3.7,4.4,6.7,4.3c0.7,0.2,3,1,4.7,4.8h-33.6L92.6,329.8z"/>
	</g>
</g>
<g>
	<g>
		<path d="M464.3,207.5c0,5.2,4.3,9.5,9.5,9.5s9.5-4.3,9.5-9.5c0-5.2-4.3-9.5-9.5-9.5C468.6,198,464.3,202.3,464.3,207.5z"/>
	</g>
</g>
</svg>
