<?xml version="1.0" encoding="utf-8"?>
<!-- Generator: Adobe Illustrator 23.0.0, SVG Export Plug-In . SVG Version: 6.00 Build 0)  -->
<svg version="1.1" id="Layer_1" xmlns="http://www.w3.org/2000/svg" xmlns:xlink="http://www.w3.org/1999/xlink" x="0px" y="0px"
	 viewBox="0 0 512 512" style="enable-background:new 0 0 512 512;" xml:space="preserve">
<g>
	<g>
		<path d="M464.4,159.8c0,5.3,4.4,9.7,9.7,9.7c5.4,0,9.7-4.3,9.7-9.7s-4.4-9.7-9.7-9.7C468.8,150.1,464.4,154.5,464.4,159.8z"/>
	</g>
</g>
<g>
	<g>
		<path d="M1,310.9c1.6,2.3,4.2,3.6,6.9,3.6c0.3,0,0.7,0,1-0.1c21.5-2.6,35.6-11.6,44.3-28.3c7.6-14.6,10.7-34.2,14.6-59
			c2.6-16.7,10.6-28.5,23.5-35.3c-1.7,4-2.8,8.3-3.5,12.9c-2.5,18,3.6,36.7,8.6,51.6c2.4,7.2,5.9,18,5.1,21.1
			c-15.1,14.2-41.3,34.4-41.5,34.6c-1.6,1.3-2.8,3.1-3.1,5.1l-17.6,93.2c-0.5,2.7,0.4,5.6,2.3,7.5c0.1,0.1,10,10.3,10,23
			c0,4.7,3.8,8.4,8.4,8.4h39.4c2.4,0,4.6-1,6.2-2.7c1.6-1.7,2.4-4.1,2.2-6.4c-0.1-1.1-2.4-25.8-25.2-39.1l21.9-54.6
			c4.1-1.1,10.8-3.2,18.8-6.5l2,7l-7.6,60.2c-0.2,2,0.2,4,1.3,5.7c8.2,12.5,6.5,26.8,6.5,26.9c-0.3,2.4,0.4,4.9,2,6.7
			c1.6,1.8,3.9,2.9,6.3,2.9H176c2.4,0,4.7-1,6.3-2.9c1.6-1.8,2.3-4.2,2-6.7c-2.4-18.9-14.9-31.9-21.9-37.9l10.3-44.2
			c30.9-9.7,49.4-42.8,56.2-57.1c22.6,3.6,45.6,2.6,64.7,0.2l8.1,113.2c0.1,0.8,0.2,1.5,0.5,2.3c0,0.1,3.8,11.5-2.8,19
			c-2.2,2.5-2.7,6-1.3,9c1.4,3,4.4,5,7.7,5h46.4h38.5c3.9,0,7.2-2.6,8.2-6.4c4.5-18-13.8-35.4-21.7-41.9c-0.5-7.6-1.3-25.9-0.5-44.9
			c1.6-34,7.8-49.3,13.2-52.2c31.2-16.9,30.1-47.1,29-76.2c-0.1-2.2-0.2-4.5-0.2-6.8c-0.5-16.6,6.9-29.1,12.9-36.5
			c9.4,14.2,4.9,29.9,4.8,30c-0.8,2.6-0.3,5.5,1.3,7.7c0.6,0.8,13.1,16.7,36.6,16.7c3.5,0,7.2-0.3,11.1-1.1c2.9-0.6,5.2-2.6,6.2-5.3
			c1.4-3.7,34-91.6,12.5-152.9c-0.8-2.3-2.6-4.2-5-5.1c-2.3-0.9-4.9-0.7-7.1,0.5c-0.3,0.1-6.3,3.5-13.2,8.9
			c-0.9,0.7-1.8,1.5-2.7,2.2V73.9c0-4.1-2.9-7.5-6.9-8.3c-3.4-0.6-83.9-15.4-133,26.1c-23.4,19.7-41.4,40.4-54.5,55.5
			c-7.5,8.7-14.2,16.3-19.2,20.7c-10.4-1.5-21-4.3-32-7.2c-28.9-7.5-61.6-16-97.8-3.3c-8.4,3-15.7,6.5-21.8,10.8
			c-34.5-11.4-61-10.2-78.8,3.5C4.1,193.5,7.8,238.1,9.1,254.9c0.1,1,0.1,1.8,0.2,2.5c1.7,24.1-8.8,44.5-8.9,44.8
			C-1,304.9-0.8,308.3,1,310.9z M134.9,406.5l7.4-59c0.1-1.1,0.1-2.3-0.3-3.4l-3.2-11.2c4-2.1,8.1-4.4,12.2-7.1
			c16.4-10.5,29.3-23,38.5-37.3c7.2,3.6,14.7,6.4,22.3,8.5c-7.2,14.1-23.6,40.4-48,45.6c-3.2,0.7-5.7,3.2-6.5,6.3l-12.7,54.4
			c-0.8,3.5,0.6,7,3.6,9c0.1,0.1,11.2,7.5,16.6,20.1h-22.5C142,425.7,140.3,416,134.9,406.5z M113.5,289.5
			c8.9-8.4,4.3-22.3-0.9-38.4c-4.6-14-9.8-29.9-7.9-44c1.4-9.9,6.3-17.1,12.5-22.3c0.5-0.3,1-0.7,1.5-1.2c6.3-4.9,13.6-8,19.9-10.2
			c31.4-11,60.1-3.5,88,3.7c12.4,3.2,24.8,6.5,37.5,8c0.1,0,0.1,0,0.2,0c1.8,0.2,3.7,0.4,5.4,0.5c0,0,0,0,0,0c1,0.1,2,0.1,2.9,0.2
			c0.5,0,1.1,0.1,1.6,0.1c0.3,0,0.7,0,1,0c1,0,2.1,0,3.1,0.1c0,0,0.1,0,0.1,0c0,0,0,0,0.1,0c7.9,0,15.8-0.9,23.8-3.1
			c17-4.6,32.2-14.6,46.9-30.5c3-3.2,4.6-5,6.3-6.6c0,0,0.1-0.1,0.1-0.1c1.3-1.3,2.7-2.5,4.9-4.3c2.2-1.9,3.2-4.7,2.9-7.4
			c0-0.2-0.1-0.4-0.1-0.7c0,0,0-0.1,0-0.1c-0.3-1.3-0.9-2.6-1.8-3.7c-3-3.5-8.3-4-11.9-0.9c-5.7,4.8-7.2,6.4-12.7,12.4
			c-0.6,0.6-1.1,1.2-1.7,1.8c0,0-0.1,0.1-0.1,0.1c-0.5,0.5-1,1.1-1.6,1.6c-0.1,0.1-0.3,0.3-0.4,0.4c-0.4,0.4-0.8,0.8-1.3,1.2
			c-0.2,0.2-0.4,0.4-0.6,0.6c-0.4,0.3-0.7,0.7-1.1,1c-0.3,0.2-0.5,0.5-0.8,0.7c-0.3,0.3-0.6,0.5-0.9,0.8c-0.3,0.3-0.7,0.6-1,0.9
			c-0.2,0.2-0.4,0.4-0.6,0.5c-0.4,0.4-0.9,0.7-1.3,1.1c-0.1,0.1-0.2,0.1-0.3,0.2c-13.4,10.9-26.5,15.6-39.7,16.8
			c2.9-3.2,6-6.7,9.3-10.6c13.5-15.5,30.2-34.8,52.6-53.7c35.4-29.9,92.5-25.9,112.1-23.4v16.5c-0.2-0.1-0.3-0.1-0.5-0.2
			c-0.4-0.1-0.8-0.3-1.3-0.4c-0.3-0.1-0.5-0.2-0.8-0.2c-0.4-0.1-0.7-0.2-1.1-0.3c-0.3-0.1-0.6-0.2-0.9-0.2c-0.4-0.1-0.7-0.2-1.1-0.3
			c-0.3-0.1-0.6-0.2-0.9-0.2c-0.4-0.1-0.7-0.2-1.1-0.3c-0.3-0.1-0.7-0.2-1-0.2c-0.4-0.1-0.8-0.2-1.2-0.3c-0.3-0.1-0.7-0.1-1-0.2
			c-0.4-0.1-0.8-0.2-1.2-0.2c-0.3-0.1-0.7-0.1-1.1-0.2c-0.4-0.1-0.9-0.1-1.3-0.2c-0.4-0.1-0.7-0.1-1.1-0.2c-0.5-0.1-1-0.1-1.5-0.2
			c-0.3,0-0.7-0.1-1-0.1c-0.6-0.1-1.2-0.1-1.8-0.2c-0.3,0-0.5-0.1-0.8-0.1c-0.9-0.1-1.7-0.1-2.6-0.2c-0.2,0-0.4,0-0.7,0
			c-0.7,0-1.4-0.1-2-0.1c-0.3,0-0.7,0-1,0c-0.6,0-1.2,0-1.8,0c-0.4,0-0.8,0-1.1,0c-0.6,0-1.1,0-1.7,0c-0.4,0-0.8,0-1.2,0
			c-0.6,0-1.2,0-1.8,0.1c-0.4,0-0.8,0.1-1.2,0.1c-0.6,0-1.2,0.1-1.8,0.1c-0.4,0-0.8,0.1-1.3,0.1c-0.6,0.1-1.2,0.1-1.9,0.2
			c-0.4,0.1-0.8,0.1-1.2,0.2c-0.7,0.1-1.3,0.2-2,0.3c-0.4,0.1-0.8,0.1-1.2,0.2c-0.7,0.1-1.5,0.3-2.2,0.4c-0.3,0.1-0.7,0.1-1,0.2
			c-1,0.2-2.1,0.4-3.1,0.7c-0.1,0-0.1,0-0.2,0c-1.1,0.3-2.3,0.6-3.4,0.9c-0.2,0.1-0.5,0.1-0.8,0.2c-0.9,0.3-1.8,0.5-2.7,0.8
			c-0.4,0.1-0.8,0.3-1.2,0.4c-0.8,0.3-1.5,0.5-2.3,0.8c-0.4,0.2-0.9,0.3-1.3,0.5c-0.7,0.3-1.5,0.5-2.2,0.8c-0.5,0.2-0.9,0.4-1.4,0.6
			c-0.7,0.3-1.5,0.6-2.2,0.9c-0.5,0.2-1,0.4-1.5,0.6c-0.7,0.3-1.5,0.7-2.2,1c-0.5,0.2-1,0.5-1.5,0.7c-0.8,0.4-1.5,0.7-2.3,1.1
			c-0.5,0.2-1,0.5-1.4,0.7c-0.8,0.4-1.6,0.9-2.4,1.3c-0.5,0.2-0.9,0.5-1.4,0.7c-0.9,0.5-1.8,1.1-2.7,1.6c-0.4,0.2-0.7,0.4-1.1,0.6
			c-1.3,0.8-2.6,1.6-3.9,2.4c-0.2,0.2-0.5,0.3-0.7,0.5c-3.3,2.7-4.2,7.5-1.8,11.2c2.5,3.9,7.8,5,11.7,2.5
			c36.6-23.8,66-16.6,78.2-11.7c3.5,1.4,5.6,2.7,5.9,2.9c0.3,0.2,0.6,0.3,0.9,0.5c0.1,0,0.2,0.1,0.3,0.1c0.2,0.1,0.4,0.2,0.7,0.2
			c0.1,0,0.2,0.1,0.4,0.1c0.2,0.1,0.4,0.1,0.7,0.1c0.1,0,0.2,0,0.4,0.1c0.2,0,0.5,0.1,0.7,0.1c0.1,0,0.2,0,0.3,0
			c0.7,0,1.4-0.1,2.1-0.2c0.1,0,0.2-0.1,0.3-0.1c0.2,0,0.3-0.1,0.5-0.1c0.1,0,0.1-0.1,0.2-0.1c0.1,0,0.2-0.1,0.3-0.1
			c0.2-0.1,0.4-0.2,0.7-0.3c0.1,0,0.1-0.1,0.2-0.1c0,0,0.1,0,0.1-0.1c0.3-0.2,0.5-0.3,0.8-0.5c0,0,0,0,0.1,0
			c0.9-0.7,1.6-1.5,2.2-2.4c0,0,0,0,0-0.1c0.2-0.3,0.3-0.6,0.4-0.9c0,0,0-0.1,0.1-0.1c0-0.1,0.1-0.2,0.1-0.3
			c2.4-6.5,9.4-12.9,15.5-17.6c10.8,47.1-8,108.9-13.8,126.2c-12.2,1-20.1-4.1-23.9-7.4c1.3-8.1,2.2-24.5-8.5-40
			c-3.7-5.4-4.9-11.1-3.4-16.8c1-4.1,3-6.8,3.1-6.8c2.9-3.6,2.3-8.9-1.3-11.9c-3.6-2.9-8.9-2.3-11.9,1.3c-3.9,4.9-8.6,15-7,26.9
			c-7.8,7.5-23.7,26.4-22.8,54.3c0.1,2.3,0.2,4.6,0.2,6.9c1.2,31.2,0.8,49.4-20.2,60.8c-13.1,7.1-20.3,28.8-22,66.4
			c-1.2,25.8,0.7,49.5,0.8,50.5c0.2,2.4,1.4,4.7,3.4,6.1c6.4,4.8,14.7,13.2,17.6,20.3h-20c-0.3-7.6-3-16.8-11.1-23.8l-1.7-47.9
			c-0.2-4.6-3.9-8.1-8.4-8.1c-0.1,0-0.2,0-0.3,0c-4.7,0.2-8.3,4.1-8.1,8.7l1.8,51.9c0.1,2.7,1.5,5.2,3.8,6.7c5.5,3.6,7,8.6,7.3,12.5
			h-25.4c2.1-9.1,0.2-17.4-0.8-20.6l-8.1-113.6c7.6-1.4,14.1-2.9,19.1-4.1l1.5,41.8c0.2,4.6,3.9,8.1,8.4,8.1c0.1,0,0.2,0,0.3,0
			c4.7-0.2,8.3-4.1,8.1-8.7l-1.8-52.5c-0.1-2.6-1.4-5.1-3.6-6.6c-2.2-1.5-4.9-1.9-7.4-1.2c-0.9,0.3-83,25.4-137.5-1.6
			c5.1-11.6,8-24.1,8.7-37.4c0.2-4.7-3.4-8.6-8-8.8c-4.7-0.3-8.6,3.3-8.8,8c-0.7,13.5-4,25.9-9.9,37.2c-0.1,0.1-0.1,0.1-0.2,0.2
			c-0.2,0.3-0.4,0.7-0.5,1c-7.9,14.4-20,26.9-36.4,37.4c-22.8,14.7-45.6,19.8-45.9,19.9c-2.7,0.6-5,2.5-6,5.1l-26.5,65.8
			c-0.8,2.1-0.8,4.4,0.1,6.5c0.9,2.1,2.6,3.7,4.7,4.5c11.4,4.4,16.9,12.8,19.7,19.4H67.6c-2.1-10.4-7.5-18.6-11-23l16.3-86.1
			C80.1,317.9,100.5,301.8,113.5,289.5z M21.6,294.1c3-9.8,5.7-23.2,4.6-37.9c-0.1-0.8-0.1-1.7-0.2-2.7c-0.6-7.3-1.7-20.8,0.2-34.6
			c2.2-15.7,7.7-27.1,16.4-33.8c9-7,21.9-9.3,38.5-6.9c-12.2,7.1-25.9,20.7-29.9,46.3C44.5,266.6,40.4,286.3,21.6,294.1z"/>
	</g>
</g>
</svg>
