<?xml version="1.0" encoding="utf-8"?>
<!-- Generator: Adobe Illustrator 23.0.0, SVG Export Plug-In . SVG Version: 6.00 Build 0)  -->
<svg version="1.1" id="Layer_1" xmlns="http://www.w3.org/2000/svg" xmlns:xlink="http://www.w3.org/1999/xlink" x="0px" y="0px"
	 viewBox="0 0 512 512" style="enable-background:new 0 0 512 512;" xml:space="preserve">
<g>
	<g>
		<path d="M140.6,270.3c1.7,3.5,2.7,7.4,3,11.5c0.4,4.5,4.1,8,8.6,8c0.2,0,0.5,0,0.7,0c4.8-0.4,8.3-4.6,7.9-9.3
			c-0.5-6.2-2.1-12.1-4.6-17.5c-2-4.3-7.2-6.1-11.5-4.1C140.4,260.8,138.5,266,140.6,270.3z"/>
	</g>
</g>
<g>
	<g>
		<path d="M3,288.5c0.2,3.5,2.5,6.6,5.9,7.7c0.3,0.1,2.7,0.9,6.4,0.9c4.2,0,10-1,16.1-5.2c0.9,10.2,3,19.4,5.1,26.8
			c4.8,16.6,9.2,28.4,13,35.3c0.2,0.4,0.4,0.8,0.7,1.2l-17.9,28.1c-1.4,2.2-1.7,4.9-0.9,7.4l37.9,115.5c1.2,3.5,4.5,5.9,8.2,5.9
			h29.9c2.7,0,5.3-1.3,6.9-3.5c1.6-2.2,2.1-5,1.4-7.6l-28.4-97.7c2.8-2.6,6.9-6.4,11.6-11.2l9,15.7l22.9,97.6
			c0.9,3.9,4.4,6.7,8.4,6.7h33.9c2.7,0,5.2-1.2,6.8-3.3s2.2-4.8,1.6-7.4L155.9,397c6.6-11.8,17.6-36.2,22.6-47.3
			c10.6,0.8,23.5,1.1,39.6-0.1c13.7-1,25.3-2.6,34.9-4.5l16.9,51.1v107.1c0,4.8,3.9,8.6,8.6,8.6h28.2h25.2c4.8,0,8.6-3.9,8.6-8.6
			V337.1c8.6-8.8,37-38.1,50.4-54.3c14.1-17,36.4-75.8,43.7-95.5c24.2,0,51,0.1,51.3,0.1c0,0,0,0,0,0c3.4,0,6.4-2,7.9-5l13.5-29.2
			c1-2.2,1.1-4.7,0.1-7c-0.9-2.2-2.8-4-5-4.8l-35.7-12.9c-2.8-9.1-11.1-27.1-33.5-34.7c-0.9-5.3-2.8-13.3-6.8-21.6
			c-6.6-13.5-20.1-30.6-47.5-35.2c-44-7.5-100.2-35.8-100.8-36.1c-3.6-1.8-8-0.9-10.5,2.2c-2.6,3.1-2.7,7.5-0.3,10.8
			c1.6,2.2,40.6,53.1,87.7,59.5c10.7,1.5,18.2,4.4,23.3,7.7c-5.1-1.6-10.9-2.9-17.6-3.7c-2.4-0.3-4.7,0.5-6.6,2
			c-1.8,1.5-2.9,3.8-3,6.2c-0.1,2.3-0.7,17,3.3,31.3l-35.8,66.2c-15.5-1.7-57.3-4.9-86.1,5.4c-11.9,4.3-31.1,1.5-51.5-1.5
			c-32.2-4.7-68.6-10-99.6,6.8c-9.3,5-17.3,11-24.1,17.8c-5,1.5-16.1,5.6-27,14.1C16.8,236.4,1.1,255.8,3,288.5z M414.8,90.5
			c-2.8-0.2-5.8-0.2-8.9,0c-3.7-13.2-16.4-29.9-48.6-34.3c-16-2.2-31.4-11-44-20.9c19.1,7.5,41.9,15.2,62.7,18.7
			C402.1,58.5,411.5,78.1,414.8,90.5z M354.9,297c19.8-48,43.8-94.3,52-109.7c1,0.1,2.1,0.1,3.2,0.1c0.2,0,0.3,0,0.5,0
			c1.7,0,3.6,0,5.5-0.1c-10,26.6-28.3,72-38.5,84.4C372,278.5,363.5,287.9,354.9,297z M111.3,379c8.2-9.1,17.2-19.8,25.1-31.3
			c4.9-2.1,11-1.5,22.8,0c0.4,0,0.8,0.1,1.1,0.1c-6,13.4-16.2,35.5-21,43.3c-1.2,2-1.6,4.4-1.1,6.6l23.8,97h-16l-21.6-92.2
			c-0.2-0.8-0.5-1.6-0.9-2.3L111.3,379z M51.1,256.6c5.5-20.6,18.5-36.6,38.6-47.5c25.9-14.1,59.3-9.2,88.8-4.9
			c22.5,3.3,43.8,6.4,59.8,0.7c31.2-11.2,83.3-3.9,83.8-3.8c3.6,0.5,7.1-1.3,8.8-4.4l32.9-60.7c1.6,1.5,3.8,2.4,5.9,2.4
			c1.9,0,3.8-0.6,5.4-1.9c3.7-3,4.3-8.4,1.4-12.2c-5.3-6.6-7.3-18.7-7.9-27.9c24.7,6,25.9,22.1,25.9,22.2c0.3,4.8,4.3,8.4,9.1,8.2
			c4.8-0.3,8.4-4.3,8.2-9.1c0-0.5-0.3-4.5-2.5-9.9c37.2-0.3,41.5,27.3,41.6,28.6c0.4,3.2,2.6,5.9,5.6,7l31.1,11.2l-7.2,15.6
			c-13.8-0.1-49.8-0.2-70,0c-0.1,0-0.2,0-0.3,0c-17.4,0-20.4-18.9-20.5-19.8c-0.7-4.7-5.1-8-9.8-7.3c-4.7,0.7-8,5.1-7.3,9.8
			c1.2,8.2,6.3,21.4,17.7,28.9c-12.1,23-46.8,90.6-66.6,149c0,0,0,0.1,0,0.1c0,0.1-0.1,0.3-0.1,0.4c0,0.1-0.1,0.3-0.1,0.4
			c0,0.1,0,0.2-0.1,0.4c0,0.2-0.1,0.3-0.1,0.5c0,0.1,0,0.2,0,0.3c0,0.2,0,0.4,0,0.5c0,0,0,0,0,0.1v161.1h-7.9v-98.9
			c0-0.7-0.1-1.4-0.2-2l-4.1-16.8c-1.1-4.6-5.8-7.5-10.4-6.4c-4.6,1.1-7.5,5.8-6.4,10.4l3.9,15.8v97.9h-10.9v-99.8
			c0-0.9-0.1-1.8-0.4-2.7l-16.8-50.9c5.5-1.6,10-3.1,13.5-4.5l4.4,18c1,4,4.5,6.6,8.4,6.6c0.7,0,1.4-0.1,2.1-0.2
			c4.6-1.1,7.5-5.8,6.4-10.4l-6.9-28.4c-0.7-2.8-2.7-5-5.3-6c-2.7-1-5.7-0.6-8,1c-0.1,0.1-18,11.6-67.5,15.3
			c-25.5,1.9-42.8-0.3-55.4-1.9c-4.9-0.6-9.4-1.2-13.5-1.4c3.2-5.9,5.9-11.8,8.1-17.8c1.6-4.5-0.7-9.4-5.2-11.1
			c-4.5-1.6-9.4,0.7-11.1,5.2c-15.3,42.4-67.5,87.9-68,88.4c-2.5,2.2-3.6,5.7-2.6,8.9l26.7,91.9H83.6L48.9,389.1l19.2-30
			c1.7-2.7,1.8-6.2,0.2-9c-0.7-1.2-1.7-2.2-2.8-2.9c-1.2-1.7-5.4-9-12.5-33.4C48.9,299.7,45.3,278.3,51.1,256.6z M60.8,345.8
			c0.1,0,0.1,0,0.2,0c-0.2,0-0.4,0-0.6,0C60.6,345.8,60.7,345.8,60.8,345.8z M20.3,278.3c1.3-16.8,8.8-28.2,17.2-36
			c-1.2,3.2-2.3,6.4-3.2,9.8c-1,3.6-1.7,7.3-2.3,10.9C28,272.1,23.7,276.3,20.3,278.3z"/>
	</g>
</g>
<g>
	<g>
		<path d="M422.1,131.9c0,5.5,4.5,10,10,10c5.5,0,10-4.5,10-10c0-5.5-4.5-10-10-10S422.1,126.4,422.1,131.9z"/>
	</g>
</g>
</svg>
