<?xml version="1.0" encoding="iso-8859-1"?>
<!-- Generator: Adobe Illustrator 19.0.0, SVG Export Plug-In . SVG Version: 6.00 Build 0)  -->
<svg version="1.1" id="Layer_1" xmlns="http://www.w3.org/2000/svg" xmlns:xlink="http://www.w3.org/1999/xlink" x="0px" y="0px"
	 viewBox="0 0 512 512" style="enable-background:new 0 0 512 512;" xml:space="preserve">
<g>
	<g>
		<path d="M413.709,230.079l-28.473-1.567c-2.326-0.122-4.596,0.789-6.182,2.503l-42.409,45.819
			c1.161-26.671,1.144-71.339-9.224-101.253c-1.417-4.09-5.88-6.256-9.97-4.838c-4.09,1.417-6.256,5.882-4.838,9.97
			c12.603,36.361,8.351,99.975,7.208,114.09c-4.664,4.302-18.234,15.652-41.399,25.898c-0.709-0.123-1.554-0.269-2.555-0.439
			c-9.508-1.647-28.697-4.891-50.395-8.107c-17.59-2.607-33.14-4.646-46.205-6.056c-2.027-0.223-4.012-0.435-5.964-0.626
			c-0.43-0.043-0.863-0.047-1.293-0.02l-12.412,0.84c4.195-10.917,27.271-72.662,27.271-109.849c0-4.328-3.509-7.837-7.837-7.837
			c-4.328,0-7.837,3.509-7.837,7.837c0,33.227-21.324,91.285-25.932,103.441c-3.587,2.507-7.562,5.801-11.685,9.529
			c-0.257,0.202-0.496,0.424-0.725,0.655c-19.597,17.888-42.296,45.274-43.501,46.732c-0.407,0.492-0.752,1.032-1.028,1.609
			l-3.12,6.521c-3.838,8.026-1.099,17.726,6.371,22.564c0.561,0.364,0.917,0.977,0.953,1.641l0.227,4.268H36.951v-8.185
			c0-4.328-3.509-7.837-7.837-7.837s-7.837,3.509-7.837,7.837v12.274c0,6.386,5.199,11.583,11.59,11.583h61.354
			c3.904,0,7.682-1.624,10.367-4.455c2.682-2.829,4.101-6.682,3.894-10.573l-0.306-5.746c-0.301-5.659-3.323-10.878-8.083-13.962
			c-0.878-0.568-1.201-1.706-0.752-2.645l2.697-5.638c1.209-1.446,4.145-4.934,8.129-9.513l2.553,41.736
			c0.003,0.051,0.006,0.101,0.01,0.152c0.481,5.968,5.555,10.645,11.552,10.645h59.454c6.571,0,11.946-5.139,12.238-11.679
			l0.178-3.775c0.279-5.965-2.281-11.838-6.856-15.713l-8.829-7.461c-1.046-0.885-1.526-2.264-1.25-3.6
			c0.038-0.181,0.068-0.364,0.093-0.547l5.847-43.761c9.183,1.081,19.41,2.429,30.584,4.034l-7.304,69.719
			c-0.338,3.259,0.726,6.523,2.919,8.955s5.33,3.826,8.606,3.826h55.129c3.22,0,6.321-1.354,8.508-3.715
			c2.182-2.356,3.292-5.543,3.048-8.726l-0.962-12.943c-0.294-3.833-2.458-7.261-5.782-9.165l-11.357-6.519l7.986-22.347
			l17.631,55.369c1.55,4.812,5.987,8.046,11.042,8.046h50.573c3.239,0,6.353-1.369,8.545-3.756c2.192-2.388,3.29-5.607,3.01-8.875
			l-1.365-15.004c-0.327-3.892-2.581-7.332-6.057-9.215l-16.215-8.703l-8.078-62.509l52.434-56.649l24.794,1.365
			c4.315,0.237,8.016-3.072,8.256-7.394C421.341,234.014,418.031,230.318,413.709,230.079z M179.173,389.873
			c0.882,0.747,1.377,1.876,1.324,3.015l-0.024,0.515h-52.348l-3.255-53.207c5.455-5.853,11.278-11.826,16.795-16.981l27.843-1.884
			l-5.7,42.656c-1.304,6.869,1.186,13.906,6.544,18.433L179.173,389.873z M270.219,387.04l0.473,6.362h-46.191l6.76-64.528
			c12.736,1.945,24.189,3.82,32.746,5.262l-11.376,31.833c-1.88,5.284,0.284,11.142,5.143,13.926L270.219,387.04z M350.555,384.99
			l0.765,8.412h-43.136l-19.199-60.295c14.407-6.758,25.185-13.833,32.48-19.349l6.955,53.821c0.457,3.716,2.71,6.992,6.015,8.758
			L350.555,384.99z"/>
	</g>
</g>
<g>
	<g>
		<circle cx="430.184" cy="188.822" r="7.837"/>
	</g>
</g>
<g>
	<g>
		<path d="M216.214,136.864h-75.085c-29.551,0-57.416,11.298-78.582,31.829c-6.646,4.073-49.574,31.752-61.882,74.013
			c-1.233,4.221-0.741,8.679,1.387,12.552c2.155,3.924,5.711,6.771,9.977,8.007c1.52,0.449,3.1,0.676,4.697,0.676
			c3.126,0,6.131-0.89,8.712-2.476c-4.771,39.636-4.205,78.914-4.159,81.607c0.073,4.282,3.567,7.702,7.834,7.702
			c0.045,0,0.091,0,0.137-0.001c4.327-0.074,7.775-3.641,7.701-7.969c-0.014-0.766-0.824-56.368,7.112-100.625
			c0.153-0.505,0.261-1.03,0.31-1.577c0.008-0.098,0.022-0.198,0.031-0.297c0.323-1.733,0.658-3.449,1.01-5.14
			c0.197-0.58,0.322-1.178,0.379-1.779c2.492-11.54,5.681-21.902,9.756-29.768c0.254-0.469,0.491-0.945,0.752-1.411
			c0.007-0.014,0.015-0.026,0.022-0.04c0.166-0.299,0.334-0.591,0.503-0.883c0.089-0.153,0.169-0.306,0.262-0.459
			c0.023-0.039,0.046-0.077,0.069-0.116c4.263-7.295,9.458-14.004,15.447-19.944c0.081-0.074,0.161-0.149,0.239-0.227
			c18.298-18.057,42.549-28.001,68.285-28.001h75.085c4.328,0,7.837-3.509,7.837-7.837
			C224.051,140.373,220.542,136.864,216.214,136.864z M30.027,229.898c-5.742,6.84-9.915,13.423-12.456,17.882
			c-0.205,0.361-0.572,0.489-0.846,0.489c-0.091,0-0.18-0.011-0.295-0.046c-0.373-0.109-0.561-0.366-0.639-0.509
			c-0.169-0.307-0.102-0.537-0.078-0.619c3.599-12.356,10.495-23.43,18.233-32.811C32.269,219.371,30.963,224.582,30.027,229.898z"
			/>
	</g>
</g>
<g>
	<g>
		<path d="M512,133.785c0.004-6.08-4.152-11.192-10.108-12.43c-5.966-1.241-11.819,1.794-14.242,7.377l-19.513,44.959l-9.714-11.223
			c-0.884-1.018-1.81-1.996-2.763-2.938c2.249-12.448,4.742-29.766,6.638-43.7c0.735-5.393-2.339-10.426-7.471-12.24
			c-5.14-1.818-10.699,0.17-13.52,4.834l-21.209,35.06c-4.032-0.87-9.744-2.098-16.448-3.524c0.615-7.648,0.483-17.074-2.009-26.209
			c-1.251-4.584-4.927-8.013-9.595-8.953c-4.684-0.941-9.422,0.809-12.361,4.57c-4.766,6.1-10.438,14.071-14.98,22.522
			c-30.95-6.181-34.805-6.184-36.498-6.184c-10.342,0-20.183,4.027-27.532,11.159h-39.968c-4.328,0-7.837,3.508-7.837,7.837
			c0,4.329,3.509,7.837,7.837,7.837h43.353c2.297,0,4.478-1.007,5.966-2.756c4.547-5.341,11.173-8.403,18.179-8.403
			c0.957,0.004,5.891,0.432,30.201,5.238c-0.038,0.125-0.084,0.252-0.12,0.377c-1.785,6.079,1.241,12.553,7.039,15.059
			c3.029,1.309,7.896,2.83,14.164,2.83c4.875,0,10.6-0.921,16.96-3.579c2.212-0.925,3.879-2.81,4.525-5.118
			c0.023-0.082,0.092-0.334,0.193-0.73c4.98,1.061,9.374,2.002,12.903,2.763c0.201,1.545,0.717,3.058,1.562,4.441
			c2.961,4.849,10.174,13.322,25.209,15.592c0.565,0.086,1.127,0.126,1.684,0.126c2.538,0,4.956-0.863,6.909-2.345l11.779,13.609
			l-0.775,1.786c0,0.001,0,0.001,0,0.001c-1.892,4.365-1.214,9.356,1.771,13.025c4.286,5.271,13.83,13.892,30.998,15.334
			l-0.538,3.426c-7.633,5.462-21.108,8.723-26.773,9.723l-10.898-0.59c-4.342-0.227-8.015,3.08-8.25,7.401
			c-0.234,4.322,3.08,8.014,7.401,8.249l11.766,0.636c0.141,0.007,0.283,0.011,0.424,0.011c0.41,0,0.819-0.032,1.224-0.096
			c22.624-3.578,34.7-12.887,36.009-13.942c2.333-1.885,3.878-4.545,4.353-7.513l2.867-18.25c0.256-1.669,0.147-3.368-0.287-4.978
			C511.702,186.834,511.984,156.928,512,133.785z M386.732,148.138c-5.31,1.521-9.54,1.186-12.475,0.444
			c3.062-8.373,8.777-17.303,13.572-23.962C388.993,133.976,387.698,143.152,386.732,148.138z M439.49,160.716
			c-0.024,0.109-0.046,0.217-0.065,0.327c-0.055,0.281-0.111,0.563-0.164,0.833c-4.331-1.321-7.064-3.465-8.737-5.349l0.006-0.01
			c0.004-0.005,0.007-0.012,0.01-0.018l13.269-21.936C442.165,145.626,440.699,154.509,439.49,160.716z M494.764,204.199
			c-10.115-0.797-16.054-5.017-19.192-8.277l2.254-5.195c0.025-0.056,0.049-0.112,0.073-0.168l18.381-42.348
			C496.126,173.897,495.602,193.332,494.764,204.199z"/>
	</g>
</g>
<g>
</g>
<g>
</g>
<g>
</g>
<g>
</g>
<g>
</g>
<g>
</g>
<g>
</g>
<g>
</g>
<g>
</g>
<g>
</g>
<g>
</g>
<g>
</g>
<g>
</g>
<g>
</g>
<g>
</g>
</svg>
