<svg id="Layer_1" data-name="Layer 1" xmlns="http://www.w3.org/2000/svg" viewBox="0 0 512 512">
  <title>Artboard 1</title>
  <path d="M214,291.7,86.9,406.3a17.08,17.08,0,0,0-1.5,24.1c.2.3.5.5.7.8l27.2,27.2a17,17,0,0,0,12.1,5h0a17,17,0,0,0,12.1-5l.7-.7L249.7,334M384.8,458.2l.2.2a17,17,0,0,0,12.1,5h0a17,17,0,0,0,12.1-5l27.2-27.2c.2-.2.3-.4.5-.5a16.71,16.71,0,0,0,4.5-12.2,17.18,17.18,0,0,0-5.4-11.9L297.4,277.9l6.5-7.4c11.7-13.3,14.6-16.5,17.8-20.1,3-3.3,6.2-7,17-19.2l5.7-6.5,7.3,4.6a61.33,61.33,0,0,0,79.1-11.8,1028.64,1028.64,0,0,0,64.1-82.9l.1-.2c2.1-2.9-.6-5.7-1.5-6.5-.6-.5-3.6-3.1-6-1.1l-79.6,69c-3.9,3.4-10.6,4.1-16.2-1.1-5.2-4.8-6.1-11.9-2.2-16.8l67-82.3c2-2.4-.5-5.3-1.3-6.1-.6-.6-3.6-3.4-6.1-1.4l-82.4,67c-4.8,3.9-11.7,3.2-16.6-1.9s-5.4-11.8-1.4-16.5l69-79.7c2-2.3-.3-5.2-1-6s-3.6-3.6-6.5-1.5l-.1.1c-6.6,4.7-65.2,46.3-82.6,63.6l-.6.5a61.2,61.2,0,0,0-11.7,79l4.6,7.3-6.5,5.7c-14.3,12.7-17.9,15.8-22.4,19.8-3.6,3.2-7.8,7-18.7,16.6l-6.8,6.1L55.5,53.4a17.32,17.32,0,0,0-11.6-4.6h0A17.16,17.16,0,0,0,26.8,65.9c0,57.6,12.9,101.7,38.3,131.1,28.2,32.5,73.6,49,135.1,49h4.7l3,3.6c2.8,3.4,32.6,38.4,67,79C321.9,384,375,446.6,384.8,458.2Z" fill="none" stroke="#fff" stroke-miterlimit="10" stroke-width="15"/>
</svg>