<?xml version="1.0" encoding="utf-8"?>
<!-- Generator: Adobe Illustrator 23.0.1, SVG Export Plug-In . SVG Version: 6.00 Build 0)  -->
<svg version="1.1" id="Lag_1" xmlns="http://www.w3.org/2000/svg" xmlns:xlink="http://www.w3.org/1999/xlink" x="0px" y="0px"
	 viewBox="0 0 404.02 360.89" style="enable-background:new 0 0 404.02 360.89;" xml:space="preserve">
<path d="M94.24,360.89c-7.89,0-15.3-3.07-20.89-8.64l-21.56-21.56c-0.44-0.44-0.86-0.89-1.27-1.35
	c-10.78-12.21-9.62-30.91,2.58-41.69l99.07-87.8l47.96,56.52l-83.75,94.58c-0.39,0.44-0.78,0.85-1.18,1.25
	c-5.58,5.59-13,8.68-20.91,8.7C94.27,360.89,94.26,360.89,94.24,360.89z M150.54,222.67L63.7,299.64
	c-5.6,4.95-6.13,13.52-1.19,19.11c0.19,0.21,0.38,0.42,0.59,0.62l21.56,21.56c2.56,2.55,5.96,3.96,9.59,3.96c0.01,0,0.01,0,0.02,0
	c3.63,0,7.04-1.42,9.61-4c0.19-0.19,0.36-0.38,0.54-0.57l74.54-84.18L150.54,222.67z M309.72,360.88c-0.01,0-0.02,0-0.04,0
	c-7.91-0.01-15.34-3.1-20.93-8.7c-0.19-0.19-0.38-0.39-0.57-0.58l-0.3-0.33c-7.37-8.71-49.8-58.73-87.23-102.86
	c-23.25-27.41-43.8-51.63-50.81-59.91c-51.77-0.7-90.63-15.63-115.55-44.39C11.22,117.47,0,80.03,0,29.65
	C0.01,13.34,13.28,0.08,29.58,0.08c0,0,0.01,0,0.01,0c7.47,0,14.6,2.8,20.08,7.87l0.01,0.01L205.5,152.64
	c4.8-4.25,7.24-6.42,9.41-8.34c3-2.67,5.47-4.86,12.94-11.46c-12.81-25.89-6.68-57.97,15.55-77.19
	C257.98,41.23,301.9,9.91,310.66,3.7c8.21-5.97,19.01-4.62,26.29,3.31c7.21,7.84,7.66,18.57,1.11,26.09L326.6,46.35l14.14-11.49
	c7.67-6.25,18.71-5.34,26.25,2.18c7.64,7.62,8.54,18.41,2.2,26.25l-11.33,13.94l13.1-11.34c7.49-6.51,18.21-6.04,26.05,1.15
	c7.92,7.27,9.3,18.07,3.37,26.3c-16.05,23.1-33.47,45.65-51.78,67c-19.19,22.43-51.43,28.67-77.45,15.84
	c-5.3,5.99-7.37,8.32-9.27,10.46c-1.99,2.23-3.79,4.26-8.9,10.04l98.49,91.42c5.78,5.36,9.13,12.66,9.43,20.54
	c0.3,7.88-2.49,15.41-7.86,21.19c-0.27,0.29-0.55,0.58-0.83,0.85l-21.54,21.54C325.05,357.81,317.62,360.88,309.72,360.88z
	 M299.95,340.75c0.04,0.05,0.09,0.09,0.13,0.14c2.57,2.57,5.98,3.99,9.62,4c0.01,0,0.01,0,0.02,0c3.63,0,7.05-1.41,9.62-3.98
	l21.55-21.55c0.14-0.14,0.27-0.28,0.4-0.41c2.45-2.65,3.73-6.1,3.6-9.71c-0.14-3.61-1.67-6.95-4.32-9.41L230.64,197.78l5.17-5.85
	c9.31-10.54,11.55-13.07,14.1-15.93c2.34-2.63,4.94-5.55,13.52-15.26l4.52-5.12l5.76,3.67c20.19,12.85,47.16,8.83,62.72-9.36
	c17.98-20.97,35.08-43.1,50.84-65.78l0.1-0.15c1.66-2.27-0.49-4.54-1.19-5.18c-0.46-0.43-2.88-2.47-4.75-0.85l-63.17,54.69
	c-3.09,2.71-8.44,3.27-12.86-0.86c-4.12-3.84-4.84-9.44-1.73-13.29l53.1-65.31c1.57-1.94-0.42-4.19-1.07-4.84
	c-0.47-0.46-2.89-2.7-4.85-1.1l-65.29,53.08c-3.84,3.13-9.25,2.53-13.15-1.48c-3.87-3.98-4.32-9.35-1.11-13.06l54.7-63.19
	c1.62-1.86-0.21-4.12-0.81-4.78c-0.64-0.69-2.89-2.82-5.12-1.19l-0.1,0.08c-5.27,3.74-51.72,36.75-65.49,50.47l-0.44,0.41
	c-18.16,15.55-22.16,42.48-9.3,62.64l3.68,5.77l-5.12,4.53c-11.36,10.05-14.18,12.55-17.75,15.72c-2.87,2.54-6.22,5.52-14.85,13.17
	l-5.43,4.81L38.8,19.69c-2.52-2.33-5.79-3.61-9.22-3.61c0,0,0,0-0.01,0C22.1,16.08,16,22.17,16,29.65
	c0,45.72,10.23,80.7,30.39,103.98c22.34,25.79,58.41,38.87,107.19,38.89l3.71,0l2.4,2.84c2.25,2.67,25.85,30.48,53.17,62.69
	C250.04,281.88,292.15,331.52,299.95,340.75z M275.46,87.93c-0.01,0.01-0.02,0.01-0.03,0.02L275.46,87.93z"/>
</svg>
