<?xml version="1.0" encoding="utf-8"?>
<!-- Generator: Adobe Illustrator 23.0.0, SVG Export Plug-In . SVG Version: 6.00 Build 0)  -->
<svg version="1.1" id="Layer_1" xmlns="http://www.w3.org/2000/svg" xmlns:xlink="http://www.w3.org/1999/xlink" x="0px" y="0px"
	 viewBox="0 0 512 512" style="enable-background:new 0 0 512 512;" xml:space="preserve">
<g>
	<g>
		<path d="M344.1,86.8c0.4,14.4,15.3,27.7,17,29.1c1.5,1.3,3.5,2,5.5,2c0.3,0,0.5,0,0.8,0c2.3-0.2,4.4-1.3,5.8-3.1L396,86.6
			c2.9-3.6,2.4-8.9-1.2-11.8c-0.6-0.5-6.3-5.1-14-8.1c-11.8-4.6-22.6-3-30.3,4.5C346.1,75.5,343.9,80.9,344.1,86.8z M360.9,86.3
			c0-1,0.2-1.9,1.3-3c3.9-3.8,9.9-2.2,14.6,0.1l-10.8,13.4C363.3,93.2,361,89.3,360.9,86.3z"/>
	</g>
</g>
<g>
	<g>
		<path d="M431.1,118.1c0,5.4,4.4,9.8,9.8,9.8c5.4,0,9.8-4.4,9.8-9.8c0-5.4-4.4-9.8-9.8-9.8S431.1,112.7,431.1,118.1z"/>
	</g>
</g>
<g>
	<g>
		<path d="M-0.5,358.9c0,5.5,1.4,17.4,3.7,27.6c2.7,12,7.2,25.8,18.3,25.8c8.2,0,14.5-7.7,20.3-24.9c3.6-10.5,6.2-22.7,6.2-28.5
			c0-8.7-4.6-16.3-11.5-20.6c1-3,2.2-6.1,3.4-9.3c4.9-13,10.4-27.7,11.7-47.3c1.8-27.3,12.4-50.2,31.8-68.1
			c-3.5,8.1-6.1,17.1-7.7,26.9c-4.2,26.8-0.2,52.8,2.6,66c1,4.8,1.4,9.3,1.3,14c-0.1,4.7,3.6,8.5,8.2,8.7c0.1,0,0.1,0,0.2,0
			c4.6,0,8.3-3.6,8.4-8.2c0.2-6-0.4-11.9-1.7-17.9c-4.5-21.1-15.2-92,35.8-116c3.4-1.6,6.7-2.9,9.9-4c0.1,0,0.2-0.1,0.3-0.1
			c19.4-6.6,35-4.7,54-2.3c22.4,2.8,47.5,5.9,84.1-4.3c0,0.6-0.1,1.1-0.2,1.7c-1.8,24.8,3.4,44.3,3.6,45.1c0.9,3.3,3.8,5.8,7.2,6.2
			c3.4,0.4,6.7-1.3,8.4-4.3c0.7-1.3,1.7-2.6,2.8-3.8c0.4,4,1.2,8.2,2.4,12.5c1,3.8,4.4,6.2,8.1,6.2c0.7,0,1.5-0.1,2.2-0.3
			c4.5-1.2,7.1-5.9,5.9-10.4c-2.6-9.4-2.8-17.1-0.6-23c1.2-3.3,0.3-6.9-2.3-9.2c-2.6-2.3-6.3-2.8-9.4-1.3c-0.9,0.5-5.8,3-11.2,7.1
			c-0.7-6.7-1.1-15-0.4-24c2.2-28.6,13.8-50.9,34.3-66.2c2.9-2.2,4.1-6,3-9.4c-1.1-3.5-4.4-5.8-8-5.8h-10.2
			c5.2-13.9,19.1-38.4,54.1-43.6c30.6-4.6,55.8,0,70.8,13c4.6,4,8.3,8.8,10.9,14.3c-0.6-0.5-0.9-0.9-1.1-1c-0.7-0.7-1.6-1.2-2.5-1.6
			c-9.9-4.1-21-1.9-31.3,6.1c-14.9,11.6-24.1,31.9-21.7,48.2c1.6,11.4,8.7,20.1,19.8,24.5c18.6,7.3,32.4,17.4,40.8,24.7L440,186
			c-2.4,0.7-4.4,2.4-5.4,4.7c-1,2.3-1,4.9,0.1,7.2c0,0.1,3.7,7.6,6.2,19.9c0.8,4,4.3,6.7,8.3,6.7c0.6,0,1.2-0.1,1.7-0.2
			c4.6-1,7.5-5.4,6.5-10c-1.2-5.8-2.6-10.7-3.9-14.6l19.6-5.5c0.2,0,0.3-0.1,0.5-0.2c0.1,0,0.2-0.1,0.2-0.1c0.3-0.1,0.6-0.3,0.9-0.4
			c0,0,0,0,0,0c9.5-5,17.9-14.1,24.2-22.3c0.1-0.1,0.2-0.3,0.3-0.4c6.8-9,11-16.9,11.3-17.6c1.4-2.7,1.3-5.9-0.4-8.4
			c-2.7-4.2-6.6-9.2-11.3-14.6c-0.1-0.2-0.3-0.3-0.4-0.5c-7.9-9.1-17.6-19.1-26.3-27.8c-0.7-19.8-8.1-36.3-21.5-47.9
			c-18.8-16.3-48.8-22.3-84.3-17c-31.9,4.8-49.5,22.8-58.7,37.1c-9.9,15.4-12.3,29.7-12.4,30.3c-0.4,2.4,0.3,4.9,1.9,6.8
			c1.6,1.9,4,3,6.4,3c-10.4,12.2-17.7,26.9-21.7,43.5c-37.4,12-61.6,9-84.9,6c-19.6-2.5-38.3-4.8-61.3,3
			c-3.7,0.9-25.3,6.4-47.7,21.6c-32.3,22-50.7,53.9-53.2,92.2c-1.1,17.1-6,30-10.7,42.4c-1.5,4.1-3,8-4.3,12
			C8.3,336.8-0.5,346.8-0.5,358.9z M481,135.4c-2,2.9-3.7,6.7-4.3,11.3c-0.8,6.4,0.9,12.7,4.9,19c-3,3.5-6.2,6.7-9.5,9.4
			c-8.2-8.1-25.8-23.2-52.2-33.6c-5.5-2.2-8.5-5.8-9.3-11.2c-1.5-10.2,5.4-24.7,15.4-32.4c2.8-2.2,8.2-5.5,13.3-4.2
			C444.5,98.6,465.4,118.2,481,135.4z M16.4,358.9c0-4.1,3.3-7.4,7.4-7.4s7.4,3.3,7.4,7.4c0,5.8-4.8,23.5-9,32.4
			C19.4,383.5,16.4,368.9,16.4,358.9z"/>
	</g>
</g>
<g>
	<g>
		<path d="M81.2,448.2c8.7,15.5,18.2,25.6,18.6,26.1c1.6,1.7,3.8,2.7,6.2,2.7h56.1c2.3,0,4.5-0.9,6.1-2.6s2.4-3.9,2.4-6.2
			c-0.9-23.1-22.7-34-37.1-41.2c-4.5-2.3-11.4-5.7-12.6-7.5c-4.5-9.1-0.7-21.8,10.2-35l11.1,24.8c0.3,0.7,0.7,1.3,1.2,1.9l50.8,62.7
			c1.6,2,4,3.1,6.6,3.1h55.4c2.8,0,5.3-1.3,6.9-3.6c1.6-2.3,2-5.1,1-7.7c-7-19.4-37.5-32.2-47-35.9l-17.5-23
			c2.9-3.3,8.3-8.7,17.6-16.4c15.4-12.8,15-35.3,12.7-49.9c8.5,1.9,17.7,3.8,27.7,5.5c10.3,1.8,20.5,3.3,29.8,4.6v32.7
			c0,0.6,0.1,1.3,0.2,1.9l19.4,85.3c0.9,3.8,4.3,6.6,8.2,6.6h35.2h64.7c2.4,0,4.7-1,6.4-2.9c1.6-1.8,2.3-4.3,2-6.7
			c-1.7-13-9.2-24.1-21.5-32.1c-4.1-2.6-8.1-4.5-11.3-5.8l1.2-98.4c23.5-12.1,36.6-32,43.3-45.5l3,3.7c1.9,2.4,5,3.5,8,3
			c3-0.5,5.5-2.6,6.5-5.5c5.2-14.4,7.8-29.6,7.8-44.9c0-4.7-3.8-8.4-8.5-8.4c0,0,0,0,0,0c-4.7,0-8.4,3.8-8.4,8.5
			c0,8.1-0.8,16.2-2.5,24.1l-1.8-2.2c-2-2.5-5.2-3.6-8.3-2.9c-3.1,0.6-5.6,3-6.4,6c-0.1,0.3-9.4,32-38.4,48.1
			c-8.5-12.2-18.4-30.4-17.4-40.4c0.3-2.8-0.9-5.6-3.2-7.4c-2.2-1.8-5.2-2.3-7.9-1.4c-4.1,1.4-9.9,4.4-14.4,9.1
			c-4.6-6.5-10.4-15.3-15.3-25c-2.1-4.2-7.2-5.8-11.4-3.7c-4.2,2.1-5.8,7.2-3.7,11.4c10.7,21,24.6,37.8,25.2,38.6
			c2.2,2.7,5.8,3.7,9.1,2.7c3.3-1,5.6-4,5.9-7.4c0.1-1,0.4-1.9,0.9-2.7c4.7,16.4,16.5,33.4,21.2,39.9l-1.3,106.9
			c0,3.9,2.6,7.4,6.4,8.3c0.2,0,16,4.3,23.3,16.4h-45.6l-19.8-142.5c-0.6-4.6-4.9-7.9-9.5-7.2c-4.6,0.6-7.9,4.9-7.2,9.5l2.5,17.8
			c-8-0.7-16.7-1.6-25.7-2.8c-0.7-0.2-1.4-0.3-2.2-0.3c0,0-0.1,0-0.1,0c-28-3.6-58.6-9-82.1-15.9c-0.4-0.1-0.7-0.2-1.1-0.3
			c-0.1,0-0.2-0.1-0.3-0.1c-23.7-7.2-32.5-13.9-35.8-17.8c-0.2-0.3-0.4-0.5-0.6-0.8c-1.9-2.6-5.2-3.9-8.4-3.3
			c-3.2,0.6-5.8,3-6.6,6.2c-0.1,0.4-10.3,39-33,60.6c-32.9,31.4-26.3,55.1-22,63.9c3.3,6.5,11.1,10.4,20.1,15
			c11.3,5.7,20.6,10.8,25.1,18h-41.1c-7.5-9-30.2-39.3-26-70.5c2.1-15.4,4.9-27.1,7.4-37.4l0.1-0.4c1.1-4.5-1.7-9.1-6.2-10.2
			c-4.5-1.1-9.1,1.7-10.2,6.2l-0.1,0.4c-2.5,10.2-5.6,22.8-7.8,39.1C64.5,406.1,69.3,427.2,81.2,448.2z M304.1,382.3L304.1,382.3
			v-29.7c9.5,1.1,17.1,1.8,21.8,2.2L340.6,460h-18.8L304.1,382.3z M143.4,371.1c0.4-0.4,0.8-0.9,1.2-1.3c0.4-0.5,0.8-0.9,1.2-1.4
			c0.6-0.7,1.1-1.4,1.7-2c0.4-0.4,0.7-0.9,1.1-1.3c0.6-0.8,1.2-1.5,1.8-2.3c0.3-0.4,0.6-0.8,0.9-1.1c0.8-1.2,1.7-2.3,2.5-3.5
			c0.1-0.1,0.1-0.2,0.2-0.2c0.8-1.1,1.5-2.2,2.2-3.4c0.3-0.4,0.5-0.8,0.8-1.3c0.5-0.8,1-1.6,1.4-2.3c0.3-0.5,0.6-1,0.9-1.5
			c0.4-0.7,0.8-1.4,1.2-2.1c0.3-0.5,0.6-1,0.8-1.6c0.4-0.7,0.7-1.4,1.1-2c0.3-0.5,0.5-1.1,0.8-1.6c0.3-0.7,0.7-1.3,1-2
			c0.3-0.5,0.5-1,0.8-1.6c0.3-0.6,0.6-1.3,0.9-1.9c0.2-0.5,0.5-1,0.7-1.5c0.3-0.6,0.6-1.3,0.9-1.9c0.2-0.5,0.4-1,0.7-1.5
			c0.3-0.6,0.5-1.2,0.8-1.8c0.2-0.5,0.4-0.9,0.6-1.4c0.3-0.6,0.5-1.2,0.7-1.8c0.2-0.4,0.4-0.9,0.5-1.3c0.2-0.6,0.5-1.2,0.7-1.8
			c0.1-0.4,0.3-0.7,0.4-1.1c0.3-0.8,0.6-1.5,0.8-2.3c0.1-0.1,0.1-0.3,0.2-0.4c1.4,0.9,2.9,1.9,4.5,2.8c0.1,0.1,0.2,0.1,0.4,0.2
			c0.4,0.2,0.8,0.5,1.3,0.7c0.2,0.1,0.4,0.2,0.7,0.4c0.4,0.2,0.7,0.4,1.1,0.6c0.4,0.2,0.7,0.4,1.1,0.5c0.3,0.1,0.5,0.3,0.8,0.4
			c0.6,0.3,1.3,0.6,1.9,0.9c0,0,0,0,0,0c7.5,3.5,16.5,6.7,27.1,9.7c2.8,11.4,5.3,32.6-5.4,41.5c-19.4,16.1-24.1,23.6-25,25.6
			c-1.4,2.9-1.1,6.3,0.8,8.9l22.9,30.1c1,1.3,2.4,2.3,3.9,2.9c0.1,0,9,3.2,18.6,8.4c4.1,2.3,7.7,4.5,10.7,6.8h-33.5l-47.6-58.7
			L143.4,371.1z"/>
	</g>
</g>
</svg>
