<?xml version="1.0" encoding="iso-8859-1"?>
<!-- Generator: Adobe Illustrator 19.0.0, SVG Export Plug-In . SVG Version: 6.00 Build 0)  -->
<svg version="1.1" id="Layer_1" xmlns="http://www.w3.org/2000/svg" xmlns:xlink="http://www.w3.org/1999/xlink" x="0px" y="0px"
	 viewBox="0 0 511.999 511.999" style="enable-background:new 0 0 511.999 511.999;" xml:space="preserve">
<g>
	<g>
		<path d="M214.541,207.281c-0.885-4.237-5.037-6.952-9.273-6.069l-57.382,11.983c-4.445,0.582-8.755,1.555-12.913,2.856
			l-46.399-4.836c-20.576-2.149-40.751,3.84-56.815,16.862c-16.065,13.022-26.094,31.518-28.236,52.081l-3.278,31.38
			C0.083,313.033,0,314.58,0,316.132c0,22.289,16.749,40.837,38.959,43.144c0.276,0.028,0.549,0.043,0.819,0.043
			c3.962,0,7.363-2.996,7.784-7.023l5.633-53.921c2.032-19.549,16.133-34.979,34.275-39.462c-4.017,9.307-6.239,19.528-6.239,30.2
			c0,4.328,3.509,7.837,7.837,7.837c4.328,0,7.837-3.509,7.837-7.837c0-30.595,22.901-56.566,53.269-60.41
			c0.207-0.026,0.414-0.061,0.618-0.103l57.679-12.046C212.708,215.67,215.424,211.518,214.541,207.281z M97.578,241.934
			c-30.793,0.391-56.738,23.722-59.971,54.815l-4.703,45.024c-10.21-4.156-17.23-14.115-17.23-25.641
			c0-0.992,0.051-1.97,0.156-2.937l3.281-31.412c1.708-16.398,9.706-31.147,22.518-41.532c12.815-10.385,28.909-15.161,45.32-13.449
			l23.221,2.42C105.486,232.958,101.265,237.233,97.578,241.934z"/>
	</g>
</g>
<g>
	<g>
		<circle cx="429.056" cy="122.022" r="7.837"/>
	</g>
</g>
<g>
	<g>
		<path d="M500.776,113.417l-35.259-5.734c-0.416-0.068-0.812-0.1-1.233-0.1c-2.19-0.218-7.41-6.325-9.639-8.932
			c-1.525-1.784-2.965-3.469-4.406-4.918l-1.781-1.793l9.057-16.339c1.985-3.575,2.378-7.849,1.077-11.728
			c-1.303-3.885-4.197-7.064-7.943-8.721c-7.89-3.492-16.673-3.814-24.638-1.333c-0.329-3.074-1.622-6.003-3.737-8.315
			c-2.763-3.02-6.694-4.752-10.788-4.752c-14.398,0-27.538,9.026-32.699,22.46l-13.715,35.704
			c-20.061,26.551-53.385,71.55-53.722,72.007c-0.188,0.253-0.359,0.517-0.515,0.791c-3.053,5.372-8.282,9.183-14.338,10.453
			l-47.898,10c-4.237,0.885-6.954,5.036-6.07,9.273c0.772,3.697,4.03,6.237,7.663,6.237c0.531,0,1.07-0.054,1.61-0.167
			l47.907-10.002c10.294-2.16,19.198-8.568,24.503-17.615c2.974-4.015,30.137-40.675,49.26-66.079h13.571
			c14.678,0,27.355-8.377,33.358-20.833c4.765,0.324,9.349,2.375,12.771,5.811l5.948,5.99c1.028,1.034,2.283,2.503,3.611,4.056
			c5.344,6.252,11.96,13.99,20.789,14.403l32.807,5.332v0.147c0,13.715-9.056,33.353-15.381,33.353
			c-0.826,0-1.648,0.131-2.434,0.388l-30.992,10.125c-3.035,0.992-5.166,3.726-5.384,6.912c-0.044,0.63-4.531,63.465-21.567,101.073
			c-8.449,18.657-10.372,45.23-5.714,78.983c0.542,3.925,3.901,6.767,7.753,6.767c0.356,0,0.718-0.024,1.081-0.074
			c4.287-0.591,7.284-4.547,6.691-8.835c-4.188-30.343-2.644-54.678,4.464-70.374c15.381-33.954,21.01-84.687,22.494-101.171
			l25.019-8.174c8.778-0.675,16.721-7.644,22.494-19.796c4.342-9.142,7.147-20.594,7.147-29.177v-3.312
			C512,119.048,507.034,113.825,500.776,113.417z M408.337,78.681c-0.122,1.365-0.371,2.686-0.728,3.958
			c-0.024,0.074-0.047,0.148-0.069,0.224c-2.623,8.945-10.803,15.274-20.498,15.274h-4.881l11.258-29.307
			c2.712-7.058,9.414-11.914,16.909-12.372L408.337,78.681z M436.224,81.678c-3.736-2.055-7.827-3.444-12.055-4.065l0.517-5.773
			c5.242-4.01,12.304-5.113,18.542-2.796L436.224,81.678z"/>
	</g>
</g>
<g>
	<g>
		<path d="M463.786,430.658l-19.115-11.255c-0.599-1.815-3.285-10.114-6.3-21.921c-1.071-4.194-5.337-6.726-9.533-5.654
			c-4.193,1.071-6.725,5.338-5.654,9.533c1.74,6.811,3.359,12.459,4.579,16.507l-22.338,6.453l-18.775-78.275
			c-1.243-5.264-5.896-9.085-11.314-9.293c-0.282-0.01-0.565-0.005-0.847,0.014c-0.532,0.037-53.502,3.552-94.695-11.031
			c-37.849-13.4-89.48,1.755-97.701,4.334c-2.587,0.264-5.011,1.353-6.966,3.159l-55.106,51.136H85.875
			c-6.67,0-12.095,5.424-12.095,12.092v28.423l-10.907,1.384v-55.646l27.065-12.68c4.233-1.981,6.967-6.278,6.967-10.946v-11.582
			c0-4.328-3.509-7.837-7.837-7.837s-7.837,3.509-7.837,7.837v9.299l-27.079,12.686c-4.224,1.979-6.955,6.275-6.955,10.945v66.818
			v23.997c0,6.668,5.421,12.092,12.084,12.092h0.01h34.961c0.468,0,0.931-0.026,1.389-0.078c3.203-0.364,6.111-1.98,8.128-4.56
			c2.308-2.952,3.114-6.733,2.207-10.388l-3.616-14.447c-0.655-2.71-2.257-5.127-4.493-6.795l-8.416-6.308v-28.632h31.967
			c3.046,0,5.961-1.139,8.232-3.229l17.547-16.283l6.525,22.935c0.277,0.949,0.649,1.836,1.1,2.626l19.768,34.715
			c0.017,0.029,0.028,0.062,0.045,0.091l13.801,24.236c0.461,0.813,1.024,1.543,1.645,2.214c0.095,0.102,0.178,0.217,0.276,0.317
			c0.169,0.171,0.359,0.319,0.538,0.479c0.218,0.195,0.427,0.401,0.658,0.58c0.07,0.054,0.148,0.096,0.22,0.149
			c1.622,1.199,3.527,1.997,5.562,2.271c0.368,0.05,0.744,0.06,1.118,0.075c0.165,0.007,0.326,0.033,0.492,0.033h0.001h35.681h0.001
			c2.175,0,4.249-0.586,6.064-1.642c0.143-0.083,0.293-0.154,0.432-0.242c0.018-0.011,0.033-0.025,0.05-0.037
			c1.125-0.727,2.139-1.645,2.991-2.738c2.305-2.959,3.101-6.743,2.188-10.365l-3.521-14.093l-0.55-2.204
			c-0.854-3.327-3.079-6.145-6.106-7.731l-16.759-8.781l-11.653-35.39l10.358-50.008c17.521-2.634,39.097-3.647,56.437,2.492
			c13.808,4.888,28.609,7.893,42.516,9.718l-10.428,107.77c-0.327,3.381,0.798,6.765,3.086,9.284
			c1.145,1.261,2.535,2.253,4.064,2.93c0.092,0.041,0.189,0.07,0.283,0.108c0.293,0.121,0.585,0.241,0.886,0.339
			c0.304,0.098,0.617,0.174,0.928,0.249c0.095,0.023,0.188,0.055,0.284,0.076c0.338,0.072,0.681,0.12,1.026,0.163
			c0.073,0.009,0.145,0.027,0.219,0.034c0.419,0.045,0.842,0.067,1.268,0.067h44.301h0.003c1.079,0,2.131-0.146,3.135-0.42
			c4.316-1.175,7.747-4.716,8.641-9.267l2.36-11.951l0.606-3.066c0.001-0.004,0.001-0.009,0.002-0.014l0.004-0.022
			c0.013-0.063,0.019-0.126,0.03-0.189c0.041-0.224,0.081-0.447,0.109-0.672c0.001-0.006,0.001-0.011,0.002-0.018
			c0.534-4.303-1.319-8.613-4.858-11.169l-10.91-7.936l13.288-60.154l22.923,95.569c1.208,5.137,5.535,8.822,10.714,9.262
			c0.345,0.029,0.695,0.044,1.047,0.044h44.802c6.423,0,11.693-5.031,12.073-11.36l2.658-17.66c0.059-0.387,0.087-0.776,0.087-1.166
			C469.713,436.86,467.475,432.893,463.786,430.658z M89.661,455.574H62.873v-13.51l15.665-1.987
			c0.026,0.021,0.053,0.041,0.081,0.061l8.836,6.623L89.661,455.574z M185.153,427.675l-16.477-28.935l-8.585-30.176l24.788-23.002
			c0.365-0.065,0.725-0.156,1.078-0.272c0.178-0.059,6.226-2.015,15.51-4.122l-9.231,44.566c-0.452,2.109-0.326,4.303,0.344,6.285
			l9.976,30.297L185.153,427.675z M210.324,436.324c0.168,0.1,0.341,0.198,0.515,0.291l16.64,8.723l0.425,1.701l2.131,8.536H201.04
			v0l-7.942-13.946L210.324,436.324z M361.468,448.038l-1.489,7.536h-37.343l1.445-14.954l26.015-3.524
			c0.278,0.245,0.567,0.478,0.869,0.697l10.953,7.967L361.468,448.038z M347.14,421.681l-21.51,2.914l7.039-72.741
			c11.705,0.915,22.056,1.077,29.675,0.998L347.14,421.681z M451.767,455.574h-38.845l-3.837-15.996l26.143-7.552
			c0.067,0.043,0.134,0.084,0.202,0.125l18.244,10.743L451.767,455.574z"/>
	</g>
</g>
<g>
</g>
<g>
</g>
<g>
</g>
<g>
</g>
<g>
</g>
<g>
</g>
<g>
</g>
<g>
</g>
<g>
</g>
<g>
</g>
<g>
</g>
<g>
</g>
<g>
</g>
<g>
</g>
<g>
</g>
</svg>
