<?xml version="1.0" encoding="iso-8859-1"?>
<!-- Generator: Adobe Illustrator 19.0.0, SVG Export Plug-In . SVG Version: 6.00 Build 0)  -->
<svg version="1.1" id="Layer_1" xmlns="http://www.w3.org/2000/svg" xmlns:xlink="http://www.w3.org/1999/xlink" x="0px" y="0px"
	 viewBox="0 0 512.001 512.001" style="enable-background:new 0 0 512.001 512.001;" xml:space="preserve">
<g>
	<g>
		<circle cx="456.61" cy="100.99" r="7.837"/>
	</g>
</g>
<g>
	<g>
		<path d="M495.456,105.515c-5.33-4.088-10.827-8.305-13.896-12.946c0.207-2.644,0.722-7.152,1.342-12.112
			c0.439-3.516,0.929-7.257,1.399-10.727c0.002-0.013,0-0.025,0.002-0.038c0.578-4.331-0.973-8.698-4.148-11.677
			c-21.675-20.429-36.13-25.259-42.806-26.319c-17.969-2.879-35.982,1.423-50.72,12.112c-14.736,10.686-24.433,26.477-27.306,44.469
			c-0.392,2.467-0.65,4.938-0.765,7.304c-0.022,0.402-0.095,0.612-0.133,0.702c-2.367,5.589-11.273,25.57-26.546,48.031
			c-2.434,3.58-1.505,8.453,2.074,10.887c3.578,2.434,8.453,1.506,10.887-2.074c16.08-23.648,25.51-44.81,28.011-50.714
			c0.786-1.843,1.242-3.857,1.36-6.025c0.09-1.842,0.288-3.744,0.59-5.646c2.212-13.853,9.681-26.015,21.03-34.245
			c11.344-8.228,25.211-11.539,39.05-9.323c6.134,0.974,14.199,5.738,21.922,11.574c-2.679,0.612-4.952,1.529-6.81,2.512
			c-8.036,4.251-13.874,12.548-16.015,22.757c-0.872,4.143-3.521,7.134-8.128,12.062c-5.11,5.466-11.468,12.269-15.995,23.613
			c-7.505,18.805,4.352,35.144,10.651,42.055c-0.158,1.053-0.327,2.259-0.521,3.662c-0.551,3.959-1.327,9.52-2.538,16.275
			c-1.937-2.416-5.21-3.553-8.357-2.611c-4.148,1.239-6.506,5.605-5.266,9.752l20.739,69.417c1.016,3.399,4.132,5.595,7.507,5.595
			c0.743,0,1.498-0.107,2.245-0.33c4.148-1.239,6.506-5.605,5.266-9.752l-12.7-42.51c4.927-18.24,7.155-33.159,8.394-42.001
			c0.324,0.084,0.635,0.15,0.957,0.232c0.67,0.169,1.33,0.326,1.992,0.484c0.915,0.218,1.829,0.433,2.729,0.629
			c0.654,0.142,1.299,0.273,1.945,0.403c0.886,0.18,1.77,0.355,2.64,0.513c0.637,0.116,1.266,0.219,1.896,0.323
			c0.856,0.141,1.707,0.277,2.547,0.397c0.624,0.089,1.239,0.166,1.854,0.242c0.824,0.102,1.645,0.201,2.454,0.282
			c0.608,0.062,1.208,0.112,1.808,0.161c0.793,0.065,1.582,0.124,2.36,0.168c0.592,0.033,1.177,0.056,1.761,0.077
			c0.763,0.027,1.521,0.049,2.269,0.055c0.24,0.002,0.491,0.018,0.73,0.018c0.651,0,1.293-0.013,1.932-0.029
			c0.164-0.004,0.331-0.005,0.494-0.01c1.053-0.033,2.087-0.096,3.107-0.173c0.275-0.021,0.55-0.041,0.822-0.065
			c1.014-0.089,2.013-0.2,2.994-0.333c0.252-0.034,0.499-0.073,0.749-0.111c0.947-0.141,1.883-0.298,2.8-0.48
			c0.121-0.024,0.243-0.046,0.365-0.071c0.951-0.195,1.88-0.421,2.798-0.661c0.23-0.061,0.462-0.119,0.69-0.183
			c0.907-0.252,1.798-0.525,2.673-0.821c0.212-0.072,0.42-0.148,0.63-0.223c0.859-0.305,1.706-0.626,2.533-0.974
			c0.085-0.036,0.169-0.07,0.253-0.106c0.842-0.362,1.661-0.752,2.469-1.161c0.19-0.096,0.381-0.19,0.57-0.288
			c0.795-0.416,1.574-0.855,2.334-1.317c0.177-0.108,0.351-0.219,0.526-0.329c0.759-0.475,1.505-0.968,2.229-1.49
			c0.029-0.021,0.062-0.04,0.091-0.061c16.171-11.727,17.655-30.894,17.725-36.486C512.123,118.3,503.65,111.8,495.456,105.515z
			 M495.754,133.437c-0.011,0.065-0.028,0.135-0.041,0.201c-0.081,0.437-0.168,0.882-0.272,1.343
			c-0.027,0.121-0.064,0.25-0.093,0.372c-0.098,0.415-0.196,0.831-0.316,1.259c-0.043,0.155-0.097,0.316-0.142,0.472
			c-0.118,0.404-0.234,0.81-0.372,1.224c-0.063,0.187-0.14,0.378-0.206,0.566c-0.138,0.39-0.272,0.778-0.428,1.172
			c-0.08,0.203-0.179,0.408-0.265,0.611c-0.162,0.383-0.319,0.766-0.5,1.15c-0.096,0.204-0.212,0.406-0.315,0.61
			c-0.193,0.386-0.381,0.77-0.596,1.154c-0.103,0.185-0.227,0.366-0.336,0.55c-0.236,0.399-0.468,0.799-0.73,1.193
			c-0.1,0.15-0.218,0.296-0.323,0.446c-0.294,0.422-0.587,0.844-0.912,1.257c-0.047,0.06-0.103,0.116-0.151,0.174
			c-1.294,1.606-2.832,3.125-4.682,4.467c-0.445,0.323-0.923,0.613-1.394,0.909c-0.224,0.14-0.432,0.297-0.661,0.43
			c-0.46,0.27-0.951,0.507-1.435,0.752c-0.27,0.137-0.525,0.289-0.802,0.419c-0.486,0.227-1.002,0.423-1.512,0.628
			c-0.301,0.121-0.588,0.256-0.898,0.369c-0.513,0.187-1.054,0.345-1.588,0.51c-0.331,0.102-0.65,0.218-0.991,0.312
			c-0.541,0.149-1.11,0.271-1.671,0.398c-0.359,0.081-0.705,0.177-1.073,0.25c-0.572,0.114-1.17,0.2-1.763,0.292
			c-0.382,0.06-0.752,0.132-1.143,0.182c-0.601,0.077-1.226,0.128-1.845,0.185c-0.409,0.038-0.806,0.086-1.223,0.114
			c-0.628,0.042-1.279,0.057-1.926,0.079c-0.434,0.015-0.857,0.04-1.299,0.045c-0.654,0.007-1.332-0.011-2.004-0.024
			c-0.459-0.009-0.908-0.008-1.375-0.026c-0.68-0.027-1.382-0.079-2.079-0.126c-0.484-0.032-0.959-0.056-1.452-0.099
			c-0.707-0.062-1.435-0.147-2.159-0.229c-0.507-0.057-1.006-0.106-1.52-0.172c-0.735-0.095-1.489-0.214-2.239-0.33
			c-0.529-0.081-1.05-0.155-1.587-0.246c-0.759-0.129-1.536-0.281-2.311-0.429c-0.553-0.107-1.099-0.205-1.66-0.321
			c-0.785-0.163-1.586-0.347-2.387-0.53c-0.573-0.131-1.141-0.255-1.722-0.395c-0.812-0.196-1.64-0.415-2.468-0.631
			c-0.591-0.155-1.179-0.304-1.778-0.468c-0.839-0.231-1.695-0.483-2.548-0.734c-0.457-0.134-0.912-0.266-1.373-0.405
			c-3.439-3.447-13.537-14.937-8.775-26.864c3.435-8.605,8.241-13.748,12.889-18.72c5.014-5.366,10.199-10.913,12.015-19.542
			c1.184-5.64,4.101-10.059,8.006-12.125c2.903-1.535,6.448-1.864,10.585-0.986c-0.108,0.826-0.216,1.676-0.327,2.546
			c-0.014,0.106-0.027,0.212-0.041,0.318c-0.047,0.375-0.095,0.75-0.142,1.13c-0.063,0.499-0.125,1.001-0.187,1.504
			c-0.011,0.095-0.023,0.19-0.034,0.285c-0.059,0.477-0.117,0.954-0.174,1.429c-0.01,0.088-0.021,0.176-0.031,0.264
			c-0.203,1.681-0.393,3.33-0.56,4.868c-0.007,0.07-0.015,0.138-0.022,0.208c-0.052,0.479-0.101,0.946-0.147,1.398
			c-0.002,0.025-0.005,0.05-0.007,0.075c-0.097,0.948-0.181,1.829-0.249,2.625c-0.008,0.095-0.016,0.186-0.023,0.278
			c-0.024,0.287-0.045,0.562-0.064,0.823c-0.006,0.095-0.014,0.191-0.02,0.282c-0.022,0.322-0.041,0.627-0.053,0.9
			c0,0.003,0,0.007,0,0.01c-0.099,2.194,0.414,4.35,1.504,6.267c4.476,7.787,11.97,13.536,18.583,18.609
			c3.506,2.691,10.024,7.69,10.416,9.752C496.309,128.884,496.203,130.941,495.754,133.437z"/>
	</g>
</g>
<g>
	<g>
		<path d="M420.054,61.727c-9.622-5.338-17.834-6.287-23.745-2.742c-3.556,2.133-7.76,6.795-7.596,16.891
			c0.225,13.677,3.07,22.615,8.959,28.128c2.224,2.081,5.12,3.201,8.102,3.201c0.924,0,1.853-0.107,2.773-0.325
			c3.948-0.936,7.14-3.766,8.539-7.568l8.431-22.909l0.001-0.001C427.58,70.799,425.281,64.627,420.054,61.727z M405.367,85.772
			c-0.58-2.755-0.916-6.176-0.981-10.152c-0.025-1.59,0.131-2.553,0.268-3.081c0.867,0.052,2.546,0.394,5.031,1.504L405.367,85.772z
			"/>
	</g>
</g>
<g>
	<g>
		<path d="M480.121,389.482L450.794,291.3c-1.24-4.147-5.607-6.506-9.752-5.265c-4.147,1.239-6.506,5.605-5.266,9.752l29.18,97.671
			v65.841h-28.502v-0.781l15.08-7.547c3.248-1.626,5.563-4.593,6.352-8.14c0.79-3.548-0.051-7.217-2.305-10.069l-4.241-5.361
			v-16.944c0-1.601-0.313-3.163-0.935-4.649l-68.99-164.575c-1.674-3.992-6.265-5.87-10.257-4.197
			c-3.992,1.673-5.871,6.265-4.198,10.257l13.461,32.112c-2.013,3.192-4.099,6.332-6.255,9.416
			c-1.049-8.454-5.14-16.304-11.597-22.001c-7.537-6.65-17.578-9.747-27.547-8.495l-79.831,10.019
			c-25.381,2.575-43.629,8.966-56.754,16.914c11.073-19.576,31.561-43.18,69.392-61.153c16.218-7.708,31.912-19.104,46.645-33.872
			c3.057-3.064,3.051-8.026-0.014-11.083c-3.064-3.056-8.026-3.052-11.082,0.014c-13.46,13.493-27.685,23.851-42.277,30.785
			c-48.805,23.187-82.438,62.229-90.24,104.618c-1.95,4.032-3.266,7.852-4.149,11.225c-0.618,2.357-1.081,4.744-1.417,7.145h-4.766
			c-13.154,0-23.855-10.715-23.855-23.886V99.224c0-37.716-30.655-68.399-68.335-68.399S0,61.509,0,99.224v20.187
			c0,12.272,9.98,22.256,22.246,22.256c12.261,0,22.235-9.984,22.235-22.256V99.224c0-13.171,10.701-23.886,23.855-23.886
			c13.154,0,23.855,10.715,23.855,23.886v59.005c0,4.328,3.508,7.837,7.837,7.837c4.329,0,7.837-3.509,7.837-7.837V99.224
			c0-21.813-17.733-39.56-39.528-39.56s-39.529,17.747-39.529,39.56v20.187c0,3.63-2.943,6.583-6.562,6.583
			c-3.625,0-6.572-2.953-6.572-6.583V99.224c0-29.072,23.624-52.726,52.663-52.726c29.038,0,52.662,23.652,52.662,52.726V309.05
			c0,21.813,17.733,39.56,39.528,39.56h4.489c0.447,4.441,1.326,8.852,2.616,13.166h-7.106c-29.038,0-52.662-23.652-52.662-52.726
			V195.741c0-4.328-3.508-7.837-7.837-7.837c-4.329,0-7.837,3.509-7.837,7.837V309.05c0,37.716,30.655,68.399,68.335,68.399h13.868
			c5.244,9.108,12.466,17.221,21.347,23.464c21.804,15.327,48.611,15.364,72.156,0.245l-15.596,35.71
			c-0.116,0.266-0.217,0.538-0.304,0.816c-3.192,10.297-1.356,21.18,5.039,29.857c6.385,8.665,16.218,13.636,26.977,13.636h77.892
			c10.675,0,19.359-8.689,19.359-19.371c0-19.113-15.537-34.662-34.634-34.662h-34.056l51.02-100.609
			c8.731-9.209,16.804-19.166,24.115-29.733l47.953,114.39v17.477c0,2.697,0.921,5.346,2.591,7.458l2.244,2.838l-13.082,6.547
			c-4.096,2.05-6.64,6.169-6.64,10.751v6.688c0,6.629,5.391,12.021,12.016,12.021h35.816c6.626,0,12.016-5.393,12.016-12.021
			v-70.028C480.624,391.757,480.455,390.597,480.121,389.482z M355.033,308.766l-62.206,122.666
			c-1.234,2.432-1.115,5.328,0.31,7.649s3.954,3.736,6.678,3.736h46.818c10.455,0,18.961,8.518,18.961,18.989
			c0,2.039-1.653,3.698-3.685,3.698h-77.892c-5.726,0-10.96-2.647-14.36-7.26c-3.33-4.518-4.341-10.16-2.799-15.537l31.784-72.776
			c0.455-0.956,0.697-1.596,0.793-1.863c1.415-3.977-0.575-8.361-4.5-9.915c-3.92-1.552-8.376,0.281-10.065,4.15l-0.414,0.949
			c-1.176,2.398-6.71,12.186-23.339,23.597c-18.691,12.828-39.233,13.279-56.359,1.24c-18.671-13.125-28.296-37.656-22.883-58.33
			c3.842-14.677,18.693-40.148,74.989-45.832c0.063-0.006,0.125-0.014,0.188-0.022l79.922-10.031
			c5.511-0.692,11.059,1.02,15.226,4.697c4.175,3.684,6.57,8.993,6.57,14.567C358.77,298.541,357.478,303.946,355.033,308.766z"/>
	</g>
</g>
<g>
</g>
<g>
</g>
<g>
</g>
<g>
</g>
<g>
</g>
<g>
</g>
<g>
</g>
<g>
</g>
<g>
</g>
<g>
</g>
<g>
</g>
<g>
</g>
<g>
</g>
<g>
</g>
<g>
</g>
</svg>
