<?xml version="1.0" encoding="utf-8"?>
<!-- Generator: Adobe Illustrator 23.0.1, SVG Export Plug-In . SVG Version: 6.00 Build 0)  -->
<svg version="1.1" id="Lag_1" xmlns="http://www.w3.org/2000/svg" xmlns:xlink="http://www.w3.org/1999/xlink" x="0px" y="0px"
	 viewBox="0 0 480 480" style="enable-background:new 0 0 480 480;" xml:space="preserve">
<g>
	<path d="M264,249.8c0-13.3-10.7-24-24-24s-24,10.7-24,24s10.7,24,24,24S264,263.1,264,249.8z M232,249.8c0-4.4,3.6-8,8-8s8,3.6,8,8
		s-3.6,8-8,8S232,254.2,232,249.8z"/>
	<path d="M476.4,208.1c-2.3-13-14.8-21.7-27.8-19.5l-31.5,5.6l-6.9-39.4c-2.3-13.1-14.8-21.8-27.8-19.5
		c-13.1,2.3-21.8,14.8-19.5,27.8l6.9,39.4l-90.1,15.9l-21.8-24.5c-4.6-5.1-11.1-8-17.9-8s-13.3,2.9-17.9,8l-36.6,41.1l-83.6,14.7
		L95,210.4c-1.4-8.6-7.2-15.7-15.4-18.7s-17.2-1.4-23.9,4.2s-9.7,14.3-8,22.9l6.9,39.4l-31.5,5.6c-11.4,2-19.8,12-19.8,23.6
		c0,1.4,0.1,2.8,0.4,4.2c2,11.5,12,19.8,23.7,19.8c1.4,0,2.8-0.1,4.2-0.4L168,286.9v42.9h16v-69l50.2-56.3c1.6-1.6,3.7-2.6,6-2.6
		s4.4,0.9,6,2.6l49.9,55.9l0.3,69.4H312v-68.3l144.9-25.5c11.5-2,19.8-12,19.8-23.6C476.7,210.9,476.6,209.5,476.4,208.1z M64.8,210
		c1.2-1.7,3.1-2.9,5.2-3.3c0.5-0.1,0.9-0.1,1.4-0.1c3.9,0,7.2,2.8,7.9,6.6l7,39.4l-15.8,2.8l-7-39.4C63.1,213.9,63.6,211.7,64.8,210
		z M168.7,254.6c-0.5,1-0.7,2.1-0.7,3.2v12.8L28.7,295.2c-4.3,0.8-8.5-2.1-9.3-6.4c-0.4-2.1,0.1-4.3,1.3-6c1.2-1.8,3.1-3,5.2-3.4
		l142.9-25.2C168.8,254.3,168.8,254.5,168.7,254.6z M385.1,151.1c0.5-0.1,0.9-0.1,1.4-0.1c3.9,0,7.2,2.8,7.9,6.6l6.9,39.4l-15.8,2.8
		l-6.9-39.4C377.8,156,380.7,151.9,385.1,151.1z M459.3,216.8c-1.2,1.8-3.1,2.9-5.2,3.3l-149.5,26.4l-12.5-14l88.1-15.5h0.2
		l31.5-5.6h0.1l39.3-6.9c4.3-0.8,8.5,2.1,9.3,6.4C461,212.9,460.6,215.1,459.3,216.8z"/>
</g>
</svg>
