<svg height="480pt" viewBox="0 -135 480 480" width="480pt" xmlns="http://www.w3.org/2000/svg"><path d="m240 90.808594c-13.253906 0-24 10.746094-24 24s10.746094 24 24 24 24-10.746094 24-24-10.746094-24-24-24zm0 32c-4.417969 0-8-3.582032-8-8 0-4.417969 3.582031-8 8-8s8 3.582031 8 8c0 4.417968-3.582031 8-8 8zm0 0"/><path d="m472 194.808594h-160v-68.335938l144.910156-25.542968c11.464844-2.035157 19.8125-12 19.808594-23.640626 0-1.402343-.121094-2.800781-.359375-4.183593-2.347656-13.039063-14.78125-21.730469-27.832031-19.457031l-31.496094 5.550781-6.933594-39.367188c-2.304687-13.054687-14.75-21.769531-27.804687-19.46875-13.054688 2.304688-21.769531 14.75-19.46875 27.804688l6.9375 39.375-90.082031 15.890625-21.777344-24.488282c-4.550782-5.097656-11.0625-8.011718-17.898438-8.011718-6.835937 0-13.347656 2.914062-17.898437 8.011718l-36.578125 41.121094-83.632813 14.742188-6.941406-39.398438c-1.367187-8.5625-7.242187-15.722656-15.371094-18.730468-8.128906-3.007813-17.25-1.402344-23.859375 4.207031s-9.679687 14.347656-8.035156 22.859375l6.945312 39.390625-31.542968 5.601562c-11.445313 2.027344-19.789063 11.96875-19.808594 23.589844 0 1.402344.121094 2.800781.359375 4.183594 2.03125 11.476562 12.011719 19.832031 23.664063 19.816406 1.394531 0 2.789062-.121094 4.167968-.359375l136.527344-24.105469v42.945313h-160c-4.417969 0-8 3.582031-8 8 0 4.417968 3.582031 8 8 8h464c4.417969 0 8-3.582032 8-8 0-4.417969-3.582031-8-8-8zm-407.199219-119.832032c1.210938-1.742187 3.066407-2.925781 5.160157-3.289062.464843-.082031.933593-.125 1.40625-.125 3.875.007812 7.1875 2.796875 7.855468 6.613281l6.953125 39.394531-15.75 2.773438-6.984375-39.390625c-.367187-2.09375.125-4.246094 1.359375-5.976563zm313.808594-49.601562c-.769531-4.351562 2.132813-8.503906 6.488281-9.269531.464844-.082031.933594-.125 1.40625-.128907 3.875.011719 7.1875 2.800782 7.855469 6.617188l6.921875 39.414062-15.761719 2.777344zm1.671875 56.554688h.175781l31.511719-5.601563h.070312l39.289063-6.925781c4.332031-.789063 8.488281 2.070312 9.296875 6.398437.386719 2.09375-.074219 4.257813-1.285156 6.011719-1.214844 1.753906-3.074219 2.949219-5.171875 3.324219l-149.488281 26.375-12.503907-14.039063zm-351.578125 78.277343c-4.332031.789063-8.484375-2.070312-9.296875-6.398437-.394531-2.105469.066406-4.277344 1.28125-6.042969 1.210938-1.765625 3.078125-2.972656 5.183594-3.355469l142.929687-25.160156c-.046875.09375 0 .222656-.074219.320312-.464843 1.015626-.714843 2.121094-.726562 3.238282v12.800781zm155.296875 34.601563v-68.953125l50.207031-56.292969c1.550781-1.636719 3.703125-2.5625 5.957031-2.5625 2.253907 0 4.40625.925781 5.957032 2.5625l49.878906 55.886719.328125 69.359375zm0 0"/></svg>