<?xml version="1.0" encoding="utf-8"?>
<!-- Generator: Adobe Illustrator 23.0.1, SVG Export Plug-In . SVG Version: 6.00 Build 0)  -->
<svg version="1.1" id="Lag_1" xmlns="http://www.w3.org/2000/svg" xmlns:xlink="http://www.w3.org/1999/xlink" x="0px" y="0px"
	 viewBox="0 0 210.91 238.05" style="enable-background:new 0 0 210.91 238.05;" xml:space="preserve">
<g>
	<path d="M47.7,200.08H32.96V36.42H47.7v-14H25.96c-3.87,0-7,3.13-7,7v177.66c0,3.87,3.13,7,7,7H47.7V200.08z"/>
	<path d="M115.49,22.42H61.7v14h53.79c36.92,0,54.12,18.64,54.12,58.66c0,22.14-4.73,38.53-14.09,48.72
		c-3.29,3.6-8.03,6.76-14.1,9.38c-6.09,2.64-13.38,3.97-21.66,3.97H82.81c-3.87,0-7,3.13-7,7v35.92H61.7v14h21.1c3.87,0,7-3.13,7-7
		v-35.92h29.95c10.2,0,19.36-1.72,27.22-5.12c7.9-3.41,14.25-7.72,18.87-12.78c11.78-12.84,17.76-32.41,17.76-58.17
		C183.61,47.55,160.06,22.42,115.49,22.42z"/>
	<path d="M82.81,125.68h13.07c7.88,0,13.7-0.9,17.83-2.76c4.01-1.83,8.78-6.11,8.78-16.18V86.84c0-10.07-4.78-14.35-8.81-16.19
		c-4.1-1.85-9.93-2.75-17.81-2.75H82.81c-3.87,0-7,3.13-7,7v43.78C75.81,122.54,78.94,125.68,82.81,125.68z M89.81,81.9h6.07
		c7.57,0,10.8,0.95,12.02,1.48c0.01,0.01,0.59,0.75,0.59,3.45v19.91c0,2.66-0.57,3.42-0.56,3.43c-1.25,0.56-4.49,1.51-12.06,1.51
		h-6.07V81.9z"/>
</g>
</svg>
