<?xml version="1.0" encoding="utf-8"?>
<!-- Generator: Adobe Illustrator 23.0.1, SVG Export Plug-In . SVG Version: 6.00 Build 0)  -->
<svg version="1.1" id="Lag_1" xmlns="http://www.w3.org/2000/svg" xmlns:xlink="http://www.w3.org/1999/xlink" x="0px" y="0px"
	 viewBox="0 0 712.6 712.6" style="enable-background:new 0 0 712.6 712.6;" xml:space="preserve">
<g>
	<g id="Layer_1_77_">
		<g>
			<path d="M569.9,555.2c-15.7,0-28.2-8.4-33.5-22.6l-36.1-96.2H212.4l-36.2,96.4l-0.1,0.2c-5.8,13.5-18.9,22.2-33.4,22.2
				c-4.6,0-8.7,0-13-2c-8.7-2.8-15.6-8.8-19.6-17.1c-4.2-8.7-4.5-18.9-0.8-28l26.7-70.3H67.8c-18.9,0-35.5-16.6-35.5-35.5
				c0-18.9,16.6-35.5,35.5-35.5h95.8l45.9-124.1h-20.1c-23.1,0-42.6-19.5-42.6-42.6s19.5-42.6,42.6-42.6h333.8
				c23.1,0,42.6,19.5,42.6,42.6s-19.5,42.6-42.6,42.6h-20.1L549,366.8h95.8c20.2,0,35.5,15.3,35.5,35.5c0,18.9-16.6,35.5-35.5,35.5
				h-68.1l26.6,70.1c3.4,7.9,3.5,16.8,0.1,25.1c-3.7,9.1-11.1,16.4-20.4,20.1l-0.5,0.2C576.9,555.2,573,555.2,569.9,555.2z
				 M200.4,419.1h311.8l40.3,107.4c3.7,9.9,12.5,11.4,17.4,11.4c2.5,0,4.2,0,6.9-0.9c4.9-2,8.7-5.8,10.6-10.5c1.6-4,1.6-8.2,0-11.8
				l-0.2-0.4l-35.6-93.7h93.1c9.4,0,18.2-8.9,18.2-18.2c0-10.7-7.5-18.2-18.2-18.2H537l-58.7-158.7h44.9c13.7,0,25.3-11.6,25.3-25.3
				s-11.6-25.3-25.3-25.3H189.4c-13.7,0-25.3,11.6-25.3,25.3c0,13.7,11.6,25.3,25.3,25.3h44.9L175.6,384H67.8
				c-9.4,0-18.2,8.9-18.2,18.2c0,9.4,8.9,18.2,18.2,18.2h93.1l-35.6,93.9c-1.9,4.7-1.8,9.9,0.3,14.2c1.9,4,5.4,7,9.7,8.3l0.7,0.2
				l0.7,0.3c1,0.5,2.6,0.5,6,0.5c7.4,0,14.4-4.6,17.4-11.6L200.4,419.1z M498.8,384h-285l58.7-158.7h167.6L498.8,384z M238.6,366.8
				H474l-45.9-124.1H284.5L238.6,366.8z"/>
		</g>
	</g>
</g>
</svg>
