<?xml version="1.0" encoding="utf-8"?>
<!-- Generator: Adobe Illustrator 23.0.1, SVG Export Plug-In . SVG Version: 6.00 Build 0)  -->
<svg version="1.1" id="Lag_1" xmlns="http://www.w3.org/2000/svg" xmlns:xlink="http://www.w3.org/1999/xlink" x="0px" y="0px"
	 viewBox="0 0 712.62 437.35" style="enable-background:new 0 0 712.62 437.35;" xml:space="preserve">
<g>
	<g id="Layer_1_77_">
		<g>
			<path d="M591.15,437.35c-17.27,0-31.06-9.28-36.89-24.83l-39.68-105.81H198.04l-39.76,106.01l-0.09,0.2
				c-6.36,14.84-20.77,24.42-36.73,24.42c-5.1,0-9.54,0-14.35-2.19c-9.55-3.08-17.19-9.73-21.57-18.81
				c-4.59-9.52-4.93-20.75-0.93-30.83l29.31-77.26H39.05C18.25,308.27,0,290.02,0,269.22c0-20.8,18.25-39.05,39.05-39.05h105.36
				l50.51-136.52H172.8c-25.38,0-46.83-21.44-46.83-46.82S147.41,0,172.8,0h367.03c25.38,0,46.83,21.44,46.83,46.83
				s-21.44,46.82-46.83,46.82H517.7l50.51,136.52h105.36c22.26,0,39.05,16.79,39.05,39.05c0,20.8-18.25,39.05-39.05,39.05h-74.88
				l29.25,77.1c3.78,8.69,3.82,18.49,0.11,27.62c-4.05,9.97-12.25,18.03-22.48,22.13l-0.52,0.19
				C598.91,437.35,594.61,437.35,591.15,437.35z M184.88,287.71h342.87l44.3,118.14c4.08,10.88,13.72,12.5,19.1,12.5
				c2.74,0,4.57,0,7.61-0.98c5.35-2.22,9.6-6.41,11.68-11.54c1.79-4.39,1.79-9.01,0.02-13.01l-0.2-0.49l-39.1-103.07h102.41
				c10.31,0,20.05-9.74,20.05-20.05c0-11.8-8.25-20.05-20.05-20.05H554.98L490.41,74.65h49.41c15.08,0,27.83-12.74,27.83-27.82
				c0-15.08-12.74-27.83-27.83-27.83H172.8c-15.08,0-27.83,12.74-27.83,27.83c0,15.08,12.74,27.82,27.83,27.82h49.41l-64.57,174.52
				H39.05c-10.31,0-20.05,9.74-20.05,20.05c0,10.31,9.74,20.05,20.05,20.05h102.41L102.3,392.5c-2.06,5.16-1.93,10.84,0.37,15.6
				c2.14,4.45,5.93,7.68,10.65,9.09l0.79,0.24l0.73,0.37c1.06,0.53,2.9,0.55,6.64,0.55c8.15,0,15.83-5.11,19.18-12.72L184.88,287.71
				z M513.03,249.17H199.59l64.57-174.52h184.3L513.03,249.17z M226.88,230.17h258.87L435.23,93.65H277.39L226.88,230.17z"/>
		</g>
	</g>
</g>
</svg>
