<svg xmlns="http://www.w3.org/2000/svg" viewBox="0 0 34.023 30.011">
  <defs>
    <style>
      .cls-1 {
        fill: #e7873c;
        stroke: #fff;
        stroke-width: 2px;
      }
    </style>
  </defs>
  <path id="paw" class="cls-1" d="M15.993,43.993c-4.963,0-12,7.672-12,12.515,0,2.181,1.676,3.484,4.484,3.484,3.052,0,5.068-1.567,7.516-1.567,2.469,0,4.491,1.567,7.516,1.567,2.808,0,4.484-1.3,4.484-3.484C27.992,51.666,20.956,43.993,15.993,43.993Zm-9.2-.788c-.65-2.166-2.652-3.568-4.472-3.133S-.453,42.615.2,44.781,2.85,48.349,4.67,47.914,7.438,45.371,6.788,43.205Zm5.295-1.3c1.934-.509,2.9-3.121,2.161-5.835s-2.907-4.5-4.841-3.992S6.5,35.2,7.241,37.915,10.15,42.416,12.083,41.906Zm17.587-1.834c-1.82-.435-3.822.967-4.472,3.133s.3,4.274,2.118,4.709,3.822-.967,4.472-3.133S31.489,40.508,29.669,40.073ZM19.9,41.906c1.934.509,4.1-1.278,4.841-3.992s-.227-5.326-2.161-5.835-4.1,1.278-4.841,3.992S17.969,41.4,19.9,41.906Z" transform="translate(1.019 -30.982)"/>
</svg>
