<svg xmlns="http://www.w3.org/2000/svg" viewBox="0 0 31.497 28">
  <defs>
    <style>
      .cls-1 {
        fill: #fff;
      }
    </style>
  </defs>
  <path id="utensils-alt" class="cls-1" d="M2.942.447,16.024,12.594c1.575-1.395.984-.875,2.647-2.346a4.569,4.569,0,0,1,.88-5.928c1.192-1.187,5.184-4.014,5.4-4.167.88-.645,2.056.629,1.356,1.433l-4.441,5.13c-.071.082.164.328.257.252l5.3-4.309c.826-.673,2.073.558,1.395,1.395l-4.309,5.3c-.071.088.17.328.252.252l5.13-4.441c.8-.695,2.078.476,1.433,1.362a66.945,66.945,0,0,1-4.167,5.392,4.576,4.576,0,0,1-5.934.886c-1.455,1.646-.793.891-2.242,2.532l8.46,7.853a1.748,1.748,0,0,1,.044,2.521l-1.75,1.75a1.755,1.755,0,0,1-2.516-.038c-1.045-1.236-10.971-12.934-11.4-13.442C3.063,13.977,0,9.05,0,1.732A1.752,1.752,0,0,1,2.942.447ZM4.014,25.713l1.75,1.75a1.753,1.753,0,0,0,2.548-.077l6.426-7.257-3.1-3.653L4.091,23.165A1.748,1.748,0,0,0,4.014,25.713Z" transform="translate(0 0.024)"/>
</svg>
