<svg xmlns="http://www.w3.org/2000/svg" viewBox="0 0 28.347 28">
  <defs>
    <style>
      .cls-1 {
        fill: #fff;
      }
    </style>
  </defs>
  <path id="parking" class="cls-1" d="M25.31,32H3.037A3.02,3.02,0,0,0,0,35V57a3.02,3.02,0,0,0,3.037,3H25.31a3.02,3.02,0,0,0,3.037-3V35A3.02,3.02,0,0,0,25.31,32ZM15.186,50H12.149v3a1.009,1.009,0,0,1-1.012,1H9.112A1.009,1.009,0,0,1,8.1,53V39a1.009,1.009,0,0,1,1.012-1h6.074a6,6,0,1,1,0,12Zm0-8H12.149v4h3.037a2,2,0,1,0,0-4Z" transform="translate(0 -32)"/>
</svg>
