<svg xmlns="http://www.w3.org/2000/svg" viewBox="0 0 32.347 32">
  <defs>
    <style>
      .cls-1, .cls-4 {
        fill: #fff;
      }

      .cls-2 {
        fill: #e7873c;
      }

      .cls-3, .cls-4 {
        stroke: none;
      }
    </style>
  </defs>
  <g id="Group_93" data-name="Group 93" transform="translate(-161.494 -990.653)">
    <rect id="Rectangle_62" data-name="Rectangle 62" class="cls-1" width="23" height="23" transform="translate(166 995)"/>
    <g id="parking" class="cls-2" transform="translate(163.494 960.653)">
      <path class="cls-3" d="M 25.31024742126465 61 L 3.037226676940918 61 C 0.8110865950584412 61 -1.000003457069397 59.20560836791992 -1.000003457069397 57 L -1.000003457069397 35 C -1.000003457069397 32.79439163208008 0.8110865950584412 31 3.037226676940918 31 L 25.31024742126465 31 C 27.53638648986816 31 29.34747695922852 32.79439163208008 29.34747695922852 35 L 29.34747695922852 57 C 29.34747695922852 59.20560836791992 27.53638648986816 61 25.31024742126465 61 Z M 9.099276542663574 52.9947509765625 C 9.101406097412109 52.9969596862793 9.105467796325684 53 9.111686706542969 53 L 11.13650703430176 53 C 11.14272499084473 53 11.1467866897583 52.99696350097656 11.14891624450684 52.99475479125977 L 11.14891624450684 50.0000114440918 L 11.14891624450684 49.0000114440918 L 12.14891624450684 49.0000114440918 L 15.18614673614502 49.0000114440918 C 17.98421669006348 49.0000114440918 20.26060676574707 46.75701141357422 20.26060676574707 44 C 20.26060676574707 41.24298858642578 17.98421669006348 39 15.18614673614502 39 L 9.111686706542969 39 C 9.105467796325684 39 9.101406097412109 39.0030403137207 9.099276542663574 39.0052490234375 L 9.099276542663574 48.22488021850586 L 9.099276542663574 52.9947509765625 Z M 15.18614673614502 47 L 12.14891624450684 47 L 11.14891624450684 47 L 11.14891624450684 46 L 11.14891624450684 42 L 11.14891624450684 41 L 12.14891624450684 41 L 15.18614673614502 41 C 16.85403633117676 41 18.21096611022949 42.34579086303711 18.21096611022949 44 C 18.21096611022949 45.65420913696289 16.85403633117676 47 15.18614673614502 47 Z"/>
      <path class="cls-4" d="M 3.037225723266602 32 C 1.36042594909668 32 -3.814697265625e-06 33.34375 -3.814697265625e-06 35 L -3.814697265625e-06 57 C -3.814697265625e-06 58.65625 1.36042594909668 60 3.037225723266602 60 L 25.31023597717285 60 C 26.98704719543457 60 28.34747695922852 58.65625 28.34747695922852 57 L 28.34747695922852 35 C 28.34747695922852 33.34375 26.98704719543457 32 25.31023597717285 32 L 3.037225723266602 32 M 15.18614673614502 50.0000114440918 L 12.14891624450684 50.0000114440918 L 12.14891624450684 53 C 12.14891624450684 53.54999923706055 11.69333648681641 54 11.13650703430176 54 L 9.111686706542969 54 C 8.554866790771484 54 8.099277496337891 53.54999923706055 8.099277496337891 53 L 8.099277496337891 48.22488021850586 L 8.099277496337891 39 C 8.099277496337891 38.45000076293945 8.554866790771484 38 9.111686706542969 38 L 15.18614673614502 38 C 18.53342628479004 38 21.26060676574707 40.69374847412109 21.26060676574707 44 C 21.26060676574707 47.30625152587891 18.53342628479004 50.0000114440918 15.18614673614502 50.0000114440918 M 12.14891624450684 42 L 12.14891624450684 46 L 15.18614673614502 46 C 16.29979705810547 46 17.21096611022949 45.09999847412109 17.21096611022949 44 C 17.21096611022949 42.90000152587891 16.29979705810547 42 15.18614673614502 42 L 12.14891624450684 42 M 3.037225723266602 30 L 25.31023597717285 30 C 28.08777618408203 30 30.34747695922852 32.24298858642578 30.34747695922852 35 L 30.34747695922852 57 C 30.34747695922852 59.75701141357422 28.08777618408203 62 25.31023597717285 62 L 3.037225723266602 62 C 0.2596874237060547 62 -2.000003814697266 59.75701141357422 -2.000003814697266 57 L -2.000003814697266 35 C -2.000003814697266 32.24298858642578 0.2596874237060547 30 3.037225723266602 30 Z M 10.14891624450684 40 L 10.09927749633789 40 L 10.09927749633789 48.22488021850586 L 10.09927749633789 52 L 10.14891624450684 52 L 10.14891624450684 50.0000114440918 L 10.14891624450684 48.0000114440918 L 12.14891624450684 48.0000114440918 L 15.18614673614502 48.0000114440918 C 17.43280792236328 48.0000114440918 19.26060676574707 46.20560836791992 19.26060676574707 44 C 19.26060676574707 41.79439163208008 17.43280792236328 40 15.18614673614502 40 C 17.40543746948242 40 19.21096611022949 41.79439163208008 19.21096611022949 44 C 19.21096611022949 46.20560836791992 17.40543746948242 48 15.18614673614502 48 L 12.14891624450684 48 L 10.14891624450684 48 L 10.14891624450684 46 L 10.14891624450684 42 L 10.14891624450684 40 Z"/>
    </g>
  </g>
</svg>
