<svg xmlns="http://www.w3.org/2000/svg" viewBox="0 0 30.134 30">
  <defs>
    <style>
      .cls-1 {
        fill: #e7873c;
        stroke: #fff;
        stroke-width: 2px;
      }
    </style>
  </defs>
  <g id="Group_92" data-name="Group 92" transform="translate(-240 -17)">
    <path id="male" class="cls-1" d="M5.25,0a3.5,3.5,0,1,1-3.5,3.5A3.5,3.5,0,0,1,5.25,0M7.875,7.875H7.254a4.806,4.806,0,0,1-4.007,0H2.625A2.625,2.625,0,0,0,0,10.5v7.438A1.312,1.312,0,0,0,1.313,19.25h.875v7.438A1.312,1.312,0,0,0,3.5,28H7a1.312,1.312,0,0,0,1.313-1.312V19.25h.875A1.312,1.312,0,0,0,10.5,17.938V10.5A2.625,2.625,0,0,0,7.875,7.875Z" transform="translate(241 18)"/>
    <path id="female" class="cls-1" d="M14.553,0a3.5,3.5,0,1,1-3.5,3.5,3.5,3.5,0,0,1,3.5-3.5m6.523,19.369-2.625-10.5a1.313,1.313,0,0,0-1.273-.994h-.621a4.806,4.806,0,0,1-4.007,0h-.621a1.312,1.312,0,0,0-1.273.994L8.03,19.369A1.313,1.313,0,0,0,9.3,21h3.063v5.688A1.312,1.312,0,0,0,13.678,28h1.75a1.312,1.312,0,0,0,1.313-1.312V21H19.8a1.313,1.313,0,0,0,1.273-1.631Z" transform="translate(248.01 18)"/>
  </g>
</svg>
