<?xml version="1.0" encoding="utf-8"?>
<!-- Generator: Adobe Illustrator 23.0.1, SVG Export Plug-In . SVG Version: 6.00 Build 0)  -->
<svg version="1.1" id="Lag_1" xmlns="http://www.w3.org/2000/svg" xmlns:xlink="http://www.w3.org/1999/xlink" x="0px" y="0px"
	 viewBox="0 0 528 528" style="enable-background:new 0 0 528 528;" xml:space="preserve">
<path d="M264,350.7c-41.5,0-81.2-15.5-111.8-43.6c-30.4-27.9-49.2-65.8-52.9-106.7l-0.7-8.3h330.9l-0.7,8.3
	c-3.7,40.9-22.5,78.8-52.9,106.7C345.2,335.3,305.5,350.7,264,350.7z M115.4,207.3c5,33.9,21.5,65.1,47.1,88.6
	c27.8,25.5,63.8,39.6,101.5,39.6s73.7-14.1,101.5-39.6c25.6-23.5,42.1-54.7,47.1-88.6H115.4z"/>
<path d="M358.6,514.5c-10.5,0-19.6-7.5-21.6-17.8l-11.2-58.3H202.1L191,496.7c-2,10.3-11,17.8-21.6,17.8c-1.4,0-2.8-0.1-4.1-0.4
	c-11.9-2.3-19.7-13.8-17.4-25.7l28.2-147l8.9,4.4c8.4,4.2,17.2,7.7,26.1,10.4l6.5,2l-6.9,36.2h106.9l-6.9-36.2l6.5-2
	c8.9-2.8,17.6-6.3,26.1-10.4l8.9-4.4l28.2,147c2.3,11.9-5.5,23.4-17.4,25.7C361.4,514.4,360,514.5,358.6,514.5z M189.6,423.3h148.8
	l13.5,70.6c0.6,3.2,3.4,5.5,6.6,5.5c0.4,0,0.9,0,1.3-0.1c3.7-0.7,6.1-4.3,5.4-7.9l-24.5-127.7c-4.2,1.8-8.5,3.5-12.8,5l7.9,41H192.2
	l7.9-41c-4.3-1.5-8.6-3.2-12.8-5l-24.4,127.7c-0.7,3.7,1.7,7.2,5.4,7.9c0.4,0.1,0.9,0.1,1.3,0.1c3.2,0,6-2.3,6.6-5.5L189.6,423.3z"
	/>
<path d="M198.5,157c-5.8,0-11.3-2.2-15.4-6.3c-18.8-18.6-19.5-37.8-16.7-50.7c3.3-15.3,12.5-26.1,16.4-30c1.5-1.5,4.1-5,4.9-8.6
	c0.3-1.5,1-4.7-4.6-10.2c-4.2-4.1-6.5-9.6-6.5-15.5c0-5.9,2.2-11.4,6.3-15.6s9.6-6.5,15.5-6.5c0.1,0,0.1,0,0.2,0
	c5.8,0,11.3,2.2,15.4,6.3c18.8,18.6,19.5,37.8,16.7,50.7c-3.3,15.3-12.5,26.1-16.4,30c-1.5,1.5-4.1,5-4.9,8.6
	c-0.3,1.5-1,4.7,4.6,10.2c8.6,8.5,8.7,22.4,0.2,31.1C210,154.7,204.5,157,198.5,157z M198.5,28.7C198.5,28.7,198.5,28.7,198.5,28.7
	c-1.9,0-3.6,0.7-4.8,2c-1.3,1.3-2,3-2,4.8c0,1.8,0.7,3.5,2,4.8c7.8,7.7,10.6,15.6,8.8,24.2c-1.8,8.2-7.2,14.4-8.9,16
	c-2.9,3-10,11.2-12.4,22.6c-2.9,13.4,1.3,25.7,12.5,36.7c1.3,1.3,3,2,4.8,2c1.8,0,3.5-0.7,4.8-2c2.6-2.7,2.6-7-0.1-9.6
	c-7.8-7.6-10.6-15.6-8.8-24.2c1.8-8.2,7.2-14.4,8.9-16c2.9-3,10-11.2,12.4-22.6c2.9-13.4-1.3-25.7-12.5-36.7
	C202,29.3,200.3,28.7,198.5,28.7z"/>
<path d="M264,157c-5.8,0-11.3-2.2-15.4-6.3c-18.8-18.6-19.5-37.8-16.7-50.7c3.3-15.3,12.5-26.1,16.4-30c1.5-1.5,4.1-5,4.9-8.6
	c0.3-1.5,1-4.7-4.6-10.2c-4.2-4.1-6.5-9.6-6.5-15.5c0-5.9,2.2-11.4,6.3-15.6c4.1-4.2,9.6-6.5,15.5-6.5c5.9,0,11.4,2.2,15.6,6.3
	c18.8,18.6,19.5,37.8,16.7,50.7c-3.3,15.3-12.5,26.1-16.4,30c-1.5,1.5-4.1,5-4.9,8.6c-0.3,1.5-1,4.7,4.6,10.2
	c8.6,8.5,8.7,22.4,0.2,31.1C275.5,154.7,269.9,157,264,157z M264,28.7C264,28.7,264,28.7,264,28.7c-1.9,0-3.6,0.7-4.8,2
	c-1.3,1.3-2,3-2,4.8c0,1.8,0.7,3.5,2,4.8c7.8,7.7,10.6,15.6,8.8,24.2c-1.8,8.2-7.2,14.4-8.9,16c-2.9,3-10,11.2-12.4,22.6
	c-2.9,13.4,1.3,25.7,12.5,36.7c1.3,1.3,3,2,4.8,2c1.8,0,3.5-0.7,4.8-2c2.6-2.7,2.6-7-0.1-9.6c-7.8-7.6-10.6-15.6-8.8-24.2
	c1.8-8.2,7.2-14.4,8.9-16c2.9-3,10-11.2,12.4-22.6c2.9-13.4-1.3-25.7-12.5-36.7C267.5,29.3,265.8,28.7,264,28.7z"/>
<path d="M329.5,157c-5.8,0-11.3-2.2-15.4-6.3c-18.8-18.6-19.5-37.8-16.7-50.7c3.3-15.3,12.5-26.1,16.4-30c1.5-1.5,4.1-5,4.9-8.6
	c0.3-1.5,1-4.7-4.6-10.2c-4.2-4.1-6.5-9.6-6.5-15.5c0-5.9,2.2-11.4,6.3-15.6s9.6-6.5,15.5-6.5c0.1,0,0.1,0,0.2,0
	c5.8,0,11.3,2.2,15.4,6.3c18.8,18.6,19.5,37.8,16.7,50.7c-3.3,15.3-12.5,26.1-16.4,30c-1.5,1.5-4.1,5-4.9,8.6
	c-0.3,1.5-1,4.7,4.6,10.2c8.6,8.5,8.7,22.4,0.2,31.1C341,154.7,335.4,157,329.5,157z M329.5,28.7C329.5,28.7,329.4,28.7,329.5,28.7
	c-1.9,0-3.6,0.7-4.8,2c-1.3,1.3-2,3-2,4.8c0,1.8,0.7,3.5,2,4.8c7.8,7.7,10.6,15.6,8.8,24.2c-1.8,8.2-7.2,14.4-8.9,16
	c-2.9,3-10,11.2-12.4,22.6c-2.9,13.4,1.3,25.7,12.5,36.7c1.3,1.3,3,2,4.8,2c1.8,0,3.5-0.7,4.8-2c2.6-2.7,2.6-7-0.1-9.6
	c-7.8-7.6-10.6-15.6-8.8-24.2c1.8-8.2,7.2-14.4,8.9-16c2.9-3,10-11.2,12.4-22.6c2.9-13.4-1.3-25.7-12.5-36.7
	C333,29.3,331.3,28.7,329.5,28.7z"/>
</svg>
