<?xml version="1.0" encoding="utf-8"?>
<!-- Generator: Adobe Illustrator 23.0.1, SVG Export Plug-In . SVG Version: 6.00 Build 0)  -->
<svg version="1.1" id="Lag_1" xmlns="http://www.w3.org/2000/svg" xmlns:xlink="http://www.w3.org/1999/xlink" x="0px" y="0px"
	 viewBox="0 0 348.47 528" style="enable-background:new 0 0 348.47 528;" xml:space="preserve">
<path d="M174.15,355.39c-43.7,0-85.53-16.31-117.78-45.93C24.32,280.02,4.53,240.08,0.62,197.01l-0.79-8.72h348.64l-0.79,8.72
	c-3.91,43.07-23.71,83.01-55.75,112.45C259.68,339.07,217.85,355.39,174.15,355.39z M17.59,204.28
	c5.26,35.75,22.67,68.64,49.6,93.38c29.29,26.9,67.27,41.72,106.95,41.72s77.67-14.82,106.95-41.72
	c26.93-24.74,44.34-57.63,49.6-93.38H17.59z"/>
<path d="M273.81,528c-11.07,0-20.63-7.9-22.71-18.79l-11.76-61.41H108.95L97.2,509.21C95.11,520.1,85.56,528,74.48,528
	c-1.46,0-2.93-0.14-4.37-0.42c-12.53-2.4-20.78-14.55-18.38-27.08L81.4,345.56l9.43,4.67c8.88,4.39,18.12,8.1,27.47,11l6.83,2.12
	l-7.31,38.16h112.66l-7.31-38.15l6.83-2.12c9.35-2.9,18.59-6.6,27.47-11l9.43-4.66l29.68,154.93c2.4,12.53-5.84,24.68-18.38,27.08
	C276.75,527.86,275.27,528,273.81,528z M95.72,431.8h156.84l14.25,74.4c0.64,3.36,3.59,5.8,7,5.8c0.45,0,0.91-0.04,1.36-0.13
	c3.87-0.74,6.41-4.49,5.67-8.36l-25.77-134.54c-4.46,1.93-8.98,3.7-13.53,5.29l8.28,43.25H98.46l8.28-43.25
	c-4.56-1.6-9.08-3.37-13.53-5.3L67.45,503.51c-0.74,3.87,1.8,7.62,5.67,8.36c0.45,0.09,0.91,0.13,1.36,0.13c3.41,0,6.36-2.44,7-5.8
	L95.72,431.8z"/>
<path d="M105.16,151.28c-6.12,0-11.89-2.36-16.25-6.66c-19.84-19.56-20.52-39.87-17.6-53.47c3.46-16.12,13.22-27.5,17.25-31.65
	c1.54-1.58,4.36-5.28,5.19-9.11c0.35-1.61,1.06-4.95-4.84-10.77c-4.4-4.34-6.85-10.13-6.9-16.32c-0.04-6.18,2.32-12.01,6.66-16.41
	c4.34-4.4,10.13-6.85,16.32-6.9c0.06,0,0.11,0,0.17,0c6.12,0,11.88,2.36,16.24,6.66c19.84,19.56,20.52,39.87,17.6,53.46
	c-3.47,16.12-13.22,27.51-17.26,31.65c-1.54,1.58-4.36,5.28-5.18,9.11c-0.34,1.6-1.06,4.95,4.84,10.77
	c9.09,8.96,9.19,23.64,0.23,32.73C117.26,148.83,111.4,151.28,105.16,151.28z M105.16,16c-0.02,0-0.03,0-0.05,0
	c-1.91,0.01-3.7,0.77-5.03,2.13c-1.34,1.36-2.07,3.16-2.06,5.07s0.77,3.7,2.13,5.04c8.18,8.07,11.21,16.42,9.25,25.53
	c-1.86,8.67-7.63,15.13-9.36,16.9c-3.07,3.16-10.49,11.8-13.08,23.86c-3.03,14.07,1.41,27.1,13.19,38.71
	c1.34,1.32,3.13,2.06,5.01,2.06c1.93,0,3.73-0.76,5.09-2.13c2.77-2.81,2.73-7.34-0.07-10.1c-8.18-8.06-11.21-16.41-9.25-25.53
	c1.87-8.67,7.63-15.13,9.36-16.9c3.07-3.16,10.49-11.8,13.08-23.86c3.03-14.07-1.41-27.1-13.19-38.71
	C108.83,16.73,107.05,16,105.16,16z"/>
<path d="M174.15,151.28c-6.12,0-11.89-2.36-16.25-6.66c-19.84-19.56-20.52-39.87-17.6-53.47c3.46-16.11,13.22-27.5,17.25-31.65
	c1.54-1.58,4.36-5.28,5.18-9.11c0.35-1.61,1.06-4.95-4.84-10.77c-4.4-4.34-6.85-10.13-6.9-16.32c-0.04-6.18,2.32-12.01,6.66-16.41
	C162,2.49,167.8,0.04,173.98,0c6.17-0.01,12.01,2.32,16.41,6.66c19.84,19.56,20.52,39.87,17.6,53.46
	c-3.47,16.12-13.22,27.51-17.26,31.65c-1.54,1.58-4.36,5.28-5.18,9.11c-0.34,1.6-1.06,4.95,4.84,10.77
	c9.09,8.96,9.19,23.64,0.23,32.73C186.25,148.83,180.4,151.28,174.15,151.28z M174.15,16c-0.02,0-0.03,0-0.05,0
	c-1.91,0.01-3.7,0.77-5.04,2.13s-2.07,3.16-2.06,5.07s0.77,3.7,2.13,5.04c8.18,8.07,11.21,16.42,9.25,25.53
	c-1.86,8.67-7.63,15.13-9.36,16.9c-3.07,3.16-10.49,11.8-13.08,23.86c-3.03,14.07,1.41,27.1,13.19,38.71
	c1.34,1.32,3.13,2.06,5.01,2.06c1.93,0,3.73-0.75,5.08-2.13c2.77-2.81,2.73-7.34-0.07-10.1c-8.18-8.06-11.21-16.42-9.25-25.53
	c1.87-8.67,7.63-15.13,9.36-16.9c3.07-3.16,10.49-11.8,13.08-23.86c3.03-14.07-1.41-27.1-13.19-38.71
	C177.82,16.73,176.04,16,174.15,16z"/>
<path d="M243.14,151.28c-6.12,0-11.89-2.36-16.25-6.66c-19.84-19.56-20.52-39.87-17.6-53.47c3.46-16.11,13.22-27.5,17.25-31.65
	c1.54-1.58,4.36-5.28,5.19-9.11c0.35-1.61,1.06-4.95-4.84-10.77c-4.4-4.34-6.85-10.13-6.9-16.32c-0.04-6.18,2.32-12.01,6.66-16.41
	c4.34-4.4,10.13-6.85,16.32-6.9c0.06,0,0.11,0,0.17,0c6.12,0,11.88,2.36,16.24,6.66c19.84,19.56,20.52,39.87,17.6,53.46
	c-3.47,16.12-13.22,27.51-17.26,31.65c-1.54,1.58-4.36,5.28-5.18,9.11c-0.34,1.6-1.06,4.95,4.84,10.77
	c9.09,8.96,9.19,23.64,0.23,32.73C255.24,148.83,249.38,151.28,243.14,151.28z M243.14,16c-0.02,0-0.03,0-0.05,0
	c-1.91,0.01-3.7,0.77-5.04,2.13c-1.34,1.36-2.07,3.16-2.06,5.07s0.77,3.7,2.13,5.04c8.18,8.07,11.21,16.42,9.25,25.53
	c-1.87,8.68-7.63,15.13-9.36,16.9c-3.07,3.16-10.49,11.8-13.08,23.86c-3.03,14.07,1.41,27.1,13.19,38.71
	c1.34,1.32,3.13,2.06,5.01,2.06c1.93,0,3.73-0.76,5.09-2.13c2.77-2.81,2.73-7.34-0.07-10.1c-8.18-8.06-11.21-16.41-9.25-25.53
	c1.87-8.67,7.63-15.13,9.36-16.9c3.07-3.16,10.49-11.8,13.08-23.86c3.03-14.07-1.41-27.1-13.19-38.71
	C246.81,16.73,245.03,16,243.14,16z"/>
</svg>
